<svg width="152" height="145" viewBox="0 0 152 145" fill="none" xmlns="http://www.w3.org/2000/svg">
<path d="M34.6058 114.17C34.8006 114.098 34.9221 114.067 35.1243 114.144C35.1959 114.171 35.2404 114.203 35.3026 114.242C34.4333 114.844 33.5109 115.372 32.6356 115.969C30.9127 117.17 29.2264 118.42 27.5767 119.718C26.8181 120.31 26.0715 120.916 25.3367 121.536C24.602 122.156 23.8797 122.79 23.1698 123.439C22.46 124.087 21.7633 124.749 21.0795 125.424C20.3957 126.099 19.7253 126.787 19.0684 127.488C18.4117 128.189 17.769 128.903 17.1403 129.629C16.5115 130.355 15.8972 131.093 15.2975 131.842C14.6978 132.592 14.1129 133.353 13.5431 134.125C12.9732 134.898 12.4188 135.681 11.8797 136.475C10.3425 138.706 8.89413 140.991 7.69243 143.42L42.0662 143.401C42.2124 142.937 42.34 142.454 42.5142 142C43.1557 139.352 44.0443 136.794 44.9399 134.224C45.4739 132.645 46.0401 131.078 46.6383 129.522C47.2365 127.966 47.8663 126.423 48.5278 124.892C49.1892 123.362 49.8817 121.845 50.6053 120.343C51.3289 118.84 52.083 117.353 52.8675 115.881L53.411 115.943C52.1628 117.714 51.2452 119.898 50.3564 121.867C48.1868 126.643 46.2774 131.519 44.6283 136.495C44.1924 137.826 43.7773 139.163 43.3828 140.507C43.1625 141.248 42.9843 142.062 42.673 142.768L42.5944 143.178C42.697 143.326 42.7634 143.386 42.9523 143.406C43.5934 143.475 44.3726 143.362 45.0338 143.366L51.2309 143.403L73.0298 143.395L98.7047 143.41L106.278 143.42C107.546 143.422 108.895 143.514 110.155 143.391C106.971 134.656 103.427 126.066 99.5233 117.623C99.7761 117.566 99.796 117.533 100.021 117.651C102.314 122.548 104.456 127.509 106.448 132.534C107.87 136.147 109.175 139.81 110.609 143.417C118.427 143.508 126.259 143.392 134.078 143.399L140.483 143.412C141.69 143.416 142.916 143.377 144.12 143.451C144.118 143.43 144.117 143.409 144.114 143.389C143.984 142.696 142.909 141.172 142.505 140.518C138.042 133.288 130.852 125.207 124.149 119.94C122.41 118.574 120.606 117.225 118.683 116.122C117.732 115.577 116.651 115.198 115.736 114.614L115.61 114.532C115.856 114.451 116.056 114.391 116.308 114.497C121.813 116.684 128.165 122.534 132.269 126.819C133.099 127.7 133.917 128.591 134.723 129.494C135.117 129.939 135.493 130.435 135.922 130.846C137.947 133.35 140.024 135.845 141.798 138.536C142.492 139.589 143.131 140.688 143.756 141.782C144.043 142.284 144.342 143.072 144.72 143.476C145.582 143.39 150.008 143.272 150.6 143.474C150.848 143.559 151.077 143.749 151.161 144.003C151.219 144.179 151.184 144.39 151.087 144.546C150.961 144.747 150.758 144.838 150.536 144.895C149.884 145.062 148.994 144.926 148.308 144.925L143.466 144.928L121.534 144.945L40.7868 144.967L13.7208 144.953C10.1212 144.925 6.52171 144.925 2.92218 144.953C2.21562 144.962 0.868649 145.135 0.273317 144.756C0.131675 144.665 0.0514811 144.5 0.0182957 144.337C-0.0268667 144.115 0.00819666 143.863 0.161468 143.687C0.320956 143.504 0.560781 143.461 0.789843 143.431C1.56534 143.332 2.40397 143.417 3.18634 143.425L7.16031 143.435C9.64415 138.663 12.6624 134.405 16.0245 130.208C18.0604 127.764 20.2854 125.534 22.6047 123.359C26.0363 120.176 30.5765 116.547 34.6058 114.17Z" fill="#47273E"/>
<path d="M100.021 117.651C100.615 117.437 101.307 117.359 101.93 117.237L106.208 116.431C109.352 115.84 112.469 115.129 115.61 114.532L115.736 114.614C116.651 115.198 117.732 115.577 118.683 116.122C120.606 117.225 122.41 118.574 124.149 119.94C130.852 125.207 138.042 133.288 142.505 140.518C142.909 141.172 143.984 142.696 144.114 143.389C144.117 143.409 144.118 143.43 144.12 143.451C142.916 143.377 141.69 143.416 140.484 143.412L134.078 143.399C126.259 143.392 118.427 143.508 110.609 143.417C109.175 139.809 107.87 136.147 106.448 132.534C104.456 127.509 102.314 122.548 100.021 117.651Z" fill="#C7D2FE"/>
<path d="M112.427 117.514C112.965 117.481 113.395 117.562 113.9 117.727C114.122 117.949 114.305 118.169 114.418 118.466C114.588 118.912 114.602 119.394 114.382 119.825C114.109 120.358 113.67 120.545 113.123 120.718C112.755 120.738 112.444 120.721 112.106 120.561C112.052 120.535 111.999 120.507 111.947 120.476C111.895 120.445 111.845 120.412 111.797 120.376C111.749 120.341 111.702 120.303 111.658 120.263C111.613 120.222 111.571 120.18 111.531 120.136C111.49 120.091 111.452 120.045 111.416 119.997C111.381 119.949 111.347 119.9 111.317 119.848C111.286 119.797 111.258 119.744 111.232 119.69C111.206 119.636 111.183 119.581 111.163 119.525C111.026 119.127 111.049 118.702 111.252 118.331C111.507 117.866 111.942 117.668 112.427 117.514Z" fill="#FFFEFE"/>
<path d="M118.649 129.745C118.905 129.768 119.154 129.798 119.396 129.891C119.451 129.912 119.505 129.936 119.558 129.963C119.611 129.99 119.662 130.019 119.712 130.051C119.762 130.083 119.81 130.118 119.856 130.154C119.903 130.191 119.947 130.23 119.99 130.271C120.032 130.312 120.072 130.355 120.11 130.4C120.148 130.445 120.184 130.492 120.218 130.541C120.251 130.59 120.282 130.64 120.31 130.691C120.338 130.743 120.364 130.796 120.387 130.851C120.409 130.904 120.428 130.958 120.445 131.013C120.462 131.069 120.475 131.125 120.486 131.181C120.497 131.238 120.505 131.295 120.509 131.352C120.514 131.41 120.516 131.467 120.515 131.525C120.514 131.583 120.51 131.64 120.503 131.697C120.496 131.754 120.486 131.811 120.473 131.867C120.461 131.923 120.445 131.979 120.426 132.033C120.408 132.088 120.386 132.142 120.362 132.194C120.095 132.774 119.602 133.061 119.017 133.257C118.598 133.264 118.203 133.251 117.832 133.032C117.784 133.004 117.738 132.974 117.693 132.942C117.649 132.909 117.606 132.874 117.564 132.837C117.523 132.801 117.484 132.762 117.446 132.721C117.409 132.681 117.374 132.638 117.34 132.594C117.307 132.55 117.276 132.504 117.248 132.457C117.219 132.41 117.193 132.361 117.169 132.312C117.145 132.262 117.124 132.211 117.106 132.159C117.087 132.107 117.071 132.055 117.057 132.001C116.929 131.505 117.02 130.945 117.311 130.52C117.642 130.037 118.088 129.85 118.649 129.745Z" fill="#FFFEFE"/>
<path d="M35.3026 114.242C36.0184 114.133 38.3209 114.539 39.2004 114.618C43.758 115.028 48.3208 115.358 52.8675 115.881C52.083 117.353 51.329 118.84 50.6053 120.343C49.8817 121.845 49.1892 123.362 48.5278 124.892C47.8664 126.423 47.2365 127.966 46.6384 129.522C46.0401 131.078 45.4739 132.645 44.9399 134.224C44.0443 136.794 43.1557 139.352 42.5142 142C42.34 142.454 42.2124 142.937 42.0662 143.401L7.69244 143.42C8.89414 140.991 10.3425 138.706 11.8797 136.475C12.4188 135.681 12.9732 134.898 13.5431 134.126C14.113 133.353 14.6978 132.592 15.2975 131.842C15.8973 131.093 16.5115 130.355 17.1403 129.629C17.769 128.903 18.4117 128.189 19.0685 127.488C19.7253 126.787 20.3957 126.099 21.0795 125.424C21.7633 124.749 22.4601 124.087 23.1698 123.439C23.8797 122.79 24.602 122.156 25.3368 121.536C26.0715 120.916 26.8181 120.31 27.5767 119.718C29.2263 118.42 30.9126 117.17 32.6356 115.969C33.511 115.372 34.4333 114.844 35.3026 114.242Z" fill="#C7D2FE"/>
<path d="M33.5958 132.245C34.012 132.216 34.3975 132.202 34.7782 132.399C34.8308 132.426 34.8819 132.455 34.9315 132.488C34.9809 132.52 35.0286 132.555 35.0746 132.592C35.1204 132.629 35.1643 132.668 35.2062 132.71C35.2481 132.752 35.2877 132.795 35.325 132.841C35.3624 132.886 35.3973 132.934 35.4298 132.983C35.4623 133.032 35.4921 133.083 35.5193 133.135C35.5465 133.187 35.571 133.241 35.5926 133.295C35.6143 133.35 35.6331 133.406 35.6491 133.462C35.7806 133.925 35.7268 134.424 35.474 134.837C35.1659 135.341 34.7301 135.536 34.1726 135.67C33.8297 135.684 33.5378 135.688 33.2179 135.551C32.7516 135.35 32.3713 135.006 32.1875 134.529C32.02 134.094 32.0366 133.625 32.2515 133.21C32.5501 132.634 33.0154 132.444 33.5958 132.245Z" fill="#FFFEFE"/>
<path d="M37.9188 121.668C38.206 121.639 38.5078 121.619 38.7893 121.693C39.2891 121.825 39.727 122.142 39.9716 122.598C39.9989 122.65 40.0235 122.702 40.0453 122.756C40.0671 122.81 40.086 122.864 40.1022 122.92C40.1183 122.976 40.1315 123.032 40.1417 123.089C40.1519 123.146 40.1592 123.204 40.1635 123.262C40.1677 123.32 40.1689 123.377 40.1671 123.435C40.1653 123.493 40.1605 123.551 40.1526 123.609C40.1448 123.666 40.134 123.723 40.1202 123.779C40.1066 123.836 40.0899 123.891 40.0704 123.946C39.8526 124.562 39.4174 124.871 38.8424 125.134C38.5455 125.186 38.1867 125.222 37.8916 125.149C37.4111 125.031 36.9715 124.707 36.7443 124.268C36.7166 124.216 36.6917 124.162 36.6696 124.108C36.6474 124.053 36.6281 123.997 36.6116 123.94C36.5951 123.883 36.5816 123.826 36.571 123.768C36.5604 123.709 36.5527 123.651 36.5481 123.592C36.5435 123.533 36.5419 123.474 36.5434 123.415C36.5447 123.356 36.5492 123.297 36.5566 123.238C36.564 123.18 36.5744 123.121 36.5877 123.064C36.6011 123.006 36.6173 122.949 36.6365 122.893C36.8615 122.248 37.3218 121.946 37.9188 121.668Z" fill="#FFFEFE"/>
<path d="M13.6685 41.21C13.8578 41.4607 14.0515 41.708 14.2497 41.9518C14.4479 42.1956 14.6504 42.4358 14.8572 42.6723C15.0642 42.909 15.2753 43.1418 15.4907 43.3709C15.706 43.5999 15.9254 43.8251 16.1488 44.0464C16.3723 44.2675 16.5997 44.4847 16.831 44.6979C17.0623 44.911 17.2975 45.12 17.5365 45.3247C17.7754 45.5294 18.018 45.7298 18.2642 45.926C18.5103 46.1221 18.76 46.3137 19.0131 46.5009C19.2662 46.688 19.5226 46.8706 19.7823 47.0487C20.0421 47.2268 20.3049 47.4002 20.5709 47.5688C20.8369 47.7375 21.1059 47.9014 21.3779 48.0605C21.6498 48.2195 21.9245 48.3737 22.2021 48.5231C22.4796 48.6724 22.7597 48.8166 23.0425 48.9559C23.3253 49.0952 23.6105 49.2294 23.8981 49.3586C24.1857 49.4877 24.4756 49.6116 24.7677 49.7304C25.0598 49.8492 25.3539 49.9628 25.6501 50.0711C26.9842 50.5522 28.3671 50.8215 29.7163 51.2414L29.7774 51.2771C29.1713 52.6429 28.7082 54.0378 28.1832 55.4329C26.9294 58.7085 25.8072 62.0279 24.8165 65.3911C23.3702 70.3991 22.2156 75.4954 20.8835 80.5344C19.8213 84.5522 18.7131 88.5948 17.425 92.5459C16.2276 96.1673 14.9071 99.7438 13.4636 103.276C12.0201 106.808 10.4569 110.286 8.77404 113.712C8.51449 114.235 8.2565 114.757 8.02981 115.295C7.91586 115.566 7.84712 115.871 7.71209 116.127C7.46107 115.536 7.21458 114.943 6.97262 114.348C6.72714 113.759 6.48889 113.166 6.25787 112.57C6.02686 111.975 5.80315 111.377 5.58674 110.776C5.37034 110.175 5.1613 109.572 4.95963 108.966C4.75796 108.36 4.56372 107.752 4.37691 107.142C4.19009 106.531 4.01076 105.918 3.83892 105.303C3.66707 104.689 3.50276 104.072 3.34598 103.453C3.18919 102.834 3.03999 102.214 2.89837 101.591C2.75675 100.969 2.62274 100.345 2.49635 99.7193C2.36998 99.0936 2.25125 98.4666 2.14018 97.8381C2.02911 97.2096 1.92574 96.5799 1.83006 95.9489C1.73437 95.3181 1.6464 94.6861 1.56616 94.0531C1.48591 93.42 1.4134 92.7861 1.34863 92.1512C1.28387 91.5164 1.22686 90.8809 1.17762 90.2447C1.12838 89.6085 1.08691 88.9719 1.05321 88.3347C1.01951 87.6976 0.993609 87.0601 0.975494 86.4223C0.957368 85.7845 0.947037 85.1466 0.944502 84.5085C0.941956 83.8705 0.947205 83.2325 0.96025 82.5946C0.973295 81.9567 0.994125 81.319 1.02274 80.6815C1.05135 80.0442 1.08775 79.4072 1.13192 78.7706C1.17609 78.1341 1.22804 77.4982 1.28775 76.8629C1.34746 76.2276 1.41492 75.5931 1.49013 74.9594C1.56532 74.3258 1.64825 73.6931 1.73891 73.0614C1.82958 72.4298 1.92793 71.7993 2.03398 71.17C2.14005 70.5406 2.25377 69.9126 2.37516 69.2861C2.49657 68.6596 2.6256 68.0346 2.76226 67.411C2.89892 66.7875 3.04317 66.1658 3.19503 65.5458C3.34688 64.9258 3.50627 64.3077 3.67321 63.6916C3.84017 63.0754 4.01461 62.4614 4.19656 61.8494C4.3785 61.2374 4.56789 60.6277 4.76472 60.0202C4.96156 59.4128 5.16578 58.8079 5.37739 58.2053C5.58901 57.6028 5.80795 57.0029 6.03422 56.4057C6.26048 55.8084 6.49401 55.214 6.73479 54.6224C8.01398 51.4826 9.50713 48.5499 11.1673 45.5961C11.9378 44.2255 13.0287 42.7389 13.6212 41.3244L13.6685 41.21Z" fill="#A5B4FC"/>
<path d="M53.411 115.943C55.6562 116.153 57.9033 116.343 60.1522 116.512C61.4375 116.611 62.7971 116.634 64.0626 116.863C65.0018 117.101 66.1435 117.077 67.1161 117.134C66.7801 117.965 66.8333 118.541 67.0351 119.399C68.1306 119.104 74.1071 117.328 74.4445 117.342L74.5267 117.423C74.4877 117.615 74.4426 117.679 74.2702 117.783C73.8716 118.022 73.2894 118.128 72.8431 118.254C71.78 118.555 67.7766 119.475 67.1295 119.953C67.3761 120.714 67.742 121.264 68.0636 121.971C68.2169 122.158 68.2426 122.192 68.469 122.274C68.6232 122.247 68.7707 122.222 68.9218 122.182C69.2211 122.871 69.5119 123.628 70.2665 123.938C70.7387 124.132 71.2711 124.104 71.7686 124.053C72.4499 123.895 73.2466 123.873 73.9467 123.771C75.3628 123.557 76.7681 123.287 78.1625 122.962C80.0842 122.507 81.9815 121.926 83.8815 121.389C86.5856 120.626 89.2852 119.897 92.0213 119.253C93.6522 118.876 95.2893 118.527 96.9325 118.206C97.7673 118.036 98.7345 117.934 99.5233 117.623C103.427 126.066 106.971 134.656 110.155 143.391C108.895 143.514 107.546 143.422 106.278 143.42L98.7046 143.41L73.0298 143.395L51.2309 143.403L45.0338 143.366C44.3726 143.362 43.5934 143.475 42.9523 143.406C42.7634 143.386 42.697 143.326 42.5944 143.178L42.673 142.768C42.9843 142.062 43.1625 141.248 43.3828 140.507C43.7773 139.163 44.1924 137.826 44.6283 136.495C46.2774 131.519 48.1868 126.643 50.3564 121.867C51.2451 119.898 52.1628 117.714 53.411 115.943Z" fill="#C7D2FE"/>
<path d="M93.1222 127.708C93.5196 127.674 93.9708 127.605 94.3566 127.729C94.7953 127.871 95.1718 128.171 95.3724 128.586C95.3972 128.638 95.4193 128.691 95.4387 128.745C95.458 128.799 95.4745 128.853 95.4882 128.909C95.5018 128.964 95.5125 129.021 95.5202 129.077C95.5279 129.134 95.5327 129.191 95.5344 129.248C95.5362 129.305 95.535 129.362 95.5308 129.419C95.5266 129.476 95.5194 129.533 95.5092 129.589C95.4991 129.646 95.4861 129.701 95.4701 129.756C95.4542 129.811 95.4354 129.865 95.4137 129.918C95.1876 130.465 94.7697 130.755 94.2438 130.986C93.8858 131.017 93.5176 131.034 93.1703 130.924C92.7051 130.776 92.2828 130.435 92.0614 130.002C91.8706 129.629 91.8276 129.19 91.9675 128.793C92.1694 128.221 92.5945 127.951 93.1222 127.708Z" fill="#FFFEFE"/>
<path d="M76.9 134.196C77.2001 134.176 77.5366 134.155 77.8279 134.241C78.3186 134.386 78.7537 134.748 78.9694 135.209C78.9947 135.262 79.0173 135.317 79.0369 135.372C79.0566 135.428 79.0733 135.484 79.0871 135.541C79.1009 135.599 79.1117 135.656 79.1195 135.715C79.1271 135.773 79.1318 135.832 79.1333 135.89C79.1349 135.949 79.1334 136.008 79.1288 136.066C79.1241 136.125 79.1165 136.183 79.1057 136.241C79.0951 136.299 79.0814 136.356 79.0647 136.413C79.048 136.469 79.0284 136.525 79.0058 136.579C78.7537 137.18 78.2882 137.471 77.7056 137.711C77.375 137.716 77.0417 137.7 76.711 137.693C76.2035 137.385 75.8172 137.104 75.6027 136.53C75.5823 136.477 75.5646 136.422 75.5497 136.367C75.5349 136.312 75.5228 136.256 75.5136 136.2C75.5044 136.144 75.4981 136.087 75.4946 136.03C75.4912 135.973 75.4906 135.916 75.4931 135.859C75.4954 135.802 75.5006 135.746 75.5087 135.689C75.5169 135.633 75.5279 135.577 75.5417 135.521C75.5555 135.466 75.5722 135.411 75.5915 135.358C75.611 135.304 75.6331 135.251 75.6578 135.2C75.9243 134.65 76.3439 134.402 76.9 134.196Z" fill="#FFFEFE"/>
<path d="M67.1295 119.953C67.3761 120.714 67.7421 121.264 68.0637 121.971C68.2169 122.158 68.2426 122.192 68.4691 122.274C68.6232 122.247 68.7708 122.222 68.9218 122.182C69.2211 122.871 69.512 123.628 70.2666 123.938C70.7387 124.132 71.2711 124.104 71.7687 124.053C71.1794 126.431 70.6064 128.813 70.0496 131.199C69.7673 132.392 69.5437 133.631 69.1687 134.798C69.0504 135.165 68.8639 135.776 68.5355 136C68.1825 136.24 67.6337 136.179 67.2516 136.061C66.6138 135.864 65.9973 135.474 65.4134 135.153C65.0568 135.834 64.6699 137.084 64.0612 137.544C63.2686 137.724 62.1471 136.896 61.497 136.492C61.0247 136.199 60.5159 135.917 60.0847 135.567C60.4066 135.224 60.592 134.647 60.784 134.215C62.4439 130.618 64.0011 126.955 65.5813 123.322C66.0555 122.232 66.8298 121.094 67.1295 119.953Z" fill="#F9A8D4"/>
<path d="M64.0626 116.863C65.0019 117.101 66.1435 117.077 67.1161 117.134C66.7801 117.965 66.8333 118.541 67.0351 119.399C68.1306 119.104 74.1071 117.328 74.4445 117.342L74.5267 117.423C74.4877 117.615 74.4426 117.679 74.2703 117.783C73.8717 118.022 73.2894 118.128 72.8431 118.254C71.78 118.555 67.7766 119.475 67.1295 119.953C66.8298 121.094 66.0555 122.232 65.5813 123.322C64.0011 126.955 62.4439 130.618 60.784 134.215C60.592 134.647 60.4066 135.224 60.0847 135.567L59.8203 135.329C59.7722 135.303 59.7255 135.276 59.6737 135.256C59.4071 135.155 59.2396 135.081 59.0074 134.909C58.5835 135.664 58.1669 136.461 57.5772 137.104C57.3968 137.046 57.2307 136.974 57.0617 136.889C55.8656 136.282 55.291 135.405 54.8708 134.169C55.2678 133.011 56.0114 131.924 56.5955 130.851C57.2053 129.731 57.7502 128.576 58.3037 127.428C57.2353 128.372 56.071 129.249 54.9208 130.093C54.1286 129.149 53.4383 128.352 53.1276 127.132C54.1176 125.759 55.5826 124.591 56.8209 123.437C59.2012 121.209 61.6152 119.018 64.0626 116.863Z" fill="#F9A8D4"/>
<path d="M67.0351 119.399C68.1306 119.104 74.1071 117.328 74.4445 117.342L74.5267 117.423C74.4877 117.615 74.4426 117.679 74.2703 117.783C73.8717 118.022 73.2894 118.128 72.8431 118.254C71.78 118.555 67.7766 119.475 67.1295 119.953C66.8298 121.094 66.0555 122.232 65.5813 123.322C64.0011 126.955 62.4439 130.618 60.784 134.215C60.592 134.647 60.4066 135.224 60.0847 135.567L59.8203 135.329C60.1287 134.878 60.3371 134.258 60.5653 133.756C61.3237 132.095 66.4573 119.944 67.0351 119.399Z" fill="#47273E"/>
<path d="M13.6685 41.2099C10.9239 37.339 9.17624 32.9515 8.91092 28.1924C8.53803 21.504 11.0718 15.0506 15.5677 10.1035C20.0154 5.20933 26.3053 2.04419 32.9746 1.73714C33.161 1.72731 33.3475 1.71945 33.5341 1.71355C33.7209 1.70765 33.9075 1.70372 34.0942 1.70176C34.2809 1.69981 34.4676 1.69982 34.6544 1.70179C34.8411 1.70376 35.0278 1.70771 35.2144 1.71363C35.401 1.71953 35.5875 1.72741 35.774 1.73725C35.9605 1.74711 36.1468 1.75892 36.333 1.77268C36.5192 1.78646 36.7053 1.8022 36.8912 1.81989C37.077 1.83759 37.2626 1.85725 37.4481 1.87887C37.6335 1.90047 37.8187 1.92404 38.0037 1.94956C38.1886 1.97508 38.3732 2.00254 38.5576 2.03194C38.742 2.06136 38.926 2.09271 39.1097 2.12599C39.2934 2.15929 39.4767 2.19452 39.6596 2.23168C39.8426 2.26883 40.0251 2.30791 40.2072 2.34892C40.3892 2.38992 40.5708 2.43284 40.7521 2.47768C40.9332 2.52251 41.1139 2.56925 41.2941 2.6179C41.4742 2.66654 41.6539 2.71707 41.833 2.7695C42.0121 2.82193 42.1905 2.87625 42.3684 2.93244C42.5463 2.98864 42.7236 3.04671 42.9004 3.10664C43.077 3.16658 43.253 3.22837 43.4284 3.29202C43.6037 3.35567 43.7784 3.42116 43.9524 3.48848C44.1263 3.55581 44.2995 3.62497 44.4721 3.69595C44.6445 3.76692 44.8162 3.83972 44.9871 3.91433C45.1581 3.98893 45.3282 4.06532 45.4974 4.14351C45.6667 4.2217 45.8351 4.30167 46.0027 4.38341C46.1703 4.46514 46.3369 4.54864 46.5026 4.6339C46.6684 4.71915 46.8333 4.80614 46.9972 4.89487C47.1612 4.9836 47.3241 5.07405 47.486 5.16621C47.648 5.25838 47.809 5.35224 47.9689 5.4478C48.1289 5.54337 48.2879 5.64061 48.4458 5.73952C48.6037 5.83843 48.7605 5.93899 48.9162 6.04121C49.0719 6.14343 49.2265 6.24728 49.38 6.35276C49.5336 6.45824 49.6859 6.56532 49.8371 6.67401C50.9611 7.49383 51.9422 8.44435 52.9709 9.37311C54.2475 10.6884 55.3492 12.1619 56.4786 13.6006C57.1855 14.5013 57.9438 15.5687 58.833 16.2903L58.7741 16.6576C55.3129 16.7659 49.0031 22.351 46.6519 24.8336C45.9175 25.6178 45.1983 26.4154 44.4942 27.2266C43.79 28.0378 43.1016 28.8618 42.4289 29.6988C41.7562 30.5357 41.0997 31.3849 40.4592 32.2466C39.8188 33.1081 39.1951 33.9814 38.5878 34.8663C37.9807 35.7512 37.3906 36.6472 36.8175 37.5542C36.2445 38.4612 35.6889 39.3786 35.1508 40.3065C34.6126 41.2344 34.0923 42.1719 33.5898 43.1193C33.0874 44.0666 32.6032 45.023 32.1371 45.9885C31.8679 46.552 29.8705 51.0995 29.7163 51.2414C28.3671 50.8215 26.9842 50.5522 25.6501 50.0711C25.3539 49.9627 25.0597 49.8491 24.7677 49.7304C24.4756 49.6116 24.1857 49.4876 23.8981 49.3585C23.6105 49.2294 23.3253 49.0952 23.0425 48.9558C22.7597 48.8166 22.4796 48.6723 22.202 48.5229C21.9245 48.3737 21.6498 48.2195 21.3779 48.0604C21.1059 47.9013 20.8369 47.7375 20.5709 47.5688C20.3049 47.4001 20.0421 47.2267 19.7823 47.0487C19.5226 46.8706 19.2662 46.688 19.0131 46.5008C18.7599 46.3136 18.5103 46.1219 18.2641 45.9259C18.018 45.7298 17.7754 45.5293 17.5365 45.3245C17.2975 45.1199 17.0623 44.9109 16.831 44.6978C16.5997 44.4847 16.3723 44.2675 16.1488 44.0463C15.9254 43.825 15.706 43.5999 15.4906 43.3709C15.2753 43.1418 15.0642 42.9089 14.8572 42.6723C14.6504 42.4358 14.4479 42.1956 14.2497 41.9518C14.0515 41.7079 13.8578 41.4607 13.6685 41.2099Z" fill="#BE185D"/>
<path d="M29.7163 51.2414C29.8705 51.0995 31.868 46.552 32.1372 45.9885C32.6032 45.023 33.0874 44.0666 33.5899 43.1193C34.0923 42.1719 34.6126 41.2343 35.1508 40.3065C35.6889 39.3786 36.2445 38.4611 36.8175 37.5542C37.3906 36.6472 37.9808 35.7512 38.5879 34.8662C39.1951 33.9813 39.8189 33.1081 40.4592 32.2466C41.0997 31.3849 41.7562 30.5356 42.4289 29.6987C43.1016 28.8618 43.7901 28.0377 44.4942 27.2265C45.1983 26.4154 45.9175 25.6177 46.6519 24.8335C49.0032 22.351 55.3129 16.7659 58.7741 16.6576C57.504 25.1379 54.3295 31.1257 47.25 36.3278C43.4715 39.1042 37.9185 42.1816 37.1738 47.2609C36.9573 48.7377 37.358 50.0908 37.9854 51.42C38.411 52.2796 39.454 53.9112 39.0941 54.875C38.3188 56.9505 31.2383 57.0981 30.0752 64.5448C30.0367 64.7854 30.0064 65.027 29.9844 65.2697C29.9625 65.5123 29.9487 65.7554 29.9433 65.999C29.9379 66.2425 29.9408 66.486 29.9519 66.7294C29.9631 66.9727 29.9826 67.2154 30.0103 67.4574C30.0381 67.6995 30.0741 67.9403 30.1183 68.18C30.1624 68.4196 30.2147 68.6575 30.2751 68.8936C30.3356 69.1298 30.404 69.3637 30.4804 69.5952C30.5568 69.8267 30.6409 70.0554 30.7329 70.2813C31.4384 72.0237 32.6855 73.6534 34.1751 74.8075L34.0145 75.5269C36.1543 75.6545 38.2972 76.0325 40.4237 76.2993C43.6599 76.7054 46.9002 77.0655 50.1281 77.5349C50.6208 81.6246 52.0257 85.6653 53.0567 89.6481C54.1717 93.9548 55.0767 98.3285 56.243 102.617C54.2666 102.091 52.2821 101.596 50.2895 101.133C48.5361 100.729 46.7269 100.368 45.0051 99.8507C45.6247 97.7256 46.4151 95.6919 47.1648 93.6122C48.1348 90.9215 49.0895 88.2288 50.1764 85.5814C47.9124 86.2074 45.6497 86.8734 43.3607 87.4018C42.2141 87.67 41.0612 87.908 39.902 88.1158C38.7427 88.3235 37.5787 88.5007 36.4101 88.6475C35.2414 88.7942 34.0696 88.9103 32.8948 88.9957C31.7199 89.081 30.5436 89.1354 29.3659 89.1591C28.6907 91.427 28.0038 93.6914 27.3052 95.9523C26.8991 97.2708 26.3844 98.6235 26.0877 99.9684C25.4764 102.741 26.0587 105.495 27.2465 108.026C27.2495 108.033 27.2531 108.038 27.2564 108.044C28.599 110.467 30.1328 112.116 32.6566 113.324C33.2907 113.628 33.988 113.845 34.6058 114.17C30.5765 116.547 26.0363 120.176 22.6048 123.359C20.2854 125.534 18.0604 127.764 16.0245 130.208C12.9343 126.384 9.60469 120.665 7.7121 116.127C7.84713 115.871 7.91587 115.566 8.02981 115.295C8.25651 114.757 8.5145 114.235 8.77405 113.712C10.4569 110.286 12.0201 106.807 13.4636 103.276C14.9071 99.7437 16.2276 96.1672 17.425 92.5459C18.7131 88.5947 19.8213 84.5521 20.8835 80.5343C22.2156 75.4953 23.3703 70.399 24.8165 65.391C25.8072 62.0279 26.9294 58.7085 28.1832 55.4328C28.7082 54.0377 29.1713 52.6428 29.7774 51.2771L29.7163 51.2414Z" fill="#C7D2FE"/>
<path d="M35.9211 80.634C36.1958 80.6184 36.5543 80.5598 36.7702 80.7421C36.7192 80.9611 36.6075 81.038 36.4546 81.2002C36.4318 81.2049 36.4091 81.2107 36.3862 81.2143C36.1383 81.254 36.0568 81.213 35.8606 81.0757C35.8112 80.8432 35.8106 80.8448 35.9211 80.634Z" fill="#F8E5CD"/>
<path d="M37.4965 80.332C37.284 80.3402 37.0447 80.3723 36.8418 80.3007C36.7231 80.2589 36.7594 80.2544 36.7031 80.1164C36.8397 79.8467 37.079 79.6658 37.3019 79.467C37.4181 79.6723 37.5267 79.8747 37.6231 80.0898C37.5855 80.1853 37.5604 80.2503 37.4965 80.332Z" fill="#F8E5CD"/>
<path d="M36.6149 81.5247L36.7826 81.5391C36.5638 81.8791 36.337 82.1848 36.0153 82.4347C35.8606 82.3556 35.7661 82.2651 35.6457 82.1415C35.6264 82.0461 35.5799 81.9695 35.6422 81.8831C35.8432 81.6043 36.3042 81.5698 36.6149 81.5247Z" fill="#F8E5CD"/>
<path d="M38.3936 82.8685C38.2107 83.0577 38.0103 83.3016 37.7845 83.4402C37.627 83.5368 37.481 83.5213 37.313 83.4818L37.2475 83.3148C37.3498 82.9021 37.6197 82.6988 37.9224 82.4208L38.3936 82.8685Z" fill="#F8E5CD"/>
<path d="M38.6874 79.5309C38.6819 79.2807 38.6292 79.0385 38.6063 78.79C38.5869 78.5785 38.5508 78.4543 38.6925 78.2815C38.8823 78.2461 39.0644 78.2342 39.2413 78.3334C39.404 78.4246 39.5029 78.5689 39.5144 78.7548C39.5307 79.0164 39.3551 79.1994 39.1944 79.3821C39.0018 79.413 38.8654 79.4441 38.6874 79.5309Z" fill="#F8E5CD"/>
<path d="M41.4799 80.9606C41.7886 80.9314 41.9828 80.9179 42.2714 81.0391C42.3966 81.1725 42.4838 81.2299 42.4646 81.4299C42.4302 81.7875 42.0185 82.1147 41.7292 82.2786C41.4007 82.4649 40.9424 82.5033 40.5727 82.5666C40.7556 82.9379 40.9726 83.3037 41.0281 83.7176L40.9461 83.8463L40.6527 83.8694C40.3321 83.5941 40.3287 82.9174 40.0163 82.5309C40.1454 82.325 40.2443 82.2274 40.442 82.0846C40.7231 82.0245 40.9729 82.0861 41.252 82.1357C41.2003 82.0255 41.1502 81.9154 41.1032 81.8033L41.3507 81.652C41.2817 81.4751 40.8992 81.3621 40.7157 81.2763L40.6781 81.1564C40.8675 80.9905 41.2317 80.9916 41.4799 80.9606Z" fill="#F8E5CD"/>
<path d="M37.3019 79.467C37.3865 79.4267 37.4724 79.389 37.5552 79.3453C37.7955 79.2182 37.8807 79.1847 38.1476 79.1794C38.3797 79.2775 38.5064 79.3566 38.6874 79.5309C38.8654 79.4441 39.0017 79.413 39.1944 79.3821C39.9809 79.6281 40.2316 80.0696 40.6882 80.7039C41.0347 80.73 41.1975 80.7576 41.4798 80.9606C41.2316 80.9916 40.8674 80.9905 40.6781 81.1564L40.7156 81.2763C40.8991 81.3621 41.2816 81.4751 41.3506 81.652L41.1032 81.8033C41.1502 81.9154 41.2002 82.0255 41.252 82.1357C40.9728 82.0861 40.723 82.0245 40.442 82.0846C40.2443 82.2274 40.1453 82.325 40.0162 82.5309C39.9467 82.6525 39.8728 82.8722 39.733 82.9091C39.5678 82.953 39.4224 82.9152 39.259 82.8842L39.149 82.9865L39.2336 83.2688L39.1777 83.364L39.0889 83.3157L38.9987 82.9187C38.6989 82.8722 38.6487 83.1419 38.3936 82.8686L37.9224 82.4208C37.8872 82.386 37.8514 82.3517 37.8168 82.3165C37.4954 81.9896 36.9581 81.4097 37.0124 80.9289C37.0423 80.6621 37.3062 80.5044 37.4965 80.332C37.5604 80.2503 37.5855 80.1853 37.623 80.0898C37.5266 79.8747 37.4181 79.6722 37.3019 79.467Z" fill="#FFFEFE"/>
<path d="M27.2564 108.044C28.599 110.467 30.1328 112.116 32.6566 113.324C33.2907 113.628 33.988 113.845 34.6058 114.17C30.5765 116.547 26.0363 120.176 22.6048 123.359C22.5197 123.172 22.4088 122.965 22.4512 122.755C22.5468 122.284 22.8659 121.727 23.0406 121.269C23.4993 120.068 23.9502 118.855 24.3554 117.634C24.9711 115.778 25.6251 113.908 26.1728 112.034C26.5583 110.714 26.7999 109.341 27.2564 108.044Z" fill="#A5B4FC"/>
<path d="M99.0088 84.3065C99.8967 84.7775 100.718 85.3565 101.619 85.8127C104.252 87.1451 107.525 88.2419 110.469 88.5669C112.712 89.2304 118.313 89.343 120.385 88.5536C121.098 90.6453 121.693 92.7695 122.383 94.8669C123.969 99.6854 125.577 103.239 123.12 108.194C122.011 110.431 120.355 112.385 118.108 113.547C117.591 113.814 116.703 114.096 116.308 114.497C116.056 114.391 115.856 114.451 115.61 114.532C112.469 115.129 109.352 115.84 106.208 116.431L101.93 117.237C101.307 117.359 100.615 117.437 100.021 117.651C99.796 117.533 99.7761 117.566 99.5233 117.623C98.7345 117.934 97.7674 118.036 96.9326 118.206C95.2894 118.527 93.6523 118.876 92.0214 119.253C89.2853 119.897 86.5856 120.626 83.8816 121.389C81.9815 121.926 80.0843 122.507 78.1626 122.962C76.7682 123.287 75.3629 123.557 73.9468 123.771C73.2466 123.873 72.4499 123.895 71.7687 124.053C71.2711 124.104 70.7387 124.132 70.2666 123.938C69.512 123.628 69.2211 122.871 68.9218 122.182C68.7708 122.222 68.6232 122.247 68.4691 122.274C68.2426 122.192 68.2169 122.158 68.0637 121.971C67.7421 121.264 67.3762 120.714 67.1295 119.953C67.7766 119.475 71.78 118.555 72.8431 118.254C73.2894 118.128 73.8717 118.022 74.2703 117.783C74.4426 117.679 74.4877 117.615 74.5267 117.423L74.4445 117.342C74.1071 117.328 68.1306 119.104 67.0351 119.399C66.8333 118.541 66.7801 117.965 67.1161 117.134C66.1436 117.077 65.0019 117.101 64.0627 116.863C62.7971 116.634 61.4375 116.611 60.1522 116.512C57.9034 116.343 55.6563 116.153 53.411 115.943L52.8675 115.881C48.3208 115.358 43.7581 115.028 39.2005 114.618C38.3209 114.539 36.0184 114.133 35.3026 114.242C35.2405 114.203 35.196 114.171 35.1243 114.144C34.9222 114.067 34.8007 114.098 34.6058 114.17C33.988 113.845 33.2907 113.628 32.6567 113.324C30.1328 112.116 28.599 110.467 27.2564 108.044C27.2531 108.038 27.2495 108.033 27.2465 108.027C26.0587 105.495 25.4764 102.741 26.0878 99.9685C26.3844 98.6236 26.8992 97.2708 27.3052 95.9524C28.0038 93.6914 28.6907 91.427 29.3659 89.1592C30.5436 89.1355 31.7199 89.081 32.8948 88.9957C34.0696 88.9103 35.2414 88.7943 36.4101 88.6475C37.5788 88.5008 38.7427 88.3235 39.902 88.1158C41.0612 87.908 42.2141 87.67 43.3607 87.4019C45.6498 86.8735 47.9125 86.2074 50.1764 85.5815C49.0895 88.2289 48.1348 90.9215 47.1648 93.6123C46.4151 95.692 45.6247 97.7256 45.0051 99.8507C46.7269 100.368 48.5361 100.729 50.2896 101.133C52.2822 101.596 54.2666 102.091 56.243 102.617L56.7463 102.705C57.8499 103.059 59.0175 103.3 60.1429 103.584C62.8292 104.273 65.5276 104.913 68.2381 105.502C69.8528 105.949 71.5115 106.216 73.1289 106.651C74.4748 107.012 75.779 107.525 77.0858 108.004C79.5132 107.362 80.4242 106.984 82.8355 108.061C84.4713 107.91 86.1124 107.665 87.7429 107.46C87.9601 107.438 88.1671 107.411 88.3857 107.424C88.9092 107.076 91.2245 106.74 92.0206 106.533C92.6668 106.365 93.2858 106.153 93.9058 105.908L93.9898 105.981C97.872 104.206 101.868 102.686 105.764 100.948C104.912 98.1673 103.537 95.253 102.439 92.5229C101.345 89.8024 100.421 86.8797 99.0088 84.3065Z" fill="#FEB997"/>
<path d="M93.9058 105.908L93.9897 105.981C92.0658 106.838 89.8773 107.934 87.865 108.485L88.3856 107.424C88.9092 107.076 91.2244 106.74 92.0205 106.533C92.6667 106.365 93.2858 106.153 93.9058 105.908Z" fill="#FEF9F4"/>
<path d="M74.5344 114.297C74.5949 114.312 74.7082 114.384 74.7648 114.414L74.7694 114.546C74.2362 115.052 68.8126 116.79 67.6782 117.199C67.5799 117.183 67.5171 117.136 67.4323 117.086L67.4591 116.955C68.0324 116.431 73.3602 114.727 74.5344 114.297Z" fill="#47273E"/>
<path d="M68.0637 121.971C69.6571 121.358 71.3991 120.99 73.046 120.533C73.7714 120.332 74.4823 120.027 75.2142 119.862C75.4485 119.81 75.6273 119.775 75.8626 119.829L75.9279 119.926L75.8746 120.079C75.3547 120.314 74.7943 120.425 74.2513 120.594C72.4827 121.145 70.6824 121.609 68.9218 122.182C68.7708 122.222 68.6232 122.247 68.469 122.274C68.2426 122.192 68.2169 122.158 68.0637 121.971Z" fill="#47273E"/>
<path d="M79.2605 109.825C79.459 109.874 79.4871 109.845 79.621 110.011C79.4343 110.364 76.4779 111.572 75.963 111.76C74.626 112.246 71.778 112.938 70.4529 112.277C70.1845 112.143 69.9249 111.939 69.847 111.637C69.742 111.231 69.9309 110.86 70.1405 110.526C70.4526 110.286 70.6953 110.177 71.0854 110.106L71.1362 110.34L71.202 110.279C70.9255 110.514 70.502 110.806 70.3259 111.122C70.2188 111.314 70.2393 111.398 70.3021 111.6C70.4252 111.719 70.5347 111.792 70.6948 111.851C73.1784 112.774 77.0125 110.83 79.2605 109.825Z" fill="#47273E"/>
<path d="M87.7429 107.46C87.96 107.438 88.1671 107.411 88.3856 107.424L87.865 108.485C87.5895 108.656 87.3075 108.754 86.9823 108.786C86.8613 108.946 86.7156 109.056 86.5206 109.11C85.369 109.428 83.8042 108.623 82.8355 108.061C84.4712 107.91 86.1124 107.665 87.7429 107.46Z" fill="#FEF9F4"/>
<path d="M87.7429 107.46C87.96 107.438 88.1671 107.411 88.3856 107.424L87.865 108.485C87.5895 108.656 87.3075 108.754 86.9823 108.786L87.7429 107.46Z" fill="#47273E"/>
<path d="M81.7016 6.61761C81.7333 6.84957 81.7363 7.14 81.8657 7.33477C82.9692 7.52657 84.1014 7.44844 85.2118 7.57729C87.5386 7.84722 90.4129 8.33759 92.6938 8.86867C93.2493 8.99643 93.8033 9.13034 94.3557 9.27042C94.9082 9.4106 95.459 9.55694 96.0082 9.70944C96.5573 9.86193 97.1046 10.0205 97.6501 10.1852C98.1957 10.3501 98.7393 10.5209 99.281 10.6978C99.8225 10.8748 100.362 11.0578 100.9 11.2469C101.437 11.436 101.972 11.631 102.505 11.832C103.038 12.0331 103.569 12.2401 104.097 12.4531C104.626 12.6661 105.151 12.8849 105.675 13.1096C106.198 13.3343 106.719 13.5649 107.237 13.8013C107.755 14.0379 108.27 14.2801 108.783 14.528C109.295 14.776 109.805 15.0297 110.312 15.289C110.818 15.5485 111.322 15.8136 111.823 16.0843C112.324 16.355 112.821 16.6313 113.316 16.9131C113.81 17.1951 114.301 17.4825 114.789 17.7753C115.277 18.0682 115.762 18.3665 116.243 18.6703C116.724 18.974 117.201 19.2831 117.675 19.5975C118.149 19.912 118.62 20.2317 119.087 20.5568C119.553 20.8818 120.016 21.212 120.476 21.5474C120.935 21.8827 121.39 22.2232 121.842 22.5688C122.293 22.9144 122.741 23.265 123.184 23.6206C123.628 23.9764 124.067 24.3369 124.502 24.7024C124.938 25.0679 125.369 25.4382 125.796 25.8134C126.223 26.1885 126.645 26.5684 127.063 26.953C127.482 27.3377 127.895 27.727 128.305 28.1209C128.714 28.5148 129.119 28.9133 129.519 29.3163C129.919 29.7193 130.315 30.1267 130.706 30.5386C131.097 30.9504 131.483 31.3665 131.865 31.7871C132.246 32.2076 132.623 32.6324 132.995 33.0614C133.366 33.4904 133.733 33.9234 134.095 34.3606C134.457 34.7978 134.814 35.239 135.166 35.6842C135.518 36.1294 135.865 36.5785 136.206 37.0315C136.548 37.4845 136.885 37.9412 137.216 38.4018C139.958 42.2768 142.564 46.4598 144.613 50.742C144.864 51.278 145.108 51.8166 145.347 52.3581C145.586 52.8995 145.818 53.4434 146.045 53.9898C146.271 54.5363 146.492 55.0853 146.706 55.6366C146.921 56.1879 147.129 56.7415 147.331 57.2973C147.533 57.8532 147.728 58.4113 147.918 58.9715C148.107 59.5317 148.291 60.0939 148.468 60.658C148.645 61.2222 148.816 61.7882 148.98 62.3562C149.144 62.9242 149.302 63.4939 149.454 64.0653C149.606 64.6366 149.751 65.2096 149.89 65.7842C150.029 66.3588 150.162 66.9349 150.288 67.5124C150.414 68.0899 150.533 68.6688 150.647 69.2489C150.76 69.829 150.867 70.4103 150.967 70.9928C151.067 71.5752 151.161 72.1587 151.248 72.7434C151.336 73.3279 151.416 73.9133 151.491 74.4996C151.565 75.0859 151.632 75.6729 151.693 76.2607C151.755 76.8484 151.809 77.4368 151.857 78.0258C152.006 80.0808 152.001 82.1312 152 84.1902C151.998 88.653 151.741 93.2073 150.964 97.6093C149.918 103.532 148.21 109.625 145.732 115.117C145.075 116.572 144.282 117.955 143.52 119.357C142.089 121.99 140.826 124.224 139.161 126.75C138.637 127.546 136.901 130.348 136.32 130.704C136.19 130.783 136.069 130.813 135.922 130.846C135.493 130.435 135.117 129.939 134.723 129.494C133.917 128.591 133.099 127.7 132.269 126.819C128.165 122.534 121.813 116.684 116.308 114.497C116.703 114.096 117.591 113.814 118.108 113.547C120.355 112.385 122.011 110.431 123.12 108.194C125.577 103.239 123.969 99.6854 122.383 94.8669C121.693 92.7695 121.098 90.6453 120.385 88.5536C118.313 89.343 112.712 89.2304 110.469 88.5669C107.525 88.2419 104.252 87.1451 101.619 85.8127C100.718 85.3565 99.8967 84.7775 99.0088 84.3065C100.421 86.8797 101.345 89.8024 102.439 92.5229C103.537 95.253 104.912 98.1673 105.764 100.948C101.868 102.686 97.872 104.206 93.9898 105.981L93.9058 105.908C94.1708 105.775 94.4676 105.651 94.6069 105.373C94.7084 105.17 94.7275 105.025 94.6484 104.809C94.3151 103.9 92.2573 103.381 91.4485 103.005L91.3892 102.977C91.0963 103.049 90.6174 102.871 90.3159 102.804C90.0604 101.839 89.7609 101.143 89.0861 100.384C89.3332 100.446 89.5831 100.494 89.8358 100.527C90.8257 100.663 91.9755 100.469 92.7632 99.8357C93.147 99.5271 93.4237 99.1091 93.4603 98.6115C93.5227 97.7612 92.9633 97.0853 92.4367 96.4861C93.0444 96.2176 93.537 96.1489 94.1906 96.1402L93.8484 95.6026C93.8351 95.2686 93.9865 95.0817 94.1413 94.7952C94.2159 94.64 94.2913 94.4814 94.3336 94.3139C94.4591 93.8175 94.4035 93.2058 94.1223 92.769C93.7182 92.1415 93.2842 92.0795 92.6018 91.9264C92.7592 91.6269 92.9421 91.428 93.1817 91.1897C93.7589 90.6776 95.5424 89.4623 95.8633 88.8963C96.0085 88.7839 96.1251 88.7341 96.3 88.6784C96.6212 88.5836 96.9561 88.5201 97.1538 88.2383C97.6026 87.017 98.1795 85.8384 98.6379 84.619C99.5873 82.0936 99.992 79.6358 100.236 76.9621C102.336 76.9957 104.472 76.769 106.559 76.5577C109.746 76.2348 113.053 75.8675 116.155 75.0618C115.871 74.3901 115.305 73.6831 115.186 72.9763C116.704 70.8592 117.006 66.3169 116.937 63.7448C116.667 63.0156 116.707 62.041 116.509 61.2614C115.769 58.3411 114.239 55.9529 112.25 53.7247C112.313 53.7384 112.376 53.7501 112.438 53.7665C112.483 53.7783 112.527 53.7925 112.571 53.8055C112.518 52.7784 106.316 39.496 105.507 37.8337C104.683 36.1363 103.816 34.461 102.906 32.8079C102.012 31.1938 101.111 29.5424 100.112 27.9912C97.6236 24.1251 93.4643 18.8442 88.8392 17.5118C89.1813 16.7688 89.3941 15.997 89.319 15.1715C89.0787 12.5288 86.6207 10.721 84.2014 10.1151C83.7138 9.99282 82.04 9.79367 81.7 9.51326L81.6769 9.10508C81.7292 8.28279 81.7031 7.44218 81.7016 6.61761Z" fill="#A5B4FC"/>
<path d="M114.373 77.8118C114.661 77.8025 114.993 77.7668 115.266 77.8664C115.677 78.0164 116.025 78.3746 116.187 78.774C116.34 79.1484 116.352 79.5677 116.181 79.9378C115.996 80.3392 115.689 80.5716 115.283 80.7291C114.965 80.7385 114.645 80.7274 114.326 80.7233C114.042 80.5516 113.746 80.3621 113.559 80.0822C113.353 79.7747 113.268 79.4002 113.351 79.0382C113.484 78.4622 113.893 78.1161 114.373 77.8118Z" fill="#FFFEFE"/>
<path d="M108.924 79.6108C109.27 79.6311 109.609 79.6991 109.925 79.845C110.553 80.1343 110.814 80.6635 111.021 81.2774C110.969 81.4625 110.913 81.6455 110.841 81.824C110.604 82.4099 110.215 82.6715 109.652 82.9204C109.341 82.9601 109.062 82.9815 108.757 82.8904C108.309 82.7564 107.924 82.4601 107.721 82.0377C107.698 81.99 107.678 81.9413 107.66 81.8915C107.642 81.8418 107.627 81.7914 107.614 81.7402C107.602 81.689 107.591 81.6373 107.584 81.5851C107.576 81.5329 107.571 81.4805 107.569 81.4279C107.566 81.3752 107.567 81.3225 107.57 81.2699C107.572 81.2172 107.578 81.1648 107.586 81.1127C107.594 81.0605 107.605 81.0089 107.618 80.9579C107.631 80.9068 107.647 80.8565 107.665 80.8069C107.896 80.1688 108.326 79.8822 108.924 79.6108Z" fill="#FFFEFE"/>
<path d="M97.1538 88.2382C97.1947 88.2343 97.2357 88.231 97.2766 88.2265C98.1385 88.1294 98.897 87.4386 99.7537 88.0832C99.7849 88.1064 99.8147 88.1311 99.8433 88.1573C99.872 88.1835 99.8992 88.2111 99.9249 88.2401C99.9506 88.2691 99.9748 88.2993 99.9975 88.3307C100.02 88.3622 100.041 88.3946 100.06 88.4281C100.08 88.4617 100.097 88.4962 100.113 88.5315C100.129 88.5668 100.143 88.6029 100.155 88.6397C100.167 88.6764 100.177 88.7136 100.185 88.7513C100.193 88.7891 100.199 88.8272 100.204 88.8656C100.322 90.0101 99.5315 91.0968 98.8112 91.9126C97.5085 93.3877 96.1805 94.3708 94.3562 95.1148C94.2706 95.0256 94.2077 94.8999 94.1412 94.7951C94.2159 94.64 94.2913 94.4814 94.3336 94.3138C94.459 93.8175 94.4035 93.2058 94.1223 92.769C93.7182 92.1414 93.2842 92.0795 92.6017 91.9263C92.7592 91.6268 92.9421 91.428 93.1817 91.1897C93.7589 90.6775 95.5424 89.4623 95.8633 88.8963C96.0085 88.7839 96.1251 88.7341 96.2999 88.6783C96.6212 88.5836 96.9561 88.52 97.1538 88.2382Z" fill="#F9A8D4"/>
<path d="M94.1412 94.7952C94.2077 94.8999 94.2706 95.0256 94.3562 95.1149C94.4791 95.6654 94.6044 96.2132 94.7508 96.7581C96.0001 96.7328 98.1493 96.5415 99.0957 97.4908C99.3406 97.7364 99.5008 98.0817 99.4895 98.4307C99.4755 98.8676 99.1856 99.2029 98.8637 99.4717C97.0569 100.98 93.5948 101.888 91.3892 102.977C91.0963 103.049 90.6174 102.871 90.3158 102.804C90.0604 101.839 89.7609 101.143 89.0861 100.384C89.3332 100.446 89.5831 100.494 89.8358 100.527C90.8257 100.663 91.9754 100.469 92.7632 99.8357C93.1469 99.5271 93.4237 99.1091 93.4603 98.6115C93.5227 97.7612 92.9632 97.0853 92.4367 96.4861C93.0444 96.2176 93.537 96.1489 94.1906 96.1402L93.8483 95.6026C93.8351 95.2686 93.9864 95.0817 94.1412 94.7952Z" fill="#47273E"/>
<path d="M75.4539 3.6407C74.9093 3.49093 74.5303 3.35162 74.2401 2.84416C73.9692 2.37025 73.9352 1.74814 74.088 1.23131C74.2169 0.794643 74.4828 0.372286 74.9034 0.163346C75.3195 -0.0432769 75.8164 -0.0488506 76.247 0.118207C76.7428 0.31052 77.1359 0.714653 77.3406 1.19893C77.5167 1.61536 77.5505 2.09791 77.3605 2.51572C77.0875 3.11647 76.5573 3.44759 75.9679 3.6901C76.2322 4.67964 76.8823 5.74289 77.5132 6.55319C78.1905 6.71253 80.5267 5.80107 81.3542 5.62281L81.4931 5.10635C81.5325 4.93317 81.5925 4.87922 81.4962 4.72216C81.1791 4.2046 80.9187 3.54953 81.0774 2.93507C81.1604 2.61393 81.3597 2.39511 81.6531 2.24338C82.1535 1.98461 82.6783 1.94986 83.2016 2.15248C83.5001 2.26804 83.7559 2.49879 83.8787 2.79497C84.0356 3.17325 83.9911 3.63483 83.8222 4.00097C83.6205 4.43832 83.235 4.76827 82.7799 4.92846C82.5906 4.99512 82.397 5.00618 82.2003 5.03486C82.0006 5.06401 81.9509 5.10298 81.8357 5.2846C81.7934 5.3513 81.7481 5.46732 81.7167 5.54281C81.7061 5.89827 81.6777 6.26289 81.7015 6.61761C81.7031 7.44217 81.7292 8.28278 81.6769 9.10508L81.7 9.51325C82.04 9.79366 83.7138 9.99282 84.2014 10.1151C86.6206 10.721 89.0787 12.5287 89.319 15.1715C89.3941 15.997 89.1813 16.7688 88.8392 17.5118C93.4643 18.8442 97.6236 24.1251 100.112 27.9912C101.111 29.5424 102.012 31.1938 102.906 32.8079C103.816 34.461 104.683 36.1363 105.507 37.8337C106.316 39.496 112.518 52.7784 112.571 53.8055C112.527 53.7925 112.483 53.7783 112.438 53.7665C112.376 53.7501 112.313 53.7384 112.25 53.7247C114.239 55.9529 115.769 58.3411 116.509 61.2614C116.706 62.041 116.667 63.0156 116.937 63.7448C117.006 66.3169 116.703 70.8592 115.186 72.9763C115.305 73.6831 115.871 74.3901 116.155 75.0618C113.053 75.8675 109.746 76.2348 106.559 76.5577C104.472 76.769 102.336 76.9957 100.236 76.9621C99.992 79.6358 99.5872 82.0936 98.6379 84.619C98.1795 85.8384 97.6026 87.017 97.1538 88.2382C96.9561 88.5201 96.6212 88.5836 96.2999 88.6784C96.1251 88.7341 96.0085 88.7839 95.8633 88.8963C95.5424 89.4623 93.7589 90.6776 93.1817 91.1897C92.9421 91.428 92.7592 91.6268 92.6017 91.9264C93.2842 92.0795 93.7182 92.1415 94.1223 92.769C94.4035 93.2058 94.459 93.8175 94.3336 94.3139C94.2913 94.4814 94.2159 94.64 94.1412 94.7952C93.9864 95.0817 93.8351 95.2686 93.8484 95.6026L94.1906 96.1402C93.537 96.1488 93.0444 96.2176 92.4367 96.4861C92.9633 97.0853 93.5227 97.7612 93.4603 98.6115C93.4237 99.1091 93.1469 99.5271 92.7632 99.8357C91.9754 100.469 90.8257 100.663 89.8358 100.527C89.5831 100.494 89.3332 100.446 89.0861 100.384C89.7609 101.143 90.0604 101.839 90.3158 102.804C90.6174 102.871 91.0963 103.049 91.3892 102.977L91.4485 103.005C92.2573 103.381 94.3151 103.9 94.6484 104.809C94.7275 105.025 94.7084 105.17 94.6069 105.373C94.4676 105.651 94.1707 105.775 93.9058 105.908C93.2858 106.153 92.6668 106.365 92.0206 106.533C91.2245 106.74 88.9092 107.076 88.3856 107.424C88.1671 107.411 87.9601 107.438 87.7429 107.46C86.1124 107.665 84.4712 107.91 82.8355 108.061C80.4241 106.984 79.5132 107.362 77.0857 108.004C75.779 107.525 74.4748 107.012 73.1289 106.651C71.5114 106.216 69.8528 105.949 68.238 105.502C65.5276 104.913 62.8292 104.273 60.1429 103.584C59.0175 103.3 57.8499 103.059 56.7462 102.705L56.243 102.617C55.0767 98.3286 54.1717 93.9548 53.0567 89.6481C52.0256 85.6654 50.6208 81.6247 50.1281 77.535C46.9001 77.0656 43.6599 76.7055 40.4237 76.2993C38.2972 76.0325 36.1543 75.6546 34.0145 75.527L34.1751 74.8075C32.6855 73.6535 31.4384 72.0238 30.7329 70.2813C30.6409 70.0554 30.5568 69.8268 30.4804 69.5952C30.404 69.3637 30.3356 69.1299 30.2751 68.8937C30.2147 68.6576 30.1624 68.4197 30.1183 68.18C30.0741 67.9404 30.0381 67.6995 30.0103 67.4575C29.9826 67.2154 29.9631 66.9727 29.9519 66.7294C29.9408 66.486 29.9379 66.2425 29.9433 65.999C29.9487 65.7554 29.9625 65.5123 29.9844 65.2697C30.0064 65.0271 30.0367 64.7854 30.0752 64.5448C31.2383 57.0981 38.3188 56.9505 39.0941 54.875C39.454 53.9112 38.411 52.2796 37.9854 51.4201C37.358 50.0908 36.9573 48.7377 37.1738 47.261C37.9185 42.1816 43.4715 39.1043 47.25 36.3279C54.3295 31.1257 57.504 25.1379 58.7741 16.6576L58.833 16.2903C57.9438 15.5687 57.1856 14.5013 56.4786 13.6006C55.3492 12.1619 54.2475 10.6884 52.9709 9.37312C55.8345 8.19244 59.0549 7.5264 62.0889 6.9197C62.2678 6.76226 62.4501 6.61726 62.6544 6.49249C63.113 6.21231 63.4984 6.24084 64.0065 6.35398C64.993 5.829 67.7509 6.0167 68.3474 5.23959C67.7394 5.00518 67.0949 4.68191 66.8189 4.05418C66.6272 3.61794 66.6559 3.04847 66.8335 2.61211C66.8527 2.56361 66.8745 2.51624 66.8988 2.47001C66.9232 2.42379 66.9499 2.37897 66.9789 2.33555C67.0081 2.29212 67.0394 2.25033 67.0728 2.21019C67.1064 2.17004 67.142 2.13176 67.1797 2.09535C67.2172 2.05893 67.2567 2.02458 67.298 1.99229C67.3393 1.96001 67.3821 1.92997 67.4266 1.90217C67.471 1.87438 67.5168 1.84898 67.5641 1.82599C67.6112 1.80299 67.6594 1.78252 67.7088 1.76458C68.1964 1.58857 68.7381 1.66577 69.1886 1.90767C69.6552 2.15826 70.0112 2.58021 70.1349 3.09657C70.3106 3.82965 69.9996 4.42342 69.6145 5.01762C70.4603 5.59035 71.9432 5.02901 72.9252 5.1278C73.6223 4.86257 74.3613 4.5221 75.1028 4.42146C75.4119 4.3795 75.5065 4.42229 75.7506 4.61247L75.4539 3.6407Z" fill="#FEB997"/>
<path d="M64.4209 26.6462C64.673 26.6908 64.8198 26.9043 64.9752 27.09C65.2345 27.3997 65.4407 27.6646 65.4017 28.0803C65.2951 28.0631 65.2006 28.0294 65.0983 27.9956C64.7947 27.6208 64.4117 27.1309 64.4209 26.6462Z" fill="#47273E"/>
<path d="M64.4991 25.4311C64.9264 25.4613 65.2356 25.6017 65.5275 25.9239C65.7006 26.1149 65.7719 26.2648 65.7577 26.5194C65.4579 26.4619 64.6247 25.9111 64.439 25.6455L64.4991 25.4311Z" fill="#47273E"/>
<path d="M73.4117 25.2131C73.75 25.1935 74.0167 25.1811 74.2956 25.4053C74.4669 25.543 74.5786 25.7238 74.5817 25.9483C74.5865 26.2961 74.3908 26.4988 74.1464 26.7158C73.8196 26.7661 73.5461 26.7553 73.2767 26.5417C73.0839 26.3891 72.9763 26.1664 72.982 25.9192C72.9897 25.5829 73.1743 25.4135 73.4117 25.2131Z" fill="#47273E"/>
<path d="M82.7858 24.9017C82.9458 24.8943 83.1176 24.881 83.2751 24.9144C83.5159 24.9654 83.7359 25.1196 83.8694 25.3238C83.9898 25.5081 84.0182 25.7066 83.9663 25.9192C83.8774 26.2828 83.6431 26.4098 83.3373 26.5834C83.2519 26.5978 83.2469 26.6022 83.1465 26.599C82.8827 26.5909 82.5677 26.4677 82.4041 26.2557C82.2778 26.0919 82.239 25.8726 82.262 25.6712C82.3029 25.3146 82.5229 25.1215 82.7858 24.9017Z" fill="#47273E"/>
<path d="M79.1482 25.5558C79.2642 25.6067 79.3175 25.6254 79.3726 25.745C79.563 26.1586 79.6437 26.7407 79.7837 27.1832C79.926 27.6332 80.8452 29.5345 80.65 29.9231C80.4912 30.2388 80.1586 30.3481 79.8468 30.4664C79.7308 30.3579 79.6988 30.2919 79.6552 30.1405C79.7941 29.9131 80.0522 29.8218 80.2844 29.6936C79.7742 28.5931 79.2452 27.4123 79.0071 26.2202C78.9448 25.908 78.9718 25.8231 79.1482 25.5558Z" fill="#47273E"/>
<path d="M74.9521 31.2743C75.1431 31.3252 75.0553 31.282 75.2144 31.4064C75.3539 32.0044 75.6059 32.3962 76.1219 32.7553C76.9516 33.3325 78.1182 33.4191 79.0933 33.2455L79.2446 33.2178C79.8326 33.1146 80.2149 32.6446 80.7688 32.5193C80.9359 32.6464 80.8999 32.6743 80.9384 32.87C80.6372 33.111 80.349 33.3011 79.985 33.4377C78.7636 33.8966 77.3437 33.8055 76.1677 33.2602C75.6499 33.02 75.0746 32.6828 74.8915 32.1111C74.7902 31.795 74.8002 31.5669 74.9521 31.2743Z" fill="#47273E"/>
<path d="M66.3623 56.488C67.0522 56.4792 70.6265 56.3167 70.9695 56.6053L70.9527 56.8252C70.4013 57.1316 69.0182 56.9472 68.3729 56.9367C67.0989 56.9341 65.8196 56.9724 64.5463 56.9399C64.2719 56.9328 63.8562 56.9514 63.6525 56.7394L63.7028 56.5957C64.0925 56.3923 65.8283 56.491 66.3623 56.488Z" fill="#47273E"/>
<path d="M74.673 21.876C74.8343 21.8866 74.9715 21.9317 75.0787 22.0628C75.2188 22.234 75.2104 22.3502 75.2049 22.5539C74.9488 22.8832 72.5312 23.3751 71.9189 23.5545C71.8648 23.5639 71.7964 23.5779 71.7423 23.576C71.5058 23.568 71.4872 23.4908 71.3453 23.3187C71.3257 23.1274 71.3025 23.0811 71.4326 22.9229C71.9921 22.2422 73.83 21.9539 74.673 21.876Z" fill="#47273E"/>
<path d="M79.8447 56.4871C80.7884 56.4835 85.9314 56.3136 86.3808 56.5754L86.4054 56.7561C86.0644 57.0655 85.3825 56.9571 84.942 56.9538L80.967 56.9606C80.1029 56.9643 79.2075 57.0298 78.3521 56.902L78.232 56.6933L78.2804 56.886L78.2593 56.6787C78.7756 56.4511 79.2921 56.4822 79.8447 56.4871Z" fill="#47273E"/>
<path d="M77.9065 67.4097C78.0611 67.4083 78.2196 67.4057 78.3734 67.4244C78.7766 67.4736 79.1832 67.7042 79.4132 68.039C79.6169 68.3357 79.6746 68.6784 79.5948 69.0268C79.4749 69.5494 79.129 69.8027 78.6862 70.0614C78.4761 70.0686 78.2407 70.0899 78.0346 70.0449C77.6968 69.9713 77.3565 69.6972 77.1719 69.4144C77.1471 69.3762 77.1244 69.3369 77.1037 69.2964C77.0831 69.2558 77.0648 69.2142 77.0487 69.1717C77.0326 69.1293 77.0187 69.086 77.0072 69.042C76.9957 68.998 76.9866 68.9536 76.9799 68.9087C76.9731 68.8637 76.9688 68.8186 76.9669 68.7733C76.965 68.7279 76.9656 68.6825 76.9685 68.6371C76.9715 68.5918 76.9768 68.5467 76.9846 68.5019C76.9925 68.4573 77.0027 68.4131 77.0152 68.3693C77.1482 67.892 77.4858 67.6347 77.9065 67.4097Z" fill="#FFFEFE"/>
<path d="M86.6746 60.0371C86.7131 60.0427 86.7518 60.0468 86.7901 60.054C87.0499 60.1021 87.1793 60.1667 87.3254 60.3853C87.2642 61.6051 87.97 60.8157 88.513 61.419C88.5824 61.5989 88.6004 61.7285 88.5763 61.9172C88.5444 62.1642 88.4811 62.3311 88.2744 62.4866C88.0298 62.5567 87.852 62.511 87.6053 62.4597C87.4576 62.429 87.5373 62.423 87.3798 62.4896C87.3467 62.6034 87.3303 62.6995 87.3308 62.8184C87.3312 62.9283 87.3445 63.0581 87.3262 63.1663C87.2902 63.3801 87.0682 63.49 86.8997 63.5993C86.8181 63.5882 86.7362 63.5794 86.6554 63.5633C86.4122 63.5148 86.2792 63.429 86.1419 63.2278C86.1391 62.9654 86.1179 62.7531 86.0469 62.4998C85.9114 62.4868 85.7761 62.4789 85.6406 62.4673C85.2855 62.4371 85.043 62.4003 84.8025 62.1216C84.7601 61.9976 84.7332 61.9101 84.7649 61.7769C84.9395 61.0415 85.7116 61.3011 86.1837 60.9925C86.1866 60.8417 86.1731 60.6532 86.2074 60.5077C86.2653 60.2622 86.4823 60.1735 86.6746 60.0371Z" fill="#FFFEFE"/>
<path d="M52.5503 68.5585C52.588 68.5527 52.6257 68.5473 52.6631 68.5409C53.0939 68.4683 53.5407 68.2607 53.9566 68.1238C54.6442 67.8937 55.345 67.7145 56.059 67.5863C60.6829 66.7518 65.6127 67.956 69.461 70.5793C70.2941 71.1472 71.0457 71.8058 71.7985 72.4722C72.6918 72.9525 73.4637 73.9972 73.9961 74.8354C74.0954 74.6904 74.1943 74.5545 74.316 74.4268C75.0861 73.6184 76.2257 73.0391 77.1717 72.4567C81.6496 69.6997 86.564 67.6906 91.8922 67.5038C93.2108 67.4576 97.0758 67.6427 97.9849 68.4888C98.2278 68.5267 98.3408 68.5275 98.4896 68.7341C98.8168 69.1885 98.9865 69.8171 99.1588 70.3469C99.8742 72.5475 100.25 74.6425 100.236 76.9621C99.992 79.6358 99.5872 82.0936 98.6379 84.619C98.1795 85.8384 97.6026 87.017 97.1538 88.2383C96.9561 88.5201 96.6212 88.5837 96.2999 88.6784C96.1251 88.7341 96.0085 88.7839 95.8633 88.8963C95.5423 89.4623 93.7589 90.6776 93.1816 91.1897C92.9421 91.428 92.7592 91.6269 92.6017 91.9264C93.2842 92.0795 93.7182 92.1415 94.1223 92.769C94.4035 93.2058 94.459 93.8176 94.3336 94.3139C94.2913 94.4814 94.2159 94.64 94.1412 94.7952C93.9864 95.0817 93.8351 95.2686 93.8483 95.6026L94.1906 96.1403C93.537 96.1489 93.0443 96.2176 92.4367 96.4861C92.9632 97.0853 93.5226 97.7612 93.4603 98.6115C93.4237 99.1091 93.1469 99.5271 92.7631 99.8357C91.9754 100.469 90.8257 100.663 89.8358 100.527C89.5831 100.494 89.3332 100.446 89.0861 100.384C89.7608 101.143 90.0603 101.839 90.3158 102.804C90.6174 102.871 91.0963 103.049 91.3892 102.977L91.4485 103.005C92.2572 103.382 94.3151 103.9 94.6484 104.809C94.7274 105.025 94.7083 105.17 94.6069 105.373C94.4675 105.651 94.1707 105.775 93.9058 105.908C93.2858 106.153 92.6667 106.365 92.0205 106.533C91.2244 106.74 88.9092 107.076 88.3856 107.424C88.1671 107.411 87.96 107.438 87.7429 107.46C86.1123 107.665 84.4712 107.91 82.8355 108.061C80.4241 106.984 79.5131 107.362 77.0857 108.004C75.779 107.525 74.4747 107.012 73.1289 106.651C71.5114 106.216 69.8528 105.949 68.238 105.502C65.5275 104.913 62.8291 104.273 60.1429 103.584C59.0174 103.3 57.8499 103.059 56.7462 102.705L56.243 102.617C55.0767 98.3286 54.1717 93.9549 53.0567 89.6482C52.0256 85.6654 50.6207 81.6247 50.1281 77.535C50.0861 76.2495 50.0571 74.9317 50.296 73.662C50.4434 72.8786 51.4553 68.8788 52.1785 68.4767C52.2925 68.4135 52.4378 68.5163 52.5503 68.5585Z" fill="#F79D67"/>
<path d="M87.2443 80.5827C87.3396 80.6378 87.4057 80.6962 87.487 80.7693C87.5656 81.0389 87.4775 81.2299 87.3915 81.4839L87.2635 81.4537C87.1709 81.1819 87.2246 80.8662 87.2443 80.5827Z" fill="#FEB997"/>
<path d="M81.3654 76.894C81.4639 76.9225 81.5324 76.9375 81.6263 76.9878C81.8096 77.0861 81.8571 77.2214 81.8896 77.4089C81.777 77.7394 81.533 77.907 81.2744 78.1257C81.2059 78.1603 81.1349 78.1559 81.0591 78.162C81.3504 77.6803 81.4406 77.4648 81.3654 76.894Z" fill="#FEB997"/>
<path d="M84.0655 90.6493C84.0505 90.3262 83.9753 89.8963 84.1061 89.5972C84.3145 89.6155 84.5055 89.7812 84.7405 89.7948C84.8784 89.8028 84.997 89.8206 85.1319 89.8485L85.0996 90.3148C84.7859 90.3237 84.7209 90.4143 84.4747 90.5715C84.3439 90.655 84.2159 90.6442 84.0655 90.6493Z" fill="#2B347A"/>
<path d="M83.1403 88.2249C83.2453 87.9972 83.2181 87.7829 83.4302 87.6299L83.7502 87.7159C83.6799 88.2676 83.7925 88.683 83.9811 89.2005C83.6352 89.0747 83.2904 88.9412 82.9409 88.8261C82.9978 88.631 83.0387 88.4004 83.1403 88.2249Z" fill="#2B347A"/>
<path d="M73.4798 87.5803C73.6995 87.412 73.8886 87.2968 74.1456 87.1916L74.2561 87.2379C74.2436 87.5606 74.0246 87.7973 73.8379 88.0466C73.9616 88.4316 74.0983 88.7964 74.261 89.1668C74.0268 89.2471 73.807 89.3248 73.5895 89.4432C73.2518 89.8701 73.0964 90.1341 73.0117 90.6752C72.795 90.5028 72.6101 90.3262 72.3307 90.2676C72.3801 90.1378 72.4371 90.0023 72.469 89.8673C72.5237 89.6354 72.3877 89.448 72.2795 89.2522C72.4491 89.1025 72.7114 88.9771 72.9075 88.857C73.2709 88.5631 73.3577 88.02 73.4798 87.5803Z" fill="#2B347A"/>
<path d="M89.2556 92.3642C88.8453 91.127 88.7443 90.7262 87.6823 89.9251C88.0071 90.0011 88.3209 90.0782 88.6532 90.0058C88.8041 89.9731 88.9154 89.9584 89.0722 89.9709C89.0945 89.9918 89.1162 90.013 89.1386 90.0336C89.1726 90.0647 89.2073 90.0949 89.2414 90.1259C89.7678 90.6032 90.3786 90.601 91.0182 90.8238L91.1953 90.9387C91.0097 91.0506 90.7697 91.1054 90.5707 91.2012C89.9934 91.4795 89.6505 91.8814 89.2556 92.3642Z" fill="#47273E"/>
<path d="M85.1319 89.8485C85.3731 89.8872 85.6028 89.9221 85.8476 89.924C86.0568 89.9256 86.2089 89.9777 86.3991 90.0587L86.4777 90.1836C86.3345 90.6801 85.9699 90.7153 85.6445 91.0352C85.2175 91.0607 85.1428 90.8399 84.7753 91.1728L84.739 91.3046C84.7109 91.4058 84.6863 91.5148 84.6543 91.6137C84.603 91.7721 84.5276 91.8393 84.4092 91.9497L84.1009 91.9702C84.0357 92.056 83.9606 92.1437 83.9035 92.2347L84.1121 92.3314C84.1277 92.4573 84.1266 92.5504 84.1152 92.6776C84.0718 93.1684 84.2397 93.5291 84.4506 93.9511C84.4637 93.9776 84.4755 94.0046 84.4878 94.0314C84.624 94.1625 84.6756 94.1512 84.6813 94.3478L84.5542 94.4192L84.2962 94.5672C83.9934 94.7413 83.6624 95.0297 83.5918 95.3851C83.544 95.6257 83.5784 95.9265 83.5904 96.1719C83.77 97.087 83.9972 98.4814 84.8938 99.0106C85.0508 99.1033 85.2221 99.1579 85.3974 99.2033C85.5642 99.1737 85.7303 99.142 85.8981 99.1169C86.4463 99.0352 86.8108 98.766 87.2267 98.4318L87.504 98.2122C87.7417 98.7208 87.9237 99.3153 88.2177 99.7873C87.972 99.8188 85.651 99.3575 85.3914 99.2503C85.1392 99.3558 84.9667 99.4261 84.6912 99.3947C84.3955 99.3607 84.2918 99.3801 84.0307 99.5224C83.6562 99.7266 83.2289 99.8456 82.8356 100.026L82.9508 100.064L82.8022 99.9879C82.9186 99.8266 82.8879 99.9123 82.9098 99.7372C82.7264 99.7881 82.5868 100.112 82.483 100.279L82.3056 100.18L82.3458 100.261C82.8781 99.045 82.8337 98.0608 82.7929 96.7742C83.0674 96.5744 83.2952 96.4072 83.4945 96.128C83.429 96.0463 83.4761 96.0978 83.3321 95.9951C83.2293 96.1219 83.2664 96.067 83.1814 96.2093L83.122 96.3107L83.0198 96.3305L83.0783 95.9328C82.9003 96.0133 82.9328 96.0469 82.8661 96.2198L82.9076 96.2841L82.755 96.4654C81.9756 95.4983 82.6862 95.6092 81.2401 94.5666C81.4028 94.534 81.5317 94.4886 81.6821 94.4192C81.9546 94.0569 81.97 93.5716 82.0365 93.1349C81.9799 92.8993 81.9302 92.7482 82.0294 92.5132C82.2313 92.2976 82.5615 92.2627 82.8413 92.1972C83.4121 91.7787 83.8482 91.3334 84.0655 90.6494C84.2159 90.6442 84.3439 90.655 84.4747 90.5716C84.7209 90.4144 84.7859 90.3237 85.0996 90.3148L85.1319 89.8485Z" fill="#47273E"/>
<path d="M71.7985 72.4722C72.6918 72.9525 73.4637 73.9971 73.9962 74.8354C74.2662 75.3084 74.6381 75.8022 74.8383 76.3014C74.4448 76.4941 74.0965 76.8205 73.9526 77.2408C73.8392 77.5721 73.8576 78.0706 74.0208 78.3843C74.1245 78.5838 74.2968 78.7664 74.4448 78.935C74.4489 79.5545 74.5377 80.2318 74.0452 80.7037C74.0156 80.7322 73.9845 80.7595 73.9542 80.7873C73.7034 80.2417 73.48 79.5854 73.0598 79.1498C72.8611 78.9437 72.5993 78.8055 72.3036 78.8334C71.6814 78.8922 71.2612 79.4686 70.8974 79.908C70.6609 79.6234 70.4501 79.3558 70.2744 79.0273C70.4106 78.6098 70.3601 78.0012 70.3784 77.5567C70.4553 75.6914 70.6382 74.0101 71.7985 72.4722Z" fill="#F9A8D4"/>
<path d="M74.4448 78.935C74.9846 79.3249 74.7468 79.3784 74.9496 79.5827C74.9634 79.5968 74.989 79.5871 75.0087 79.5893L75.1085 79.402C75.327 79.4501 75.4346 79.4806 75.6123 79.6266C75.5659 79.9579 75.4716 80.31 75.3179 80.6084C75.5891 81.3097 75.9595 82.0761 76.6989 82.3995C76.8635 82.4716 77.0051 82.4797 77.182 82.4938C77.5681 82.3203 78.1871 82.1069 78.6102 82.1227L78.6902 82.2408C78.6189 82.4099 78.4963 82.5027 78.3634 82.6248L78.3931 82.782L78.5555 82.8885C78.5761 82.87 78.5963 82.8511 78.6173 82.8331C78.7211 82.7443 78.6833 82.7755 78.8253 82.6987C78.9148 82.7869 78.9714 82.8481 79.0371 82.9571C79.1429 83.3436 79.4409 83.4163 79.5712 83.8503C79.6482 83.7052 79.6967 83.5484 79.7522 83.3941L79.9138 83.3627C79.9154 83.5229 79.8815 83.63 79.9757 83.7643C80.4443 83.483 80.2933 83.7244 80.6581 83.7665C81.0774 83.8151 81.7743 83.6122 82.2016 83.5434L82.2999 83.4199C82.5123 83.1489 82.651 82.751 82.9451 82.5675C83.0823 82.5757 83.1703 82.5949 83.3019 82.6385C83.5785 82.7301 84.0428 82.6494 84.2475 82.813C84.1342 82.9358 84.0218 83.0161 83.885 83.1093C83.6911 83.2417 83.5598 83.3784 83.4023 83.5492C83.3043 83.6555 83.3434 83.6167 83.1912 83.6983C83.1953 83.9392 83.1981 84.1616 83.1541 84.3995C83.104 84.6706 83.1755 84.9837 83.3336 85.2124C83.6219 85.6297 84.5017 85.8511 84.976 85.969C84.5214 86.5278 84.1365 87.1104 83.7502 87.716L83.4302 87.63C83.2181 87.783 83.2453 87.9973 83.1403 88.225C83.0152 87.8987 82.7899 86.8619 82.4315 86.7587C82.2732 86.7131 81.9526 86.7534 81.7798 86.7506C81.5445 86.7468 81.3608 86.7568 81.1492 86.6388C81.1134 86.4847 81.1076 86.5408 81.1399 86.3986C81.2 86.1346 81.2452 85.9208 81.2403 85.6479C81.2398 85.6226 81.2387 85.5974 81.2381 85.5722C81.0519 85.3527 80.8753 85.1067 80.6222 84.9619C79.3869 85.012 78.9761 85.7661 78.4914 85.818C78.3887 85.8292 78.3126 85.7488 78.2309 85.6969C78.1393 85.8683 78.1247 85.9658 77.9449 86.0587C77.7911 85.9425 77.6333 85.8187 77.4665 85.7205C77.1772 85.5503 76.7638 85.5212 76.4442 85.6117C75.8528 85.7792 75.7745 86.201 75.5252 86.6793L75.4684 86.6444C75.6423 86.0142 75.8572 85.072 76.2393 84.5403C76.561 84.4377 76.6726 84.4218 76.8839 84.1528C76.7794 84.1042 76.6382 84.0534 76.5492 83.9826C76.3433 83.8187 76.4184 83.561 76.4193 83.3231C76.4031 83.2359 76.4051 83.2336 76.3712 83.1346C76.23 82.7225 76.0212 82.4606 75.6224 82.2837C75.1367 82.4063 74.4459 82.2708 73.9081 82.3308C73.9826 82.0305 74.0951 81.7216 74.1383 81.4163C74.1808 81.1158 74.1285 81.0294 73.9542 80.7874C73.9845 80.7595 74.0155 80.7322 74.0452 80.7038C74.5377 80.2319 74.4489 79.5545 74.4448 78.935Z" fill="#47273E"/>
<path d="M73.9962 74.8354C74.0954 74.6904 74.1943 74.5545 74.316 74.4267C75.0861 73.6184 76.2257 73.0391 77.1717 72.4566C81.6496 69.6996 86.564 67.6906 91.8923 67.5038C93.2108 67.4576 97.0758 67.6427 97.9849 68.4888C98.2278 68.5266 98.3408 68.5274 98.4896 68.7341C98.8169 69.1884 98.9865 69.8171 99.1588 70.3469C99.8743 72.5475 100.25 74.6425 100.236 76.962C99.992 79.6358 99.5872 82.0936 98.6379 84.619C98.1795 85.8384 97.6026 87.017 97.1538 88.2382C96.9561 88.52 96.6212 88.5836 96.2999 88.6783C96.1251 88.7341 96.0085 88.7839 95.8633 88.8963C95.5423 89.4623 93.7589 90.6776 93.1816 91.1897C92.9421 91.428 92.7592 91.6268 92.6017 91.9263C92.3854 91.8471 92.3243 91.8426 92.1875 91.6633C92.164 91.6226 92.1446 91.5791 92.117 91.541C91.906 91.2509 91.5386 91.0294 91.1953 90.9387L91.0182 90.8238C91.3901 90.609 91.7714 90.591 92.1896 90.5413C92.6022 89.7391 92.9655 88.8836 92.8238 87.9633C93.4633 87.6884 94.1193 87.4014 94.4423 86.7392C94.6045 86.4065 94.6132 86.0458 94.4832 85.7015C94.164 84.856 93.3106 84.43 92.5337 84.0859C93.0123 83.6218 93.5042 83.0994 93.7499 82.4712C93.8947 82.1012 93.9326 81.6772 93.7414 81.316C93.5713 80.9945 93.2594 80.7853 92.9096 80.6957C91.8626 80.4274 90.7555 81.0007 89.8756 81.4984C89.9343 81.1689 89.9972 80.8208 89.9665 80.4858C89.9403 80.2013 89.8637 79.8972 89.613 79.7239C89.0402 79.3283 88.2501 79.7474 87.6833 79.8999L87.5498 79.9348C87.3785 80.1102 87.318 80.4282 87.0928 80.532C86.7702 80.4181 86.552 80.3873 86.2099 80.4294C86.178 80.4333 86.1461 80.4382 86.1143 80.4425C85.9307 80.2461 85.8692 79.9238 85.7578 79.6794C85.5047 79.1249 84.9555 78.7618 84.4815 78.4037C85.0963 78.0857 85.87 77.6771 86.0825 76.97C86.1586 76.7175 86.1387 76.4649 86.0115 76.2326C85.6969 75.658 85.1001 75.5248 84.5175 75.3579C83.6881 75.2902 83.0602 75.3366 82.2518 75.5381C82.3725 75.0657 82.4547 74.6099 82.5099 74.1257C82.4834 73.8409 82.4677 73.5636 82.4714 73.2775C82.0171 72.996 81.6245 72.772 81.0699 72.8889C80.3639 73.0377 79.8873 73.7036 79.5357 74.2799C79.4745 74.3805 79.4144 74.4819 79.3555 74.5839C79.0465 74.1949 78.5351 73.8786 78.0314 73.8172C77.6852 73.775 77.3295 73.8928 77.0602 74.1083C76.6822 74.4105 76.4152 74.935 76.3834 75.4142C76.3649 75.6935 76.3799 75.9796 76.3876 76.2592C75.8227 76.1734 75.4691 76.2432 74.9163 76.3095C74.8904 76.3126 74.8644 76.3042 74.8383 76.3013C74.6381 75.8022 74.2662 75.3084 73.9962 74.8354Z" fill="#C7D2FE"/>
<path d="M95.8633 88.8963C95.5423 89.4623 93.7589 90.6776 93.1817 91.1897C92.9421 91.428 92.7592 91.6268 92.6017 91.9263C92.3854 91.8471 92.3243 91.8426 92.1875 91.6633C92.3529 91.4585 92.5482 91.2694 92.7285 91.077C93.6926 90.1264 94.5856 89.3776 95.8633 88.8963Z" fill="#47273E"/>
<path d="M93.0581 74.8611C93.3192 74.8487 93.611 74.8292 93.8588 74.9283C94.1854 75.0588 94.4444 75.3543 94.5742 75.6743C94.5935 75.7219 94.6102 75.7704 94.6243 75.8198C94.6384 75.8691 94.6497 75.9191 94.6583 75.9698C94.667 76.0203 94.6729 76.0712 94.676 76.1224C94.6792 76.1736 94.6796 76.2248 94.6773 76.276C94.6749 76.3273 94.6697 76.3782 94.6618 76.429C94.6539 76.4797 94.6433 76.5298 94.6299 76.5794C94.6166 76.629 94.6006 76.6777 94.5821 76.7255C94.5635 76.7734 94.5424 76.8202 94.5187 76.8658C94.306 77.2705 94.0033 77.4255 93.5757 77.5434C93.3237 77.5361 93.0576 77.5348 92.8211 77.4387C92.7786 77.4211 92.7371 77.4015 92.6966 77.3798C92.6561 77.3582 92.6167 77.3347 92.5785 77.3092C92.5403 77.2836 92.5035 77.2563 92.4679 77.2273C92.4325 77.1982 92.3985 77.1674 92.3661 77.1349C92.3337 77.1025 92.303 77.0685 92.274 77.0332C92.2449 76.9977 92.2178 76.9609 92.1924 76.9228C92.1669 76.8847 92.1435 76.8454 92.122 76.805C92.1006 76.7647 92.0812 76.7233 92.0638 76.681C91.9327 76.3627 91.9459 75.9765 92.0889 75.6648C92.2969 75.2107 92.6049 75.0346 93.0581 74.8611Z" fill="#FFFEFE"/>
<path d="M82.51 74.1257C82.5486 74.0185 82.541 73.866 82.5472 73.7489C82.5579 73.543 82.5701 73.3684 82.6496 73.1744C82.8006 72.8063 83.079 72.4118 83.4719 72.2751C83.7672 72.1726 84.1025 72.2273 84.3767 72.3642C85.0032 72.6767 85.3212 73.2024 85.5269 73.8456C85.1577 74.3313 84.7913 74.8112 84.5175 75.3579C83.6881 75.2903 83.0602 75.3366 82.2518 75.5381C82.3725 75.0658 82.4547 74.61 82.51 74.1257Z" fill="#FFFEFE"/>
<path d="M97.985 68.4887C98.2278 68.5266 98.3408 68.5274 98.4896 68.7341C98.8169 69.1884 98.9865 69.8171 99.1588 70.3469C99.8743 72.5474 100.25 74.6425 100.236 76.962C99.992 79.6357 99.5873 82.0936 98.6379 84.619C98.1795 85.8383 97.6026 87.017 97.1538 88.2382C96.9561 88.52 96.6212 88.5836 96.3 88.6783C96.4133 88.4968 96.5171 88.3102 96.6116 88.1184C98.9545 83.3621 100.521 78.0071 99.3603 72.7084C99.0413 71.252 98.4628 69.895 97.985 68.4887Z" fill="#47273E"/>
<path d="M85.5269 73.8456C86.0878 73.233 86.9064 72.4069 87.784 72.3409C88.0973 72.3172 88.4069 72.4096 88.6313 72.6332C89.1715 73.1716 89.2035 74.1622 89.1734 74.8808C89.0954 76.7406 88.457 78.33 87.5498 79.9349C87.3786 80.1102 87.318 80.4282 87.0928 80.532C86.7702 80.4182 86.552 80.3873 86.2099 80.4295C86.178 80.4334 86.1461 80.4382 86.1143 80.4426C85.9307 80.2461 85.8692 79.9239 85.7578 79.6795C85.5047 79.1249 84.9555 78.7619 84.4815 78.4038C85.0963 78.0858 85.87 77.6772 86.0826 76.9701C86.1586 76.7176 86.1387 76.465 86.0115 76.2327C85.6969 75.6581 85.1001 75.5248 84.5175 75.3579C84.7913 74.8112 85.1577 74.3313 85.5269 73.8456Z" fill="#47273E"/>
<path d="M63.0442 91.7765C62.9857 91.6882 62.9286 91.599 62.873 91.509C62.075 90.2376 61.5517 88.3407 61.9453 86.8578C62.0837 86.3363 62.368 85.8544 62.8504 85.5813C63.5296 85.1968 64.3947 85.3209 65.1111 85.5199C64.9886 85.9849 65.006 86.4618 65.0514 86.9367C65.5373 87.7502 66.2576 88.376 67.1902 88.6323C67.619 88.7502 69.013 88.71 69.2009 88.8871C69.7999 89.2945 70.4668 89.5719 71.0232 90.0402L71.371 89.8349C71.6838 89.661 71.9801 89.4484 72.2795 89.2522C72.3877 89.4481 72.5237 89.6355 72.469 89.8674C72.4371 90.0023 72.3801 90.1379 72.3307 90.2677C72.61 90.3262 72.795 90.5029 73.0117 90.6752L72.9943 90.8188C73.1007 91.0809 73.2064 91.3411 73.3282 91.5965C73.3042 91.6273 73.2798 91.6577 73.2562 91.6889C73.1885 91.7784 73.1414 91.854 73.0934 91.9536L73.1496 92.0809C73.3399 92.0761 73.5247 92.0743 73.715 92.0861L73.797 92.1939L73.7517 92.3034C73.5046 92.3334 73.3631 92.3158 73.1679 92.475L73.1032 92.7538C73.3749 92.5271 73.6492 92.4175 73.9739 92.2915C74.7189 92.6784 75.3663 92.831 76.1905 92.9743L75.8022 93.6668C76.0949 93.7148 76.3253 93.7507 76.5844 93.5636C76.7834 93.4199 76.9612 93.2332 77.1359 93.0618C77.3114 93.6629 77.4176 94.2575 78.0193 94.5841C78.825 95.0213 80.3134 94.5057 81.2401 94.5666C82.6862 95.6092 81.9756 95.4983 82.755 96.4654L82.9076 96.2841L82.8661 96.2198C82.9329 96.0469 82.9004 96.0133 83.0784 95.9328L83.0198 96.3305L83.1221 96.3107L83.1814 96.2093C83.2665 96.067 83.2294 96.1219 83.3321 95.9951C83.4762 96.0978 83.429 96.0463 83.4945 96.128C83.2952 96.4072 83.0675 96.5744 82.7929 96.7742C82.8338 98.0609 82.8781 99.045 82.3458 100.261L82.3056 100.18L82.483 100.279C82.5868 100.112 82.7265 99.7881 82.9098 99.7372C82.8879 99.9123 82.9187 99.8266 82.8022 99.9879L82.9509 100.064L82.8357 100.026C83.2289 99.8456 83.6562 99.7266 84.0307 99.5224C84.2918 99.3801 84.3955 99.3607 84.6912 99.3947C84.9667 99.4261 85.1392 99.3558 85.3914 99.2503C85.651 99.3576 87.972 99.8188 88.2177 99.7873C88.4608 100.065 88.7495 100.234 89.0861 100.384C89.7609 101.143 90.0604 101.839 90.3159 102.804C90.6174 102.871 91.0963 103.049 91.3892 102.977L91.4485 103.005C92.2573 103.382 94.3151 103.9 94.6484 104.809C94.7275 105.025 94.7084 105.17 94.6069 105.373C94.4676 105.651 94.1707 105.775 93.9058 105.908C93.2858 106.153 92.6668 106.365 92.0206 106.533C91.2245 106.74 88.9092 107.076 88.3856 107.424C88.1671 107.411 87.9601 107.438 87.7429 107.46C86.1124 107.665 84.4713 107.91 82.8355 108.061C80.4242 106.984 79.5132 107.362 77.0857 108.004C75.779 107.525 74.4748 107.012 73.1289 106.651C71.5114 106.216 69.8528 105.949 68.238 105.502C67.3378 104.335 66.5796 103.067 65.6514 101.915C63.9847 99.8465 59.482 95.7393 59.6233 92.9923C59.6419 92.6289 59.7736 92.2833 60.055 92.0408C60.7683 91.4257 62.1698 91.7061 63.0442 91.7765Z" fill="#F9A8D4"/>
<path d="M72.2794 89.2522C72.3877 89.448 72.5237 89.6354 72.469 89.8673C72.4371 90.0023 72.3801 90.1379 72.3307 90.2676L72.1963 90.3095C72.1205 90.4455 72.1051 90.5291 72.0787 90.6797L72.1876 90.7696L72.7169 90.626L72.7746 90.676L72.6553 90.8341C72.5449 90.8679 72.4371 90.9013 72.3315 90.9487C72.1554 91.0276 72.0383 91.068 71.8396 91.079C71.5323 90.919 71.3274 90.3921 71.0884 90.1145L71.0232 90.0402L71.371 89.8349C71.6837 89.6609 71.9801 89.4483 72.2794 89.2522Z" fill="#47273E"/>
<path d="M70.107 98.4443C69.8606 97.4807 69.53 96.5464 69.1151 95.6414C68.9153 95.2089 68.6369 94.8073 68.4664 94.3643C68.3624 94.0946 68.0996 93.48 68.2183 93.2204C69.1672 94.3775 70.0472 96.7189 70.3544 98.1613C70.7489 99.2137 71.2812 101.744 70.962 102.827L70.8684 102.896C70.7521 102.783 70.6923 102.675 70.6612 102.514C70.5796 102.09 70.6156 101.62 70.5717 101.188C70.4762 100.263 70.3213 99.3489 70.107 98.4443Z" fill="#47273E"/>
<path d="M78.7101 96.5785C78.7794 96.5949 78.8483 96.6323 78.9137 96.6607C78.8613 97.4718 73.9237 104.241 73.0206 105.529L72.8209 105.324C72.8237 105.092 72.951 104.946 73.074 104.754C73.8881 103.482 74.8469 102.284 75.6946 101.03C76.6887 99.5609 77.6006 97.9608 78.7101 96.5785Z" fill="#47273E"/>
<path d="M72.9943 90.8188C73.1006 91.0809 73.2064 91.3411 73.3282 91.5965C73.3042 91.6273 73.2797 91.6577 73.2562 91.6889C73.1885 91.7784 73.1413 91.854 73.0934 91.9536L73.1495 92.0809C73.3398 92.0761 73.5246 92.0743 73.7149 92.0861L73.797 92.194L73.7517 92.3034C73.5046 92.3335 73.363 92.3158 73.1678 92.475L73.1032 92.7538C73.3749 92.5271 73.6491 92.4175 73.9739 92.2915C74.7189 92.6784 75.3663 92.831 76.1905 92.9743L75.8022 93.6668C75.6466 93.4811 75.5969 93.3873 75.3651 93.3018C75.2134 93.3372 75.0731 93.3306 74.9191 93.3393C74.0621 93.3872 73.4363 93.9118 72.892 94.5116C72.8401 93.999 72.7366 93.4935 72.6425 92.9871C72.4852 92.3389 72.2267 91.9239 71.8387 91.3936C71.9028 91.3845 71.9667 91.3745 72.0307 91.3662C72.1852 91.3461 72.356 91.3402 72.5056 91.2965C72.7631 91.2212 72.8631 91.031 72.9943 90.8188Z" fill="#47273E"/>
<path d="M85.9225 102.982C86.3194 102.966 86.8502 102.895 87.2302 102.979C87.4038 103.018 87.415 103.041 87.4974 103.184C87.3435 103.477 87.1161 103.406 86.8136 103.397C83.3693 103.293 79.5701 104.105 76.5861 105.853C76.2038 106.1 75.8661 106.345 75.407 106.423L75.4811 106.259L75.5098 106.417L75.4272 106.327C75.502 106.21 75.4826 106.227 75.5671 106.138C76.8044 104.83 80.7866 103.638 82.5087 103.322C83.6381 103.116 84.778 103.043 85.9225 102.982Z" fill="#47273E"/>
<path d="M63.0442 91.7765C62.9857 91.6882 62.9286 91.599 62.873 91.509C62.075 90.2376 61.5517 88.3407 61.9453 86.8578C62.0837 86.3363 62.368 85.8544 62.8504 85.5813C63.5296 85.1968 64.3946 85.3209 65.1111 85.5199C64.9886 85.9849 65.006 86.4618 65.0514 86.9367C65.5373 87.7502 66.2576 88.376 67.1902 88.6323C67.619 88.7502 69.013 88.71 69.2009 88.8871C68.1845 89.1678 67.1673 89.5063 66.6035 90.4709C66.4191 90.7864 66.3256 91.1509 66.207 91.4946L65.9528 91.5669L65.9676 91.6674L66.1287 91.7566C66.2179 92.7197 66.1428 93.7091 66.1442 94.6765C65.5065 93.7909 64.905 93.0512 64.008 92.4089C63.7013 92.1894 63.329 92.0155 63.0442 91.7765Z" fill="#47273E"/>
<path d="M52.5503 68.5585C52.588 68.5527 52.6257 68.5473 52.6631 68.5409C53.0939 68.4683 53.5407 68.2607 53.9566 68.1238C54.6442 67.8937 55.345 67.7145 56.059 67.5863C60.6829 66.7518 65.6127 67.956 69.461 70.5793C70.2941 71.1472 71.0457 71.8058 71.7985 72.4722C70.6381 74.0102 70.4553 75.6914 70.3784 77.5567C70.3601 78.0012 70.4106 78.6098 70.2744 79.0274C69.8774 78.8894 69.5531 78.844 69.1651 79.0455C68.7038 79.2851 68.4218 79.8418 68.3027 80.3236C68.2446 80.558 68.2224 80.7978 68.202 81.0377C67.5656 81.1755 67.0633 81.3823 66.6928 81.9361C66.4501 82.299 66.3592 82.7045 66.1674 83.0839C66.2062 83.7008 66.2761 83.9519 66.7228 84.4011C66.115 84.7041 65.6438 85.074 65.129 85.5094C65.1237 85.5138 65.117 85.5165 65.111 85.5199C64.3946 85.3209 63.5296 85.1968 62.8504 85.5813C62.368 85.8544 62.0836 86.3363 61.9453 86.8578C61.5517 88.3407 62.075 90.2376 62.873 91.509C62.9286 91.599 62.9857 91.6882 63.0442 91.7765C62.1698 91.7061 60.7682 91.4257 60.055 92.0408C59.7736 92.2834 59.6418 92.6289 59.6232 92.9923C59.482 95.7393 63.9847 99.8465 65.6513 101.915C66.5795 103.067 67.3378 104.335 68.238 105.502C65.5275 104.913 62.8291 104.273 60.1429 103.584C59.0174 103.3 57.8499 103.059 56.7462 102.705L56.243 102.617C55.0767 98.3286 54.1717 93.9549 53.0567 89.6482C52.0256 85.6654 50.6207 81.6247 50.1281 77.535C50.0861 76.2495 50.0571 74.9317 50.296 73.662C50.4434 72.8786 51.4553 68.8788 52.1785 68.4767C52.2925 68.4135 52.4378 68.5163 52.5503 68.5585Z" fill="#C7D2FE"/>
<path d="M57.8796 79.6673C58.1486 79.3166 58.4143 79.5633 58.5565 79.0288L58.7074 79.0142C58.7828 79.1417 58.8084 79.2085 58.8431 79.3474L58.9646 79.3465C59.0509 79.1926 59.0601 79.0623 59.0777 78.8891L59.1929 78.8398C59.3376 78.9572 59.3911 79.0614 59.4806 79.2189C59.728 79.6544 60.1626 79.8699 60.426 80.2724C60.6583 80.6277 60.5756 81.1097 60.8192 81.4496L60.8946 81.4019C60.913 81.2048 60.8838 81.0866 61.0239 80.9366C61.3052 80.9671 61.9155 81.2527 62.1039 81.4644C62.1196 81.4821 62.131 81.5032 62.1446 81.5226L62.006 81.6488C61.5688 81.7777 61.1536 81.7549 60.7048 81.7119C60.5159 81.9712 60.3311 82.2339 60.1265 82.4813L59.9166 82.6983L59.6592 82.8512C59.5795 82.9458 59.4733 83.0108 59.4847 83.1409C59.498 83.2924 59.5619 83.3974 59.6294 83.5314C59.3021 83.6584 58.9835 83.933 58.6356 83.9806C58.5024 83.9987 58.4757 83.9327 58.3801 83.8553C58.2816 83.5802 58.2619 83.3468 58.2498 83.0562L58.266 82.9477C57.7816 82.9037 57.5232 82.5405 57.2174 82.2048C56.9837 81.6994 56.6973 81.2339 56.4412 80.7413C56.5993 80.7396 56.762 80.749 56.9174 80.7188C57.0263 80.4999 57.1829 80.2917 57.3181 80.0867L57.8796 79.6673Z" fill="#FFFEFE"/>
<path d="M50.1281 77.535C50.0861 76.2496 50.0571 74.9317 50.296 73.662C50.4434 72.8786 51.4553 68.8788 52.1785 68.4767C52.2925 68.4135 52.4378 68.5164 52.5503 68.5585C52.1299 69.1594 51.871 69.9024 51.6215 70.5873C50.584 73.4352 50.2478 76.3756 50.7971 79.3679C51.0634 80.8181 51.5237 82.2364 51.907 83.6596C52.6087 86.2038 53.2813 88.7556 53.9247 91.315C54.5265 93.7201 55.1098 96.1296 55.6747 98.5434C56.0011 99.9181 56.2581 101.381 56.7462 102.705L56.243 102.617C55.0767 98.3286 54.1717 93.9549 53.0567 89.6482C52.0256 85.6654 50.6207 81.6247 50.1281 77.535Z" fill="#47273E"/>
<path d="M66.1674 83.0839C65.5614 81.8478 64.7166 80.7429 64.1065 79.4978C62.9397 77.1172 62.0542 74.3269 61.8669 71.6874C61.8361 71.2527 61.7697 70.6291 61.9432 70.2221C62.0314 70.0156 62.1258 69.965 62.3223 69.8714C62.6292 69.8736 62.8585 69.9348 63.1425 70.0505C65.6872 71.0873 68.0973 73.6137 69.1992 76.0843C69.6134 77.0129 69.8283 78.0125 70.2358 78.9416L70.2744 79.0274C69.8774 78.8894 69.5531 78.844 69.1651 79.0455C68.7039 79.2851 68.4219 79.8418 68.3027 80.3236C68.2447 80.558 68.2224 80.7978 68.2021 81.0377C67.5657 81.1755 67.0634 81.3823 66.6929 81.9361C66.4502 82.299 66.3593 82.7045 66.1674 83.0839Z" fill="#F9A8D4"/>
<path d="M75.4539 3.6407C74.9093 3.49093 74.5303 3.35162 74.2401 2.84416C73.9692 2.37025 73.9352 1.74814 74.088 1.23131C74.2169 0.794643 74.4828 0.372286 74.9034 0.163346C75.3195 -0.0432769 75.8164 -0.0488506 76.247 0.118207C76.7428 0.31052 77.1359 0.714653 77.3406 1.19893C77.5167 1.61536 77.5505 2.09791 77.3605 2.51572C77.0875 3.11647 76.5573 3.44759 75.9679 3.6901C76.2322 4.67964 76.8823 5.74289 77.5132 6.55319C78.1905 6.71253 80.5267 5.80107 81.3542 5.62281L81.4931 5.10635C81.5325 4.93317 81.5925 4.87922 81.4962 4.72216C81.1791 4.2046 80.9187 3.54953 81.0774 2.93507C81.1604 2.61393 81.3597 2.39511 81.6531 2.24338C82.1535 1.98461 82.6783 1.94986 83.2016 2.15248C83.5001 2.26804 83.7559 2.49879 83.8787 2.79497C84.0356 3.17325 83.9911 3.63483 83.8222 4.00097C83.6205 4.43832 83.235 4.76827 82.7799 4.92846C82.5906 4.99512 82.397 5.00618 82.2003 5.03486C82.0006 5.06401 81.9509 5.10298 81.8357 5.2846C81.7934 5.3513 81.7481 5.46732 81.7167 5.54281C81.7061 5.89827 81.6777 6.26289 81.7015 6.61761C81.7031 7.44217 81.7292 8.28278 81.6769 9.10508L81.7 9.51325C82.04 9.79366 83.7138 9.99282 84.2014 10.1151C86.6206 10.721 89.0787 12.5287 89.319 15.1715C89.3941 15.997 89.1813 16.7688 88.8392 17.5118C93.4643 18.8442 97.6236 24.1251 100.112 27.9912C101.111 29.5424 102.012 31.1938 102.906 32.8079C103.816 34.461 104.683 36.1363 105.507 37.8337C106.316 39.496 112.518 52.7784 112.571 53.8055C112.527 53.7925 112.483 53.7783 112.438 53.7665C112.376 53.7501 112.313 53.7384 112.25 53.7247C114.239 55.9529 115.769 58.3411 116.509 61.2614C116.706 62.041 116.667 63.0156 116.937 63.7448C117.006 66.3169 116.703 70.8592 115.186 72.9763C114.542 71.5927 114.073 70.1066 113.451 68.7045C112.513 66.6065 111.434 64.583 110.213 62.6341C106.849 57.2087 103.72 54.6632 97.4661 53.0797C93.8668 52.1683 90.1495 51.6087 86.6227 50.4376C85.1911 49.9623 82.8633 49.2485 81.8286 48.1951C80.9468 47.2975 81.0563 45.2563 81.04 44.0697C76.7714 43.6378 72.4715 41.0549 69.7206 37.8383C71.9735 39.6454 74.7605 40.6491 77.6667 40.3462C77.8133 40.3311 77.9593 40.3126 78.1048 40.2904C78.2504 40.2683 78.3954 40.2426 78.5397 40.2134C78.6839 40.1842 78.8274 40.1514 78.9702 40.1152C79.1128 40.079 79.2545 40.0393 79.3951 39.9961C79.5359 39.953 79.6754 39.9064 79.8138 39.8564C79.9522 39.8064 80.0893 39.7531 80.225 39.6964C80.3607 39.6398 80.495 39.5799 80.6279 39.5167C80.7606 39.4534 80.8917 39.387 81.0211 39.3174C81.1506 39.2477 81.2783 39.175 81.4042 39.0991C81.5301 39.0232 81.6539 38.9443 81.7759 38.8624C81.8978 38.7804 82.0177 38.6956 82.1355 38.6078C82.2532 38.52 82.3687 38.4294 82.4819 38.336C82.5952 38.2426 82.706 38.1465 82.8145 38.0477C82.923 37.9489 83.0289 37.8474 83.1323 37.7434C83.2357 37.6394 83.3365 37.533 83.4347 37.424C83.5328 37.315 83.6282 37.2037 83.7209 37.0902C86.9353 33.1425 85.8875 28.1938 85.3653 23.5629C84.3302 23.1442 83.209 23.0575 82.1921 22.6612C81.9291 22.5586 81.753 22.4412 81.6405 22.1816C81.7429 21.9665 81.8641 21.8931 82.0915 21.8201C82.9384 21.5483 84.4858 22.3146 85.2236 22.6632C85.012 21.486 84.8094 20.2989 84.4686 19.1506C81.8185 18.3335 79.533 16.846 77.424 15.085C76.8927 15.8247 76.4272 16.597 75.8623 17.3166C74.2755 19.3384 72.2473 20.9208 70.111 22.3327C68.8284 23.1805 67.523 23.9231 66.3436 24.9181C65.7981 24.5779 65.2656 24.2872 64.6153 24.1954C64.0243 24.1121 63.3931 24.2126 62.9159 24.5873C62.5337 24.8874 62.3107 25.3213 62.2743 25.8023C62.2034 26.7382 62.8056 27.5309 63.3729 28.2115L63.516 28.3848C64.2053 28.9474 64.8111 29.3318 65.6899 29.5546L66.6349 29.3109C66.3178 31.3235 66.4661 33.4766 66.4647 35.5128L66.4579 44.2045C66.4566 45.6635 66.4973 47.1362 66.4519 48.5937C65.3205 49.6698 63.5705 50.1943 62.0993 50.6212C53.1048 53.2314 46.3704 52.5409 40.4592 61.2599C38.4585 64.211 36.9212 67.5675 35.6323 70.8778C35.1477 72.1226 34.756 73.6395 34.1751 74.8075C32.6855 73.6535 31.4384 72.0238 30.7329 70.2813C30.6409 70.0554 30.5568 69.8268 30.4804 69.5952C30.404 69.3637 30.3356 69.1299 30.2751 68.8937C30.2147 68.6576 30.1624 68.4197 30.1183 68.18C30.0741 67.9404 30.0381 67.6995 30.0103 67.4575C29.9826 67.2154 29.9631 66.9727 29.9519 66.7294C29.9408 66.486 29.9379 66.2425 29.9433 65.999C29.9487 65.7554 29.9625 65.5123 29.9844 65.2697C30.0064 65.0271 30.0367 64.7854 30.0752 64.5448C31.2383 57.0981 38.3188 56.9505 39.0941 54.875C39.454 53.9112 38.411 52.2796 37.9854 51.4201C37.358 50.0908 36.9573 48.7377 37.1738 47.261C37.9185 42.1816 43.4715 39.1043 47.25 36.3279C54.3295 31.1257 57.504 25.1379 58.7741 16.6576L58.833 16.2903C57.9438 15.5687 57.1856 14.5013 56.4786 13.6006C55.3492 12.1619 54.2475 10.6884 52.9709 9.37312C55.8345 8.19244 59.0549 7.5264 62.0889 6.9197C62.2678 6.76226 62.4501 6.61726 62.6544 6.49249C63.113 6.21231 63.4984 6.24084 64.0065 6.35398C64.993 5.829 67.7509 6.0167 68.3474 5.23959C67.7394 5.00518 67.0949 4.68191 66.8189 4.05418C66.6272 3.61794 66.6559 3.04847 66.8335 2.61211C66.8527 2.56361 66.8745 2.51624 66.8988 2.47001C66.9232 2.42379 66.9499 2.37897 66.9789 2.33555C67.0081 2.29212 67.0394 2.25033 67.0728 2.21019C67.1064 2.17004 67.142 2.13176 67.1797 2.09535C67.2172 2.05893 67.2567 2.02458 67.298 1.99229C67.3393 1.96001 67.3821 1.92997 67.4266 1.90217C67.471 1.87438 67.5168 1.84898 67.5641 1.82599C67.6112 1.80299 67.6594 1.78252 67.7088 1.76458C68.1964 1.58857 68.7381 1.66577 69.1886 1.90767C69.6552 2.15826 70.0112 2.58021 70.1349 3.09657C70.3106 3.82965 69.9996 4.42342 69.6145 5.01762C70.4603 5.59035 71.9432 5.02901 72.9252 5.1278C73.6223 4.86257 74.3613 4.5221 75.1028 4.42146C75.4119 4.3795 75.5065 4.42229 75.7506 4.61247L75.4539 3.6407Z" fill="#1E1B4B"/>
<path d="M69.6145 5.01761C70.4603 5.59034 71.9432 5.02899 72.9251 5.12779C72.0957 5.4894 71.0328 5.82535 70.3087 6.35902L70.0857 6.26586C69.9767 5.84711 69.6317 5.44905 69.6145 5.01761Z" fill="#A5B4FC"/>
<path d="M95.0004 45.6313C95.3392 45.6242 95.5982 45.6485 95.871 45.8553C96.0184 46.1179 95.9575 46.4789 95.9474 46.7717L96.0314 46.8002C96.1345 46.7721 96.2382 46.7465 96.3425 46.7233C96.5726 46.6735 96.7571 46.6922 96.9475 46.8465C97.1027 46.9724 97.171 47.131 97.171 47.3263C97.1711 47.5489 97.0801 47.6926 96.9242 47.8453C96.6283 47.979 96.3413 47.9315 96.0273 47.9079C95.9114 48.0853 95.9201 48.1061 95.9368 48.3231C95.9586 48.6042 95.9185 48.7113 95.7868 48.9505C95.565 49.0235 95.2529 49.0895 95.0219 49.03C94.5174 48.8998 94.8685 48.2788 94.6934 47.929C94.6159 47.937 94.5381 47.9436 94.4608 47.9532C94.1876 47.9865 94.0262 48.0247 93.7687 47.8946C93.5703 47.7944 93.4453 47.5685 93.4082 47.353C93.3716 47.1399 93.3956 47.0936 93.5035 46.9225C93.8447 46.7249 94.294 46.7661 94.6812 46.7069C94.6975 46.5904 94.6989 46.6413 94.6826 46.53C94.6689 46.4355 94.6422 46.3194 94.6511 46.2243C94.6744 45.971 94.8366 45.8083 95.0004 45.6313Z" fill="#FFFEFE"/>
<path d="M48.4045 48.059C48.5512 48.0613 48.7117 48.0565 48.8559 48.0837C49.5561 48.2155 49.0896 48.8999 49.3502 49.3045C49.718 49.2271 50.029 49.1462 50.3818 49.3175C50.5054 49.4526 50.5624 49.5567 50.5878 49.7413C50.6234 50.0001 50.5636 50.1399 50.4046 50.3388C50.1115 50.475 49.877 50.4047 49.5712 50.4426C49.1021 50.5007 49.5053 51.0148 49.0409 51.5349C48.9238 51.5636 48.9048 51.5728 48.7833 51.5838C48.4935 51.6096 48.3183 51.575 48.0944 51.3915C47.965 51.1089 48.0208 50.8216 48.0472 50.5216L47.9344 50.4315C47.7043 50.4592 47.3125 50.5368 47.1111 50.3925C46.911 50.249 46.8154 49.9843 46.7949 49.7465C46.7832 49.6106 46.8201 49.4504 46.9232 49.3549C47.1226 49.1701 47.3707 49.1539 47.6292 49.1443C47.7824 49.1387 47.8776 49.1357 48.0283 49.097C48.0409 48.6062 48.0571 48.4214 48.4045 48.059Z" fill="#FFFEFE"/>
<path d="M68.3474 5.23955C68.6037 5.27716 68.8607 5.31165 69.1164 5.35297C69.319 5.74057 69.502 6.17433 69.7903 6.50619C69.8266 6.79912 69.6794 7.02535 69.5653 7.29308C69.5066 7.44057 69.4226 7.55972 69.3333 7.69045C69.0775 7.81476 65.3265 8.48769 65.201 8.45466C65.0046 8.11945 65.0429 7.6964 64.9525 7.32549C64.8427 6.87411 64.3704 6.5941 64.0065 6.35394C64.993 5.82897 67.7509 6.01666 68.3474 5.23955Z" fill="#A5B4FC"/>
<path d="M52.9709 9.37311C55.8345 8.19243 59.0549 7.52639 62.0889 6.91969C61.883 7.35229 61.7722 7.85299 61.9215 8.32317C62.0472 8.71881 62.3829 9.00283 62.7507 9.17537C63.1818 9.3775 63.5582 9.36935 64.0223 9.31424L64.143 9.37045C64.3645 9.28277 64.5694 9.14108 64.8029 9.20433L64.8823 9.36779C64.7843 9.51778 64.7104 9.59763 64.5271 9.64194C64.4049 9.67137 64.2667 9.67263 64.1412 9.67936L64.2451 9.86223C62.1803 10.5211 60.7288 11.8854 59.7429 13.7957C59.335 14.5857 59.0593 15.4337 58.833 16.2903C57.9438 15.5687 57.1856 14.5013 56.4786 13.6006C55.3493 12.1619 54.2475 10.6884 52.9709 9.37311Z" fill="#A5B4FC"/>
<path d="M70.4275 6.69334C71.3434 6.1645 74.6991 4.67829 75.6221 4.72971C76.1973 5.31657 76.6041 6.02323 77.0864 6.68163C77.1657 6.75387 77.2565 6.84626 77.3491 6.90388C78.0409 7.33459 79.4619 6.59066 80.1728 6.36868C80.5327 6.25623 80.9081 6.18748 81.2785 6.11637C81.3425 7.24253 81.2341 8.37765 81.3064 9.49507C80.518 9.70894 78.766 9.51417 77.852 9.55598C75.0785 9.6828 72.0396 10.238 69.6107 11.6335C68.7925 12.1035 68.0668 12.7226 67.2511 13.1899C66.2239 12.2284 65.6387 10.8171 64.9944 9.58995L64.245 9.86223L64.1412 9.67935C64.2667 9.67262 64.4049 9.67137 64.527 9.64193C64.7104 9.59763 64.7843 9.51778 64.8822 9.36778L64.8029 9.20433C64.5693 9.14107 64.3645 9.28277 64.143 9.37045L64.0222 9.31424C64.1483 9.22327 64.3476 9.09943 64.496 9.057C64.7268 8.99077 64.8561 9.13559 65.0394 9.25145C65.1414 9.20793 65.0997 9.23454 65.1819 9.16566C66.0394 8.4467 67.588 8.5588 68.6524 8.31596C68.7409 8.30813 68.8295 8.30077 68.9174 8.28794C69.8825 8.1453 69.8769 7.40239 70.3844 6.74717C70.3985 6.72899 70.4131 6.71128 70.4275 6.69334Z" fill="#FFFEFE"/>
<path d="M88.0188 18.7413C88.3254 18.345 88.5867 17.944 88.8392 17.5119C93.4643 18.8443 97.6236 24.1252 100.112 27.9913C101.111 29.5424 102.012 31.1939 102.906 32.8079C103.816 34.4611 104.683 36.1364 105.507 37.8338C106.316 39.4961 112.518 52.7785 112.571 53.8056C112.527 53.7926 112.483 53.7783 112.438 53.7666C112.376 53.7502 112.313 53.7384 112.25 53.7248C110.612 52.0556 108.764 50.7098 106.702 49.6052C106.449 48.0232 106.138 46.4099 105.286 45.022C103.979 42.8936 101.652 41.5075 99.6647 40.0733C96.4038 37.7199 92.9446 34.7996 91.0777 31.2017C89.7317 28.6077 89.4135 25.8383 88.9174 23.0091C88.6654 21.5718 88.3618 20.1599 88.0188 18.7413Z" fill="#C7D2FE"/>
</svg>
