<svg width="238" height="225" viewBox="0 0 238 225" fill="none" xmlns="http://www.w3.org/2000/svg">
<path d="M116.892 0.00401053C117.717 -0.0247927 118.314 0.0920628 118.941 0.665749C119.398 1.08368 119.686 1.63224 119.671 2.2599C119.656 2.85099 119.391 3.28483 119.009 3.71423L118.58 4.02553C118.554 4.2991 118.584 4.31679 118.763 4.51717C120.014 5.91791 123.863 7.16446 125.73 7.19653C126.394 7.2054 127.058 7.19069 127.721 7.1524C128.009 7.31706 128.026 7.33424 128.169 7.63397C127.199 7.90018 126.102 7.93967 125.103 7.85787C122.744 7.66488 119.112 6.21977 117.565 4.42272C117.561 4.14952 117.36 4.21511 117.222 3.98226C117.549 3.93502 117.597 3.95177 117.828 3.7245C118.063 3.52844 118.266 3.42968 118.543 3.30853C118.772 2.81214 118.992 2.30459 118.793 1.75463C118.611 1.25137 118.201 1.00595 117.761 0.750075C117.661 0.736299 117.465 0.712447 117.372 0.685286C117.027 0.583605 117.013 0.306849 116.892 0.00401053Z" fill="#181052"/>
<path d="M128.082 7.02063C127.97 6.78082 127.891 6.56672 127.849 6.30369C127.769 5.80151 127.869 5.35118 128.18 4.94234C128.558 4.4447 129.167 4.16534 129.784 4.12585C130.329 4.09094 130.883 4.25859 131.29 4.62823C131.831 5.11872 131.929 5.76418 131.941 6.4583C131.854 6.88932 131.764 7.23856 131.56 7.63009C131.235 7.86791 130.602 8.18485 130.365 8.48234C130.128 8.38657 129.923 8.4453 129.665 8.38605C129.23 8.09606 128.671 7.77366 128.169 7.63401C128.026 7.33428 128.01 7.3171 127.721 7.15244L128.082 7.02063Z" fill="#181460"/>
<path d="M129.812 4.74707C130.349 4.93166 130.796 5.10379 131.074 5.63752C131.25 5.97661 131.306 6.39726 131.147 6.75459C130.997 7.09295 130.672 7.32048 130.32 7.40952C129.919 7.51093 129.463 7.45678 129.118 7.22405C129.054 7.18059 128.992 7.13274 128.928 7.08949C128.854 7.04015 128.777 6.99617 128.701 6.9497C128.603 6.54662 128.488 6.02596 128.632 5.62186C128.82 5.09928 129.345 4.93406 129.812 4.74707Z" fill="#1E1B4B"/>
<path d="M82.539 188.037L83.0914 188.422C81.8903 189.976 81.0931 191.865 80.0169 193.511C78.9319 195.929 77.5988 198.285 76.4375 200.676C74.4206 205.264 72.4834 209.82 70.8426 214.558C69.8406 217.451 69.0632 220.417 68.0864 223.318L67.6357 223.319C67.8526 221.818 68.4385 220.26 68.878 218.803C69.8253 215.715 70.877 212.663 72.0331 209.647C73.1893 206.631 74.4472 203.658 75.8069 200.728C77.0938 197.907 78.3965 195.045 80.0351 192.409C80.5307 191.075 81.7877 189.327 82.539 188.037Z" fill="#6A74EE"/>
<path d="M116.892 0.00390625C117.013 0.306744 117.027 0.583501 117.372 0.685182C117.465 0.712343 117.661 0.736195 117.762 0.749971C118.201 1.00584 118.611 1.25127 118.793 1.75453C118.992 2.30449 118.772 2.81203 118.543 3.30843C118.266 3.42958 118.063 3.52834 117.828 3.7244C117.597 3.95166 117.549 3.93492 117.222 3.98216C117.36 4.21501 117.561 4.14941 117.565 4.42261C117.197 4.36584 116.915 4.45904 116.565 4.55682C115.008 6.31419 110.916 7.81212 108.571 7.94241C108.04 7.97675 107.51 7.97573 106.979 7.93935C106.449 7.90299 105.923 7.8316 105.402 7.72517C104.922 7.97374 104.447 8.23111 103.977 8.49727C103.655 8.39532 103.33 8.3474 102.998 8.29384C102.577 8.11565 102.25 7.7481 101.908 7.4469C101.669 6.97173 101.557 6.48968 101.658 5.95769C101.765 5.39432 102.079 4.87015 102.575 4.56947C103.096 4.25438 103.734 4.23337 104.315 4.37283C105.783 4.72579 105.335 5.85459 106.003 6.78139C106.169 7.01159 106.352 7.141 106.632 7.20154C107.15 7.31357 107.788 7.26378 108.317 7.24626C111.446 7.14252 113.521 5.6322 116.095 4.0846C115.877 3.84322 115.642 3.59801 115.453 3.33356C115.043 2.76149 115.017 2.27323 115.129 1.59997C115.175 1.44524 115.218 1.29024 115.288 1.14365C115.608 0.466448 116.234 0.253992 116.892 0.00390625Z" fill="#181460"/>
<path d="M103.545 5.02588C103.776 5.05436 104.021 5.07844 104.242 5.15646C104.605 5.28501 104.886 5.58037 105.038 5.93047C105.175 6.24892 105.161 6.58598 105.015 6.89573C104.804 7.34273 104.482 7.47015 104.045 7.62822C103.745 7.61456 103.438 7.60689 103.154 7.49675C102.773 7.34886 102.402 6.91922 102.29 6.53154C102.279 6.49642 102.271 6.46083 102.264 6.42478C102.257 6.38873 102.252 6.35243 102.25 6.31587C102.247 6.27931 102.246 6.24271 102.247 6.20607C102.249 6.16944 102.252 6.13297 102.257 6.09667C102.262 6.06038 102.27 6.02447 102.279 5.98896C102.288 5.95345 102.299 5.91853 102.311 5.88419C102.324 5.84986 102.339 5.81632 102.356 5.78359C102.372 5.75085 102.39 5.7191 102.41 5.68833C102.683 5.26243 103.086 5.14286 103.545 5.02588Z" fill="#1E1B4B"/>
<path d="M117.762 0.75C118.201 1.00587 118.611 1.2513 118.793 1.75456C118.992 2.30452 118.772 2.81206 118.543 3.30846C118.266 3.4296 118.063 3.52837 117.828 3.72443C117.141 3.68849 116.636 3.61931 116.134 3.10635C115.868 2.83437 115.706 2.51187 115.75 2.11946C115.808 1.60189 116.14 1.27463 116.509 0.946327C116.916 0.849402 117.347 0.809935 117.762 0.75Z" fill="#1E1B4B"/>
<path d="M67.6357 223.319L68.0864 223.318L125.273 223.319L148.841 223.319C153.162 223.325 157.526 223.48 161.841 223.321L162.367 223.352L216.307 223.309C217.896 223.314 219.506 223.262 221.093 223.328C224.197 223.426 227.31 223.381 230.415 223.368C231.696 223.363 233.025 223.263 234.299 223.353C234.658 223.378 234.916 223.47 235.232 223.637C235.408 223.927 235.409 223.908 235.341 224.239C235.169 224.457 235.032 224.617 234.777 224.738C234.466 224.885 234.143 224.96 233.799 224.971C232.642 225.007 231.442 224.901 230.277 224.898L220.321 224.891L187.564 224.927L57.3085 224.906L22.7428 224.911C17.5788 224.912 12.394 225.062 7.23378 224.97C6.87981 224.964 6.39865 224.992 6.07727 224.826C5.77804 224.671 5.75856 224.517 5.66898 224.223C5.75731 223.854 5.78636 223.784 6.04135 223.504C7.80519 223.038 10.4702 223.311 12.3164 223.312L23.0999 223.323L67.6357 223.319Z" fill="#5B2448"/>
<path d="M135.698 177.257C136.558 178.247 137.397 179.253 138.215 180.276C143.763 187.503 148.397 194.285 152.757 202.337C153.954 204.549 155.24 206.792 156.208 209.115C158.325 213.79 160.337 218.405 161.841 223.321C157.526 223.48 153.162 223.325 148.841 223.319L125.273 223.319L68.0864 223.318C69.0632 220.417 69.8406 217.451 70.8426 214.558C72.4834 209.82 74.4206 205.264 76.4375 200.676C77.5988 198.285 78.9319 195.929 80.0169 193.511C81.0931 191.865 81.8903 189.976 83.0914 188.422C85.6361 189.797 88.22 191.098 90.7777 192.449C92.102 193.148 93.5109 193.818 94.7488 194.659C96.8677 195.801 98.9757 196.974 101.13 198.047L101.693 198.308C103.051 199.012 104.401 199.749 105.804 200.36L106.441 200.658C108.975 201.685 111.92 202.494 114.58 201.401C114.788 201.313 114.991 201.216 115.189 201.11C115.386 200.974 115.575 200.829 115.758 200.675C116.939 199.68 116.969 198.062 117.092 196.637C117.468 196.437 117.867 196.257 118.131 195.91C118.999 194.767 120.158 194.499 120.964 193.433C121.816 192.308 121.683 191.023 121.531 189.711L121.556 189.642C122.408 189.575 123.149 189.103 123.711 188.478C124.828 187.236 124.989 185.633 124.943 184.044L124.749 183.579C125.758 182.223 133.64 178.789 135.698 177.257Z" fill="#C7D2FE"/>
<path d="M94.7488 194.659C96.8678 195.801 98.9757 196.974 101.13 198.047L101.693 198.308C103.052 199.012 104.401 199.749 105.804 200.361L106.441 200.658L101.995 211.037C101.191 212.913 100.228 214.814 99.5776 216.742L98.8143 216.614C93.531 215.95 88.2826 215.077 83.0691 213.995C84.0167 212.159 85.2185 210.383 86.2932 208.614C89.1193 203.963 92.0706 199.4 94.7488 194.659Z" fill="#F9A8D4"/>
<path d="M101.13 198.047L101.693 198.308C101.076 199.964 100.175 201.579 99.4738 203.212C98.2317 206.102 97.1273 209.05 95.889 211.942C95.6976 212.388 94.9681 214.19 94.5868 214.342C94.5679 214.304 94.5441 214.268 94.5304 214.228C94.4187 213.898 94.5265 213.298 94.6221 212.971C95.0991 211.339 95.9915 209.636 96.6538 208.058C98.0502 204.728 99.3197 201.172 101.13 198.047Z" fill="#2926AB"/>
<path d="M105.804 200.36L106.441 200.658L101.995 211.036C101.191 212.912 100.228 214.813 99.5776 216.741L98.8142 216.613C100.871 211.116 103.446 205.739 105.804 200.36Z" fill="#2926AB"/>
<path d="M197.898 143.323C204.254 144.282 211.1 146.922 216.456 150.452C218.318 151.771 220.218 153.076 221.941 154.577C229.772 161.401 235.641 170.707 237.411 181.015C239.411 192.669 236.215 204.892 229.417 214.473C227.059 217.797 224.12 220.617 221.093 223.328C219.506 223.263 217.896 223.314 216.307 223.309C215.351 219.64 213.493 215.899 211.788 212.531C204.687 198.503 193.28 185.246 180.776 175.764C177.902 173.585 174.919 171.661 171.862 169.756C172.845 169.858 173.887 170.225 174.862 170.434C177.407 170.981 180.138 170.465 182.52 169.494C185.06 168.458 187.396 166.922 189.092 164.744C191.508 161.64 192.941 156.345 194.319 152.574C195.443 149.464 196.636 146.38 197.898 143.323Z" fill="#F472B6"/>
<path d="M28.4209 137.964C36.0619 135.419 41.1792 134.695 49.177 135.337C49.35 135.957 48.6438 137.672 48.4424 138.364L45.8152 147.258C45.1809 149.387 44.3845 151.59 44.0319 153.785C43.2271 158.793 44.9675 164.099 48.3366 167.837C49.8584 169.526 51.6113 170.754 53.5796 171.866C54.5167 172.396 55.559 172.904 56.3984 173.58C41.2516 183.839 26.9399 200.489 20.1559 217.547C16.0644 215.451 12.0809 211.139 9.32745 207.474C1.76477 197.407 -1.30308 185.751 0.50557 173.239C2.12983 162.002 8.07041 151.015 17.2443 144.156C20.7831 141.549 24.3179 139.576 28.4209 137.964Z" fill="#F472B6"/>
<path d="M152.401 156.026C153.168 156.145 153.987 156.413 154.673 156.779C155.51 158.049 157.093 162.116 157.773 162.779C159.972 162.693 162.175 162.564 164.376 162.605C165.704 164.722 167.052 165.884 168.396 167.743C169.38 168.559 170.722 169.169 171.862 169.756C174.919 171.661 177.902 173.585 180.776 175.764C193.28 185.246 204.687 198.503 211.788 212.531C213.493 215.899 215.351 219.64 216.307 223.309L162.367 223.352L161.841 223.321C160.337 218.405 158.325 213.79 156.208 209.115C155.24 206.792 153.954 204.549 152.757 202.337C148.397 194.285 143.763 187.503 138.215 180.276C137.397 179.253 136.558 178.246 135.698 177.257C133.64 178.789 125.758 182.223 124.749 183.579L124.943 184.043C123.169 182.952 120.785 183.069 118.787 182.704C119.691 182.06 120.521 181.26 121.373 180.548C122.867 179.314 124.37 178.092 125.881 176.879C130.85 172.833 135.908 168.903 141.057 165.088L141.726 165.334C142.979 165.419 144.069 165.472 145.273 164.992C146.22 164.615 147.152 163.963 147.553 162.991C147.978 161.959 147.71 161.111 147.328 160.135C147.927 160.169 148.537 160.201 149.128 160.073C150.284 159.824 151.526 159.167 152.131 158.112C152.54 157.401 152.607 156.808 152.401 156.026Z" fill="#C7D2FE"/>
<path d="M169.666 183.966C170.501 183.914 171.17 184.042 171.956 184.3C172.301 184.648 172.586 184.992 172.761 185.456C173.026 186.156 173.048 186.91 172.704 187.585C172.281 188.42 171.598 188.712 170.747 188.982C170.175 189.014 169.691 188.988 169.166 188.737C169.081 188.697 168.999 188.653 168.919 188.604C168.838 188.556 168.761 188.504 168.686 188.448C168.611 188.392 168.538 188.333 168.469 188.27C168.4 188.207 168.334 188.141 168.271 188.071C168.208 188.002 168.149 187.93 168.094 187.855C168.038 187.779 167.986 187.702 167.938 187.621C167.89 187.541 167.847 187.458 167.807 187.374C167.767 187.289 167.731 187.203 167.7 187.114C167.486 186.491 167.522 185.827 167.838 185.246C168.234 184.518 168.91 184.208 169.666 183.966Z" fill="#FFFEFE"/>
<path d="M179.34 203.116C179.739 203.153 180.125 203.199 180.501 203.345C180.587 203.379 180.671 203.416 180.753 203.458C180.835 203.5 180.915 203.546 180.993 203.596C181.07 203.646 181.145 203.7 181.217 203.757C181.289 203.815 181.358 203.876 181.424 203.94C181.49 204.004 181.553 204.072 181.612 204.143C181.671 204.213 181.727 204.287 181.779 204.363C181.831 204.439 181.879 204.518 181.923 204.599C181.967 204.68 182.006 204.763 182.042 204.848C182.077 204.931 182.107 205.016 182.132 205.103C182.158 205.189 182.179 205.277 182.196 205.365C182.213 205.454 182.225 205.543 182.233 205.633C182.24 205.723 182.243 205.813 182.242 205.903C182.24 205.994 182.234 206.083 182.223 206.173C182.212 206.263 182.196 206.351 182.176 206.439C182.157 206.527 182.132 206.614 182.103 206.7C182.074 206.785 182.041 206.869 182.003 206.951C181.588 207.86 180.822 208.308 179.911 208.615C179.26 208.626 178.646 208.605 178.07 208.264C177.995 208.22 177.923 208.172 177.854 208.121C177.784 208.07 177.717 208.016 177.653 207.958C177.589 207.901 177.528 207.84 177.469 207.776C177.411 207.713 177.356 207.646 177.305 207.577C177.253 207.508 177.205 207.437 177.161 207.363C177.116 207.289 177.076 207.213 177.039 207.135C177.002 207.057 176.969 206.977 176.94 206.896C176.911 206.815 176.886 206.733 176.865 206.649C176.665 205.872 176.806 204.995 177.259 204.331C177.775 203.573 178.468 203.28 179.34 203.116Z" fill="#FFFEFE"/>
<path d="M157.773 162.779C159.972 162.693 162.175 162.564 164.376 162.605C165.704 164.722 167.052 165.884 168.396 167.743C167.289 167.197 166.249 166.503 165.153 165.931C163.675 165.158 162.114 164.563 160.543 164.008C159.777 164.384 159.018 164.378 158.184 164.454L157.788 163.071L157.773 162.779Z" fill="#F472B6"/>
<path d="M157.787 163.071C158.712 163.367 159.63 163.679 160.543 164.007C159.777 164.383 159.018 164.377 158.184 164.454L157.787 163.071Z" fill="#C7D2FE"/>
<path d="M152.351 156.01C153.117 156.129 153.937 156.397 154.623 156.763C155.46 158.033 157.043 162.1 157.722 162.762L157.737 163.055L158.134 164.437C154.877 165.625 151.758 167.693 148.757 169.408C144.522 171.829 140.206 174.19 136.159 176.915C136.979 177.881 137.841 178.832 138.598 179.848C145.45 188.88 151.915 198.338 156.566 208.72C158.487 212.531 161.422 219.172 162.317 223.336L161.79 223.305C160.287 218.389 158.274 213.774 156.157 209.099C155.189 206.776 153.904 204.533 152.706 202.321C148.346 194.269 143.713 187.486 138.165 180.26C137.346 179.237 136.507 178.23 135.648 177.241C133.589 178.772 125.707 182.207 124.699 183.563L124.893 184.027C123.118 182.936 120.734 183.053 118.737 182.687C119.64 182.043 120.47 181.244 121.323 180.532C122.817 179.298 124.32 178.075 125.831 176.863C130.799 172.817 135.858 168.887 141.006 165.072L141.675 165.318C142.928 165.403 144.018 165.456 145.222 164.976C146.17 164.599 147.102 163.947 147.502 162.975C147.928 161.943 147.659 161.095 147.277 160.119C147.877 160.153 148.486 160.185 149.078 160.057C150.234 159.808 151.475 159.151 152.081 158.096C152.489 157.385 152.556 156.792 152.351 156.01Z" fill="#F9A8D4"/>
<path d="M141.057 165.089L141.726 165.334C140.079 166.973 137.947 168.298 136.078 169.69C132.423 172.411 128.835 175.311 125.285 178.173C123.591 179.538 121.561 180.93 120.112 182.547C121.721 182.724 123.223 183.036 124.749 183.579L124.943 184.044C123.169 182.952 120.785 183.069 118.787 182.704C119.691 182.06 120.521 181.26 121.373 180.548C122.867 179.315 124.37 178.092 125.881 176.879C130.85 172.833 135.908 168.903 141.057 165.089Z" fill="#2926AB"/>
<path d="M116.565 4.557C116.915 4.45922 117.197 4.36602 117.565 4.42279C119.112 6.21984 122.744 7.66495 125.103 7.85795C126.102 7.93975 127.199 7.90026 128.169 7.63404C128.671 7.77369 129.23 8.09609 129.665 8.38609C129.923 8.44534 130.128 8.3866 130.365 8.48238C129.964 9.43244 129.459 10.3223 128.959 11.2222C135.493 15.7319 137.662 19.8075 139.803 27.299L139.884 27.3924L139.492 27.5233L140.012 27.6319L139.873 27.7435C138.841 27.7344 137.514 27.2772 136.503 27.0208C134.234 26.4276 131.992 25.7466 129.776 24.9779C127.561 24.2093 125.379 23.3553 123.231 22.416C121.253 21.5636 119.319 20.5409 117.319 19.7555L117.195 19.708L116.999 19.8612C116.519 23.7223 114.063 27.4915 111.021 29.8332C108.583 31.7109 105.857 32.6986 103.193 34.126C102.503 34.4957 101.883 35.0548 101.138 35.2933C99.7504 35.0492 98.6381 34.8298 97.3723 35.6809C96.3817 36.3469 95.8196 37.5292 95.6144 38.6747C95.2861 40.5093 96.0107 42.8778 97.1259 44.3518C98.3159 45.9243 99.8963 46.3329 101.749 46.5685C102.584 50.2825 104.242 53.0346 106.87 55.7635C106.866 56.1665 106.779 56.3814 107.101 56.6776C107.169 56.7403 107.259 56.7739 107.331 56.832C107.343 56.842 107.348 56.8592 107.357 56.8729C106.763 58.0361 107.13 68.8092 107.097 70.7058C106.479 70.7735 105.86 70.8327 105.24 70.8836L104.149 71.0949C101.11 71.641 98.086 72.1916 95.1205 73.0648C83.2109 76.5716 71.9831 83.7903 64.8501 94.072C62.2509 97.8186 60.2315 102.118 58.6585 106.391C58.0051 108.166 57.5671 110.285 56.6455 111.923C55.4903 114.95 49.7872 134.645 49.177 135.337C41.1793 134.696 36.0619 135.419 28.4209 137.964C24.3179 139.576 20.7831 141.549 17.2443 144.156C17.1242 144.053 17.0152 143.941 16.9185 143.816C16.5099 143.286 15.8852 140.249 15.6519 139.428C15.424 138.604 15.2057 137.779 14.997 136.951C14.7883 136.122 14.5892 135.292 14.3999 134.459C14.2105 133.626 14.0309 132.791 13.861 131.954C13.6911 131.117 13.531 130.278 13.3806 129.437C13.2303 128.596 13.0897 127.754 12.959 126.91C12.8283 126.066 12.7074 125.22 12.5964 124.373C12.4854 123.527 12.3842 122.678 12.2929 121.829C12.2017 120.98 12.1203 120.13 12.0488 119.279C11.9774 118.428 11.9158 117.576 11.8642 116.723C11.8126 115.871 11.7709 115.018 11.7392 114.164C11.7074 113.311 11.6856 112.457 11.6738 111.603C11.6619 110.749 11.66 109.895 11.6681 109.041C11.6761 108.187 11.6941 107.333 11.7221 106.479C11.75 105.626 11.7879 104.772 11.8357 103.92C11.8835 103.067 11.9413 102.215 12.0089 101.363C12.0766 100.512 12.1542 99.6615 12.2417 98.8119C13.9929 82.0599 20.3235 64.7037 29.9814 50.8976C31.433 48.8223 32.9494 46.1986 34.9118 44.6101C34.8194 44.4184 34.7282 44.2261 34.6383 44.0331C33.3454 41.2547 33.0797 38.195 34.1684 35.2946C35.1874 32.5802 37.5037 30.2046 40.1369 29.0135C43.3834 27.5454 46.6617 27.7564 49.9374 28.9672C50.8938 28.0749 52.1742 27.462 53.2094 26.6394C53.8872 26.1053 54.5726 25.5811 55.2655 25.0666C55.9585 24.552 56.6585 24.0473 57.3656 23.5527C58.0729 23.0581 58.7871 22.5737 59.5082 22.0993C60.2291 21.625 60.9567 21.161 61.691 20.7074C62.4253 20.2537 63.1659 19.8106 63.9128 19.378C64.6597 18.9454 65.4125 18.5236 66.1714 18.1124C66.9304 17.7014 67.695 17.3012 68.4653 16.9117C69.2356 16.5223 70.0113 16.1439 70.7924 15.7765C71.5736 15.4093 72.3598 15.0532 73.1511 14.7082C73.9423 14.3632 74.7383 14.0296 75.539 13.7073C76.3397 13.3849 77.1449 13.074 77.9546 12.7746C78.7642 12.4752 79.5779 12.1874 80.3958 11.911C81.2137 11.6348 82.0352 11.3702 82.8605 11.1173C83.6859 10.8645 84.5148 10.6233 85.3471 10.3939C86.1792 10.1646 87.0145 9.94717 87.853 9.7416C88.6915 9.53603 89.5327 9.34243 90.3766 9.16078C92.4357 8.71395 94.5007 8.3827 96.5876 8.0946C97.7042 7.94046 101.163 7.78673 101.908 7.44708C102.25 7.74827 102.577 8.11583 102.998 8.29401C103.33 8.34758 103.655 8.3955 103.977 8.49745C104.447 8.23128 104.922 7.97392 105.402 7.72535C105.923 7.83177 106.449 7.90316 106.979 7.93953C107.51 7.9759 108.04 7.97692 108.571 7.94259C110.916 7.8123 115.008 6.31436 116.565 4.557Z" fill="#A5B4FC"/>
<path d="M34.9118 44.6102C34.8194 44.4185 34.7282 44.2261 34.6382 44.0331C33.3454 41.2548 33.0797 38.195 34.1684 35.2946C35.1874 32.5802 37.5036 30.2046 40.1369 29.0135C43.3834 27.5454 46.6617 27.7565 49.9374 28.9672C52.7849 30.6179 55.0027 32.8717 55.8546 36.1288C55.9011 36.3082 55.9431 36.4887 55.9805 36.6703C56.0181 36.8518 56.0512 37.0342 56.0796 37.2174C56.1081 37.4006 56.1321 37.5845 56.1515 37.769C56.171 37.9533 56.1859 38.138 56.1962 38.323C56.2065 38.5081 56.2122 38.6935 56.2134 38.8789C56.2145 39.0643 56.2111 39.2495 56.2031 39.4347C56.195 39.62 56.1825 39.8049 56.1655 39.9894C56.1483 40.1741 56.1267 40.3582 56.1005 40.5417C56.0742 40.7252 56.0434 40.908 56.0082 41.09C55.9729 41.2721 55.9332 41.4531 55.889 41.633C55.8448 41.8131 55.7962 41.992 55.7432 42.1696C55.6903 42.3474 55.6328 42.5237 55.571 42.6984C55.5093 42.8732 55.4433 43.0465 55.373 43.2181C55.3028 43.3896 55.2284 43.5594 55.1497 43.7272C55.071 43.8952 54.9883 44.0611 54.9014 44.2248C54.8145 44.3887 54.7237 44.5504 54.6288 44.7097C53.1141 47.2836 50.6291 49.0505 47.744 49.7849C44.7194 50.5551 41.4913 50.1757 38.8159 48.5428C37.1545 47.529 35.9797 46.2131 34.9118 44.6102Z" fill="#BE185D"/>
<path d="M116.565 4.557C116.915 4.45922 117.197 4.36602 117.565 4.42279C119.112 6.21984 122.744 7.66495 125.103 7.85794C126.102 7.93975 127.199 7.90026 128.169 7.63404C128.671 7.77369 129.23 8.09609 129.665 8.38609C129.923 8.44534 130.128 8.3866 130.365 8.48237C129.964 9.43244 129.459 10.3223 128.959 11.2222C135.493 15.7319 137.662 19.8075 139.803 27.299L139.884 27.3924L139.492 27.5233L140.012 27.6319L139.873 27.7435C138.841 27.7344 137.514 27.2772 136.503 27.0208C134.234 26.4276 131.992 25.7466 129.776 24.9779C127.561 24.2093 125.379 23.3553 123.23 22.416C121.253 21.5636 119.319 20.5409 117.319 19.7555L117.195 19.708L116.999 19.8612C116.519 23.7223 114.063 27.4915 111.021 29.8332C108.583 31.7109 105.857 32.6986 103.193 34.126C102.503 34.4957 101.883 35.0548 101.138 35.2933C99.7503 35.0492 98.6381 34.8298 97.3722 35.6809C96.3817 36.3469 95.8196 37.5292 95.6144 38.6747C95.2861 40.5093 96.0107 42.8778 97.1259 44.3518C98.3159 45.9243 99.8963 46.3329 101.749 46.5685C102.584 50.2825 104.242 53.0346 106.87 55.7635C106.866 56.1665 106.779 56.3814 107.101 56.6776C107.169 56.7403 107.259 56.7739 107.331 56.832C107.343 56.842 107.348 56.8592 107.357 56.8729C106.763 58.0361 107.129 68.8092 107.097 70.7058C106.479 70.7735 105.86 70.8327 105.24 70.8835L104.149 71.0948C101.11 71.641 98.086 72.1916 95.1205 73.0648C83.2109 76.5716 71.9831 83.7903 64.85 94.072C62.2509 97.8186 60.2315 102.118 58.6585 106.391C58.005 108.166 57.5671 110.285 56.6455 111.923C55.4903 114.95 49.7872 134.645 49.177 135.337C41.1792 134.696 36.0619 135.419 28.4209 137.964L28.3195 137.706C28.7332 136.265 29.4416 134.82 29.9581 133.399C31.67 128.689 33.5032 124.035 35.2642 119.346C37.7981 112.599 40.5678 105.997 43.2607 99.3151C49.7212 83.2863 56.7343 66.9033 64.8748 51.6521C65.7768 49.9624 66.7855 48.3438 67.7155 46.6719C68.6287 45.0308 69.473 43.3474 70.4155 41.7232C71.9787 39.0297 73.8266 36.4452 75.6015 33.8877C81.9529 24.7369 88.5695 17.0468 99.8247 14.1224C100.368 13.9812 100.572 13.951 101.061 14.2371C101.607 13.6463 104.585 11.2396 104.715 10.8682C104.053 10.0671 103.534 9.17983 102.998 8.29401C103.33 8.34757 103.655 8.3955 103.977 8.49745C104.447 8.23128 104.922 7.97392 105.402 7.72535C105.923 7.83177 106.449 7.90316 106.979 7.93953C107.51 7.9759 108.04 7.97692 108.571 7.94259C110.916 7.8123 115.008 6.31436 116.565 4.557Z" fill="#C7D2FE"/>
<path d="M116.565 4.557C116.915 4.45922 117.197 4.36602 117.565 4.42279C119.112 6.21984 122.744 7.66495 125.103 7.85794C126.102 7.93975 127.199 7.90026 128.169 7.63404C128.671 7.77369 129.23 8.09609 129.665 8.38609C129.923 8.44534 130.128 8.3866 130.365 8.48237C129.964 9.43244 129.459 10.3223 128.959 11.2222C135.493 15.7319 137.662 19.8075 139.803 27.299C137.154 26.6922 134.535 25.972 131.948 25.1382C129.361 24.3042 126.815 23.36 124.31 22.3054C121.903 21.2984 119.571 20.123 117.165 19.1204C115.604 20.2245 113.803 20.9221 112.058 21.6815C106.349 24.1662 100.653 26.053 94.5962 27.4942C95.57 22.2605 97.5462 18.2217 101.061 14.2371C101.607 13.6463 104.585 11.2396 104.715 10.8682C104.053 10.0671 103.534 9.17983 102.998 8.29401C103.33 8.34757 103.655 8.3955 103.977 8.49745C104.447 8.23128 104.922 7.97392 105.402 7.72535C105.923 7.83177 106.449 7.90316 106.979 7.93953C107.51 7.9759 108.04 7.97692 108.571 7.94259C110.916 7.8123 115.008 6.31436 116.565 4.557Z" fill="#1E1B4B"/>
<path d="M116.565 4.557C116.915 4.45922 117.197 4.36602 117.565 4.42279C119.112 6.21984 122.744 7.66495 125.103 7.85794C126.102 7.93975 127.199 7.90026 128.169 7.63404C128.671 7.77369 129.23 8.09609 129.665 8.38609L128.335 11.0405C127.497 12.2802 126.949 13.9079 126.363 15.2823C124.698 14.0802 122.959 13.4603 120.941 13.0955C116.32 12.2598 111.419 12.6582 107.484 15.3797C106.688 13.7324 105.874 12.0936 105.044 10.4635C104.71 9.79372 104.387 9.12546 103.977 8.49745C104.447 8.23128 104.922 7.97392 105.402 7.72535C105.923 7.83177 106.449 7.90316 106.979 7.93953C107.51 7.9759 108.04 7.97692 108.571 7.94259C110.916 7.8123 115.008 6.31436 116.565 4.557Z" fill="#FFFEFE"/>
<path d="M116.999 19.8613C116.519 23.7224 114.063 27.4916 111.021 29.8334C108.583 31.7111 105.857 32.6987 103.193 34.1261C102.503 34.4958 101.883 35.055 101.138 35.2935C99.7503 35.0493 98.6381 34.8299 97.3722 35.681C96.3817 36.3471 95.8195 37.5293 95.6144 38.6748C95.2861 40.5094 96.0107 42.8779 97.1259 44.3519C98.3159 45.9244 99.8963 46.3331 101.749 46.5686C102.584 50.2827 104.242 53.0348 106.87 55.7636C106.866 56.1666 106.779 56.3816 107.101 56.6777C107.168 56.7405 107.259 56.774 107.331 56.8321C107.343 56.8422 107.348 56.8593 107.357 56.8731C106.763 58.0362 107.129 68.8094 107.097 70.706C106.479 70.7736 105.86 70.8329 105.24 70.8837L104.149 71.095C101.11 71.6412 98.086 72.1917 95.1205 73.0649C83.2109 76.5718 71.9831 83.7905 64.85 94.0721C62.2509 97.8187 60.2315 102.118 58.6584 106.392C58.005 108.167 57.567 110.285 56.6454 111.923C54.222 110.149 52.3557 107.371 51.4508 104.529C51.3708 104.28 51.297 104.028 51.2295 103.775C51.1619 103.523 51.1006 103.268 51.0457 103.012C50.9909 102.756 50.9424 102.499 50.9002 102.24C50.858 101.982 50.8222 101.723 50.7929 101.462C50.7637 101.202 50.7408 100.941 50.7245 100.68C50.7081 100.419 50.6982 100.157 50.6948 99.8953C50.6915 99.6335 50.6946 99.3717 50.7041 99.1101C50.7138 98.8485 50.7299 98.5872 50.7525 98.3264C50.775 98.0656 50.8041 97.8054 50.8396 97.5459C50.8751 97.2866 50.9169 97.0282 50.9652 96.7708C51.0135 96.5134 51.0681 96.2574 51.1291 96.0028C51.1901 95.7482 51.2573 95.4952 51.3308 95.2438C51.4044 94.9925 51.4841 94.7431 51.57 94.4957C51.6559 94.2483 51.7479 94.0032 51.8461 93.7605C51.9442 93.5177 52.0482 93.2775 52.1582 93.0398C52.2681 92.8021 52.3839 92.5672 52.5056 92.3353C54.6504 88.2887 58.9036 85.4954 63.1894 84.1869C61.8767 82.7619 61.0223 80.9621 60.8731 79.0236C60.6864 76.5931 61.5464 74.2687 63.1479 72.4452C65.0157 70.3189 67.5353 69.483 70.291 69.2962C70.2668 67.0976 70.5519 65.0373 71.6599 63.1C73.0929 60.5942 75.4626 58.9851 77.4651 56.9898C81.4199 53.0483 85.5691 48.8386 88.6013 44.1337C92.103 38.7011 93.2297 34.1362 94.6337 27.9816C100.542 26.5572 106.073 24.8057 111.67 22.4289C113.468 21.665 115.351 20.922 116.999 19.8613Z" fill="#1E1B4B"/>
<path d="M17.8909 223.667C29.8648 182.68 68.6819 164.099 86.5937 159.932L93.7094 170.595C82.8151 182.852 71.9126 211.083 67.8231 223.667H17.8909Z" fill="#C7D2FE" stroke="#47273E"/>
<path d="M47.4922 203.008C48.1393 202.963 48.7387 202.94 49.3308 203.249C49.4126 203.291 49.492 203.337 49.569 203.388C49.6459 203.439 49.7201 203.493 49.7916 203.551C49.8629 203.609 49.9311 203.671 49.9962 203.736C50.0613 203.801 50.1229 203.869 50.181 203.941C50.239 204.012 50.2933 204.086 50.3439 204.163C50.3944 204.24 50.4408 204.32 50.483 204.401C50.5254 204.483 50.5634 204.567 50.5971 204.652C50.6308 204.738 50.6601 204.825 50.6849 204.914C50.8893 205.639 50.8057 206.42 50.4126 207.067C49.9336 207.855 49.2559 208.161 48.389 208.37C47.8559 208.392 47.4019 208.399 46.9046 208.184C46.1795 207.869 45.5882 207.331 45.3023 206.583C45.042 205.902 45.0678 205.168 45.4019 204.519C45.8662 203.616 46.5898 203.319 47.4922 203.008Z" fill="#FFFEFE"/>
<path d="M54.2141 186.447C54.6606 186.402 55.13 186.37 55.5678 186.487C56.3448 186.694 57.0257 187.19 57.406 187.904C57.4486 187.984 57.4868 188.067 57.5206 188.151C57.5545 188.235 57.584 188.321 57.6092 188.408C57.6342 188.495 57.6547 188.583 57.6706 188.673C57.6864 188.762 57.6977 188.852 57.7044 188.943C57.711 189.033 57.7128 189.124 57.7101 189.215C57.7073 189.305 57.6998 189.396 57.6875 189.486C57.6754 189.576 57.6586 189.665 57.6372 189.753C57.6159 189.841 57.5901 189.928 57.5596 190.014C57.221 190.978 56.5443 191.462 55.6502 191.874C55.1887 191.955 54.6307 192.012 54.1719 191.898C53.4247 191.713 52.7411 191.206 52.3878 190.519C52.3448 190.437 52.3061 190.353 52.2717 190.267C52.2372 190.181 52.2071 190.094 52.1814 190.005C52.1559 189.916 52.1349 189.826 52.1184 189.735C52.1019 189.644 52.09 189.552 52.0828 189.46C52.0756 189.367 52.0732 189.275 52.0754 189.183C52.0776 189.09 52.0844 188.998 52.0961 188.906C52.1075 188.814 52.1236 188.723 52.1444 188.633C52.1652 188.543 52.1904 188.454 52.2202 188.366C52.5701 187.356 53.2858 186.883 54.2141 186.447Z" fill="#FFFEFE"/>
<path d="M131.56 7.63013C131.613 7.65261 131.664 7.67675 131.717 7.69761C132.693 8.08166 137.924 8.37386 139.407 8.57367C142.157 8.94441 144.933 9.49356 147.627 10.1561C164.45 14.2935 178.354 22.0774 191.284 33.5232C192.576 34.6678 197.076 38.7777 197.782 40.0477C197.841 40.1553 197.879 40.2771 197.919 40.3929C199.412 41.3278 200.265 42.6226 201.012 44.1824C201.476 44.5408 201.809 45.0163 202.207 45.4416C204.3 47.6748 206.054 50.0261 207.723 52.5858C215.857 65.0638 222.075 79.5243 223.981 94.3725C224.369 97.3921 224.768 100.433 224.934 103.474C224.991 104.476 225.033 105.478 225.06 106.482C225.087 107.485 225.099 108.489 225.097 109.493C225.095 110.497 225.077 111.5 225.046 112.503C225.014 113.507 224.967 114.509 224.906 115.511C224.845 116.513 224.769 117.514 224.678 118.513C224.587 119.513 224.482 120.511 224.362 121.508C224.242 122.504 224.107 123.499 223.958 124.491C223.809 125.484 223.645 126.474 223.467 127.462C223.289 128.45 223.096 129.435 222.889 130.417C222.681 131.399 222.46 132.378 222.224 133.354C221.988 134.33 221.738 135.302 221.473 136.27C221.209 137.238 220.93 138.203 220.637 139.163C220.344 140.123 220.038 141.079 219.717 142.03C219.396 142.981 219.061 143.928 218.712 144.869C218.364 145.81 218.001 146.746 217.625 147.677C217.249 148.608 216.859 149.533 216.456 150.452C211.1 146.922 204.254 144.282 197.898 143.323C196.636 146.38 195.443 149.464 194.319 152.574C192.941 156.345 191.508 161.64 189.092 164.744C187.396 166.922 185.06 168.458 182.52 169.494C180.138 170.465 177.407 170.981 174.862 170.434C173.887 170.225 172.845 169.858 171.862 169.756C170.722 169.17 169.38 168.559 168.396 167.743C167.052 165.884 165.704 164.722 164.376 162.605C162.175 162.564 159.972 162.693 157.773 162.779C157.093 162.116 155.51 158.049 154.673 156.779C153.987 156.414 153.168 156.145 152.401 156.026C152.607 156.808 152.54 157.402 152.131 158.112C151.526 159.167 150.284 159.824 149.128 160.073C148.537 160.201 147.927 160.17 147.328 160.135C147.71 161.111 147.978 161.959 147.553 162.991C147.152 163.963 146.22 164.615 145.273 164.992C144.069 165.472 142.979 165.419 141.726 165.335L141.057 165.089C135.908 168.903 130.85 172.834 125.881 176.879C124.37 178.092 122.867 179.315 121.373 180.548C120.521 181.26 119.691 182.06 118.787 182.704C120.785 183.069 123.169 182.952 124.943 184.044C124.989 185.633 124.828 187.236 123.711 188.478C123.149 189.103 122.408 189.575 121.556 189.642L121.531 189.711C121.683 191.023 121.816 192.308 120.964 193.433C120.158 194.499 118.999 194.767 118.131 195.91C117.867 196.257 117.468 196.437 117.092 196.637C116.969 198.062 116.939 199.68 115.758 200.675C115.575 200.829 115.386 200.974 115.189 201.11C114.991 201.216 114.788 201.313 114.58 201.401C111.92 202.494 108.975 201.685 106.441 200.658L105.804 200.36C104.401 199.749 103.051 199.012 101.693 198.308L101.13 198.047C98.9757 196.974 96.8677 195.801 94.7488 194.659C93.5109 193.818 92.102 193.148 90.7777 192.449C88.22 191.098 85.6361 189.797 83.0914 188.422L82.539 188.037C81.8248 187.455 80.7883 186.98 79.9801 186.531C77.8425 185.343 75.6857 184.192 73.5098 183.075C69.2885 180.863 65.0915 178.536 60.9386 176.198C59.582 175.434 57.5096 174.581 56.3984 173.58C55.559 172.904 54.5167 172.396 53.5796 171.866C51.6113 170.754 49.8584 169.526 48.3366 167.837C44.9675 164.099 43.2271 158.793 44.0319 153.785C44.3845 151.59 45.1809 149.387 45.8152 147.258L48.4423 138.364C48.6438 137.672 49.35 135.957 49.177 135.337C49.7872 134.645 55.4903 114.95 56.6455 111.923C57.5671 110.285 58.005 108.166 58.6584 106.391C60.2315 102.118 62.2509 97.8186 64.85 94.072C71.9831 83.7903 83.2109 76.5716 95.1205 73.0648C98.086 72.1916 101.11 71.641 104.149 71.0949L105.24 70.8836C105.86 70.8327 106.479 70.7735 107.097 70.7058C107.129 68.8092 106.763 58.0361 107.357 56.8729C107.348 56.8592 107.343 56.8421 107.331 56.832C107.259 56.7739 107.169 56.7403 107.101 56.6776C106.779 56.3814 106.866 56.1665 106.87 55.7635C104.242 53.0346 102.584 50.2825 101.749 46.5685C99.8963 46.3329 98.3159 45.9243 97.1259 44.3518C96.0107 42.8778 95.2861 40.5093 95.6144 38.6747C95.8195 37.5292 96.3817 36.3469 97.3722 35.6809C98.6381 34.8298 99.7503 35.0492 101.138 35.2933C101.883 35.0548 102.503 34.4957 103.193 34.126C105.857 32.6986 108.583 31.711 111.021 29.8332C114.063 27.4915 116.519 23.7223 116.999 19.8612L117.195 19.708L117.319 19.7555C119.319 20.5409 121.253 21.5636 123.23 22.416C125.379 23.3553 127.561 24.2093 129.776 24.9779C131.992 25.7466 134.234 26.4276 136.503 27.0208C137.514 27.2772 138.841 27.7344 139.873 27.7435L140.012 27.6319L139.492 27.5233L139.884 27.3924L139.803 27.299C137.662 19.8075 135.493 15.7319 128.959 11.2222C129.459 10.3223 129.964 9.43245 130.365 8.48238C130.602 8.18489 131.235 7.86796 131.56 7.63013Z" fill="#FEB997"/>
<path d="M105.284 82.316C106.357 82.3022 111.914 82.0476 112.448 82.4998L112.422 82.8445C111.564 83.3247 109.414 83.0356 108.41 83.0192C106.429 83.015 104.44 83.0752 102.46 83.0241C102.033 83.0131 101.387 83.0423 101.07 82.71L101.149 82.4848C101.754 82.1661 104.454 82.3206 105.284 82.316Z" fill="#47273E"/>
<path d="M126.248 82.3147C127.715 82.3091 135.712 82.0429 136.411 82.4531L136.449 82.7363C135.919 83.2211 134.859 83.0513 134.174 83.0462L127.993 83.0567C126.649 83.0626 125.257 83.1652 123.927 82.9649L123.74 82.6379L123.816 82.9399L123.783 82.615C124.586 82.2583 125.389 82.3071 126.248 82.3147Z" fill="#47273E"/>
<path d="M79.5208 100.746C81.8905 99.8863 84.2603 99.0173 86.7172 98.4356C94.0352 96.703 100.902 97.8723 107.62 100.99C110.648 102.395 113.716 104.395 116.323 106.476C117.489 105.4 118.916 104.559 120.265 103.729C126.553 99.8576 133.629 97.4556 141.093 97.7551C141.905 97.7909 142.715 97.8545 143.522 97.9458C144.33 98.0372 145.133 98.1562 145.932 98.3028C146.731 98.4492 147.525 98.6229 148.312 98.8239C149.099 99.0249 149.878 99.2527 150.65 99.5073C151.789 99.8714 152.94 100.408 154.087 100.7C154.165 101.468 154.225 102.237 154.265 103.007C154.306 103.777 154.328 104.548 154.331 105.32C154.334 106.091 154.318 106.862 154.284 107.633C154.25 108.403 154.197 109.173 154.125 109.941C154.053 110.709 153.963 111.475 153.854 112.238C153.745 113.002 153.617 113.763 153.471 114.52C153.325 115.278 153.161 116.031 152.978 116.78C152.795 117.53 152.595 118.275 152.376 119.014C152.351 119.04 152.329 119.07 152.301 119.092C152.134 119.226 152.15 119.188 151.914 119.246C151.295 119.396 150.729 119.962 150.41 120.498C149.763 121.583 149.742 122.949 149.715 124.176C150.312 126.026 151.282 127.518 152.535 128.996C151.853 129.91 151.057 130.662 150.163 131.367C149.88 131.176 149.7 130.952 149.489 130.69C148.159 129.649 146.882 129.144 145.232 128.845C142.974 128.844 141.235 129.883 139.56 131.288C140.066 129.124 140.144 127.334 139.915 125.118C139.598 123.803 138.993 122.688 138.075 121.696C136.173 119.643 134.02 119.159 131.316 119.049C129.02 119.362 127.444 120.001 125.87 121.798C124.653 120.885 123.624 120.392 122.117 120.115C120.308 120.062 118.714 120.493 117.364 121.767C116.241 122.827 115.746 124.169 115.424 125.635C115.015 125.328 114.708 125.062 114.423 124.636C113.766 124.506 113.101 124.042 112.469 123.797C110.535 123.046 108.953 123.477 106.996 123.67L106.678 124.01C106.008 124.399 105.574 124.531 104.806 124.557L104.924 124.754C104.809 124.885 104.708 124.995 104.573 125.107C104.201 125.467 103.758 125.946 103.263 126.128C100.526 127.158 97.6701 128.595 96.3709 131.382C95.9054 132.381 95.7629 133.358 95.7415 134.447C92.9306 134.899 90.1444 135.608 87.3455 136.143C88.5145 143.212 89.8866 150.247 91.0295 157.324C91.4572 159.973 91.8934 165.736 92.7404 167.962C91.521 167.423 90.3454 166.71 89.1696 166.076C86.9086 164.866 84.6577 163.637 82.4169 162.389C83.362 161.728 84.3314 161.085 85.2437 160.38L84.9748 160.013L86.6094 159.176C86.4231 156.476 86.1925 153.781 85.9175 151.089C85.5885 149.213 85.4798 147.255 85.2101 145.361C84.6373 141.472 84.0037 137.593 83.3095 133.724C82.8559 131.221 82.3318 128.732 81.7372 126.258C81.3137 125.119 81.0092 123.962 80.7035 122.788C80.6176 121.028 79.8967 118.928 79.5669 117.16C79.3348 115.97 79.1399 114.774 78.9822 113.573C78.8245 112.371 78.7044 111.166 78.6218 109.956C78.5392 108.747 78.4943 107.537 78.4871 106.325C78.4799 105.113 78.5104 103.902 78.5786 102.692C78.6291 101.898 78.6262 101.05 78.767 100.269C78.8492 99.8113 78.9667 99.3456 79.3552 99.0649L79.5583 99.2053C79.7539 99.7196 79.6086 100.219 79.5208 100.746Z" fill="#C7D2FE"/>
<path d="M93.4922 109.995C93.9106 109.445 94.3238 109.832 94.5449 108.995L94.7794 108.972C94.8967 109.172 94.9365 109.276 94.9904 109.494L95.1794 109.492C95.3136 109.251 95.3278 109.047 95.3553 108.776L95.5344 108.699C95.7594 108.883 95.8426 109.046 95.9817 109.292C96.3665 109.974 97.0422 110.312 97.4517 110.942C97.8129 111.498 97.6843 112.253 98.0632 112.785L98.1805 112.71C98.2089 112.402 98.1635 112.217 98.3814 111.982C98.8189 112.03 99.7677 112.477 100.061 112.808C100.085 112.836 100.103 112.869 100.124 112.899L99.9086 113.097C99.2287 113.299 98.5831 113.263 97.8853 113.196C97.5916 113.602 97.3043 114.013 96.986 114.4L96.6597 114.74L96.2595 114.98C96.1356 115.128 95.9704 115.229 95.9881 115.433C96.0087 115.67 96.1081 115.835 96.2131 116.044C95.7042 116.243 95.2088 116.673 94.6678 116.748C94.4607 116.776 94.4192 116.673 94.2705 116.552C94.1174 116.121 94.0868 115.755 94.0679 115.3L94.0931 115.131C93.3399 115.062 92.9382 114.493 92.4627 113.967C92.0993 113.176 91.6539 112.447 91.2557 111.676C91.5016 111.673 91.7545 111.688 91.9962 111.641C92.1655 111.298 92.4089 110.972 92.6192 110.651L93.4922 109.995Z" fill="#FFFEFE"/>
<path d="M148.299 108.909C148.705 108.889 149.159 108.859 149.544 109.014C150.052 109.218 150.454 109.681 150.656 110.182C150.686 110.256 150.712 110.332 150.734 110.41C150.756 110.487 150.774 110.565 150.787 110.645C150.801 110.724 150.81 110.803 150.815 110.884C150.819 110.964 150.82 111.044 150.817 111.124C150.813 111.204 150.805 111.284 150.793 111.363C150.78 111.443 150.764 111.521 150.743 111.599C150.722 111.677 150.697 111.753 150.669 111.828C150.64 111.903 150.607 111.976 150.57 112.047C150.239 112.681 149.769 112.924 149.104 113.108C148.712 113.097 148.298 113.095 147.93 112.944C147.864 112.917 147.8 112.886 147.737 112.852C147.674 112.818 147.613 112.782 147.553 112.742C147.494 112.702 147.436 112.659 147.381 112.613C147.326 112.568 147.273 112.52 147.223 112.469C147.173 112.418 147.125 112.365 147.08 112.309C147.034 112.254 146.992 112.196 146.953 112.137C146.913 112.077 146.877 112.016 146.843 111.952C146.81 111.889 146.78 111.824 146.753 111.758C146.549 111.26 146.57 110.655 146.792 110.167C147.115 109.456 147.594 109.18 148.299 108.909Z" fill="#FFFEFE"/>
<path d="M131.897 107.757C131.957 107.59 131.946 107.351 131.955 107.167C131.972 106.845 131.991 106.572 132.114 106.268C132.349 105.692 132.782 105.074 133.393 104.86C133.852 104.699 134.374 104.785 134.8 104.999C135.774 105.489 136.269 106.312 136.589 107.319C136.014 108.079 135.445 108.831 135.019 109.687C133.729 109.581 132.753 109.653 131.496 109.969C131.684 109.229 131.811 108.516 131.897 107.757Z" fill="#FFFEFE"/>
<path d="M87.7902 59.8235L88.2259 59.9858C88.7378 60.6435 88.5341 62.2393 88.5211 63.0649C89.5308 63.0529 90.5868 62.9485 91.4972 63.4637L91.5094 63.6172C90.7441 64.1449 89.4478 63.9736 88.5498 63.9584C88.5675 64.6774 88.6094 65.4113 88.5692 66.1293C88.54 66.6527 88.4308 66.7909 88.0623 67.1275C88.0218 67.1 87.9774 67.0777 87.9411 67.0454C87.4815 66.6353 87.7008 64.6212 87.7131 63.964C86.7557 63.9795 85.3895 64.141 84.5621 63.6032L84.5903 63.4245C85.4714 62.8803 86.7216 63.0186 87.7229 63.0345C87.717 61.9662 87.679 60.8874 87.7902 59.8235Z" fill="#FFFEFE"/>
<path d="M113.645 195.157C114.969 195.098 116.537 194.923 117.816 195.277L117.81 195.435L117.124 195.504C115.771 195.588 114.223 195.795 112.897 195.539L112.842 195.381L113.129 195.291L112.943 195.48L112.988 195.298C113.188 195.202 113.426 195.191 113.645 195.157Z" fill="#5B2448"/>
<path d="M118.026 189.74C117.356 189.726 116.125 189.831 115.547 189.533L115.506 189.366C116.132 188.958 117.624 189.203 118.37 189.248C119.308 189.321 120.718 189.268 121.556 189.643L121.531 189.711C120.447 189.974 119.137 189.799 118.026 189.74Z" fill="#5B2448"/>
<path d="M68.9808 154.651C68.1605 154.451 63.6679 152.004 63.1435 151.431L63.1639 151.189C63.3862 151.058 63.4144 151.038 63.6789 151.121C64.4641 151.367 68.812 153.653 69.1229 154.2L68.9808 154.651Z" fill="#5B2448"/>
<path d="M194.24 103.604C194.935 103.829 195.666 105.024 195.974 105.657C197.247 108.27 197.457 111.183 196.543 113.935C196.388 113.908 196.283 113.848 196.144 113.778C195.881 113.057 196.433 110.297 196.305 109.132C196.092 107.193 194.332 105.018 194.192 104.099C194.167 103.935 194.224 103.769 194.24 103.604Z" fill="#5B2448"/>
<path d="M154.087 100.7C153.991 100.181 153.767 99.4914 153.997 98.9911L154.25 99.0796L154.056 98.9016L154.176 98.8376C154.535 99.0774 154.655 99.6093 154.738 100.019C155.776 105.144 154.766 114.114 153.1 119.043C152.837 119.078 152.636 119.058 152.376 119.014C152.595 118.275 152.795 117.53 152.978 116.78C153.161 116.031 153.325 115.278 153.471 114.52C153.617 113.763 153.745 113.002 153.854 112.238C153.963 111.475 154.053 110.709 154.125 109.941C154.197 109.173 154.25 108.403 154.284 107.633C154.318 106.862 154.334 106.091 154.331 105.32C154.328 104.548 154.306 103.777 154.265 103.007C154.225 102.237 154.165 101.468 154.087 100.7Z" fill="#5B2448"/>
<path d="M207.611 90.0989L208.287 90.5774C207.635 91.7288 207.192 93.0758 206.707 94.3081C205.97 96.1833 205.211 98.0645 204.399 99.9091C205.679 100.413 208.662 101.271 209.623 101.792C209.879 101.93 209.956 102.011 210.093 102.254C209.95 102.471 210.007 102.461 209.733 102.542C207.089 101.844 204.525 100.71 201.956 99.7711C200.526 99.2485 198.869 98.8354 197.518 98.1603L197.258 98.09C196.683 97.9017 196.031 97.7461 195.488 97.4906C195.108 97.3122 194.809 97.2009 194.652 96.8111C195.675 96.8383 196.494 97.0827 197.462 97.3923C198.188 95.8549 198.303 93.8526 199.168 92.4267C199.342 92.1404 199.442 92.1624 199.751 92.0867L199.942 92.3541C199.454 94.021 198.46 96.0968 198.228 97.7323C199.591 97.8399 202.322 99.1791 203.752 99.6892C205.221 96.5949 206.3 93.2687 207.611 90.0989Z" fill="#5B2448"/>
<path d="M155.461 141.405L155.728 141.468C156.633 141.674 157.47 141.82 158.404 141.741C158.773 142.106 158.866 143.472 158.968 144.024C159.288 145.759 159.644 147.469 160.035 149.189C160.247 150.122 160.662 151.278 160.694 152.213C160.695 152.251 160.691 152.29 160.69 152.328C160.076 151.252 159.229 150.556 158.206 149.885C156.609 149.272 155.083 149.015 153.398 148.756C153.266 148.567 153.186 148.327 153.093 148.116C154.467 145.899 155.204 144.016 155.461 141.405Z" fill="#A5B4FC"/>
<path d="M155.461 141.405L155.728 141.468C156.805 144.101 157.526 147.118 158.206 149.885C156.609 149.272 155.083 149.015 153.398 148.756C153.266 148.567 153.186 148.327 153.093 148.116C154.467 145.899 155.204 144.016 155.461 141.405Z" fill="#F9A8D4"/>
<path d="M160.79 152.5C161.01 152.936 161.105 153.37 161.216 153.841C161.66 155.711 162.109 157.558 162.864 159.333C163.312 160.387 164.052 161.525 164.376 162.605C162.175 162.564 159.972 162.693 157.773 162.779C157.093 162.116 155.51 158.049 154.673 156.779C155.396 156.982 156.16 157.11 156.912 157.058C158.076 156.978 159.252 156.541 160.006 155.616C160.765 154.684 160.882 153.651 160.79 152.5Z" fill="#A5B4FC"/>
<path d="M154.688 133.445C155.477 133.506 156.237 133.625 157.015 133.77C158.608 134.165 160.179 134.684 161.099 136.16C161.162 136.261 161.22 136.365 161.271 136.472C161.323 136.579 161.37 136.688 161.41 136.799C161.451 136.911 161.486 137.025 161.514 137.14C161.543 137.255 161.566 137.372 161.583 137.489C161.6 137.607 161.61 137.725 161.614 137.844C161.619 137.963 161.617 138.081 161.609 138.2C161.601 138.318 161.588 138.436 161.567 138.553C161.547 138.67 161.521 138.786 161.489 138.901C161.206 139.936 160.44 140.836 159.509 141.359C159.172 141.548 158.78 141.66 158.404 141.741C157.47 141.82 156.633 141.674 155.728 141.468L155.461 141.405C155.411 139.047 154.899 136.955 153.475 135.033C153.136 134.575 152.555 134.045 152.385 133.504L154.688 133.445Z" fill="#47273E"/>
<path d="M146.619 153.193C149.556 152.074 151.205 150.596 153.093 148.116C153.186 148.327 153.266 148.568 153.398 148.756C155.083 149.015 156.609 149.272 158.206 149.885C159.229 150.557 160.076 151.252 160.69 152.328L160.79 152.5C160.882 153.651 160.765 154.684 160.006 155.616C159.252 156.54 158.076 156.978 156.912 157.058C156.16 157.11 155.396 156.982 154.673 156.779C153.987 156.413 153.168 156.145 152.401 156.026C152.395 156.022 152.389 156.02 152.384 156.015C151.541 155.242 150.757 154.656 149.74 154.121C148.741 153.666 147.686 153.429 146.619 153.193Z" fill="#47273E"/>
<path d="M199.942 92.3539C200.561 91.642 200.994 90.6495 201.453 89.8209C202.637 87.6819 204.314 84.5846 206.175 83.0332C206.558 82.7142 207.073 82.397 207.595 82.5157C207.979 82.6029 208.287 82.9113 208.463 83.2511C209.393 85.0462 208.133 88.292 207.611 90.0987C206.3 93.2685 205.221 96.5947 203.752 99.689C202.322 99.1789 199.591 97.8397 198.228 97.7321C198.46 96.0966 199.454 94.0208 199.942 92.3539Z" fill="#FEB997"/>
<path d="M152.535 128.996L153.087 129.085L153.128 129.241C152.325 130.215 151.365 130.9 150.733 132.029L150.163 131.367C151.057 130.663 151.853 129.91 152.535 128.996Z" fill="#5B2448"/>
<path d="M80.7035 122.788C81.0092 123.962 81.3137 125.119 81.7372 126.258C82.3318 128.732 82.8559 131.221 83.3095 133.724C84.0037 137.594 84.6373 141.472 85.2101 145.361C85.4798 147.255 85.5885 149.213 85.9175 151.089C86.1925 153.781 86.4231 156.477 86.6095 159.176L84.9748 160.014L85.2437 160.38C84.3315 161.086 83.362 161.728 82.4169 162.389L81.8883 162.104C78.9501 160.143 75.6798 158.527 72.5975 156.793C71.3896 156.113 70.1129 155.45 68.9808 154.651L69.1229 154.2C69.3285 154.336 69.4038 154.392 69.6541 154.429C70.2867 153.885 78.2969 131.953 79.0863 129.417C79.3328 128.625 79.5966 127.819 79.7838 127.011C80.0726 125.764 80.0437 123.845 80.7035 122.788Z" fill="#A5B4FC"/>
<path d="M81.8884 162.104C82.7172 161.231 83.909 160.557 84.9748 160.014L85.2438 160.38C84.3315 161.086 83.362 161.728 82.4169 162.389L81.8884 162.104Z" fill="#ADA6DE"/>
<path d="M145.232 128.845C146.433 126.885 147.718 125.161 149.312 123.508L149.485 124.678C149.906 126.846 149.658 128.533 149.489 130.69C148.159 129.649 146.882 129.145 145.232 128.845Z" fill="#47273E"/>
<path d="M82.2633 125.883L83.7269 133.358C84.6449 137.644 85.3788 141.961 85.9285 146.31C86.0897 147.654 86.3469 149.144 86.3184 150.497C86.6212 153.438 86.9225 156.451 87.0091 159.406C86.4136 159.72 85.8167 160.026 85.2437 160.38L84.9748 160.014L86.6094 159.176C86.4231 156.476 86.1925 153.781 85.9175 151.089C85.5885 149.213 85.4798 147.255 85.2101 145.361C84.6373 141.472 84.0037 137.593 83.3095 133.724C82.8559 131.221 82.3318 128.732 81.7372 126.258C81.9973 126.178 82.0876 126.088 82.2633 125.883Z" fill="#ADA6DE"/>
<path d="M80.7035 122.788C80.6176 121.028 79.8967 118.928 79.5669 117.16C79.3348 115.97 79.1399 114.775 78.9822 113.573C78.8245 112.371 78.7044 111.166 78.6218 109.957C78.5392 108.748 78.4943 107.537 78.4871 106.325C78.4799 105.113 78.5104 103.902 78.5786 102.692C78.6291 101.899 78.6262 101.05 78.767 100.269C78.8492 99.8116 78.9667 99.3459 79.3552 99.0652L79.5583 99.2056C79.7539 99.7199 79.6086 100.22 79.5208 100.746C78.2446 108.238 80.4826 118.565 82.2633 125.883C82.0876 126.088 81.9973 126.178 81.7372 126.258C81.3137 125.119 81.0092 123.962 80.7035 122.788Z" fill="#5B2448"/>
<path d="M105.643 123.207C105.21 123.346 104.719 123.219 104.313 123.037C102.659 122.294 101.172 119.985 100.563 118.321C100.082 117.005 99.9037 115.367 100.536 114.072C100.83 113.471 101.33 113.028 101.969 112.822C102.631 112.609 103.343 112.625 103.968 112.944C105.473 113.71 106.514 115.534 107.045 117.08C107.612 118.731 107.865 120.642 107.071 122.266C106.959 122.768 106.933 123.16 106.996 123.67L106.678 124.01L105.643 123.207Z" fill="#47273E"/>
<path d="M139.915 125.118C141.219 123.757 147.798 118.879 149.495 118.91C149.701 118.914 149.647 118.925 149.799 119.09C149.875 120.494 149.419 122.085 149.312 123.508C147.718 125.161 146.433 126.884 145.232 128.845C142.974 128.844 141.235 129.883 139.56 131.288C140.066 129.125 140.144 127.334 139.915 125.118Z" fill="#47273E"/>
<path d="M99.2439 124.031C99.0771 124.209 98.908 124.378 98.7262 124.541C96.9559 126.126 94.6467 126.515 92.3427 126.351C90.6089 126.227 88.4168 125.724 87.2643 124.322C86.9086 123.889 86.6558 123.337 86.7488 122.766C86.8531 122.127 87.3502 121.65 87.8765 121.32C89.8841 120.06 92.7395 119.969 94.9826 120.525C96.2909 120.849 97.8257 121.451 98.54 122.648C98.6896 122.899 98.8457 123.146 98.9998 123.394C100.683 124.027 102.996 124.234 104.806 124.557L104.924 124.754C104.809 124.885 104.708 124.995 104.573 125.107C103.541 124.754 100.625 124.189 99.5133 124.09L99.6527 124.172L99.2439 124.031Z" fill="#47273E"/>
<path d="M114.423 124.636C113.559 121.747 112.736 115.373 114.092 112.743C114.427 112.091 114.966 111.523 115.696 111.339C116.429 111.154 117.158 111.371 117.782 111.767C120.371 113.407 121.51 117.32 122.117 120.115C120.308 120.062 118.714 120.494 117.364 121.768C116.241 122.827 115.746 124.169 115.424 125.636C115.015 125.329 114.708 125.062 114.423 124.636Z" fill="#47273E"/>
<path d="M125.87 121.798C125.116 118.625 125.406 115.052 126.592 112.005C127.354 110.045 128.835 107.458 130.886 106.624C131.474 106.385 132.149 106.325 132.737 106.599C133.277 106.851 133.623 107.323 133.821 107.873C135 111.152 132.702 116.116 131.316 119.049C129.02 119.362 127.444 120.001 125.87 121.798Z" fill="#47273E"/>
<path d="M125.87 121.798C127.444 120.001 129.02 119.362 131.316 119.049C134.02 119.16 136.173 119.643 138.075 121.697C138.993 122.688 139.598 123.803 139.915 125.118C140.144 127.334 140.066 129.125 139.56 131.288C141.235 129.883 142.974 128.844 145.232 128.845C146.882 129.145 148.159 129.649 149.489 130.69C149.7 130.952 149.88 131.176 150.163 131.367L150.733 132.029C151.048 132.324 151.334 132.559 151.708 132.777C151.835 133.072 151.909 133.293 152.221 133.444C152.274 133.469 152.331 133.484 152.385 133.505C152.555 134.045 153.136 134.575 153.475 135.033C154.899 136.955 155.411 139.047 155.461 141.405C155.204 144.016 154.467 145.899 153.093 148.116C151.205 150.596 149.556 152.074 146.619 153.193C147.686 153.429 148.741 153.666 149.74 154.121C150.756 154.656 151.541 155.243 152.384 156.015C152.389 156.02 152.395 156.022 152.401 156.026C152.607 156.808 152.54 157.401 152.131 158.112C151.526 159.167 150.284 159.824 149.128 160.073C148.537 160.201 147.927 160.17 147.328 160.135C147.71 161.111 147.978 161.959 147.553 162.991C147.152 163.963 146.22 164.615 145.273 164.992C144.069 165.472 142.979 165.419 141.726 165.334L141.057 165.089C135.908 168.903 130.85 172.833 125.881 176.879C124.37 178.092 122.867 179.315 121.373 180.548C120.521 181.26 119.691 182.06 118.787 182.704C117.683 182.551 116.645 182.376 115.605 181.954C114.076 181.332 112.709 180.304 111.335 179.405L106.114 175.987L105.456 175.519C102.811 173.878 100.149 172.265 97.4711 170.679C95.9037 169.757 94.2914 168.911 92.7404 167.963C91.8934 165.736 91.4571 159.973 91.0295 157.324C89.8865 150.247 88.5144 143.212 87.3455 136.143C90.1444 135.608 92.9306 134.899 95.7415 134.448C95.7628 133.358 95.9054 132.381 96.3709 131.382C97.6701 128.595 100.526 127.158 103.263 126.128C103.758 125.946 104.201 125.467 104.573 125.107C104.708 124.995 104.809 124.885 104.924 124.755L104.806 124.557C105.574 124.531 106.008 124.399 106.678 124.01L106.996 123.671C108.953 123.477 110.535 123.046 112.469 123.797C113.101 124.042 113.766 124.506 114.423 124.636C114.708 125.062 115.015 125.328 115.424 125.635C115.746 124.169 116.241 122.827 117.363 121.768C118.714 120.493 120.308 120.062 122.117 120.115C123.624 120.392 124.653 120.885 125.87 121.798Z" fill="#F79D67"/>
<path d="M121.04 131.759C121.411 131.725 121.804 131.708 122.175 131.741C122.966 131.812 123.945 132.242 124.444 132.873C124.686 133.179 124.899 133.552 124.859 133.94C124.208 133.931 123.598 133.023 123.105 132.617C120.595 131.568 120.976 133.203 119.422 133.697C119.25 133.464 119.318 133.414 119.346 133.137C119.852 132.429 120.248 132.128 121.04 131.759Z" fill="#EE7305"/>
<path d="M133.255 136.451C133.545 136.431 133.822 136.439 134.112 136.469C134.261 136.483 134.409 136.505 134.556 136.534C134.703 136.562 134.848 136.599 134.992 136.642C135.135 136.685 135.276 136.736 135.415 136.793C135.553 136.85 135.689 136.914 135.821 136.985C135.953 137.056 136.081 137.133 136.205 137.216C136.33 137.3 136.45 137.389 136.565 137.485C136.681 137.58 136.791 137.681 136.897 137.787C137.002 137.894 137.102 138.005 137.197 138.121C137.689 138.738 138.259 140.026 138.137 140.834C138.095 141.108 138.099 141.161 137.87 141.328C137.445 140.943 137.481 139.789 137.242 139.226C137.08 138.845 136.786 138.487 136.537 138.16C136.297 137.983 136.049 137.794 135.789 137.644C134.539 136.927 132.94 136.673 131.575 137.218C131.007 137.446 130.449 137.788 129.853 137.931C129.778 137.949 129.703 137.964 129.628 137.981L129.676 137.99L129.336 137.883C129.384 137.789 129.392 137.759 129.477 137.673C130.347 136.798 132.079 136.539 133.255 136.451Z" fill="#EE7305"/>
<path d="M95.7415 134.448C95.7629 133.358 95.9054 132.381 96.3709 131.382C97.6701 128.595 100.526 127.158 103.263 126.128C102.341 127.802 101.975 129.088 102.304 131.002C100.331 130.985 98.7691 131.364 97.3165 132.794C96.7779 133.324 96.3277 133.932 95.9248 134.569L95.7415 134.448Z" fill="#47273E"/>
<path d="M143.7 137.273C144.177 137.244 144.697 137.239 145.159 137.367C145.937 137.583 146.622 138.121 146.986 138.844C147.028 138.925 147.065 139.008 147.099 139.093C147.132 139.178 147.16 139.265 147.185 139.353C147.209 139.44 147.229 139.529 147.245 139.619C147.26 139.709 147.271 139.8 147.278 139.891C147.284 139.982 147.286 140.073 147.283 140.164C147.281 140.255 147.273 140.346 147.262 140.437C147.25 140.527 147.233 140.617 147.212 140.705C147.191 140.794 147.166 140.882 147.136 140.968C146.77 142.01 146.019 142.51 145.076 142.968C144.387 143.048 143.745 143.14 143.087 142.851C142.347 142.526 141.811 141.897 141.558 141.137C141.297 140.354 141.356 139.457 141.749 138.728C142.187 137.916 142.841 137.535 143.7 137.273Z" fill="#F79D67"/>
<path d="M137.736 150.644C138.655 150.556 139.48 150.597 140.287 151.094C141.325 151.733 141.698 152.774 141.966 153.892C141.889 154.191 141.816 154.5 141.711 154.791C141.306 155.907 140.608 156.432 139.556 156.907C139.021 157.012 138.468 157.026 137.94 156.881C137.825 156.85 137.712 156.813 137.602 156.77C137.491 156.727 137.382 156.679 137.277 156.625C137.171 156.57 137.068 156.511 136.969 156.446C136.869 156.381 136.773 156.311 136.681 156.236C136.589 156.161 136.501 156.082 136.417 155.998C136.333 155.914 136.254 155.826 136.179 155.733C136.104 155.641 136.034 155.545 135.969 155.445C135.905 155.346 135.845 155.243 135.791 155.138C135.404 154.378 135.34 153.513 135.635 152.71C136.011 151.685 136.77 151.084 137.736 150.644Z" fill="#F79D67"/>
<path d="M109.467 132.875C110.107 132.824 110.772 132.882 111.375 133.111C111.492 133.156 111.607 133.207 111.719 133.264C111.831 133.321 111.939 133.384 112.044 133.452C112.15 133.521 112.251 133.594 112.348 133.673C112.446 133.752 112.539 133.836 112.627 133.925C112.716 134.014 112.799 134.108 112.878 134.206C112.957 134.303 113.03 134.405 113.098 134.511C113.166 134.616 113.228 134.725 113.284 134.837C113.34 134.949 113.391 135.064 113.435 135.181C113.771 136.057 113.766 137.039 113.372 137.895C112.861 139.007 111.977 139.563 110.86 139.949C109.937 140.075 109.118 140.065 108.276 139.615C108.174 139.56 108.074 139.5 107.978 139.435C107.882 139.37 107.789 139.3 107.7 139.225C107.611 139.15 107.526 139.071 107.445 138.988C107.364 138.904 107.287 138.817 107.215 138.726C107.144 138.634 107.077 138.539 107.014 138.441C106.952 138.343 106.896 138.242 106.844 138.138C106.792 138.033 106.746 137.927 106.705 137.818C106.665 137.709 106.63 137.598 106.601 137.486C106.568 137.367 106.541 137.247 106.52 137.125C106.499 137.004 106.484 136.882 106.475 136.759C106.467 136.636 106.464 136.513 106.467 136.389C106.47 136.266 106.479 136.143 106.494 136.021C106.51 135.899 106.531 135.778 106.558 135.657C106.586 135.537 106.619 135.418 106.657 135.301C106.696 135.184 106.741 135.07 106.791 134.957C106.841 134.845 106.897 134.735 106.958 134.627C107.526 133.65 108.413 133.174 109.467 132.875Z" fill="#F79D67"/>
<path d="M124.088 144.648C124.768 144.602 125.453 144.641 126.094 144.891C126.211 144.935 126.325 144.986 126.437 145.042C126.548 145.099 126.657 145.161 126.762 145.229C126.867 145.297 126.968 145.37 127.065 145.448C127.163 145.526 127.256 145.61 127.344 145.698C127.433 145.786 127.517 145.879 127.596 145.976C127.674 146.073 127.748 146.173 127.816 146.278C127.885 146.383 127.947 146.491 128.004 146.602C128.061 146.713 128.112 146.827 128.157 146.944C128.491 147.807 128.496 148.791 128.107 149.638C127.59 150.766 126.67 151.309 125.559 151.725C124.589 151.835 123.727 151.783 122.866 151.278C122.762 151.217 122.661 151.151 122.564 151.08C122.467 151.009 122.374 150.934 122.284 150.854C122.194 150.774 122.108 150.689 122.027 150.601C121.945 150.512 121.869 150.42 121.796 150.324C121.724 150.228 121.656 150.129 121.594 150.026C121.531 149.923 121.473 149.818 121.421 149.709C121.369 149.601 121.322 149.49 121.281 149.378C121.239 149.265 121.204 149.15 121.174 149.034C120.931 148.101 121.076 147.059 121.588 146.24C122.17 145.31 123.042 144.866 124.088 144.648Z" fill="#F79D67"/>
<path d="M127.758 126.989C128.664 126.904 129.506 126.944 130.334 127.35C131.304 127.825 132.026 128.702 132.364 129.722C132.695 130.722 132.631 131.816 132.127 132.748C131.507 133.891 130.519 134.413 129.33 134.788C128.448 134.834 127.713 134.766 126.891 134.398C125.898 133.953 125.102 133.139 124.736 132.109C124.692 131.985 124.654 131.86 124.623 131.732C124.592 131.605 124.567 131.476 124.549 131.346C124.531 131.216 124.52 131.085 124.515 130.954C124.51 130.823 124.512 130.692 124.521 130.561C124.529 130.43 124.545 130.3 124.567 130.17C124.588 130.041 124.617 129.913 124.652 129.786C124.687 129.66 124.728 129.535 124.776 129.413C124.823 129.291 124.877 129.171 124.937 129.054C125.542 127.892 126.564 127.364 127.758 126.989Z" fill="#F79D67"/>
<path d="M112.253 155.969C113.392 157.003 114.384 157.767 115.879 158.237C116.098 160.004 116.874 161.492 118.275 162.621C119.62 163.706 121.321 164.156 123.032 163.947C124.993 163.707 126.506 162.697 127.721 161.193C128.433 163.152 129.273 164.79 131.249 165.753C131.334 165.795 131.42 165.835 131.507 165.873C131.594 165.911 131.682 165.946 131.771 165.98C131.86 166.013 131.949 166.044 132.04 166.073C132.13 166.101 132.221 166.128 132.313 166.152C132.405 166.176 132.498 166.198 132.59 166.217C132.683 166.236 132.777 166.253 132.871 166.268C132.965 166.282 133.059 166.294 133.153 166.304C133.248 166.313 133.342 166.321 133.437 166.325C133.532 166.33 133.627 166.333 133.722 166.332C133.817 166.332 133.912 166.33 134.006 166.325C134.101 166.32 134.196 166.313 134.29 166.303C134.385 166.293 134.479 166.281 134.573 166.267C134.666 166.252 134.76 166.235 134.853 166.216C134.946 166.196 135.038 166.175 135.13 166.15C135.222 166.126 135.313 166.1 135.403 166.071C135.494 166.042 135.583 166.011 135.672 165.978C137.054 165.45 137.942 164.486 138.738 163.29C139.347 164.1 140.077 164.763 141.057 165.089C135.908 168.903 130.85 172.834 125.881 176.879C124.37 178.092 122.867 179.315 121.373 180.548C120.521 181.26 119.691 182.06 118.787 182.704C117.683 182.551 116.645 182.376 115.605 181.954C114.076 181.332 112.709 180.304 111.335 179.405L106.114 175.987C107.971 169.268 110.521 162.717 112.253 155.969Z" fill="#F9A8D4"/>
<path d="M95.7415 134.448L95.9248 134.57C95.223 136.388 94.8925 138.101 95.6949 139.973C96.4916 141.832 97.9702 142.716 99.7582 143.437C99.4061 145.103 99.395 146.535 100.37 148.023C101.293 149.431 102.851 150.392 104.498 150.689C107.047 151.149 109.253 150.042 111.354 148.744C110.597 151.371 110.495 152.786 111.722 155.27L112.252 155.97C110.521 162.717 107.971 169.268 106.114 175.987L105.456 175.519C102.811 173.878 100.149 172.265 97.4711 170.679C95.9037 169.757 94.2914 168.911 92.7404 167.963C91.8934 165.737 91.4571 159.973 91.0295 157.324C89.8865 150.247 88.5144 143.213 87.3455 136.143C90.1444 135.608 92.9306 134.899 95.7415 134.448Z" fill="#F9A8D4"/>
<path d="M111.722 155.27L112.253 155.969C110.521 162.717 107.971 169.267 106.114 175.986L105.456 175.518C107.548 168.772 109.819 162.072 111.722 155.27Z" fill="#2926AB"/>
<path d="M131.56 7.63013C131.613 7.65261 131.665 7.67675 131.718 7.69761C132.693 8.08166 137.924 8.37386 139.407 8.57367C142.157 8.94441 144.933 9.49356 147.627 10.1561C164.45 14.2935 178.354 22.0774 191.284 33.5232C192.576 34.6678 197.076 38.7777 197.782 40.0477C197.841 40.1553 197.879 40.2771 197.919 40.3929C199.412 41.3278 200.265 42.6226 201.012 44.1824C201.476 44.5408 201.809 45.0163 202.207 45.4416C204.3 47.6748 206.054 50.0261 207.723 52.5858C215.857 65.0638 222.075 79.5243 223.981 94.3725C224.369 97.3921 224.768 100.433 224.934 103.474C224.991 104.476 225.033 105.478 225.06 106.482C225.087 107.485 225.099 108.489 225.097 109.493C225.095 110.497 225.077 111.5 225.046 112.503C225.014 113.507 224.967 114.509 224.906 115.511C224.845 116.513 224.769 117.514 224.678 118.513C224.587 119.513 224.482 120.511 224.362 121.508C224.242 122.504 224.107 123.499 223.958 124.491C223.809 125.484 223.645 126.474 223.467 127.462C223.289 128.45 223.096 129.435 222.889 130.417C222.681 131.399 222.46 132.378 222.224 133.354C221.988 134.33 221.738 135.302 221.473 136.27C221.209 137.238 220.93 138.203 220.637 139.163C220.345 140.123 220.038 141.079 219.717 142.03C219.396 142.981 219.061 143.928 218.712 144.869C218.364 145.81 218.001 146.746 217.625 147.677C217.249 148.608 216.859 149.533 216.456 150.452C211.1 146.922 204.254 144.282 197.898 143.323C198.855 140.591 199.99 137.927 201.017 135.222C204.47 126.047 208.084 116.937 211.862 107.891C213.397 104.127 215.124 100.387 216.529 96.5758C216.761 95.9458 217.212 94.7819 216.835 94.1683C216.615 93.8082 216.208 93.5486 215.79 93.5065C214.416 93.3682 212.744 95.1614 211.71 95.9497C212.127 93.8739 213.147 91.9435 213.73 89.913C213.936 89.1936 214.184 87.7291 213.682 87.0744C213.473 86.8025 213.308 86.7128 212.969 86.6677C211.129 86.4226 209.558 89.4245 208.442 90.4401C208.391 90.4864 208.339 90.5315 208.287 90.5774L207.611 90.0989C208.133 88.2922 209.393 85.0464 208.463 83.2513C208.287 82.9115 207.979 82.6032 207.595 82.5159C207.073 82.3972 206.558 82.7145 206.175 83.0334C204.315 84.5848 202.637 87.6821 201.453 89.8211C200.994 90.6497 200.561 91.6422 199.942 92.3541L199.751 92.0866C200.316 90.2788 201.479 85.5774 200.702 83.9176C200.54 83.5722 200.194 83.2832 199.833 83.1665C199.582 83.0853 199.351 83.1079 199.112 83.2314C196.313 84.6785 192.897 95.8649 191.645 99.0136C190.994 97.3435 189.595 93.011 187.874 92.3104C187.574 92.1881 187.2 92.1381 186.892 92.2587C186.525 92.4021 186.34 92.7377 186.243 93.0961C185.671 95.2136 187.003 104.254 187.309 106.827C187.46 108.104 187.769 109.559 187.63 110.845C187.472 112.302 186.29 114.444 185.737 115.844C184.169 119.815 182.522 123.782 181.119 127.814C180.301 124.618 179.61 121.391 178.795 118.196C178.565 117.297 177.54 114.35 177.55 113.617C176.79 112.229 176.131 109.483 175.512 107.855C173.638 102.927 171.241 98.3255 168.141 94.0556C167.858 93.672 167.57 93.2919 167.277 92.9152C166.985 92.5387 166.688 92.1658 166.386 91.7966C166.084 91.4273 165.778 91.0617 165.468 90.6999C165.157 90.3381 164.842 89.9802 164.522 89.6262C164.203 89.2721 163.879 88.922 163.551 88.5758C163.223 88.2297 162.891 87.8876 162.555 87.5495C162.218 87.2115 161.878 86.8777 161.533 86.5481C161.189 86.2183 160.84 85.8929 160.487 85.5717C160.135 85.2506 159.778 84.9339 159.418 84.6216C159.058 84.3091 158.693 84.0012 158.326 83.6977C157.958 83.3942 157.586 83.0952 157.211 82.8007C156.836 82.5064 156.457 82.2167 156.075 81.9315C155.692 81.6463 155.306 81.3659 154.917 81.0902C154.528 80.8145 154.135 80.5436 153.739 80.2776C153.344 80.0115 152.945 79.7504 152.542 79.4941C152.14 79.2379 151.735 78.9865 151.326 78.7401C150.918 78.4937 150.506 78.2524 150.092 78.0162C149.678 77.7799 149.261 77.5487 148.84 77.3225C148.42 77.0965 147.998 76.8756 147.572 76.6599C147.147 76.4442 146.719 76.2337 146.288 76.0284C145.857 75.8232 145.424 75.6232 144.989 75.4286C144.553 75.2339 144.115 75.0446 143.675 74.8606C143.235 74.6768 142.793 74.4983 142.348 74.3252C141.904 74.152 141.457 73.9843 141.009 73.8222C140.56 73.6601 140.109 73.5035 139.657 73.3523C139.204 73.2011 138.75 73.0556 138.294 72.9157C137.838 72.7757 137.38 72.6413 136.921 72.5125C136.461 72.3837 136.001 72.2606 135.538 72.1431C135.076 72.0256 134.612 71.9137 134.147 71.8075C133.682 71.7012 133.215 71.6008 132.748 71.5062C132.28 71.4114 131.811 71.3224 131.342 71.239C130.872 71.1558 130.401 71.0784 129.93 71.0066C129.534 70.9059 129.136 70.8679 128.732 70.8225C128.671 72.8304 128.336 74.4814 126.766 75.9024C125.974 76.6197 125.01 77.1087 123.992 77.4144C121.112 78.2788 115.478 78.2996 112.412 78.0983C110.272 77.9579 108.36 77.3642 106.889 75.712C105.667 74.3385 105.208 72.6851 105.24 70.8836C105.86 70.8327 106.479 70.7735 107.097 70.7058C107.13 68.8092 106.763 58.0361 107.357 56.8729C107.348 56.8592 107.343 56.8421 107.331 56.832C107.259 56.7739 107.169 56.7403 107.101 56.6776C106.779 56.3815 106.866 56.1665 106.87 55.7635C104.242 53.0346 102.584 50.2825 101.749 46.5685C99.8963 46.3329 98.3159 45.9243 97.1259 44.3518C96.0107 42.8778 95.2861 40.5093 95.6144 38.6747C95.8196 37.5292 96.3817 36.3469 97.3722 35.6809C98.6381 34.8298 99.7503 35.0492 101.138 35.2933C101.883 35.0548 102.503 34.4957 103.193 34.126C105.857 32.6986 108.583 31.711 111.021 29.8332C114.063 27.4915 116.519 23.7223 116.999 19.8612L117.195 19.708L117.319 19.7555C119.319 20.5409 121.253 21.5636 123.231 22.416C125.379 23.3553 127.561 24.2093 129.776 24.9779C131.992 25.7466 134.234 26.4276 136.503 27.0208C137.514 27.2772 138.841 27.7344 139.873 27.7435L140.012 27.6319L139.492 27.5233L139.884 27.3924L139.803 27.299C137.662 19.8075 135.493 15.7319 128.959 11.2222C129.459 10.3223 129.964 9.43245 130.365 8.48238C130.602 8.18489 131.235 7.86796 131.56 7.63013Z" fill="#A5B4FC"/>
<path d="M201.012 44.1823C201.101 45.5235 201.143 46.7619 200.667 48.0527C200.077 49.6527 198.863 50.8757 197.312 51.5665C195.637 52.3127 193.777 52.3737 192.073 51.6859C190.491 51.0473 189.172 49.8221 188.535 48.227C188.498 48.1301 188.462 48.0323 188.429 47.9336C188.397 47.8349 188.366 47.7355 188.338 47.6353C188.31 47.5351 188.285 47.4344 188.262 47.333C188.239 47.2315 188.218 47.1297 188.2 47.0274C188.182 46.9249 188.166 46.8221 188.153 46.719C188.14 46.6157 188.13 46.5122 188.121 46.4086C188.114 46.305 188.108 46.2012 188.105 46.0971C188.103 45.9931 188.102 45.8892 188.104 45.7853C188.107 45.6813 188.111 45.5775 188.119 45.4737C188.126 45.3699 188.136 45.2665 188.148 45.1634C188.161 45.0601 188.175 44.9571 188.193 44.8545C188.21 44.752 188.23 44.65 188.253 44.5486C188.275 44.4469 188.3 44.3459 188.327 44.2456C188.355 44.1452 188.384 44.0456 188.417 43.9468C188.449 43.8479 188.484 43.7499 188.52 43.6528C188.558 43.5556 188.597 43.4594 188.639 43.3641C188.682 43.2688 188.727 43.1746 188.775 43.0814C188.822 42.9883 188.872 42.8964 188.925 42.8057C188.977 42.7151 189.031 42.6258 189.088 42.5377C189.144 42.4498 189.203 42.3633 189.264 42.2781C189.325 42.193 189.387 42.1094 189.452 42.0274C189.517 41.9453 189.584 41.865 189.653 41.7864C189.722 41.7076 189.793 41.6306 189.865 41.5552C189.938 41.4799 190.012 41.4064 190.089 41.3349C190.165 41.2633 190.243 41.1936 190.322 41.1258C190.402 41.0579 190.484 40.9922 190.567 40.9284C190.649 40.8645 190.734 40.8028 190.82 40.7431C190.906 40.6835 190.993 40.6259 191.082 40.5705C191.171 40.5151 191.261 40.462 191.352 40.4112C191.444 40.3602 191.536 40.3115 191.63 40.2651C191.724 40.2187 191.819 40.1746 191.915 40.1327C192.011 40.0909 192.108 40.0515 192.205 40.0146C194.175 39.275 196.045 39.538 197.919 40.3928C199.412 41.3278 200.265 42.6225 201.012 44.1823Z" fill="#BE185D"/>
<path d="M116.999 19.8612L117.195 19.708L117.319 19.7556C119.319 20.541 121.253 21.5637 123.231 22.416C125.379 23.3554 127.561 24.2093 129.776 24.9779C131.992 25.7466 134.234 26.4276 136.503 27.0208C137.514 27.2772 138.841 27.7344 139.873 27.7435C140.221 30.1068 140.769 32.7251 141.809 34.8806C142.97 37.2878 144.723 39.3672 146.471 41.3685C154.377 50.421 164.022 56.1888 165.238 69.403C168.143 69.8952 170.648 71.2116 172.391 73.6345C173.875 75.6992 174.523 78.165 174.102 80.6835C173.677 83.2258 172.129 85.3369 170.039 86.7923C169.192 87.3821 168.322 87.7887 167.361 88.1594C170.853 88.3935 174.088 90.546 176.341 93.1238C179.219 96.4157 180.854 101.064 180.545 105.435C180.346 108.25 179.383 111.423 177.55 113.617C176.79 112.229 176.131 109.483 175.512 107.855C173.638 102.927 171.241 98.3256 168.141 94.0556C167.858 93.672 167.57 93.2919 167.277 92.9152C166.985 92.5387 166.688 92.1658 166.386 91.7967C166.084 91.4273 165.778 91.0618 165.468 90.6999C165.157 90.3381 164.842 89.9802 164.522 89.6263C164.203 89.2721 163.879 88.922 163.551 88.5759C163.223 88.2297 162.891 87.8876 162.555 87.5495C162.218 87.2115 161.878 86.8777 161.533 86.5481C161.189 86.2183 160.84 85.8929 160.487 85.5717C160.135 85.2506 159.778 84.9339 159.418 84.6216C159.058 84.3091 158.693 84.0012 158.326 83.6977C157.958 83.3942 157.586 83.0952 157.211 82.8008C156.836 82.5064 156.457 82.2167 156.075 81.9315C155.692 81.6463 155.306 81.3659 154.917 81.0902C154.528 80.8145 154.135 80.5436 153.739 80.2776C153.344 80.0115 152.945 79.7504 152.542 79.4941C152.14 79.2379 151.735 78.9866 151.326 78.7401C150.918 78.4937 150.506 78.2524 150.092 78.0162C149.678 77.7799 149.261 77.5487 148.84 77.3225C148.42 77.0965 147.998 76.8756 147.572 76.6599C147.147 76.4442 146.719 76.2337 146.288 76.0284C145.857 75.8232 145.424 75.6232 144.989 75.4286C144.553 75.234 144.115 75.0446 143.675 74.8606C143.235 74.6768 142.793 74.4983 142.348 74.3253C141.904 74.152 141.457 73.9844 141.009 73.8222C140.56 73.6601 140.109 73.5035 139.657 73.3523C139.204 73.2012 138.75 73.0556 138.294 72.9157C137.838 72.7757 137.38 72.6413 136.921 72.5125C136.461 72.3837 136.001 72.2606 135.538 72.1431C135.076 72.0256 134.612 71.9137 134.147 71.8075C133.682 71.7013 133.215 71.6008 132.748 71.5062C132.28 71.4114 131.811 71.3224 131.342 71.239C130.872 71.1558 130.401 71.0784 129.93 71.0066C129.534 70.9059 129.136 70.8679 128.732 70.8225C128.671 72.8304 128.336 74.4814 126.766 75.9025C125.974 76.6197 125.01 77.1088 123.992 77.4144C121.112 78.2788 115.478 78.2996 112.412 78.0984C110.272 77.9579 108.36 77.3642 106.889 75.712C105.667 74.3385 105.208 72.6851 105.24 70.8836C105.86 70.8328 106.479 70.7735 107.097 70.7059C107.13 68.8093 106.763 58.0361 107.357 56.873C107.348 56.8592 107.343 56.8421 107.331 56.832C107.259 56.7739 107.169 56.7403 107.101 56.6776C106.779 56.3815 106.866 56.1665 106.87 55.7635C104.242 53.0347 102.584 50.2826 101.749 46.5685C99.8963 46.333 98.3159 45.9243 97.1259 44.3518C96.0107 42.8778 95.2861 40.5093 95.6144 38.6747C95.8196 37.5292 96.3817 36.3469 97.3722 35.6809C98.6381 34.8298 99.7503 35.0492 101.138 35.2934C101.883 35.0548 102.503 34.4957 103.193 34.126C105.857 32.6986 108.583 31.711 111.021 29.8333C114.063 27.4915 116.519 23.7223 116.999 19.8612Z" fill="#1E1B4B"/>
<path d="M148.467 59.2717L148.98 59.3617C149.531 59.9834 149.281 61.3627 149.275 62.1704C150.176 62.1758 151.307 61.9961 152.044 62.6019L151.996 62.8066C151.077 63.2804 150.283 63.2066 149.274 63.1882C149.277 64.17 149.303 65.1559 149.206 66.134C148.997 66.0958 148.664 66.0717 148.526 65.905C148.073 65.3577 148.306 63.8726 148.322 63.1779C147.36 63.1718 146.416 63.2677 145.561 62.7588L145.55 62.5634C146.393 62.0408 147.372 62.1673 148.325 62.1802C148.312 61.3022 148.154 60.0922 148.467 59.2717Z" fill="#FFFEFE"/>
<path d="M116.999 19.8612L117.195 19.708C117.343 22.8129 119.533 26.2087 121.771 28.2548C124.692 30.9261 129.249 33.1323 132.961 34.554C134.114 34.9955 135.497 35.1659 136.512 35.8932C137.853 36.8546 138.699 38.4338 138.809 40.0722C138.914 41.6541 138.351 43.6009 137.278 44.7989C136.099 46.1153 134.483 46.555 132.773 46.6102C132.684 46.6128 132.596 46.6147 132.508 46.6158C131.585 50.8116 129.354 54.3738 125.976 57.0352C125.84 61.4879 125.767 66.066 125.965 70.5154C126.882 70.5894 127.823 70.7823 128.732 70.8225C128.671 72.8304 128.336 74.4814 126.766 75.9025C125.974 76.6197 125.01 77.1088 123.992 77.4144C121.112 78.2788 115.478 78.2996 112.412 78.0984C110.272 77.9579 108.36 77.3642 106.889 75.712C105.667 74.3385 105.208 72.6851 105.24 70.8836C105.86 70.8328 106.479 70.7735 107.097 70.7059C107.13 68.8093 106.763 58.0361 107.357 56.873C107.348 56.8592 107.343 56.8421 107.331 56.832C107.259 56.7739 107.169 56.7403 107.101 56.6776C106.779 56.3815 106.866 56.1665 106.87 55.7635C104.242 53.0347 102.584 50.2826 101.749 46.5685C99.8963 46.333 98.3159 45.9243 97.1259 44.3518C96.0107 42.8778 95.2861 40.5093 95.6144 38.6747C95.8196 37.5292 96.3817 36.3469 97.3722 35.6809C98.6381 34.8298 99.7503 35.0492 101.138 35.2934C101.883 35.0548 102.503 34.4957 103.193 34.126C105.857 32.6986 108.583 31.711 111.021 29.8333C114.063 27.4915 116.519 23.7223 116.999 19.8612Z" fill="#FEB997"/>
<path d="M106.87 55.7632C107.571 56.2559 108.822 56.9531 109.1 57.7694C108.798 57.8485 108.54 57.7794 108.257 57.6404C107.924 57.4774 107.614 57.1347 107.357 56.8727C107.348 56.8589 107.343 56.8418 107.331 56.8317C107.259 56.7736 107.169 56.74 107.101 56.6773C106.779 56.3812 106.866 56.1662 106.87 55.7632Z" fill="black"/>
<path d="M121.395 58.9478L121.61 59.0093C121.761 59.248 121.802 59.2346 121.782 59.5319C120.867 60.2092 118.959 60.2918 117.848 60.3139C117.593 60.2749 117.588 60.2788 117.408 60.1249L117.404 59.8847C118.38 59.289 120.064 59.4062 121.218 59.0093L121.395 58.9478Z" fill="black"/>
<path d="M112.659 46.9871C113.347 47.1182 113.942 47.9237 114.532 48.3566C116.634 49.9 118.458 49.7772 120.502 48.3098C120.857 48.0554 121.265 47.6676 121.699 47.6004L121.889 47.7735L121.871 48.1211C121.682 48.3319 121.491 48.5441 121.282 48.7351C120.203 49.7218 118.654 50.1637 117.213 50.0792C115.838 49.9985 114.232 49.4786 113.313 48.402C112.946 47.9735 112.626 47.569 112.659 46.9871Z" fill="black"/>
<path d="M124.511 36.9685C124.942 37.0746 125.306 37.1854 125.564 37.572C125.884 38.05 125.963 38.6933 125.855 39.2497C125.692 40.0883 125.416 40.5752 124.703 41.0345C124.242 40.9426 123.981 40.8404 123.712 40.4477C123.307 39.8554 123.231 39.1497 123.394 38.4616C123.563 37.7483 123.893 37.3438 124.511 36.9685Z" fill="#5B2448"/>
<path d="M108.469 37.0837C108.916 37.0928 109.192 37.1624 109.502 37.5095C109.944 38.004 110.043 38.7002 109.976 39.3373C109.886 40.1859 109.633 40.6296 108.967 41.1424C108.48 41.0591 108.091 40.9081 107.773 40.5205C107.407 40.0729 107.282 39.5152 107.347 38.9477C107.445 38.0915 107.81 37.6042 108.469 37.0837Z" fill="#5B2448"/>
<path d="M115.897 35.0793C115.993 35.0933 116.211 35.1203 116.299 35.1524C116.813 35.3424 116.802 38.0783 116.956 38.7179C117.451 40.7696 119.054 40.8417 119.578 41.7122C119.571 42.0669 119.55 42.4022 119.441 42.7427C119.024 44.0436 117.993 44.8631 116.817 45.4441C116.484 45.4348 116.376 45.4936 116.135 45.2509C116.275 44.6182 117.86 43.9284 118.321 43.2965C118.577 42.9442 118.723 42.463 118.873 42.0561C118.441 41.7855 118.009 41.4994 117.636 41.1501C115.992 39.6111 115.923 37.1752 115.897 35.0793Z" fill="black"/>
<path d="M121.711 32.3696C123.349 32.4682 127.923 33.1805 129.066 34.3278C129.314 34.5771 129.318 34.6366 129.32 34.9641C129.096 35.3176 128.959 35.4483 128.597 35.6593C127.36 35.6971 125.697 34.6729 124.346 34.4243C123.398 34.2498 122.143 34.5062 121.329 33.9868C121.221 33.8046 121.113 33.6995 121.117 33.4791C121.127 32.9879 121.366 32.6878 121.711 32.3696Z" fill="#5B2448"/>
<path d="M110.731 32.7548C111.304 32.6828 111.87 32.5558 112.369 32.912C112.504 33.1615 112.564 33.3527 112.487 33.6393C112.185 34.7642 109.177 34.839 108.249 35.0091C107.605 35.1272 107.02 35.316 106.424 35.5844L106.27 35.6553C106.144 35.7403 105.955 35.8874 105.804 35.9384C105.54 36.0274 105.173 36.0124 104.927 35.8727C104.629 35.7038 104.594 35.5396 104.51 35.2402C104.556 35.0017 104.599 34.8444 104.741 34.6406C105.675 33.3015 109.243 32.9345 110.731 32.7548Z" fill="#5B2448"/>
<path d="M136.281 176.969C140.983 181.953 152.843 198.271 162.658 223.667" stroke="#47273E"/>
<path d="M140.998 205.85C141.616 205.797 142.318 205.689 142.918 205.884C143.6 206.105 144.185 206.575 144.497 207.225C144.536 207.306 144.57 207.389 144.6 207.473C144.63 207.558 144.656 207.643 144.677 207.73C144.698 207.817 144.715 207.905 144.727 207.994C144.739 208.083 144.746 208.172 144.749 208.261C144.752 208.351 144.75 208.44 144.744 208.53C144.737 208.619 144.726 208.708 144.71 208.796C144.694 208.884 144.674 208.971 144.649 209.057C144.624 209.143 144.595 209.228 144.562 209.311C144.21 210.166 143.56 210.621 142.742 210.982C142.186 211.032 141.613 211.057 141.073 210.885C140.35 210.654 139.693 210.12 139.349 209.441C139.052 208.857 138.985 208.17 139.203 207.549C139.517 206.653 140.178 206.231 140.998 205.85Z" fill="#FFFEFE"/>
<path d="M115.774 216.008C116.241 215.976 116.764 215.944 117.217 216.079C117.98 216.305 118.656 216.872 118.992 217.594C119.031 217.678 119.066 217.763 119.097 217.85C119.127 217.936 119.153 218.025 119.175 218.114C119.196 218.204 119.213 218.294 119.225 218.386C119.237 218.477 119.244 218.569 119.247 218.661C119.249 218.753 119.247 218.845 119.24 218.936C119.233 219.028 119.221 219.12 119.204 219.21C119.187 219.301 119.166 219.39 119.14 219.479C119.114 219.567 119.084 219.654 119.049 219.739C118.656 220.679 117.933 221.136 117.027 221.512C116.513 221.519 115.994 221.494 115.48 221.483C114.691 221.001 114.09 220.561 113.757 219.662C113.725 219.579 113.698 219.494 113.675 219.407C113.651 219.321 113.633 219.234 113.618 219.146C113.604 219.058 113.594 218.969 113.589 218.88C113.583 218.791 113.583 218.701 113.586 218.612C113.59 218.523 113.598 218.434 113.611 218.346C113.623 218.257 113.641 218.17 113.662 218.083C113.684 217.996 113.709 217.911 113.74 217.827C113.77 217.743 113.804 217.66 113.843 217.58C114.257 216.718 114.909 216.331 115.774 216.008Z" fill="#FFFEFE"/>
<path d="M106.441 200.658C108.975 201.685 111.92 202.494 114.58 201.4C114.788 201.313 114.991 201.216 115.189 201.11C115.138 206.703 114.928 212.284 114.799 217.875C109.686 218.104 104.628 217.48 99.5776 216.741C100.228 214.813 101.191 212.912 101.995 211.036L106.441 200.658Z" fill="#F9A8D4"/>
<path d="M80.3369 126.348C74.2518 125.76 61.6072 118.423 56.5363 113.847L50.5248 129.903C53.5673 138.434 69.6634 136.072 76.7791 136.522L80.3369 126.348Z" fill="#C7D2FE" stroke="#C7D2FE" stroke-width="4"/>
<path d="M152.475 119.975C158.56 119.387 170.223 112.662 175.294 108.086L180.447 124.755C177.404 133.286 161.063 130.189 153.947 130.638L152.475 119.975Z" fill="#A5B4FC" stroke="#A5B4FC" stroke-width="4"/>
<path d="M170.786 117.546C171.234 117.531 171.751 117.475 172.175 117.631C172.813 117.866 173.355 118.427 173.608 119.052C173.844 119.638 173.863 120.295 173.598 120.874C173.31 121.503 172.832 121.867 172.202 122.113C171.707 122.128 171.209 122.11 170.714 122.104C170.271 121.835 169.812 121.539 169.521 121.1C169.201 120.619 169.068 120.032 169.197 119.466C169.404 118.564 170.04 118.022 170.786 117.546Z" fill="#FFFEFE"/>
<path d="M162.314 120.362C162.852 120.394 163.378 120.501 163.87 120.729C164.846 121.182 165.252 122.011 165.575 122.972C165.494 123.262 165.406 123.548 165.294 123.828C164.926 124.745 164.321 125.154 163.445 125.544C162.962 125.606 162.528 125.64 162.054 125.497C161.357 125.287 160.759 124.823 160.442 124.162C160.407 124.087 160.376 124.011 160.348 123.933C160.321 123.855 160.297 123.776 160.277 123.696C160.257 123.616 160.242 123.535 160.23 123.453C160.218 123.372 160.21 123.29 160.206 123.207C160.203 123.125 160.203 123.042 160.208 122.96C160.212 122.877 160.22 122.795 160.233 122.714C160.246 122.632 160.262 122.551 160.282 122.471C160.303 122.392 160.327 122.313 160.356 122.235C160.716 121.236 161.384 120.787 162.314 120.362Z" fill="#FFFEFE"/>
<path d="M59.8142 124.102C59.9457 124.039 60.0792 123.98 60.208 123.912C60.5817 123.713 60.7142 123.66 61.1291 123.652C61.49 123.806 61.6871 123.93 61.9685 124.202C62.2453 124.067 62.4573 124.018 62.7569 123.97C63.9798 124.355 64.3697 125.046 65.0795 126.039C65.6183 126.08 65.8716 126.123 66.3105 126.441C65.9246 126.49 65.3583 126.488 65.0638 126.747L65.1222 126.935C65.4076 127.07 66.0023 127.247 66.1096 127.524L65.7248 127.76C65.7979 127.936 65.8757 128.108 65.9562 128.281C65.5222 128.203 65.1337 128.107 64.6967 128.201C64.3893 128.424 64.2355 128.577 64.0347 128.899C63.9265 129.09 63.8117 129.434 63.5943 129.492C63.3374 129.56 63.1114 129.501 62.8572 129.453L62.6862 129.613L62.8177 130.055L62.7309 130.204L62.5927 130.128L62.4526 129.507C61.9864 129.434 61.9084 129.856 61.5116 129.428L60.779 128.727C60.7243 128.673 60.6686 128.619 60.6148 128.564C60.115 128.052 59.2795 127.144 59.3639 126.391C59.4106 125.974 59.8208 125.727 60.1167 125.457C60.2161 125.329 60.2551 125.227 60.3135 125.078C60.1636 124.741 59.9948 124.424 59.8142 124.102Z" fill="#FFFEFE"/>
<path d="M152.376 119.015C152.636 119.058 152.837 119.078 153.1 119.043C154.063 119.076 154.855 119.186 155.565 119.919C156.36 120.741 156.793 121.991 156.734 123.125C156.619 125.352 155.045 127.425 153.642 129.047C154.326 129.098 154.999 129.086 155.683 129.071C158.835 126.335 161.383 124.292 165.802 124.576C166.105 124.597 166.408 124.629 166.71 124.67C167.769 125.363 168.44 126.021 168.708 127.297C168.763 127.561 168.813 127.825 168.859 128.09C168.285 129.569 167.586 130.566 166.085 131.251C163.237 132.552 160.003 132.328 157.015 131.74C156.226 131.563 155.496 131.49 154.689 131.509C153.605 131.76 152.686 132.268 151.708 132.777C151.334 132.559 151.048 132.324 150.733 132.029L150.163 131.367C151.057 130.663 151.853 129.911 152.535 128.996C151.282 127.518 150.312 126.026 149.715 124.176C149.742 122.949 149.763 121.584 150.41 120.498C150.729 119.962 151.295 119.397 151.914 119.246C152.15 119.188 152.134 119.227 152.301 119.092C152.329 119.07 152.351 119.041 152.376 119.015Z" fill="#47273E"/>
<path d="M97.8809 40.4934C98.273 40.5633 98.5012 40.8976 98.7429 41.1884C99.146 41.6732 99.4667 42.088 99.4061 42.7388C99.2402 42.7119 99.0932 42.6592 98.9342 42.6062C98.4622 42.0194 97.8666 41.2523 97.8809 40.4934Z" fill="#47273E"/>
<path d="M98.0026 38.5906C98.667 38.6379 99.1477 38.8578 99.6016 39.3623C99.8708 39.6613 99.9817 39.8959 99.9596 40.2945C99.4934 40.2045 98.1979 39.3422 97.9091 38.9264L98.0026 38.5906Z" fill="#47273E"/>
<path d="M136.522 40.7383C136.13 40.8081 135.902 41.1425 135.66 41.4332C135.257 41.9181 134.936 42.3329 134.997 42.9837C135.162 42.9567 135.309 42.904 135.468 42.8511C135.941 42.2642 136.536 41.4972 136.522 40.7383Z" fill="#47273E"/>
<path d="M136.4 38.8359C135.736 38.8832 135.255 39.1031 134.801 39.6076C134.532 39.9067 134.421 40.1413 134.443 40.5399C134.909 40.4499 136.205 39.5875 136.494 39.1718L136.4 38.8359Z" fill="#47273E"/>
</svg>
