<svg width="187" height="156" viewBox="0 0 187 156" fill="none" xmlns="http://www.w3.org/2000/svg">
<path d="M152.783 29.2673C155.059 30.9289 157.29 32.7388 159.282 34.7329C161.023 33.2303 162.692 32.37 165.055 32.5212C166.812 32.6335 168.329 33.5142 169.468 34.8268C171.495 37.1597 172.212 40.513 171.955 43.5218C171.777 45.6054 171.142 47.4096 169.985 49.1479C171.489 51.1682 173.102 54.9357 174.14 57.3017C174.341 57.7587 174.537 58.2174 174.73 58.6778C174.923 59.1383 175.111 59.6004 175.296 60.0642C175.48 60.5279 175.66 60.9932 175.837 61.46C176.013 61.9269 176.185 62.3954 176.353 62.8654C176.521 63.3352 176.685 63.8066 176.844 64.2794C177.004 64.7521 177.159 65.2263 177.31 65.7019C177.461 66.1774 177.608 66.6542 177.751 67.1324C177.893 67.6104 178.032 68.0897 178.166 68.5703C178.3 69.0508 178.43 69.5324 178.556 70.0152C178.681 70.498 178.803 70.9819 178.92 71.4669C179.037 71.9518 179.15 72.4377 179.258 72.9246C179.367 73.4116 179.471 73.8993 179.57 74.388C179.67 74.8768 179.766 75.3663 179.857 75.8567C179.948 76.3472 180.035 76.8384 180.117 77.3303C180.199 77.8223 180.277 78.3149 180.351 78.8082C180.425 79.3015 180.494 79.7954 180.559 80.2899C180.624 80.7844 180.684 81.2794 180.74 81.775C180.796 82.2705 180.848 82.7665 180.895 83.2631C180.943 83.7596 180.986 84.2564 181.024 84.7536C181.063 85.2509 181.097 85.7485 181.126 86.2463C181.156 86.7441 181.181 87.2421 181.202 87.7404C181.223 88.2387 181.24 88.7371 181.252 89.2356C181.264 89.7342 181.271 90.2328 181.274 90.7316C181.277 91.2303 181.276 91.7289 181.271 92.2276C181.265 92.7262 181.255 93.2248 181.24 93.7233C181.226 94.2219 181.207 94.7202 181.183 95.2184C181.16 95.7166 181.132 96.2145 181.1 96.7122C181.068 97.2098 181.031 97.7071 180.99 98.2041C180.949 98.7012 180.904 99.1978 180.854 99.694C180.804 100.19 180.75 100.686 180.691 101.181C180.633 101.677 180.57 102.171 180.502 102.666C180.435 103.16 180.363 103.653 180.287 104.146C179.806 107.354 179.058 110.578 178.15 113.691C177.646 115.416 177.019 117.116 176.571 118.856C174.959 117.421 172.764 117.803 170.761 117.84C170.241 117.812 169.724 117.856 169.208 117.775L169.247 117.697C169.329 117.683 169.41 117.667 169.491 117.647C170.335 117.438 171.114 116.959 171.562 116.201C171.829 115.75 171.873 115.226 171.906 114.714C172.035 112.664 171.92 110.544 171.929 108.484C171.955 106.147 171.966 103.809 171.96 101.471C171.959 100.041 172.122 98.3414 171.752 96.9503C171.664 96.6164 171.455 96.345 171.227 96.0914C170.071 94.8072 168.201 95.1194 166.643 95.1272C165.659 95.1254 164.675 95.1098 163.692 95.0804C163.302 95.0687 162.701 95.1324 162.375 94.9422C162.548 94.4625 165.599 95.2669 167.097 93.9232C167.852 93.246 167.958 92.2955 167.979 91.3385C168.022 89.3628 167.976 87.3764 167.967 85.4C167.962 84.2232 168.111 82.7618 167.843 81.6184C167.732 81.1431 167.465 80.6561 167.116 80.3127C166.687 79.8898 166.115 79.7212 165.53 79.633C164.585 79.4906 163.55 79.569 162.594 79.5726L157.759 79.5944C155.956 76.8463 153.99 74.2186 151.862 71.7114C151.341 71.0992 150.797 70.358 150.161 69.8664C150.505 69.2605 150.849 68.6499 151.257 68.0839C151.571 67.6487 152.436 66.8705 152.535 66.4034C152.38 66.2195 152.426 66.1974 152.17 66.1723C151.26 67.2248 150.545 68.2918 149.825 69.477C148.296 67.4384 142.78 62.6416 140.585 61.0519C139.659 60.3811 138.579 59.9038 137.666 59.2461C137.634 59.2228 137.602 59.1989 137.57 59.1751C136.024 55.2174 137.548 53.8235 139.6 50.6934C140.096 49.9359 140.55 49.0794 140.631 48.1634C140.753 46.7744 139.688 45.4744 139.199 44.229C138.956 43.6104 138.839 42.9964 138.764 42.339C138.879 42.3606 138.988 42.3703 139.106 42.3739C140.064 42.404 140.958 42.2208 141.654 41.5231C142.62 40.557 142.761 39.2742 142.75 37.9874C147.508 36.6117 150.327 33.3757 152.783 29.2673Z" fill="#FEB997"/>
<path d="M176.087 77.7121C176.276 77.8296 176.314 77.8349 176.398 78.0362C176.23 78.668 173.121 83.8947 172.668 84.2358C172.459 84.1198 172.4 84.1074 172.29 83.8998C172.39 83.3017 175.589 78.103 176.087 77.7121Z" fill="#1E1B4B"/>
<path d="M170.096 61.6527C170.379 61.6326 170.675 61.6123 170.954 61.6822C171.408 61.7964 171.837 62.1165 172.06 62.5272C172.269 62.9104 172.307 63.3502 172.181 63.766C171.998 64.369 171.579 64.7029 171.043 64.9902C170.739 65.035 170.445 65.0654 170.143 64.9906C169.711 64.8835 169.34 64.6351 169.109 64.2536C168.857 63.8379 168.817 63.3306 168.954 62.8696C169.137 62.2545 169.555 61.9523 170.096 61.6527Z" fill="#1E1B4B"/>
<path d="M159.282 34.7329C161.023 33.2303 162.692 32.37 165.055 32.5211C166.812 32.6335 168.329 33.5142 169.468 34.8268C171.495 37.1596 172.212 40.513 171.955 43.5218C171.777 45.6054 171.142 47.4096 169.985 49.1479C169.251 50.2421 168.178 51.5964 167.041 52.2973C166.342 52.7278 164.213 53.2962 163.86 53.7068C163.967 54.0257 164.101 54.3592 164.173 54.6866C164.226 54.9271 164.19 55.0016 164.052 55.1978C163.728 55.3616 163.31 55.2607 162.951 55.2715C162.789 56.1463 163.411 56.939 163.196 57.844C162.793 59.5402 161.389 60.7482 161.493 62.5982C161.629 65.0335 163.519 66.9012 163.207 69.4841C163.147 69.9865 162.861 71.1709 162.454 71.4887C162.561 70.4896 163.079 69.6682 163.039 68.6301C162.951 66.3049 160.984 64.2962 161.272 61.9635C161.455 60.492 163.375 58.0931 162.954 56.8116C162.799 56.3403 162.783 55.8169 162.606 55.3594C162.413 54.8607 161.832 55.0265 161.395 54.8308C161.239 54.6086 161.229 54.5748 161.214 54.3041C161.329 54.0155 161.496 53.8722 161.726 53.6659C161.853 53.5525 161.811 53.626 161.847 53.4562C161.297 52.9941 160.72 52.5664 160.169 52.1061C157.905 50.2126 156.694 46.8477 156.439 43.9951C156.128 40.5255 157.024 37.3994 159.282 34.7329Z" fill="#F472B6"/>
<path d="M160.383 36.2515L160.636 36.414L160.672 36.606C160.36 37.5403 159.767 38.2621 159.501 39.2471C159.284 40.0502 159.096 41.9784 158.628 42.6007L158.378 42.4956C158.127 42.1237 158.21 41.5258 158.265 41.0906C158.466 39.4896 159.058 37.2921 160.383 36.2515Z" fill="white"/>
<path d="M169.902 41.776C170.205 41.7732 170.476 41.7736 170.713 41.9976C170.985 42.2536 171.068 42.6557 171.084 43.0124C171.147 44.405 170.416 46.635 169.491 47.6701C169.233 47.7397 169.019 47.7622 168.779 47.6218C168.613 47.5245 168.523 47.3422 168.493 47.1559C168.326 46.1211 169.319 42.6224 169.902 41.776Z" fill="white"/>
<path d="M129.739 66.1864C129.434 65.3284 129.584 63.6474 129.816 62.7598C130.176 61.3848 130.982 60.2534 132.229 59.531C133.517 58.7847 135.179 58.6233 136.615 59.0173C136.641 59.0246 136.881 59.0958 136.922 59.0947C136.983 59.0931 137.041 59.0685 137.101 59.0554L137.288 59.2552C137.401 59.2386 137.468 59.2318 137.57 59.1751C137.602 59.1989 137.634 59.2228 137.666 59.2461C138.579 59.9038 139.659 60.3811 140.585 61.0519C142.78 62.6415 148.296 67.4384 149.825 69.477C150.545 68.2918 151.26 67.2248 152.17 66.1723C152.426 66.1973 152.38 66.2195 152.534 66.4034C152.436 66.8705 151.571 67.6486 151.257 68.0839C150.849 68.6499 150.505 69.2605 150.161 69.8664C150.797 70.358 151.341 71.0992 151.862 71.7114C153.99 74.2186 155.956 76.8462 157.759 79.5944L162.594 79.5726C163.55 79.569 164.585 79.4906 165.53 79.633C166.115 79.7212 166.687 79.8898 167.116 80.3127C167.465 80.6561 167.732 81.1431 167.843 81.6184C168.111 82.7618 167.962 84.2232 167.967 85.4C167.976 87.3764 168.022 89.3628 167.979 91.3385C167.958 92.2954 167.852 93.246 167.097 93.9232C165.599 95.2669 162.548 94.4625 162.375 94.9422C162.701 95.1324 163.301 95.0687 163.692 95.0804C164.675 95.1098 165.659 95.1254 166.643 95.1272C168.201 95.1194 170.071 94.8071 171.227 96.0914C171.455 96.345 171.663 96.6164 171.752 96.9502C172.122 98.3413 171.959 100.041 171.96 101.471C171.966 103.809 171.955 106.146 171.929 108.484C171.92 110.544 172.035 112.664 171.906 114.714C171.873 115.226 171.829 115.75 171.562 116.201C171.114 116.959 170.335 117.438 169.491 117.647C169.41 117.667 169.329 117.683 169.247 117.697C168.253 117.465 164.826 117.634 163.624 117.636L156.674 117.649C155.192 117.653 153.689 117.617 152.211 117.723C151.964 117.727 151.834 117.748 151.609 117.627C151.533 116.248 151.795 114.708 151.898 113.32L152.465 105.049C152.462 104.878 152.438 104.755 152.385 104.593C143.427 106.985 131.841 106.202 123.175 102.999C124.015 99.9854 125.037 97.0339 125.648 93.96C125.886 92.7632 125.877 91.529 126.077 90.3269L126.092 90.2394C126.134 90.2063 126.153 90.1507 126.18 90.1042C125.205 89.4399 124.149 88.7817 123.812 87.57C122.792 83.9005 126.899 80.3561 128.62 77.4685C127.408 78.4344 124.46 82.5894 123.625 84.0748C122.77 83.2373 121.871 82.3526 120.797 81.7977L120.62 81.8563C120.505 81.754 120.436 81.6575 120.356 81.5265C120.451 80.5393 121.679 80.0746 121.943 79.1945L122.177 79.0292C122.714 78.1656 123.432 77.3289 124.123 76.5849C125.744 74.8408 128.106 72.892 130.62 72.7861C131.56 70.8238 129.935 68.281 129.739 66.1864Z" fill="#1E1B4B"/>
<path d="M136.692 73.0957C136.814 73.1643 136.932 73.2375 137.062 73.2906C136.371 73.9233 135.834 74.8292 135.427 75.6623C135.262 75.2432 135.073 74.8536 135.208 74.3982C135.407 73.7295 136.11 73.3832 136.692 73.0957Z" fill="#F472B6"/>
<path d="M159.36 82.7483C159.708 82.7618 160.067 82.8389 160.392 82.9611C161.286 83.297 162.058 83.9253 162.421 84.8222C162.814 85.7951 162.563 86.6244 162.183 87.5387C162.083 87.714 161.994 87.8242 161.843 87.9582L161.703 87.783L161.767 87.7951L161.709 87.6428L161.575 87.6458C161.643 87.4163 159.559 83.1564 159.36 82.7483Z" fill="#F472B6"/>
<path d="M130.017 66.0345C129.936 65.1176 130.328 64.5072 130.922 63.8247C131.124 63.5921 131.394 63.3278 131.712 63.2757C131.99 63.2301 134.015 64.2662 134.533 64.4389C134.724 64.9455 134.898 65.6825 135.454 65.9018C136.367 66.2621 137.515 65.0791 138.161 66.2872C138.319 66.5819 138.386 66.9102 138.259 67.2292C138.164 67.47 137.962 67.6629 137.724 67.7628C137.395 67.9012 136.925 67.8972 136.612 67.7123C136.404 67.5892 136.257 67.3412 136.122 67.1463C135.305 68.4825 135.353 69.9449 135.725 71.4369C135.857 71.9674 136.062 72.4962 136.42 72.9187C135.688 73.3609 135.232 73.7275 134.799 74.4839C134.362 73.9358 133.916 73.3948 133.462 72.8607C132.86 72.1938 133.171 70.7178 133.186 69.8639C132.452 69.9662 131.916 69.9874 131.307 69.5022C130.352 68.7422 130.17 67.1648 130.017 66.0345Z" fill="#FEB997"/>
<path d="M159.507 101.379C160.711 101.265 161.83 101.456 162.864 102.092C162.935 102.135 163.005 102.18 163.074 102.227C163.142 102.274 163.21 102.322 163.276 102.372C163.343 102.422 163.408 102.474 163.471 102.527C163.535 102.58 163.598 102.635 163.659 102.691C163.72 102.748 163.779 102.805 163.838 102.864C163.896 102.924 163.953 102.984 164.008 103.046C164.063 103.108 164.117 103.171 164.169 103.236C164.221 103.301 164.271 103.366 164.32 103.434C164.369 103.501 164.416 103.569 164.462 103.638C164.507 103.708 164.551 103.778 164.593 103.849C164.635 103.921 164.675 103.993 164.713 104.067C164.752 104.14 164.788 104.215 164.823 104.29C164.858 104.365 164.89 104.441 164.921 104.518C164.952 104.595 164.981 104.673 165.008 104.751C165.035 104.829 165.061 104.908 165.084 104.988C165.107 105.067 165.128 105.147 165.147 105.228C165.168 105.308 165.186 105.388 165.202 105.469C165.218 105.55 165.232 105.631 165.244 105.712C165.255 105.794 165.265 105.875 165.273 105.957C165.281 106.039 165.286 106.121 165.29 106.204C165.293 106.286 165.294 106.368 165.294 106.451C165.293 106.533 165.29 106.615 165.285 106.697C165.28 106.779 165.273 106.861 165.264 106.943C165.255 107.025 165.243 107.107 165.23 107.188C165.217 107.269 165.201 107.35 165.184 107.43C165.166 107.511 165.147 107.591 165.125 107.67C165.104 107.75 165.08 107.829 165.054 107.907C165.029 107.985 165.001 108.063 164.971 108.14C164.942 108.217 164.91 108.293 164.877 108.368C164.843 108.443 164.808 108.518 164.77 108.591C164.733 108.664 164.694 108.737 164.653 108.808C164.612 108.88 164.569 108.95 164.524 109.02C163.694 110.306 162.453 110.923 161 111.215C159.814 111.354 158.677 111.133 157.656 110.515C157.582 110.471 157.51 110.425 157.438 110.378C157.367 110.331 157.297 110.281 157.228 110.231C157.159 110.18 157.091 110.127 157.025 110.073C156.958 110.019 156.893 109.963 156.83 109.906C156.766 109.848 156.704 109.789 156.644 109.729C156.583 109.668 156.524 109.606 156.466 109.543C156.409 109.479 156.353 109.414 156.299 109.348C156.245 109.282 156.192 109.214 156.141 109.146C156.09 109.077 156.041 109.007 155.994 108.935C155.947 108.864 155.901 108.792 155.857 108.718C155.814 108.645 155.772 108.57 155.732 108.495C155.692 108.419 155.654 108.342 155.618 108.265C155.582 108.187 155.548 108.109 155.516 108.03C155.484 107.951 155.453 107.871 155.425 107.79C155.397 107.709 155.371 107.628 155.347 107.546C155.323 107.464 155.301 107.382 155.281 107.299C154.996 106.062 155.254 104.792 155.925 103.722C156.746 102.413 158.027 101.724 159.507 101.379Z" fill="#F472B6"/>
<path d="M137.325 73.421C139.409 72.9305 142.456 73.8637 144.238 74.9695C146.992 76.6783 149.258 79.6206 149.96 82.7941C150.298 84.3188 150.339 85.8984 150.21 87.4494C149.313 87.5728 148.363 87.646 147.483 87.8475C146.124 85.814 142.934 83.7502 140.958 82.2421C139.581 81.2397 138.073 80.1698 136.869 78.965C136.166 78.261 135.656 77.3574 135.685 76.3399C135.72 75.1563 136.49 74.1907 137.325 73.421Z" fill="#3730A3"/>
<path d="M140.958 82.242C140.785 81.617 140.319 78.732 140.557 78.2598L140.723 78.1534C140.995 78.8776 141.332 81.3331 141.136 82.0551L140.958 82.242Z" fill="#1E1B4B"/>
<path d="M132.071 73.5249C132.275 73.9929 132.59 74.4502 132.712 74.9453C132.748 75.0895 132.764 75.168 132.862 75.2877C133.03 75.1217 133.01 75.0858 133.063 74.8664C132.601 74.0635 132.262 73.1801 131.726 72.4223C131.706 72.3946 131.686 72.3675 131.666 72.3401L131.704 72.2607C131.904 72.2374 132.121 72.2045 132.322 72.2244C132.78 72.2702 133.096 72.7577 133.353 73.0855C133.91 73.7866 134.605 74.5278 134.977 75.3457C135.484 76.4607 135.423 77.7114 136.25 78.6836C136.836 79.3721 137.585 79.9368 138.276 80.5175C140.08 82.0329 141.964 83.4546 143.823 84.9017C144.893 85.7344 146.059 86.5609 146.859 87.6681C147.513 88.5731 147.906 89.6619 147.802 90.788C147.721 91.6685 147.249 92.5156 146.562 93.0726C145.921 93.5925 145.101 93.8491 144.276 93.7479C142.722 93.557 141.562 92.2951 140.683 91.1134C139.448 89.4527 138.269 87.6742 137.186 85.9115C136.749 85.2009 134.224 80.6268 134.008 80.4299C133.964 80.3894 133.755 80.3316 133.696 80.3082C132.799 79.9533 132.465 79.7106 131.95 78.8944C131.333 77.9145 130.256 76.3093 130.313 75.1543L130.432 75.0416C130.984 75.2672 131.037 76.0891 131.474 76.2928C131.605 75.7668 130.9 75.173 130.873 74.5791C130.756 74.5352 130.628 74.533 130.581 74.4069C130.509 74.2094 130.538 73.9782 130.545 73.7711L130.652 73.5796C131.095 73.7187 131.505 74.6812 131.717 75.0913C131.836 75.3219 131.932 75.5538 132.006 75.8025C132.108 75.8395 132.199 75.8485 132.307 75.8618L132.362 75.7097C132.179 75.1248 131.815 74.5791 131.509 74.048C131.303 73.6679 131.041 73.3101 130.801 72.9502C130.897 72.6946 130.911 72.5932 131.128 72.4175C131.358 72.4404 131.455 72.4887 131.603 72.6741C131.798 72.9191 131.939 73.2422 132.071 73.5249Z" fill="#FEB997"/>
<path d="M122.177 79.0293C122.714 78.1657 123.432 77.3289 124.123 76.585C125.744 74.8408 128.106 72.8921 130.62 72.7861L130.639 72.8635C130.386 73.6143 130.368 74.4951 129.998 75.1767C129.975 75.22 129.954 75.2645 129.931 75.3081C129.917 75.3342 129.902 75.3599 129.888 75.3859C130.455 76.6845 131.757 79.8401 133.066 80.3434C133.11 80.3604 133.154 80.3756 133.199 80.3922C133.327 80.4405 133.724 80.5403 133.814 80.621C134.09 80.8701 134.853 82.4751 135.098 82.9127C136.509 85.431 140.327 92.0982 142.584 93.5133C143.599 94.1498 144.866 94.3059 145.981 93.833C146.89 93.4474 147.569 92.7053 147.91 91.7877C148.373 90.5453 148.063 89.5422 147.71 88.3393C148.4 89.0045 148.961 90.344 149.415 91.1949C150.728 93.7095 152.011 96.2391 153.265 98.7836C154.017 100.28 154.737 101.827 155.645 103.238C154.957 103.672 152.878 104.164 152.524 104.694L152.465 105.049C152.462 104.879 152.438 104.755 152.385 104.593C143.427 106.985 131.841 106.202 123.175 102.999C124.015 99.9854 125.037 97.034 125.648 93.96C125.886 92.7633 125.877 91.529 126.077 90.327L126.092 90.2395C126.134 90.2064 126.153 90.1508 126.18 90.1043C125.205 89.4399 124.149 88.7818 123.812 87.5701C122.792 83.9006 126.899 80.3562 128.62 77.4686C127.408 78.4345 124.46 82.5895 123.625 84.0749C122.77 83.2374 121.871 82.3527 120.797 81.7978L120.62 81.8563C120.505 81.754 120.436 81.6576 120.356 81.5266C120.451 80.5394 121.679 80.0747 121.943 79.1946L122.177 79.0293Z" fill="#3730A3"/>
<path d="M122.068 144.233C121.92 142.468 121.554 140.683 121.336 138.919L120.123 128.413C119.859 126.227 119.419 123.919 119.486 121.715C119.602 117.88 120.525 112.944 121.484 109.229C122.023 107.146 122.695 105.098 123.175 102.999C131.841 106.202 143.427 106.985 152.385 104.593C152.438 104.755 152.462 104.878 152.465 105.049L151.898 113.32C151.795 114.708 151.533 116.248 151.609 117.627C151.834 117.748 151.964 117.727 152.211 117.723C153.689 117.617 155.192 117.653 156.674 117.649L163.624 117.636C164.826 117.634 168.253 117.465 169.247 117.697L169.208 117.775C169.724 117.856 170.241 117.812 170.761 117.84C172.764 117.803 174.959 117.421 176.571 118.856C178.173 120.868 177.358 123.303 177.417 125.659C177.426 125.975 177.391 126.352 177.526 126.64C178.465 126.596 179.239 126.522 180.058 127.067C180.605 127.586 180.976 128.045 181.063 128.823C181.18 130.162 181.096 131.563 181.099 132.909C181.124 135.345 181.128 137.781 181.112 140.216L181.072 144.97C181.067 145.689 181.121 146.461 181.052 147.175C181.245 149.742 181.126 152.401 181.128 154.978C182.017 154.979 186.196 154.833 186.722 155.023C186.8 155.051 186.857 155.123 186.923 155.173C187.008 155.41 187.028 155.428 186.956 155.666C186.327 156.207 184.462 155.928 183.638 155.927L56.261 155.956L19.1433 155.832L6.58739 155.899C4.8489 155.909 2.48967 156.073 0.820256 155.915C0.53301 155.887 0.300151 155.826 0.0705366 155.647L0 155.452C0.108106 155.25 0.203766 155.089 0.436354 155.007C0.748517 154.897 1.21936 154.972 1.54883 154.991C2.63468 154.948 3.73471 154.979 4.82213 154.977L4.83488 127.798C4.82851 127.703 4.82075 127.608 4.82043 127.513C4.81819 126.851 5.0712 126.172 5.55778 125.713C6.36778 124.948 7.38853 124.93 8.43319 124.946C8.41491 123.61 8.33276 122.237 8.40943 120.904C8.48174 119.646 8.94121 118.834 9.86816 118.02C10.7391 117.526 11.5748 117.543 12.5473 117.544C12.2397 118.248 12.1493 118.901 12.0953 119.657L28.8749 119.637C32.2572 119.634 35.6544 119.58 39.0348 119.675C39.1248 121.349 38.9409 123.103 38.8184 124.775C38.3505 131.152 37.1572 137.356 36.0134 143.638C37.8928 144.372 40.1723 144.83 42.1993 144.933L42.5648 144.863C43.3485 143.948 44.1649 141.448 44.6544 140.242C46.1595 136.532 47.5665 132.662 48.5835 128.786C50.3121 122.198 51.1328 115.266 51.7458 108.494C52.3401 107.784 52.9229 107.058 53.3571 106.236C53.5486 105.874 53.7255 105.013 54.0417 104.841L54.1065 104.954C54.066 106.144 52.7945 107.696 52.0798 108.618C51.7824 110.303 51.7486 112.106 51.5498 113.813C51.1079 117.607 50.551 121.317 49.7665 125.055C49.486 125.842 49.3115 126.61 49.2245 127.442C48.979 129.791 49.0736 132.245 49.0493 134.611L49.0027 148.77C49.001 149.442 49.1199 153.205 48.9372 153.64C48.9105 153.704 48.8551 153.751 48.8141 153.806L48.8146 153.904C48.9852 154.106 48.9615 154.218 48.9353 154.476C48.9184 154.644 48.8862 154.812 48.8573 154.979C50.3869 154.975 51.9289 155.012 53.4568 154.954L68.8298 155.065C69.6046 154.817 70.6563 154.947 71.4698 154.961C72.0123 154.961 72.5604 154.976 73.1022 154.952C75.2963 154.674 78.1753 154.943 80.4345 154.978L91.1255 154.973C91.1073 154.735 91.0856 154.648 91.169 154.419L91.4849 154.303C93.0815 154.167 94.7395 154.241 96.3427 154.245C98.3592 154.249 100.388 154.21 102.403 154.266C103.907 154.521 105.996 154.349 107.563 154.348C108.091 154.348 108.681 154.293 109.2 154.39C109.265 154.597 109.284 154.764 109.288 154.982C110.787 154.939 114.68 155.182 115.825 154.913L115.911 154.723L116.046 154.903L116.166 154.884C116.377 154.235 116.592 153.623 116.953 153.038C117.454 152.23 118.238 151.48 119.194 151.258C119.464 151.09 119.723 150.904 119.985 150.725C120.13 150.678 120.283 150.596 120.396 150.491C120.89 150.037 120.805 149.253 120.845 148.64L120.842 148.275C120.894 147.647 120.755 146.42 121.178 145.945L121.315 145.847L121.318 145.771C121.626 145.476 121.43 144.996 121.487 144.599C121.68 144.348 121.777 144.34 122.068 144.233Z" fill="#1E1B4B"/>
<path d="M152.211 117.723C153.689 117.617 155.192 117.653 156.674 117.649L163.624 117.636C164.826 117.634 168.253 117.465 169.246 117.697L169.208 117.775C169.724 117.856 170.241 117.812 170.761 117.841C167.585 118.091 164.305 117.895 161.113 117.894L154.946 117.898C153.991 117.899 152.998 117.961 152.047 117.91L152.211 117.723Z" fill="#956C6F"/>
<path d="M48.8146 153.904C48.9852 154.106 48.9614 154.218 48.9353 154.476C48.9184 154.644 48.8862 154.813 48.8573 154.979C45.5267 155.061 42.1737 154.978 38.8413 154.961C37.2137 154.953 34.9824 155.115 33.4166 154.864C33.3621 154.614 33.467 154.428 33.543 154.188C35.6306 154.107 48.1977 154.401 48.7215 154.163L48.8146 153.904Z" fill="white"/>
<path d="M91.4849 154.303C93.0815 154.167 94.7395 154.241 96.3426 154.245C98.3592 154.249 100.388 154.21 102.403 154.266C103.907 154.521 105.996 154.349 107.563 154.348C108.091 154.348 108.681 154.293 109.2 154.39C109.265 154.597 109.284 154.764 109.288 154.982C103.24 155.092 97.1747 154.982 91.1255 154.973C91.1073 154.735 91.0856 154.648 91.1689 154.419L91.4849 154.303Z" fill="white"/>
<path d="M36.0134 143.638C37.8928 144.372 40.1723 144.83 42.1993 144.933C41.9704 145.541 41.7464 146.452 41.3527 146.953C39.9417 146.535 37.012 146.513 35.4377 146.449C35.7546 145.598 35.8461 144.535 36.0134 143.638Z" fill="#FEB997"/>
<path d="M178.473 127.005C179.066 127.103 179.496 127.239 179.992 127.577C180.287 127.973 180.492 128.323 180.66 128.785L180.683 147.437C180.681 148.976 180.485 153.905 180.755 154.972C179.146 155.226 177.379 154.964 175.742 155.035C175.919 154.905 176.104 154.774 176.263 154.623C176.857 154.061 177.233 153.378 177.366 152.573C177.523 151.614 177.462 150.61 177.457 149.642L177.437 145.211C177.436 139.164 177.369 133.113 177.436 127.067C177.789 127.068 178.123 127.054 178.473 127.005Z" fill="white"/>
<path d="M5.2634 129.027C5.26824 127.99 5.17171 126.679 6.00997 125.907C6.62115 125.345 7.50871 125.345 8.28848 125.4L8.40967 125.41L8.4057 144.213L8.40198 149.722C8.40029 150.688 8.30862 151.727 8.43594 152.684C8.5309 153.398 8.88357 153.958 9.39253 154.46C9.55245 154.615 9.71558 154.768 9.88191 154.917C8.49337 154.922 6.56997 154.77 5.24654 155.002C5.1322 152.281 5.25707 149.504 5.26366 146.778L5.2634 129.027Z" fill="white"/>
<path d="M138.992 144.405L139.071 144.222C139.566 143.818 147.694 143.349 148.937 143.237L149.058 143.549C149.323 143.524 149.659 143.438 149.892 143.561C150.113 145.009 150.139 146.527 150.235 147.991C150.387 150.301 150.57 152.622 150.618 154.937L128.282 154.956L120.1 154.974C118.857 154.973 117.374 155.123 116.166 154.884C116.377 154.235 116.592 153.623 116.953 153.038C117.454 152.23 118.238 151.479 119.194 151.258C119.464 151.09 119.723 150.904 119.985 150.725C120.13 150.678 120.283 150.596 120.396 150.491C120.89 150.037 120.805 149.253 120.845 148.64L120.842 148.275C120.894 147.647 120.755 146.42 121.178 145.945L121.314 145.847L121.318 145.771C121.626 145.476 121.43 144.996 121.487 144.599C121.68 144.347 121.777 144.34 122.068 144.232C124.249 144.158 126.459 143.858 128.641 143.705L128.845 143.993C130.308 143.933 131.765 143.717 133.227 143.684C133.185 144.84 132.979 154.229 133.152 154.598L133.26 154.662C134.497 152.554 134.994 152.146 137.316 151.335C137.48 151.197 137.663 151.089 137.843 150.973C138.133 150.778 138.277 150.312 138.407 149.998C138.306 149.732 138.195 149.481 138.067 149.227C138.032 148.094 138.014 146.732 138.174 145.612C138.2 145.429 138.165 145.424 138.316 145.312C138.526 145.375 138.662 145.402 138.881 145.376C139.048 145.103 138.989 144.725 138.992 144.405Z" fill="#3730A3"/>
<path d="M119.985 150.725C120.084 150.808 120.094 150.825 120.224 150.891C121.001 151.29 122.842 150.913 123.602 150.596L124.141 150.376L124.349 150.544C123.708 151.209 122.855 151.417 121.953 151.433C121.033 151.45 120.112 151.301 119.194 151.258C119.464 151.09 119.723 150.904 119.985 150.725Z" fill="white"/>
<path d="M141.865 150.109L141.942 150.137C142.166 150.344 142.193 150.354 142.252 150.648C142.057 150.988 141.717 151.138 141.341 151.245C140.153 151.585 138.517 151.59 137.316 151.335C137.48 151.197 137.663 151.089 137.843 150.973C138.756 151.15 140.271 151.171 141.144 150.834C141.552 150.676 141.702 150.505 141.865 150.109Z" fill="white"/>
<path d="M122.068 144.232C124.249 144.159 126.459 143.858 128.641 143.705L128.845 143.993C126.51 144.289 124.133 144.445 121.783 144.594L121.778 145.773L121.315 145.847L121.318 145.771C121.626 145.476 121.43 144.996 121.487 144.599C121.68 144.348 121.777 144.34 122.068 144.232Z" fill="#1E1B4B"/>
<path d="M121.314 145.847L121.778 145.773C122.885 145.955 124.482 146.127 125.184 147.121C125.505 147.576 125.55 148.135 125.446 148.669C125.364 149.087 125.157 149.372 124.792 149.591C124.695 149.648 124.699 149.64 124.575 149.689C123.528 149.077 122.029 148.902 120.845 148.64L120.842 148.275C121.831 148.489 123.606 149.066 124.545 149.032C124.77 149.023 124.872 149.014 125.027 148.84C125.066 148.572 125.105 148.305 125.073 148.033C124.857 146.177 122.002 146.697 121.27 146.035C121.238 146.006 121.209 145.975 121.178 145.945L121.314 145.847Z" fill="white"/>
<path d="M138.407 149.998C138.418 149.741 138.382 149.404 138.536 149.187C139.525 149.02 141.039 149.463 141.818 150.065C141.835 150.078 141.85 150.094 141.865 150.109C141.702 150.505 141.552 150.676 141.144 150.834C140.271 151.171 138.756 151.15 137.843 150.973C138.132 150.778 138.277 150.312 138.407 149.998Z" fill="#3730A3"/>
<path d="M138.992 144.405L139.071 144.222C139.566 143.818 147.694 143.349 148.937 143.237L149.058 143.549C145.802 143.861 142.543 144.116 139.279 144.313C139.235 144.762 139.181 145.21 139.18 145.661C138.929 145.649 138.767 145.594 138.549 145.733L138.462 146.028C138.462 146.798 138.619 147.637 138.56 148.388C138.471 148.605 138.438 148.629 138.499 148.851C139.666 149.283 141.269 149.174 142.582 149.623C142.54 149.647 142.498 149.673 142.455 149.696C142.293 149.782 142.164 149.814 141.986 149.849C141.886 149.991 141.926 149.893 141.946 150.116C141.946 150.123 141.943 150.13 141.942 150.137L141.865 150.109C141.85 150.094 141.835 150.078 141.818 150.065C141.039 149.463 139.525 149.02 138.536 149.187C138.382 149.404 138.418 149.741 138.407 149.998C138.306 149.732 138.195 149.481 138.067 149.227C138.032 148.094 138.014 146.732 138.174 145.612C138.2 145.429 138.165 145.424 138.316 145.312C138.526 145.375 138.662 145.402 138.881 145.376C139.048 145.103 138.989 144.725 138.992 144.405Z" fill="#831843"/>
<path d="M120.842 148.275C120.894 147.647 120.755 146.42 121.178 145.945C121.209 145.975 121.238 146.006 121.27 146.035C122.002 146.697 124.857 146.177 125.073 148.033C125.105 148.305 125.066 148.572 125.027 148.84C124.872 149.014 124.77 149.023 124.545 149.032C123.606 149.066 121.831 148.489 120.842 148.275Z" fill="#3730A3"/>
<path d="M138.462 146.028L138.549 145.733C138.767 145.594 138.929 145.65 139.18 145.661C140.259 145.859 142.154 146.07 142.812 147.015C143.225 147.609 143.271 148.611 143.102 149.303C143.051 149.511 143.012 149.546 142.851 149.674L142.582 149.623C141.269 149.174 139.666 149.283 138.499 148.852C138.438 148.629 138.471 148.605 138.56 148.388C138.619 147.637 138.462 146.798 138.462 146.028Z" fill="#3730A3"/>
<path d="M138.462 146.028L138.549 145.733C138.767 145.594 138.929 145.65 139.18 145.661C140.259 145.859 142.154 146.07 142.812 147.015C143.225 147.609 143.271 148.611 143.102 149.303C143.051 149.511 143.012 149.546 142.851 149.674L142.582 149.623C141.269 149.174 139.666 149.283 138.499 148.852C138.438 148.629 138.471 148.605 138.56 148.388C139.874 148.766 141.35 148.909 142.702 149.171C142.712 148.827 142.727 148.456 142.691 148.113C142.653 147.751 142.546 147.342 142.238 147.116C141.602 146.649 139.241 145.927 138.462 146.028Z" fill="white"/>
<path d="M160.118 125.64C160.124 125.639 160.13 125.638 160.135 125.637C160.307 125.623 160.479 125.613 160.651 125.606C160.823 125.599 160.995 125.597 161.167 125.598C161.34 125.599 161.512 125.604 161.684 125.613C161.856 125.622 162.027 125.635 162.199 125.651C162.37 125.668 162.541 125.688 162.711 125.712C162.882 125.736 163.052 125.764 163.221 125.796C163.39 125.828 163.559 125.864 163.726 125.903C163.894 125.942 164.06 125.985 164.226 126.032C164.392 126.078 164.556 126.129 164.72 126.183C164.883 126.237 165.045 126.295 165.206 126.356C165.367 126.417 165.526 126.482 165.684 126.55C165.842 126.619 165.998 126.691 166.152 126.766C166.307 126.841 166.46 126.92 166.611 127.003C166.762 127.085 166.911 127.17 167.058 127.259C167.206 127.348 167.351 127.44 167.494 127.535C167.637 127.631 167.778 127.729 167.916 127.831C170.447 129.701 172.261 132.674 172.706 135.783C173.148 138.866 172.301 141.918 170.417 144.391C168.412 147.023 165.507 148.365 162.287 148.822C159.006 149.212 155.966 148.35 153.365 146.328C151.808 145.117 149.8 142.954 149.589 140.898C149.494 139.969 149.736 138.909 149.815 137.978C150.111 134.49 149.93 132.703 152.278 129.813C154.239 127.4 157.024 125.957 160.118 125.64Z" fill="#F472B6"/>
<path d="M160.483 134.488C161.013 134.47 161.518 134.468 162.02 134.666C162.709 134.939 163.228 135.471 163.506 136.153C163.543 136.242 163.575 136.334 163.603 136.427C163.63 136.52 163.652 136.614 163.67 136.71C163.687 136.805 163.7 136.901 163.707 136.998C163.715 137.094 163.717 137.191 163.715 137.288C163.712 137.385 163.705 137.481 163.692 137.578C163.679 137.674 163.661 137.769 163.639 137.863C163.616 137.957 163.588 138.05 163.556 138.142C163.523 138.233 163.486 138.323 163.445 138.41C163.056 139.222 162.45 139.599 161.641 139.902C161.002 139.983 160.382 139.97 159.786 139.696C159.706 139.66 159.629 139.62 159.553 139.576C159.478 139.533 159.404 139.485 159.334 139.434C159.263 139.382 159.195 139.327 159.131 139.269C159.066 139.211 159.004 139.149 158.945 139.085C158.887 139.02 158.832 138.952 158.781 138.882C158.729 138.812 158.681 138.739 158.637 138.664C158.593 138.588 158.554 138.511 158.518 138.432C158.482 138.352 158.45 138.271 158.423 138.189C158.172 137.455 158.254 136.601 158.622 135.921C159.038 135.151 159.669 134.754 160.483 134.488Z" fill="#1E1B4B"/>
<path d="M122.068 144.233C121.92 142.468 121.554 140.683 121.336 138.919L120.123 128.413C119.859 126.227 119.419 123.919 119.486 121.715C119.602 117.88 120.525 112.944 121.484 109.229C122.023 107.146 122.695 105.098 123.175 102.999C131.841 106.202 143.427 106.985 152.385 104.593C152.438 104.755 152.462 104.878 152.465 105.049L151.898 113.32C151.795 114.708 151.533 116.248 151.609 117.627C151.834 117.748 151.964 117.727 152.211 117.723L152.047 117.91C151.929 117.921 151.66 117.905 151.593 118.004C151.343 118.373 151.282 120.508 151.216 121.066C150.919 123.583 150.705 126.105 150.423 128.624C149.925 133.061 149.383 137.466 149.166 141.929C149.152 142.222 149.202 143.072 148.937 143.237C147.694 143.35 139.566 143.818 139.071 144.222L138.992 144.405C138.989 144.725 139.048 145.103 138.881 145.376C138.662 145.402 138.526 145.375 138.316 145.312C138.165 145.424 138.2 145.429 138.174 145.612C138.014 146.732 138.032 148.094 138.067 149.227C138.195 149.481 138.306 149.732 138.407 149.998C138.277 150.312 138.133 150.778 137.843 150.973C137.663 151.089 137.48 151.197 137.316 151.335C134.994 152.146 134.497 152.554 133.26 154.662L133.152 154.598C132.979 154.229 133.185 144.84 133.227 143.684C131.765 143.717 130.308 143.933 128.845 143.993L128.641 143.705C126.459 143.858 124.249 144.159 122.068 144.233Z" fill="#F472B6"/>
<path d="M129.246 109.691C129.279 109.707 129.312 109.723 129.344 109.74C129.397 109.767 129.449 109.796 129.501 109.823C130.758 110.47 131.746 111.674 132.83 112.572C133.184 115.094 133.745 117.615 134.213 120.12C134.501 121.663 135.103 123.594 134.875 125.147C134.047 129.699 133.585 134.358 132.979 138.946C132.785 140.414 132.691 141.945 132.401 143.395L133.581 143.392C133.487 145.883 133.501 148.372 133.435 150.863C133.408 151.866 133.426 152.912 133.317 153.908C133.547 153.524 133.774 153.114 134.091 152.794C135.063 151.811 137.234 151.305 137.818 150.285C137.991 149.983 138.017 149.567 138.067 149.227C138.195 149.481 138.306 149.732 138.407 149.998C138.277 150.312 138.133 150.778 137.843 150.973C137.663 151.089 137.48 151.197 137.316 151.335C134.994 152.146 134.497 152.554 133.26 154.662L133.152 154.598C132.979 154.229 133.185 144.84 133.227 143.684C131.765 143.717 130.308 143.933 128.845 143.993L128.641 143.705C129.768 143.561 130.928 143.518 132.062 143.429C132.202 141.235 132.62 138.993 132.923 136.811C133.311 134.023 133.623 131.231 133.97 128.438C134.138 127.084 134.586 125.572 134.548 124.22C134.512 122.899 134.141 121.499 133.898 120.2L132.499 112.8C131.5 111.754 129.994 110.923 129.246 109.691Z" fill="#030102"/>
<path d="M134.875 125.147C135.156 125.672 139.028 143.651 138.992 144.405C138.989 144.725 139.048 145.103 138.881 145.376C138.662 145.402 138.526 145.375 138.316 145.312C138.165 145.424 138.2 145.429 138.174 145.612C138.014 146.732 138.032 148.095 138.067 149.227C138.017 149.567 137.991 149.983 137.818 150.285C137.234 151.305 135.063 151.811 134.091 152.794C133.774 153.115 133.547 153.524 133.317 153.908C133.426 152.912 133.408 151.866 133.435 150.863C133.501 148.373 133.487 145.883 133.581 143.392L132.401 143.396C132.691 141.946 132.785 140.414 132.979 138.946C133.585 134.358 134.047 129.699 134.875 125.147Z" fill="#FEB997"/>
<path d="M128.013 11.0912C129.689 6.90351 132.322 2.89953 136.636 1.05357C139.632 -0.228745 142.965 -0.383557 146.013 0.826995C149.719 2.29865 152.439 5.67984 153.95 9.26411C156.073 14.3 156.328 21.4791 154.192 26.5743C153.801 27.5084 153.287 28.3899 152.783 29.2673C150.327 33.3756 147.508 36.6117 142.75 37.9874C142.761 39.2742 142.62 40.557 141.654 41.5231C140.958 42.2207 140.064 42.4039 139.106 42.3739C138.988 42.3703 138.879 42.3606 138.764 42.339C138.839 42.9964 138.956 43.6104 139.199 44.229C139.688 45.4744 140.753 46.7743 140.631 48.1634C140.55 49.0794 140.096 49.9359 139.6 50.6934C137.548 53.8235 136.024 55.2174 137.57 59.1751C137.468 59.2318 137.401 59.2386 137.288 59.2552L137.101 59.0554C137.041 59.0685 136.983 59.0931 136.922 59.0947C136.881 59.0958 136.641 59.0246 136.615 59.0173C135.179 58.6233 133.517 58.7847 132.229 59.531C130.982 60.2534 130.176 61.3848 129.816 62.7598C129.584 63.6474 129.434 65.3284 129.739 66.1864C129.935 68.281 131.56 70.8238 130.62 72.7861C128.106 72.892 125.744 74.8408 124.123 76.5849C123.432 77.3288 122.714 78.1656 122.177 79.0292L121.943 79.1945C121.679 80.0746 120.451 80.5393 120.356 81.5265C120.436 81.6575 120.505 81.754 120.62 81.8563L120.797 81.7977C121.871 82.3526 122.77 83.2373 123.625 84.0748C124.46 82.5894 127.408 78.4344 128.62 77.4685C126.899 80.3561 122.792 83.9005 123.812 87.57C124.149 88.7817 125.205 89.4399 126.18 90.1042C126.153 90.1507 126.134 90.2063 126.092 90.2394L126.077 90.3269C125.877 91.529 125.886 92.7632 125.648 93.96C125.037 97.0339 124.015 99.9854 123.175 102.999C122.695 105.098 122.023 107.146 121.484 109.229C120.525 112.944 119.602 117.88 119.486 121.715C119.419 123.919 119.859 126.227 120.123 128.413L121.336 138.919C121.554 140.683 121.92 142.468 122.068 144.232C121.777 144.34 121.68 144.348 121.487 144.599C121.43 144.996 121.626 145.476 121.318 145.771L121.315 145.847L121.178 145.945C120.755 146.42 120.894 147.647 120.842 148.275L120.845 148.64C120.805 149.253 120.89 150.037 120.396 150.491C120.283 150.596 120.13 150.678 119.985 150.725C119.723 150.904 119.464 151.09 119.194 151.258C118.238 151.48 117.454 152.23 116.953 153.038C116.592 153.623 116.377 154.235 116.166 154.884L116.046 154.903L115.911 154.723L115.825 154.913C114.68 155.182 110.787 154.938 109.288 154.982C109.284 154.764 109.265 154.597 109.2 154.39C108.681 154.293 108.091 154.348 107.563 154.348C105.996 154.349 103.907 154.521 102.403 154.266C100.388 154.21 98.3592 154.249 96.3426 154.245C94.7395 154.241 93.0815 154.167 91.4849 154.303L91.1689 154.419C91.0856 154.648 91.1073 154.735 91.1255 154.973L80.4345 154.978C78.1752 154.943 75.2963 154.674 73.1022 154.952C72.5604 154.976 72.0123 154.961 71.4698 154.961C70.6563 154.947 69.6045 154.817 68.8297 155.065L53.4568 154.954C51.9289 155.012 50.3868 154.975 48.8573 154.979C48.8862 154.812 48.9184 154.644 48.9353 154.476C48.9615 154.218 48.9852 154.106 48.8146 153.904L48.814 153.806C48.8551 153.751 48.9105 153.704 48.9372 153.64C49.1199 153.205 49.001 149.442 49.0027 148.77L49.0492 134.611C49.0735 132.245 48.9789 129.791 49.2244 127.442C49.3115 126.61 49.486 125.842 49.7664 125.055C50.551 121.317 51.1079 117.607 51.5498 113.813C51.7485 112.106 51.7824 110.303 52.0798 108.618C52.7944 107.696 54.066 106.144 54.1065 104.954L54.0417 104.841C53.7255 105.013 53.5486 105.874 53.357 106.236C52.9229 107.058 52.34 107.784 51.7458 108.494C51.1328 115.266 50.3121 122.198 48.5834 128.786C47.5664 132.662 46.1595 136.532 44.6544 140.241C44.1649 141.448 43.3485 143.948 42.5648 144.863L42.1993 144.933C40.1723 144.829 37.8928 144.372 36.0134 143.638C37.1572 137.356 38.3505 131.152 38.8183 124.775C38.9409 123.103 39.1248 121.349 39.0348 119.675C35.6543 119.58 32.2572 119.634 28.8749 119.637L12.0952 119.657C12.1492 118.901 12.2397 118.248 12.5473 117.544C11.5747 117.543 10.7391 117.526 9.86814 118.02C9.79132 117.894 9.71927 117.773 9.65241 117.642C8.51845 115.417 7.78611 112.959 7.04688 110.584C6.80988 109.815 6.58528 109.043 6.37307 108.267C6.16086 107.491 5.96115 106.711 5.77392 105.929C5.5867 105.147 5.41208 104.361 5.25005 103.574C5.08801 102.785 4.93865 101.995 4.80197 101.203C4.66528 100.41 4.54133 99.6152 4.43014 98.8186C4.31894 98.0219 4.22055 97.2237 4.13496 96.4241C4.04937 95.6243 3.97662 94.8234 3.91671 94.0213C3.8568 93.2193 3.80976 92.4165 3.7756 91.613C3.74145 90.8094 3.72018 90.0055 3.71182 89.2012C3.70344 88.397 3.70796 87.5929 3.72538 86.7889C3.7428 85.9848 3.77311 85.1812 3.81631 84.378C3.8595 83.575 3.91556 82.7728 3.98449 81.9714C4.05342 81.17 4.13517 80.37 4.22976 79.5713C4.32434 78.7725 4.43171 77.9755 4.55186 77.1802C4.67201 76.3849 4.80488 75.5916 4.95047 74.8005C5.09607 74.0094 5.25431 73.2208 5.4252 72.4347C5.92844 70.0967 6.47389 67.7674 7.23301 65.4966C8.44165 61.8811 9.90879 58.4201 11.5631 54.989C12.1066 53.862 13.062 52.8501 13.4471 51.6643C13.4554 51.6389 13.4627 51.6131 13.4705 51.5874C12.0086 49.4323 11.0365 47.0542 10.8473 44.4409C10.634 41.4956 11.2801 38.3751 13.2694 36.1031C14.6317 34.5471 16.3217 33.6198 18.4108 33.5041C20.6279 33.3815 22.5381 34.3421 24.1537 35.7808C26.0151 33.6282 29.0946 30.3197 31.3327 28.6579C32.0161 28.9313 32.7511 29.1 33.461 29.2959C34.0495 31.7247 34.761 34.4144 36.0117 36.5972C38.2504 35.4926 41.6485 33.0674 43.6135 31.4706C44.3259 31.6498 46.577 32.2552 47.1859 32.0351L47.1435 31.9408C46.1469 31.7223 45.1292 31.6042 44.1286 31.4022C41.523 30.8764 38.9253 30.2715 36.3331 29.6833C34.7468 29.3233 33.112 29.0138 31.5755 28.4802C39.4967 20.9687 50.4327 14.6012 60.6673 10.8498C65.0062 9.25933 69.3774 8.09667 73.8778 7.07258C77.5966 8.87546 81.2167 10.9578 85.0491 12.5169C85.2966 15.0729 85.6064 17.7096 86.3482 20.1742C88.9303 19.0176 91.5641 17.7209 93.8215 16.0132C95.0015 16.4804 96.2407 16.8757 97.4552 17.2478L97.5904 17.1519C97.2369 16.7802 91.1498 14.8791 90.2016 14.5429C88.1371 13.811 86.1756 12.8015 84.1964 11.8734C80.8946 10.3251 77.5801 8.75522 74.3888 6.98989C88.1579 4.20821 102.785 4.87614 116.437 7.95127C120.341 8.83062 124.118 10.1977 128.013 11.0912Z" fill="#FEB997"/>
<path d="M88.9615 56.8167C89.0193 56.8266 89.0788 56.829 89.1347 56.8464C89.3513 56.913 89.4104 57.0147 89.5254 57.1908C89.5472 57.5202 89.4673 57.6663 89.2987 57.9457C89.2098 57.9362 89.0521 57.9234 88.9707 57.8952C88.7512 57.8191 88.7144 57.7243 88.6312 57.5321C88.6636 57.2173 88.7806 57.0623 88.9615 56.8167Z" fill="#030102"/>
<path d="M65.5491 97.7097C65.5538 97.717 65.5599 97.7235 65.5636 97.7313C65.8222 98.282 65.9221 98.5653 66.5287 98.7999L66.6099 98.8307L66.5596 98.894C65.9814 99.0677 65.8691 99.3027 65.5759 99.8135L65.5259 99.8349C65.354 99.6394 65.347 99.3949 65.2067 99.2194C65.0477 99.0203 64.8484 99.1107 64.7823 98.8106L64.9049 98.6943C64.9566 98.6451 65.0056 98.5928 65.0601 98.5468C65.3308 98.3179 65.3886 98.1676 65.5082 97.8289C65.5222 97.7893 65.5354 97.7494 65.5491 97.7097Z" fill="white"/>
<path d="M120.421 149.807C120.348 148.612 120.409 147.079 120.674 145.916C120.899 145.772 121.054 145.79 121.318 145.771L121.315 145.847L121.178 145.945C120.755 146.42 120.894 147.647 120.842 148.275L120.845 148.64C120.805 149.253 120.89 150.037 120.396 150.491C120.283 150.596 120.13 150.678 119.985 150.725C119.723 150.904 119.464 151.09 119.194 151.258C118.238 151.48 117.454 152.23 116.953 153.038C116.592 153.623 116.377 154.235 116.166 154.884L116.046 154.903L115.911 154.723C117.018 150.745 118.893 151.99 120.421 149.807Z" fill="#030102"/>
<path d="M26.4464 94.0664C26.4432 93.1176 26.2862 90.0635 26.5097 89.3642C26.8049 89.2743 27.0627 89.3012 27.3645 89.3221C27.3656 90.0435 27.5283 93.4959 27.3643 93.9738C27.0509 94.0378 26.766 94.0611 26.4464 94.0664Z" fill="#3730A3"/>
<path d="M21.7038 94.0436C21.7062 93.0008 21.5194 90.1959 21.8921 89.3681C22.1172 89.3213 22.2734 89.3452 22.4972 89.3789C22.7525 89.6271 22.7168 90.0749 22.7205 90.4217C22.7332 91.6285 22.7265 92.8329 22.7553 94.0399L21.7038 94.0436Z" fill="#3730A3"/>
<path d="M107.302 50.0883C107.462 50.1471 107.57 50.2075 107.713 50.2971C107.709 51.0105 104.584 55.6225 103.906 56.5519C103.679 56.5861 103.692 56.5742 103.501 56.4419C103.494 56.3696 103.47 56.2969 103.48 56.2248C103.522 55.9183 106.833 50.7671 107.302 50.0883Z" fill="#1E1B4B"/>
<path d="M30.9393 89.2817L31.973 89.2742C31.9706 90.8681 31.9353 92.4708 32.0207 94.0628L30.8675 94.0668L30.9393 89.2817Z" fill="#3730A3"/>
<path d="M77.6049 34.3048C78.4925 34.2824 79.3829 34.3002 80.2709 34.304C80.2725 35.3399 80.2659 36.3747 80.3299 37.4092L80.334 37.5705L80.2022 37.6755C79.3659 37.3174 78.0525 35.1086 77.6049 34.3048Z" fill="#1E1B4B"/>
<path d="M65.834 18.3122L66.6877 18.7286C65.4833 20.7761 64.2474 22.8048 62.9803 24.8145C62.7211 24.6906 62.4874 24.5116 62.2507 24.3493C63.4194 22.3219 64.7051 20.3632 65.834 18.3122Z" fill="#3730A3"/>
<path d="M11.8354 90.8361C12.1004 90.8449 12.364 90.8513 12.6156 90.9434C13.0082 91.0872 13.3341 91.3727 13.5057 91.7549C13.6698 92.1205 13.6599 92.5667 13.4937 92.9296C13.2713 93.4152 12.9091 93.6721 12.4279 93.8722C12.1766 93.8705 11.9227 93.8714 11.6828 93.788C11.2727 93.6454 10.896 93.3299 10.7083 92.938C10.6879 92.8962 10.6696 92.8535 10.6535 92.8099C10.6375 92.7663 10.6236 92.7219 10.6121 92.6769C10.6005 92.6319 10.5913 92.5864 10.5843 92.5404C10.5774 92.4944 10.5728 92.4482 10.5706 92.4018C10.5684 92.3553 10.5685 92.3089 10.571 92.2625C10.5735 92.2162 10.5784 92.17 10.5856 92.124C10.5928 92.0781 10.6024 92.0327 10.6142 91.9876C10.626 91.9427 10.6401 91.8985 10.6565 91.855C10.8657 91.2951 11.3099 91.0541 11.8354 90.8361Z" fill="#1E1B4B"/>
<path d="M138.312 42.173C138.475 42.2118 138.639 42.2237 138.764 42.339C138.839 42.9964 138.956 43.6104 139.199 44.229C139.688 45.4744 140.753 46.7743 140.631 48.1634C140.55 49.0794 140.096 49.9359 139.6 50.6934C137.548 53.8235 136.024 55.2174 137.57 59.1751C137.468 59.2318 137.401 59.2386 137.288 59.2552L137.101 59.0554C135.764 54.9864 137.183 53.5957 139.361 50.2948C139.789 49.6466 140.208 48.8797 140.244 48.0904C140.301 46.8421 139.22 45.465 138.785 44.3267C138.51 43.6087 138.395 42.9336 138.312 42.173Z" fill="#030102"/>
<path d="M10.6834 75.361C11.208 75.9741 13.2462 80.9757 13.7965 82.1432C13.5149 82.2854 13.2278 82.4179 12.9433 82.5542C12.5074 82.1573 10.1879 76.674 9.84918 75.7384L10.6834 75.361Z" fill="#F9A8D4"/>
<path d="M109.367 98.0038C109.482 98.0598 109.436 98.0292 109.53 98.1052C109.922 98.4196 110.35 98.6588 110.767 98.9357C111.939 99.7148 112.323 100.528 112.575 101.858C111.622 100.847 111.499 100.381 110.065 99.986L110.13 102.384C110.144 102.923 110.275 103.667 110.13 104.182C110.058 104.438 109.89 104.685 109.64 104.795C109.327 104.933 108.977 104.89 108.67 104.761C108.379 104.639 108.03 104.372 107.952 104.049C107.909 103.869 107.94 103.685 108.066 103.546C108.406 103.172 108.93 103.075 109.408 103.072C109.45 103.071 109.491 103.072 109.532 103.072C109.555 101.381 109.327 99.6983 109.367 98.0038Z" fill="#1E1B4B"/>
<path d="M30.4989 59.945C31.291 60.1315 32.0643 60.6055 32.6582 61.1564C33.2449 61.7005 33.7932 62.4993 33.8195 63.3249L33.6951 63.451C33.6612 63.4494 33.6268 63.4516 33.5933 63.4461C32.6678 63.2949 31.4205 61.7256 30.8572 61.0371C30.9807 62.2045 31.0227 63.3892 31.1244 64.5605C31.1206 65.1873 31.1633 65.8055 31.2102 66.4303C30.9295 66.8932 30.5618 67.421 30.0239 67.6053C29.7649 67.6939 29.473 67.7092 29.2294 67.5646C29.2052 67.5501 29.182 67.5343 29.1596 67.5171C29.1372 67.4999 29.1159 67.4814 29.0958 67.4618C29.0755 67.4421 29.0566 67.4214 29.0389 67.3996C29.0211 67.3777 29.0047 67.3549 28.9896 67.3311C28.9745 67.3074 28.9608 67.2829 28.9485 67.2575C28.9364 67.2323 28.9257 67.2064 28.9165 67.1798C28.9073 67.1532 28.8997 67.1261 28.8937 67.0987C28.8877 67.0712 28.8833 67.0435 28.8804 67.0156C28.8521 66.7436 28.9627 66.4781 29.1287 66.2674C29.5474 65.7358 30.2361 65.5346 30.878 65.4466C30.8603 63.6174 30.622 61.7722 30.4989 59.945Z" fill="#030102"/>
<path d="M30.9093 60.424C31.4049 60.5005 31.8803 60.841 32.2614 61.154C32.9166 61.6921 33.3879 62.2973 33.4715 63.1483C33.4251 63.128 33.378 63.1095 33.3327 63.087C32.5266 62.6855 31.1607 61.2927 30.9093 60.424Z" fill="#FEB997"/>
<path d="M30.3864 65.7358C30.6483 65.7532 30.7101 65.7544 30.9279 65.8945C30.9989 66.1271 31.0191 66.1884 30.9146 66.4263C30.6864 66.9457 30.1843 67.2757 29.6919 67.5044C29.4922 67.4558 29.3464 67.3932 29.1681 67.292C29.0652 67.1089 29.0034 67.0321 29.0853 66.8141C29.2652 66.3342 29.9548 65.9699 30.3864 65.7358Z" fill="#FEB997"/>
<path d="M121.373 50.6938C121.603 50.5701 121.704 50.5644 121.963 50.5961C121.04 51.7738 119.941 53.3923 120.148 54.9611C120.517 57.7539 124.323 59.604 124.582 63.3978C124.967 69.0401 117.611 70.4308 122.177 79.0292L121.943 79.1945C121.253 78.4249 120.869 77.2383 120.612 76.2558C119.608 72.4211 121.259 70.3977 123.074 67.2749C125.328 63.3958 123.978 61.3173 121.463 58.1432C120.824 57.3367 120.15 56.495 119.898 55.4762C119.458 53.6982 120.485 52.1403 121.373 50.6938Z" fill="#030102"/>
<path d="M22.7552 94.0399C24.0024 93.9502 25.1994 93.9861 26.4463 94.0663C28.2979 94.4279 36.5311 93.5533 37.3118 94.6111C37.4511 94.8 37.449 95.0448 37.3896 95.2626C37.364 95.3565 37.3458 95.3819 37.304 95.4592C36.1534 95.1817 21.1993 95.0198 19.8557 95.2692C19.8091 94.866 19.7303 94.5565 19.9707 94.2094C20.1838 94.1047 20.3112 94.0796 20.5502 94.0831C20.9373 94.0886 21.3179 94.0663 21.7038 94.0436L22.7552 94.0399Z" fill="white"/>
<path d="M58.3152 33.3965C59.3782 33.2382 60.9648 33.5235 62.0733 33.6055C63.8557 33.7264 65.639 33.8347 67.4229 33.9304C68.9639 34.0188 70.5057 34.0927 72.0482 34.152C73.0606 34.1871 74.0871 34.1579 75.0931 34.2818C74.6814 34.3663 74.285 34.2865 73.8735 34.2325C73.1091 35.1496 72.3047 36.0305 71.4603 36.8755C70.2366 38.1751 68.9989 39.4615 67.7472 40.7347C65.768 38.7464 64.4131 36.105 62.6815 33.9132C61.3658 33.6143 59.4956 33.8976 58.3152 33.3965Z" fill="white"/>
<path d="M47.2931 32.0538C50.9737 32.6425 54.6955 32.9826 58.4028 33.3594C57.3424 34.3488 56.2847 35.3385 55.184 36.2842C53.7428 37.5087 52.2331 38.699 50.5948 39.6518C48.8841 37.6429 48.0134 34.5614 47.2931 32.0538Z" fill="#3730A3"/>
<path d="M97.5904 17.1519C100.852 18.2324 104.138 19.2831 107.486 20.0681C106.036 22.5333 103.078 24.0521 100.386 24.7558C100.094 24.832 99.802 24.9051 99.509 24.9753C98.3827 22.5472 97.5267 19.9427 97.4551 17.2478L97.5904 17.1519Z" fill="#1E1B4B"/>
<path d="M59.3381 67.9504C58.892 67.2561 58.2175 66.4973 58.4023 65.6274C58.574 64.8187 59.2016 63.1377 59.8844 62.6805C60.1185 62.6503 60.248 62.6763 60.4503 62.8059C61.0642 63.1992 61.376 64.7755 61.4592 65.4729C61.544 66.1862 61.3007 67.039 61.4717 67.7145C62.0253 68.0163 63.0064 67.8937 63.2565 68.548C63.5375 69.2839 63.587 71.843 63.2024 72.4932C62.9515 72.9173 62.4408 73.1182 61.9804 73.2178C60.8883 73.454 58.9292 73.4374 58.0081 72.7707C57.7158 72.5591 57.6163 72.259 57.5149 71.9315C57.3474 70.9001 57.4711 69.7751 57.4112 68.7253L57.467 68.5295L57.384 68.5013C57.0006 68.7837 56.637 69.0793 56.2744 69.3871C54.0021 71.4138 52.491 74.2719 50.8808 76.825C49.1451 79.5774 47.4463 82.2503 45.9206 85.1249C45.8378 85.281 45.6202 85.7208 45.4644 85.745C45.747 84.5301 46.575 83.0188 47.2753 81.9878C48.9316 79.5272 50.4549 76.9624 52.0526 74.4617C53.005 72.9711 53.9254 71.4601 55.0966 70.1252C56.6149 68.6559 57.0721 67.9889 59.3381 67.9504Z" fill="#1E1B4B"/>
<path d="M60.8944 66.4717L61.0677 66.5399C61.0996 66.9865 61.1502 67.431 60.9604 67.8507L60.5441 67.9733L60.2916 67.7936C60.2282 67.6413 60.1711 67.5121 60.1923 67.3417C60.2447 66.9182 60.5648 66.6906 60.8944 66.4717Z" fill="#FEB997"/>
<path d="M59.3502 64.1855C59.7748 64.9249 60.1142 66.3989 59.9178 67.2094C59.8501 67.4891 59.7329 67.4982 59.501 67.6351C59.2227 67.2233 58.9087 66.7982 58.7851 66.3107C58.5749 65.482 58.942 64.8711 59.3502 64.1855Z" fill="#FEB997"/>
<path d="M59.8711 62.9616C60.0886 62.9971 60.2121 62.9801 60.3621 63.1563C60.7341 63.593 61.3615 65.2945 61.2006 65.8812C61.125 66.1574 60.9361 66.2043 60.7078 66.3373C60.5699 66.4524 60.4218 66.5432 60.2696 66.6384C60.1632 65.9574 60.2839 65.257 59.8222 64.697C59.7425 64.6001 59.6217 64.4834 59.5717 64.3683C59.3893 63.9503 59.6915 63.3384 59.8711 62.9616Z" fill="#FEB997"/>
<path d="M88.9123 49.6958C89.6839 49.355 90.257 48.616 91.1075 48.4207C91.7967 48.2624 92.3825 48.5833 92.949 48.9343C93.2939 49.3695 93.6647 50.0542 94.0917 50.3828C94.807 50.3796 95.4688 50.2216 96.0171 50.7793C96.4258 51.1953 96.5959 51.724 96.5646 52.3003C96.4943 53.5966 95.6527 54.9793 94.6688 55.818C94.3766 56.0673 94.074 56.2637 93.7271 56.4282C93.5699 58.4042 93.5725 60.9384 91.8911 62.3262C91.4353 62.7025 90.9807 62.8485 90.4114 62.9701C90.3802 62.9767 90.3489 62.9843 90.3178 62.9917C89.2229 63.0786 88.1606 62.7321 87.2791 62.0912C86.6386 61.6256 85.9796 60.9111 85.8537 60.1084C86.1452 60.4884 86.4338 60.8839 86.7634 61.2322C87.571 62.0852 88.6559 62.7285 89.861 62.745C90.6617 62.7558 91.4043 62.4584 91.9522 61.8738C93.1131 60.6352 93.518 58.254 93.4319 56.6286C93.4207 56.4174 93.3763 56.113 93.2742 55.9258C93.2466 55.8751 91.1658 54.4815 90.7769 54.1275C90.6586 54.2605 90.5343 54.3878 90.4041 54.5093C89.3396 55.5042 88.406 55.7293 86.9802 55.6575C86.9802 55.9943 87.0261 56.4392 86.9064 56.7562C86.8385 56.9362 86.8877 56.8724 86.6979 56.9549C86.3552 56.7666 86.1837 56.3965 85.9822 56.0742C85.9513 56.3321 85.9238 56.5933 85.8769 56.8488C85.7672 57.4483 85.4415 57.6441 84.9609 57.977C84.5827 57.9699 84.2261 57.6698 83.9684 57.4198L84.1273 57.1517L84.0415 57.2124L84.2312 57.2351C84.3678 57.4534 84.4753 57.6634 84.7011 57.8025C84.9057 57.8076 85.0462 57.7549 85.2024 57.6161C85.4153 57.4273 85.5471 57.0969 85.5052 56.8138C85.4648 56.5417 85.2933 56.3865 85.0705 56.2509C84.743 56.0517 84.4998 55.984 84.123 56.0728C83.8564 56.2532 83.713 56.415 83.6206 56.7291C83.4763 57.2188 83.4958 57.876 83.7653 58.3231C84.2073 59.0561 84.7622 58.5664 85.3489 58.764C85.3806 58.7746 85.4091 58.7929 85.4391 58.8076C85.2223 59.0329 84.8393 59.0806 84.5356 59.0925C82.7508 58.6066 83.748 57.5792 82.9054 56.5415C82.841 56.4622 82.7759 56.3837 82.7138 56.3026C81.6372 54.8945 81.741 53.4754 81.9635 51.8331C82.152 51.1069 82.4987 50.6588 82.956 50.0833C83.1261 49.9886 83.2947 49.9001 83.4741 49.8239C84.7552 49.2809 86.1521 49.3521 87.4239 49.8814C88.0125 49.9656 88.3703 49.9502 88.9123 49.6958Z" fill="#1E1B4B"/>
<path d="M52.9759 147.404C55.1199 147.32 57.734 147.226 59.849 147.481C61.0565 148.015 61.6375 150.427 63.0566 150.271C62.7557 150.012 62.399 149.742 62.3722 149.317C62.3609 149.137 62.4009 149.153 62.5155 149.039C63.5905 149.607 64.6204 150.255 65.6784 150.855C68.1309 152.244 70.6083 153.637 73.1022 154.952C72.5604 154.976 72.0123 154.961 71.4698 154.961C70.6563 154.947 69.6045 154.817 68.8297 155.065L53.4568 154.954C52.9536 154.849 52.4578 154.997 51.9786 154.854C51.7535 154.613 51.8232 154.489 51.8323 154.168C51.6149 153.511 52.6109 148.276 52.9759 147.404Z" fill="#1E1B4B"/>
<path d="M63.0566 150.271C62.7557 150.012 62.3991 149.742 62.3722 149.317C62.361 149.137 62.4009 149.153 62.5156 149.039C63.5905 149.607 64.6204 150.255 65.6784 150.855C68.131 152.244 70.6083 153.637 73.1022 154.952C72.5604 154.976 72.0123 154.961 71.4698 154.961C70.6563 154.947 69.6045 154.817 68.8297 155.065L53.4568 154.954C52.9536 154.849 52.4578 154.997 51.9786 154.854C51.7535 154.613 51.8233 154.489 51.8323 154.168C55.3266 154.141 58.8205 154.164 62.314 154.234C64.2831 154.269 66.3988 154.451 68.3547 154.269C68.0595 153.884 67.9215 153.469 67.7798 153.012C67.2106 152.747 66.6482 152.299 66.1102 151.961C65.1157 151.337 64.12 150.774 63.0566 150.271Z" fill="white"/>
<path d="M93.7171 146.19C95.8836 146.17 98.0496 146.196 100.215 146.269C100.809 146.377 102.169 146.602 102.462 147.176C102.57 147.387 102.546 147.556 102.447 147.764C102.354 147.959 102.15 148.187 101.921 148.2C101.867 148.203 101.815 148.184 101.762 148.176C101.719 148.374 101.689 148.579 101.605 148.764C104.53 149.644 107.136 150.36 108.681 153.212C108.869 153.558 109.037 153.908 109.182 154.275C106.928 154.263 104.655 154.195 102.403 154.266C100.388 154.21 98.3591 154.249 96.3426 154.245C94.7395 154.241 93.0815 154.167 91.4849 154.303C91.2449 154.271 91.3537 154.312 91.157 154.184C91.2137 153.153 91.4146 152.114 91.5626 151.092C91.8002 149.526 92.0027 147.956 92.1699 146.382C92.6825 146.303 93.2022 146.252 93.7171 146.19Z" fill="#3730A3"/>
<path d="M101.605 148.764C101.499 148.725 101.355 148.683 101.255 148.625C101.044 148.503 101.031 148.453 100.954 148.236L101.072 148.088C101.385 148.031 101.468 148.075 101.762 148.176C101.719 148.374 101.689 148.579 101.605 148.764Z" fill="white"/>
<path d="M66.3355 142.172C66.9255 142.331 67.4892 142.527 68.0603 142.744C69.3745 143.225 73.4545 144.728 74.3918 145.485C75.0304 145.951 75.9156 146.455 76.2769 147.17C76.2863 147.43 76.2817 147.426 76.1217 147.634C75.9141 147.73 75.8262 147.75 75.5994 147.711L75.0897 148.474C77.567 150.746 78.6773 152.088 80.4345 154.978C78.1752 154.943 75.2963 154.674 73.1022 154.952C70.6083 153.637 68.131 152.244 65.6785 150.855C64.6204 150.255 63.5905 149.607 62.5156 149.039C62.4467 149.003 62.4904 149.033 62.4313 148.904C63.8874 147.082 65.0894 144.227 66.3355 142.172Z" fill="#3730A3"/>
<path d="M75.0897 148.474C74.8101 148.212 74.1196 147.646 74.0265 147.298C74.2315 147.281 74.4205 147.445 74.5979 147.547C75.1208 147.434 75.1508 147.448 75.5994 147.711L75.0897 148.474Z" fill="white"/>
<path d="M80.2709 34.3041C80.516 33.0702 80.0095 30.5307 80.4619 29.5622L80.5955 29.543C81.5665 30.0571 84.2783 33.0526 85.1554 33.9368L88.241 37.3778C88.7668 38.2558 89.6173 39.0524 90.3036 39.8169C92.1751 41.9016 94.2806 43.9651 95.9467 46.2081C96.1286 46.4451 96.2107 46.4812 96.1976 46.787C95.7973 47.3485 95.0843 47.7251 94.4524 47.9865C93.9472 48.2963 93.4461 48.6122 92.9489 48.9343C92.3825 48.5833 91.7967 48.2625 91.1074 48.4208C90.257 48.616 89.6839 49.3551 88.9122 49.6958C88.3702 49.9502 88.0125 49.9656 87.4239 49.8814C86.152 49.3521 84.7552 49.2809 83.4741 49.8239C83.2946 49.9001 83.126 49.9887 82.956 50.0833C82.4987 50.6589 82.1519 51.1069 81.9635 51.8331L81.7362 51.9002L81.6228 52.0077L81.4936 51.9407C81.3403 51.108 81.37 50.2015 81.3173 49.3549C81.2006 47.5984 81.0928 45.8415 80.9938 44.084C80.8776 42.0174 80.5869 39.9241 80.5416 37.8614C80.535 37.5619 80.542 37.4529 80.6908 37.1939C80.5799 36.8346 80.6338 36.374 80.6354 35.9979C80.5383 36.4692 80.5202 36.9659 80.3299 37.4093C80.2659 36.3747 80.2725 35.34 80.2709 34.3041Z" fill="#F472B6"/>
<path d="M82.3883 31.915C82.7168 32.0823 83.0453 32.2162 83.2768 32.5133C83.3149 33.0643 81.1668 36.6477 80.6909 37.1939C80.5799 36.8346 80.6338 36.374 80.6355 35.9979C80.6519 34.3965 81.4804 33.1833 82.3883 31.915Z" fill="white"/>
<path d="M87.4239 49.8814C88.1194 48.5954 89.0869 47.367 89.9169 46.1602C90.4585 45.3725 90.9746 44.4662 91.5931 43.7418C91.8029 43.4962 91.9766 43.387 92.3086 43.3637C92.5532 43.4556 92.6425 43.5076 92.7901 43.7237C93.1059 45.1461 89.7639 48.2334 89.0011 49.5395C88.9707 49.5912 88.9418 49.6437 88.9122 49.6958C88.3702 49.9502 88.0124 49.9656 87.4239 49.8814Z" fill="white"/>
<path d="M85.0616 36.462C85.3953 36.4816 85.6883 36.5449 85.9441 36.7682C86.0127 37.0193 85.9816 37.1435 85.8905 37.3875C85.5591 38.2753 84.9602 39.1161 84.4889 39.938L81.7543 44.7615C81.656 44.9561 81.5897 45.146 81.3867 45.2525C81.3026 45.1345 81.2704 45.0514 81.2557 44.9061C81.1891 44.2445 81.2375 43.371 81.4318 42.7343C81.6608 41.9839 84.5207 37.1426 85.0616 36.462Z" fill="white"/>
<path d="M81.7362 51.9002C81.746 51.6885 81.7338 51.4729 81.7323 51.2608C81.727 50.4846 81.7638 49.8014 82.0894 49.0778C82.4374 48.3042 87.4646 40.8474 88.0561 40.2877C88.2797 40.0762 88.463 39.9792 88.7801 39.9841C89.007 40.0802 89.0803 40.1545 89.2176 40.3571C89.367 41.5366 83.8214 48.1138 83.0237 49.9227C83.0004 49.9758 82.9786 50.0298 82.956 50.0833C82.4987 50.6588 82.1519 51.1069 81.9635 51.8331L81.7362 51.9002Z" fill="white"/>
<path d="M110.372 66.315C110.371 66.2799 110.371 66.2449 110.37 66.2098C110.323 65.1104 109.596 63.6525 110.029 62.5908L110.167 62.4904C110.381 62.5427 110.465 62.5506 110.602 62.7407C110.683 62.8538 110.738 63.0213 110.793 63.1503C110.827 62.972 110.848 62.7976 110.864 62.6168L111.039 62.5158C111.346 62.6035 111.468 62.7321 111.628 63.0063C112.424 64.3635 112.795 66.3331 112.866 67.8834C113.344 67.0663 113.826 65.5189 114.765 65.1755C114.892 65.2171 114.955 65.2028 115.022 65.3317C115.549 66.3472 114.763 68.4587 114.366 69.4638C114.111 70.1098 113.806 70.7242 113.528 71.3596C114.685 74.5726 118.01 80.0494 120.197 82.7618L120.62 81.8563L120.797 81.7977C121.871 82.3526 122.77 83.2373 123.625 84.0748C124.46 82.5894 127.408 78.4344 128.62 77.4685C126.899 80.3561 122.792 83.9005 123.812 87.57C124.149 88.7817 125.205 89.4398 126.18 90.1042C126.153 90.1507 126.134 90.2063 126.092 90.2394C125.481 90.1152 125.034 89.7837 124.565 89.3932C124.167 89.839 123.682 90.1939 123.166 90.4933C121.928 91.2125 120.174 91.8163 118.746 91.4113C117.367 91.0204 116.624 89.6876 115.959 88.5374C114.337 85.0541 113.068 81.4397 111.707 77.853C109.615 76.3352 107.567 74.7242 105.449 73.2476L105.61 73.0197C107.617 74.4409 109.641 75.9365 111.587 77.4381C110.909 75.5926 110.254 73.7313 109.51 71.911C108.819 70.224 108.034 68.5611 107.444 66.8355C107.367 66.6078 107.277 66.39 107.351 66.1518C107.509 65.9922 107.642 65.8948 107.88 65.8953C108.105 65.8959 108.257 66.052 108.378 66.224C108.636 66.5904 108.842 67.05 109.049 67.4475L109.137 67.4645C109.197 66.9116 108.845 66.3263 108.621 65.8285C108.337 65.6448 108.017 65.4854 107.864 65.1715L107.931 65.0732C108.35 65.1611 108.599 65.4583 108.898 65.7425C108.805 65.1384 108.426 64.0002 108.747 63.4869C108.959 63.4058 109.092 63.3514 109.321 63.4567C109.513 63.5453 109.625 63.7211 109.65 63.9248C109.666 64.0487 109.614 64.2292 109.589 64.3533C109.396 64.1779 109.339 63.9671 109.24 63.7308L109.178 63.7416C109.372 64.6038 110.035 65.4675 110.372 66.315Z" fill="#1E1B4B"/>
<path d="M110.284 62.8103C111.279 63.8032 110.85 66.3194 111.812 67.1915C111.807 66.0669 110.847 63.8866 111.122 62.9225L111.222 62.9062C112.325 63.7905 112.21 67.2887 112.717 67.9832L112.914 68.0012C113.705 67.4863 113.857 66.4243 114.442 65.7296C114.584 65.5614 114.586 65.5462 114.813 65.5195C115.676 66.8293 113.373 70.2493 113.408 71.4766C113.459 73.3005 118.664 81.6616 120.285 83.1908C120.452 82.8162 120.602 82.4319 120.759 82.053C121.771 82.6422 122.663 83.5466 123.503 84.3495C123.408 84.6284 123.318 84.909 123.255 85.197C122.958 86.5512 123.429 87.8299 124.163 88.9511L124.221 89.0162C124.225 89.1992 124.231 89.2431 124.103 89.3899C123.283 90.3248 121.072 91.2096 119.839 91.2254C118.937 91.2369 118.095 90.8473 117.472 90.2098C116.814 89.5356 116.35 88.6397 115.957 87.794C113.779 83.1067 112.227 78.1572 110.381 73.3397C109.941 72.1916 107.593 67.1895 107.624 66.268L107.756 66.1791C108.35 66.3936 108.751 67.7191 109.177 68.2308L109.313 68.1595C109.306 67.8403 109.351 67.5365 109.398 67.2211C109.569 66.0579 109.015 64.723 108.765 63.5821C109.212 64.4419 109.628 65.3355 110.104 66.1774C110.208 66.3593 110.329 66.6102 110.533 66.6695C110.868 65.7881 110.268 63.9917 110.282 62.9492L110.284 62.8103Z" fill="#FEB997"/>
<path d="M13.4705 51.5875C12.0086 49.4323 11.0366 47.0542 10.8473 44.441C10.634 41.4957 11.2801 38.3751 13.2694 36.1032C14.6318 34.5472 16.3217 33.6198 18.4108 33.5042C20.628 33.3816 22.5381 34.3422 24.1538 35.7809C26.4579 38.7759 27.3419 42.3808 26.8306 46.1148C26.4029 49.2381 25.0591 52.5697 22.4453 54.506C21.9379 54.8818 21.3985 55.1653 20.8324 55.4422L21.7817 56.4985C21.4559 56.6228 21.0454 56.7218 20.8212 56.9989C20.8731 58.0666 21.5051 58.9848 21.3525 60.0975C21.1354 61.6822 19.3872 63.726 19.4965 65.1085C19.4996 65.1487 19.5015 65.1894 19.5055 65.2296C19.571 65.8813 19.8843 66.4871 20.0221 67.1253C20.2658 68.2543 21.2057 69.0429 21.3816 70.6511C21.6483 73.0881 20.387 74.8017 21.1681 77.7696C21.2522 78.0892 21.2898 78.442 21.3507 78.7691C21.3965 79.015 21.3514 79.2863 21.3299 79.5341L21.2544 79.6166C21.0157 79.1559 20.8974 77.9534 20.8871 77.4171C20.8834 77.2277 20.844 77.082 20.7917 76.9007C20.1568 74.6988 21.4394 72.626 21.1987 70.7406C20.9451 68.755 19.2175 67.0836 19.3262 65.0433C19.4864 62.0422 21.702 61.9161 20.835 57.8664C20.7687 57.5569 20.711 57.2968 20.4516 57.093C19.8614 56.9639 19.5995 57.403 18.9963 56.9788C18.8726 56.5055 19.3934 56.0869 19.2569 55.7376C18.6795 55.4764 18.0661 55.3197 17.4903 55.063C15.8292 54.3227 14.6426 52.912 13.4705 51.5875Z" fill="#F472B6"/>
<path d="M22.2049 37.0773C22.3019 37.0851 22.3989 37.0926 22.4953 37.1045C22.9091 37.1563 23.1969 37.4354 23.4361 37.7564C24.2881 38.8992 25.008 41.1587 24.8273 42.5752C24.6042 42.5855 24.3891 42.6283 24.1979 42.4923C24.0968 41.6142 23.9255 40.77 23.5755 39.9533C23.2087 39.0983 22.2386 37.9801 22.2049 37.0773Z" fill="white"/>
<path d="M12.7849 43.7037C12.8458 43.7094 12.9069 43.7144 12.9678 43.7211C13.3168 43.7597 13.5606 43.8447 13.7707 44.1433C14.2607 44.8395 15.0923 48.0024 14.9069 48.8108C14.8303 49.1446 14.6466 49.2359 14.3738 49.3929C13.9698 49.2714 13.7306 49.0745 13.4777 48.7462C12.7022 47.7396 11.9456 45.804 12.1863 44.5291C12.2646 44.1144 12.4369 43.9277 12.7849 43.7037Z" fill="white"/>
<path d="M41.607 83.4304C42.4268 85.2351 44.363 89.621 46.1206 90.5471C46.6812 90.8425 47.3226 90.96 47.9354 90.7631C50.2893 90.0063 53.0246 82.6954 54.1918 80.4061C54.8674 85.3802 55.6698 90.3363 56.3688 95.3077C56.6141 97.0527 56.9171 98.808 57.097 100.559C56.2691 100.768 55.4355 100.951 54.5961 101.108C50.2876 101.96 44.342 102.549 40.1772 100.976C39.2377 100.621 38.4721 100.09 37.6449 99.5412C37.6088 98.9707 37.5908 98.3981 37.5652 97.8269C37.3995 98.1089 37.2367 98.3933 37.0683 98.6735C36.8012 99.1177 36.3905 99.5406 35.8617 99.6539C35.0094 99.8366 34.1897 98.8166 33.5191 98.4067C31.1715 96.9713 30.5945 100.991 28.7878 101.209C27.446 101.372 26.4564 99.2244 25.4527 98.532C23.1336 96.9325 22.6227 100.302 20.9838 100.513C19.7594 100.67 19.0093 98.7822 18.0775 98.1069L17.9735 98.0328C18.0129 96.2198 18.8195 96.3864 19.7911 95.3478C19.8143 95.3231 19.8341 95.2954 19.8557 95.2693C21.1993 95.0198 36.1534 95.1818 37.304 95.4592C37.546 95.7553 37.7608 96.0773 37.9835 96.388C38.4482 93.1388 39.4608 89.973 39.8717 86.7265C40.2417 86.0702 39.9978 84.6921 39.9573 83.9335L41.607 83.4304Z" fill="#F472B6"/>
<path d="M39.8718 86.7264C39.6579 86.8851 39.442 87.0359 39.2127 87.1719C34.6296 89.8937 34.4713 85.2068 32.31 84.2605C31.1989 83.774 29.8983 84.7101 28.6967 84.3604C28.1409 84.1986 27.7541 83.8165 27.4977 83.3093C26.8759 82.0797 27.0542 80.7173 27.5045 79.4708C28.7192 76.1088 31.1343 73.8575 33.2213 71.0847C35.6781 67.8208 37.8045 64.4767 39.4137 60.7198C40.4272 58.3536 41.1691 55.3198 43.7563 54.16C45.272 53.4805 46.5226 53.9702 48.0587 53.9585C49.3465 53.9488 50.4627 53.5478 51.7226 54.0744C51.7833 54.0993 51.8433 54.1257 51.9026 54.1538C51.962 54.1817 52.0205 54.2112 52.0783 54.2422C52.1361 54.2732 52.193 54.3057 52.2491 54.3397C52.3053 54.3737 52.3605 54.409 52.4148 54.4457C52.469 54.4824 52.5223 54.5206 52.5747 54.5601C52.627 54.5996 52.6782 54.6404 52.7284 54.6825C52.7785 54.7246 52.8276 54.768 52.8756 54.8127C52.9234 54.8573 52.9701 54.9032 53.0156 54.9503C53.0613 54.9972 53.1056 55.0454 53.1487 55.0947C53.1916 55.1441 53.2334 55.1945 53.2738 55.2458C53.3143 55.2973 53.3534 55.3498 53.3911 55.4032C53.4287 55.4568 53.4651 55.5112 53.5 55.5665C53.5349 55.6218 53.5683 55.6779 53.6003 55.735C53.6322 55.792 53.6627 55.8499 53.6916 55.9085C53.7206 55.9671 53.7481 56.0264 53.7741 56.0864C53.8 56.1465 53.8242 56.2071 53.8469 56.2683C54.1675 57.1448 54.1795 58.2176 53.7422 59.058C53.327 59.8554 52.7694 60.128 51.9574 60.3944C51.9547 60.7308 51.9228 61.063 51.8832 61.3968C51.6804 63.1129 51.2369 64.9722 49.7999 66.0898L49.1517 66.595C51.5836 67.2974 53.274 68.4 55.0966 70.1251C53.9253 71.46 53.005 72.971 52.0526 74.4617C50.4549 76.9624 48.9316 79.5272 47.2753 81.9878L47.2383 81.7102C45.4627 82.2857 43.6617 82.8039 41.8756 83.3478C42.78 85.2063 44.4878 89.5388 46.3457 90.3492C46.9199 90.5996 47.5528 90.6091 48.1261 90.3494C50.6005 89.2282 54.6337 78.3588 55.793 75.5085C56.0289 74.9285 56.4389 73.9399 57.0395 73.689C57.3626 74.3374 57.8518 74.9694 58.2488 75.5808C58.8901 76.5621 59.5069 77.5585 60.0991 78.5698C60.7388 77.7133 61.4106 76.8852 61.9991 75.9917C63.3645 73.9188 64.5628 71.5669 65.6236 69.3244C65.3278 68.8358 64.8968 68.3892 64.5389 67.9418C64.3127 67.6594 63.9597 67.3062 64.0026 66.931C64.0291 66.9163 64.0541 66.8982 64.0823 66.8874C64.5777 66.6976 65.6076 67.0829 66.0728 67.2736C66.4733 67.7227 67.1511 68.3072 67.3423 68.8697L67.2831 69.0225C67.0569 68.9987 67.0366 68.9044 66.8946 68.7328C66.1774 67.8669 66.0686 67.2331 64.8168 67.075C64.6084 67.0488 64.3972 67.0391 64.1874 67.0296C64.7382 67.7939 65.421 68.4507 65.9615 69.2137C65.5975 70.2077 65.0429 71.1443 64.5407 72.0752C63.1464 74.6597 61.9607 76.62 60.1385 78.9576C59.5328 79.7347 58.9325 80.5242 58.2096 81.1977C58.6781 80.3002 59.3146 79.5255 59.9464 78.738C58.9257 77.1793 57.9648 75.5797 56.9316 74.0303C55.7827 75.6335 55.3194 77.6939 54.5686 79.5052C54.5888 79.5284 54.6094 79.5513 54.6293 79.5749C56.1881 81.4312 56.9498 86.1944 59.7982 86.4894C60.437 86.5557 61.0123 86.3123 61.4879 85.8997C63.2672 84.3573 65.7362 78.6771 66.6297 76.3687C66.8373 75.8325 68.0222 72.3017 68.1374 72.1943C68.1801 72.1544 68.239 72.1363 68.2894 72.1068C69.274 71.5329 70.3753 70.1381 70.741 69.0647C71.1488 68.3792 72.0226 66.8675 71.9613 66.0895C71.0776 65.8929 71.2749 67.8856 70.6285 68.23C70.732 67.4447 71.1308 66.7511 71.2077 65.9568C71.5099 65.8814 71.7214 65.8175 72.0322 65.9068C72.2116 66.084 72.2411 66.1153 72.246 66.3836C72.2613 67.2309 70.3401 70.3565 69.7854 71.056C69.329 71.6319 68.6713 72.1478 68.2894 72.7607C67.7531 73.6213 67.5365 74.8411 67.1653 75.7949C66.1888 78.3044 63.6443 84.4113 61.625 86.1387C61.0992 86.5886 60.4512 86.8337 59.7551 86.7445C58.7854 86.6201 57.8632 85.8756 57.3052 85.1117C56.1364 83.5123 55.5217 81.4098 54.5369 79.6855C54.3838 79.9188 54.2896 80.1454 54.1918 80.406C53.0247 82.6953 50.2893 90.0062 47.9354 90.763C47.3226 90.9599 46.6812 90.8424 46.1206 90.547C44.3631 89.621 42.4268 85.235 41.6071 83.4303L39.9573 83.9334C39.9978 84.692 40.2417 86.0701 39.8718 86.7264Z" fill="#1E1B4B"/>
<path d="M50.1559 58.9045C50.6195 59.4023 51.1385 59.8961 51.549 60.436C51.6333 62.2257 51.3109 64.2277 50.0609 65.6034C49.5734 66.1399 48.9331 66.6948 48.2509 66.9534C48.1682 67.0705 48.1224 67.1177 48.104 67.2626L48.2165 67.3628C48.4809 67.3348 48.6944 67.2877 48.9473 67.2057C49.1644 67.6678 49.0656 68.1918 48.9362 68.6666C48.8523 68.9832 48.6756 69.216 48.3922 69.4017C47.8495 69.7573 46.9072 69.6402 46.3203 69.4806C45.1077 69.1512 44.288 68.3219 43.6783 67.2736C43.9738 67.2308 44.1864 67.2436 44.4243 67.0582C44.9282 65.6022 44.6671 63.9397 44.0266 62.5844C43.4672 62.2248 43.0488 61.9258 42.8854 61.2394C42.8138 60.9389 42.7991 60.576 42.9669 60.3017C43.0538 60.1598 43.1072 60.1102 43.2494 60.0343C43.501 60.0272 43.5351 60.0425 43.7548 60.1673C43.9731 60.5184 44.0995 61.1977 44.3975 61.4356L44.5511 61.402C44.9899 60.6754 44.4832 59.6483 45.2161 58.9803C46.1118 58.8665 46.926 61.1055 50.1559 58.9045Z" fill="#FEB997"/>
<path d="M46.5114 61.232C46.753 61.2492 46.8855 61.2507 47.0927 61.3896C47.1687 61.6365 47.1113 61.7527 47.0519 62.0001C46.9142 61.9785 46.8067 61.9245 46.6797 61.8696C46.52 61.6167 46.5285 61.5232 46.5114 61.232Z" fill="#030102"/>
<path d="M48.9362 68.6666L49.1493 68.5903C49.5027 68.0562 49.1906 67.2065 49.1517 66.595C51.5836 67.2974 53.274 68.4001 55.0966 70.1252C53.9253 71.4601 53.005 72.9711 52.0526 74.4617C50.4549 76.9625 48.9316 79.5272 47.2753 81.9879L47.2383 81.7102C47.2283 81.6718 47.219 81.6334 47.2085 81.5949C47.0011 80.8402 43.4964 73.3812 43.0236 73.1083C43.3135 74.2752 44.0618 75.4661 44.5844 76.5509L46.9254 81.5014C44.5688 82.0173 42.1662 82.9297 39.8811 83.7124C39.0202 81.0459 37.9406 78.403 37.2266 75.6967C36.795 74.062 36.4499 72.3497 37.3968 70.8164C38.7294 68.6587 41.354 67.8461 43.6782 67.2736C44.288 68.322 45.1077 69.1512 46.3203 69.4806C46.9072 69.6402 47.8495 69.7573 48.3922 69.4017C48.6756 69.216 48.8523 68.9832 48.9362 68.6666Z" fill="#F472B6"/>
<path d="M129.598 16.458C129.565 13.8483 130.315 10.3762 132.207 8.44157C132.432 8.21165 132.751 7.90219 133.093 7.88328C133.235 7.87543 133.24 7.93898 133.325 8.03403C133.435 8.79785 132.783 9.8383 132.503 10.5369C132.028 11.719 131.673 12.9417 131.352 14.1726C131.098 15.1492 130.966 16.2777 130.474 17.1637L130.344 17.2456L130.132 17.0954C130.388 17.6944 131.038 18.3049 131.431 18.8437C131.765 19.3002 132.045 19.8047 132.31 20.3018C134.845 25.0441 134.996 30.4441 133.506 35.5265C132.506 39.2245 129.241 44.0835 125.833 46.0213C124.96 46.5181 124.011 46.8618 123.072 47.214C122.799 47.2712 122.525 47.3164 122.248 47.3496C121.972 47.3828 121.694 47.4038 121.416 47.4125C121.137 47.4214 120.859 47.4181 120.581 47.4027C120.303 47.3873 120.026 47.3597 119.75 47.3199C118.593 46.9857 117.541 46.5862 116.511 45.9567C113.309 43.9989 110.488 40.3599 109.05 36.9461C108.327 35.2325 107.886 33.4604 107.455 31.6597C107.086 31.7271 106.507 31.7682 106.187 31.9531C105.902 32.118 101.74 37.6496 101.133 38.4095C99.1623 36.7569 97.3815 34.8896 95.3354 33.3209C94.101 33.4743 92.8602 33.5788 91.6294 33.76C90.4164 34.8564 89.5707 36.4176 88.2411 37.3778L85.1555 33.9368C86.7179 33.5909 89.6834 33.7505 91.5282 33.5523C94.6027 33.2355 97.6721 32.8751 100.736 32.4708C102.976 32.1584 105.208 31.7428 107.451 31.4727C107.351 28.5876 107.6 25.8334 108.568 23.0871C109.816 19.5472 112.71 16.2314 116.114 14.6132C119.672 12.9225 123.232 13.2102 126.872 14.4711C127.829 15.0846 128.77 15.6734 129.598 16.458Z" fill="white"/>
<path d="M129.032 18.5986C129.333 18.6614 129.571 18.7941 129.805 18.9952C130.842 19.8893 131.957 22.0803 131.984 23.4454C131.992 23.8365 131.86 24.0018 131.592 24.2602C131.424 24.239 131.256 24.2124 131.092 24.1674C130.868 24.1061 130.737 24.0336 130.632 23.8158C130.352 23.2399 130.373 22.5172 130.15 21.9114C129.782 20.9116 129.037 20.0091 128.499 19.0871C128.592 18.853 128.83 18.7454 129.032 18.5986Z" fill="#3730A3"/>
<path d="M111.066 24.4454C111.317 24.4758 111.518 24.5917 111.655 24.8111C111.724 24.9211 111.734 24.9956 111.743 25.1266C111.78 25.6614 111.592 26.37 111.538 26.9117C111.43 28.0208 111.42 29.1308 111.506 30.2417C111.566 30.9917 111.685 31.7324 111.863 32.4637C112.141 33.5768 113.072 35.6018 112.888 36.649C112.839 36.9259 112.729 37.152 112.473 37.2912C112.22 37.4285 111.966 37.3432 111.708 37.277C111.641 37.2212 111.614 37.2014 111.557 37.1434C109.973 35.5519 109.408 31.9763 109.386 29.8405C109.366 27.9498 109.688 25.8493 111.066 24.4454Z" fill="#FEB997"/>
<path d="M131.493 28.78C132.034 28.8237 132.265 29.0331 132.652 29.3995C133.316 31.359 133.154 33.3983 132.426 35.3206C131.94 36.6066 131.266 37.7689 129.958 38.3606C129.833 38.3656 129.708 38.3643 129.586 38.3312C129.219 38.2321 128.969 37.8915 128.801 37.5726C128.026 36.1002 128.499 33.4743 128.998 31.9772C129.464 30.5832 130.141 29.4611 131.493 28.78Z" fill="#FEB997"/>
<path d="M128.013 11.0912C129.689 6.90351 132.322 2.89953 136.636 1.05357C139.632 -0.228745 142.965 -0.383557 146.013 0.826995C149.719 2.29865 152.439 5.67984 153.95 9.26411C156.073 14.3 156.328 21.4791 154.192 26.5743C153.801 27.5084 153.287 28.39 152.783 29.2673C150.327 33.3756 147.508 36.6117 142.75 37.9874C142.761 39.2742 142.62 40.557 141.654 41.5231C140.958 42.2207 140.064 42.4039 139.106 42.3739C138.988 42.3703 138.879 42.3606 138.764 42.339C138.639 42.2237 138.475 42.2118 138.312 42.173C138.264 42.1675 138.216 42.1658 138.168 42.1565C137.405 42.0068 136.724 41.4643 136.362 40.7932C135.741 39.6444 135.957 38.4667 136.289 37.2782C135.268 36.788 134.366 36.2664 133.506 35.5264C134.996 30.4441 134.845 25.0441 132.31 20.3018C132.045 19.8047 131.765 19.3001 131.431 18.8437C131.038 18.3049 130.388 17.6944 130.132 17.0954L130.344 17.2456L130.474 17.1636C130.966 16.2777 131.098 15.1492 131.352 14.1726C131.673 12.9417 132.028 11.7189 132.503 10.5368C132.783 9.83828 133.435 8.79782 133.325 8.03401C133.24 7.93895 133.235 7.87541 133.093 7.88326C132.751 7.90217 132.432 8.21163 132.207 8.44155C130.315 10.3762 129.565 13.8483 129.598 16.4579C128.77 15.6733 127.829 15.0846 126.872 14.4711C127.355 13.4124 127.562 12.1847 128.013 11.0912Z" fill="#3730A3"/>
<path d="M152.457 18.3358C152.729 18.383 152.979 18.4566 153.177 18.6576C153.504 18.9897 153.587 19.4826 153.588 19.9293C153.592 22.1171 152.315 25.9135 150.738 27.5078C150.609 27.5709 150.501 27.5848 150.36 27.609C150.156 27.5274 150.07 27.5116 149.947 27.3197C149.38 26.4286 149.878 23.3402 150.148 22.312C150.53 20.8603 151.087 19.1281 152.457 18.3358Z" fill="white"/>
<path d="M90.2925 65.1809C95.0185 65.5879 99.0364 67.5259 102.878 70.1833C103.754 70.7898 104.826 71.4375 105.527 72.2363C105.683 72.4138 105.781 72.5584 105.718 72.8035C105.701 72.8705 105.645 72.9585 105.61 73.0198L105.449 73.2477C104.027 75.1011 102.632 76.9744 101.263 78.8677C100.939 79.2822 100.628 79.7273 100.254 80.0988C99.3027 79.5551 98.4392 78.8891 97.5153 78.3042C98.7621 85.3679 99.8374 92.4574 100.741 99.5727L100.64 99.5864C99.311 99.7779 98.0038 100.178 96.6824 100.428C95.3369 100.683 86.5926 102.1 85.8336 101.628C85.8097 101.613 85.7887 101.594 85.7661 101.577C85.4612 101.454 84.7292 101.74 84.4267 101.864C84.2375 101.942 84.0682 102.031 83.8981 102.144C82.8506 100.523 81.7616 97.3567 80.9559 95.4625C79.9831 93.1756 78.8746 90.9467 77.8819 88.6667C77.3277 87.3942 76.857 85.8832 76.0685 84.7487C76.903 83.1987 77.5094 81.3953 78.5072 79.9526L71.0367 76.3904C70.5174 76.1254 70.0267 75.8316 69.533 75.5229C71.4414 73.2489 72.1947 70.4662 74.6676 68.331C77.0443 66.2788 80.6693 65.0017 83.8216 65.2349C83.8801 65.8917 84.2266 66.4788 84.7405 66.8934C85.6246 67.607 86.951 67.9056 88.0712 67.7834C88.8186 67.7019 89.5441 67.4378 90.0176 66.8374C90.0835 66.7537 90.1455 66.6675 90.2094 66.5824C90.2235 66.1287 90.1913 65.622 90.2925 65.1809Z" fill="#3730A3"/>
<path d="M85.7661 101.577C85.7887 101.594 85.8097 101.613 85.8336 101.628C86.5926 102.1 95.3368 100.683 96.6824 100.428C98.0038 100.178 99.311 99.7778 100.64 99.5864L100.741 99.5726C101.239 103.415 101.812 107.252 102.267 111.099C102.49 112.984 102.752 114.881 102.802 116.78C102.847 118.469 102.656 120.163 102.513 121.844L101.909 128.658C101.67 131.224 101.389 133.789 101.172 136.358C100.961 138.843 100.814 141.344 100.534 143.822L93.179 143.857C92.6149 142.112 92.4145 140.257 92.0606 138.462L90.2033 129.254C89.9226 127.907 89.6872 126.543 89.3526 125.209C86.7297 129.271 84.0514 133.249 81.2065 137.163C79.4826 139.535 77.7361 141.935 75.7457 144.095C73.53 142.816 71.3364 141.501 69.1649 140.149C69.2458 139.169 70.1986 137.206 70.5733 136.155L74.7007 124.604C75.2865 122.952 76.4191 120.103 76.7005 118.497C76.9315 117.18 76.5179 114.696 76.4151 113.286C76.1248 109.306 75.7884 105.32 75.5941 101.335C76.8212 103.154 77.2793 105.715 78.9462 107.229C80.9224 105.929 82.0014 104.166 84.3797 103.328C84.196 102.949 84.0558 102.535 83.8981 102.144C84.0681 102.031 84.2375 101.942 84.4266 101.864C84.7292 101.74 85.4611 101.453 85.7661 101.577Z" fill="#1E1B4B"/>
<path d="M37.5652 97.8269C37.5908 98.3981 37.6089 98.9707 37.6449 99.5412C38.4722 100.09 39.2378 100.621 40.1773 100.976C44.3421 102.549 50.2877 101.96 54.5962 101.108C55.4355 100.951 56.2692 100.768 57.0971 100.559C57.6052 104.602 58.616 108.844 59.2423 112.933C59.8376 116.603 60.2574 120.293 60.5016 124.002C60.7455 128.228 60.6562 132.509 60.4978 136.737C60.4305 138.549 60.3472 140.36 60.2479 142.171C60.1921 143.173 60.1903 144.229 59.9965 145.214C57.7387 145.653 54.9959 145.911 52.7118 145.472C52.3005 143.824 52.1529 142.007 51.8892 140.322C51.3135 136.643 50.7693 132.959 50.2566 129.271C50.1119 128.15 50.136 125.973 49.7665 125.055C50.551 121.317 51.1079 117.607 51.5498 113.813C51.7486 112.106 51.7824 110.303 52.0798 108.618C52.7945 107.696 54.066 106.144 54.1065 104.954L54.0417 104.841C53.7255 105.013 53.5487 105.874 53.3571 106.236C52.9229 107.058 52.3401 107.784 51.7458 108.494C51.1328 115.266 50.3121 122.198 48.5835 128.786C47.5665 132.662 46.1595 136.532 44.6544 140.242C44.1649 141.448 43.3485 143.948 42.5648 144.863L42.1993 144.933C40.1723 144.83 37.8928 144.372 36.0134 143.638C37.1572 137.356 38.3505 131.152 38.8184 124.775C38.9409 123.103 39.1248 121.349 39.0348 119.675C35.6544 119.58 32.2572 119.634 28.8749 119.637L12.0953 119.657C12.1493 118.901 12.2397 118.248 12.5473 117.544C12.7045 117.069 12.8877 116.597 13.1732 116.183C13.5641 115.614 14.0603 115.262 14.7363 115.122C14.7435 114.183 14.7364 113.242 14.7815 112.304C14.7603 111.011 14.5591 109.191 14.8228 107.943C14.8116 107.744 14.8019 107.546 14.7938 107.347C14.7577 106.465 14.7546 105.545 15.4234 104.871C16.1054 104.183 16.9861 104.174 17.8867 104.19C17.9521 102.138 17.9811 100.086 17.9736 98.0328L18.0776 98.1069C19.0093 98.7822 19.7595 100.67 20.9839 100.513C22.6228 100.302 23.1337 96.9325 25.4527 98.5321C26.4565 99.2244 27.4461 101.372 28.7879 101.209C30.5946 100.991 31.1716 96.9713 33.5191 98.4067C34.1898 98.8167 35.0095 99.8366 35.8618 99.6539C36.3905 99.5407 36.8013 99.1177 37.0683 98.6735C37.2367 98.3933 37.3996 98.1089 37.5652 97.8269Z" fill="#3730A3"/>
<path d="M35.3595 112.188C35.8702 111.695 36.4814 111.145 37.2387 111.159C37.6904 111.167 38.0964 111.385 38.4028 111.707C38.852 112.179 39.0611 112.825 39.0101 113.467C39.0059 113.519 39.0002 113.57 38.9954 113.622C38.591 113.63 38.2366 113.586 37.8407 113.506C37.4483 113.815 35.0678 113.83 34.4958 113.778C34.3427 113.764 34.2146 113.72 34.0758 113.656C33.7521 113.816 33.3844 114.001 33.0136 113.987C32.2739 113.96 31.7822 113.172 31.35 112.667C31.7853 112.857 32.2097 113.127 32.6828 113.204C33.7722 113.381 34.5253 112.776 35.3595 112.188Z" fill="#1E1B4B"/>
<path d="M35.4389 112.448C35.716 112.221 35.988 111.958 36.3773 111.998C37.0435 112.067 37.4048 113.077 37.8408 113.506C37.4484 113.815 35.0678 113.83 34.4958 113.778C34.3427 113.764 34.2146 113.72 34.0759 113.656C34.5638 113.292 34.9968 112.864 35.4389 112.448Z" fill="#F472B6"/>
<path d="M17.8867 104.19L30.3833 104.156C32.9981 104.166 36.1316 103.905 38.6487 104.56C38.7685 105.183 38.8723 105.801 38.9501 106.43C38.364 106.43 37.7699 106.405 37.1887 106.492C37.1591 106.511 37.1291 106.529 37.0998 106.549C36.184 107.155 35.1436 109.282 33.9308 109.03C32.9171 108.82 32.2726 107.543 31.4682 106.96C30.0557 105.936 27.3395 105.695 25.8178 106.601C24.8047 107.204 23.6188 109.18 22.357 108.857C20.6281 108.415 20.7993 105.996 18.6383 106.079C17.9425 106.106 17.2838 106.331 16.6789 106.664C16.0151 107.029 15.449 107.524 14.8228 107.942C14.8116 107.744 14.8019 107.546 14.7937 107.347C14.7576 106.465 14.7546 105.545 15.4234 104.871C16.1054 104.183 16.9861 104.174 17.8867 104.19Z" fill="white"/>
<path d="M14.8576 112.367C15.4083 111.869 16.0783 111.153 16.8684 111.105C17.5915 111.061 18.1258 111.577 18.6254 112.018C19.2131 111.623 19.9435 111.199 20.674 111.227C21.7269 111.268 22.2002 112.227 22.8464 112.889C24.822 114.91 26.4283 111.574 28.3817 111.614C29.6422 111.55 30.3579 111.942 31.3501 112.667C31.7822 113.172 32.2739 113.96 33.0136 113.987C33.3844 114.001 33.7521 113.816 34.0759 113.656C34.2146 113.72 34.3427 113.764 34.4958 113.778C35.0678 113.83 37.4484 113.815 37.8408 113.505C38.2366 113.586 38.5911 113.63 38.9954 113.622C39.0276 115.634 38.9604 117.667 39.0348 119.675C35.6544 119.58 32.2572 119.634 28.8749 119.637L12.0953 119.657C12.1493 118.901 12.2397 118.248 12.5473 117.544C12.7045 117.069 12.8877 116.597 13.1732 116.182C13.5641 115.614 14.0603 115.262 14.7363 115.122C14.7435 114.183 14.7364 113.241 14.7815 112.303L14.8576 112.367Z" fill="#F9A8D4"/>
<path d="M14.8576 112.367C15.4083 111.869 16.0783 111.153 16.8684 111.105C17.5915 111.061 18.1257 111.577 18.6254 112.018C19.213 111.623 19.9435 111.199 20.6739 111.227C21.7268 111.268 22.2002 112.227 22.8463 112.889C24.822 114.91 26.4283 111.574 28.3817 111.614C27.1841 112.542 25.4969 114.245 23.8333 113.985C22.5269 113.782 21.2643 110.984 19.4311 112.191C18.7235 112.657 18.1926 113.863 17.2394 113.775C16.4741 113.704 16.1522 112.868 15.2728 113.009C15.1739 113.085 15.0389 113.167 14.9626 113.265L14.8757 113.256C14.7724 113.022 14.8199 112.615 14.8576 112.367Z" fill="#1E1B4B"/>
</svg>
