<svg width="167" height="150" viewBox="0 0 167 150" fill="none" xmlns="http://www.w3.org/2000/svg">
<path d="M10.2762 149.929C9.01613 149.89 0.482738 150.073 0.000341577 149.746L0 149.618C0.806223 149.355 8.8752 149.536 10.2967 149.659L10.2762 149.929Z" fill="#010001"/>
<path d="M79.8484 0.0343311C79.9313 0.0248707 80.0143 0.0173265 80.0975 0.0116982C80.1807 0.00618966 80.264 0.00259619 80.3474 0.000919673C80.4308 -0.000637092 80.5142 -0.000217283 80.5975 0.00217774C80.6808 0.00457276 80.7641 0.00894333 80.8473 0.0152901C80.9304 0.021637 81.0134 0.0299597 81.0961 0.0402583C81.1788 0.0505568 81.2613 0.0628317 81.3435 0.0770821C81.4256 0.0913325 81.5074 0.107498 81.5888 0.125581C81.6702 0.143783 81.7511 0.163841 81.8315 0.185755C81.9119 0.20779 81.9918 0.23168 82.0712 0.257427C82.1504 0.283293 82.2291 0.310955 82.3071 0.340414C82.385 0.369993 82.4622 0.401368 82.5387 0.434539C82.6152 0.46783 82.6908 0.502857 82.7656 0.53962C82.8404 0.576504 82.9143 0.615124 82.9873 0.65548C83.0602 0.695837 83.1321 0.737868 83.2031 0.781578C83.274 0.825407 83.3439 0.870853 83.4127 0.917915C83.4815 0.965097 83.5491 1.01383 83.6155 1.06413C85.0514 2.13722 85.57 3.47059 85.8102 5.20722C86.4733 4.33136 87.2188 3.65579 88.3476 3.49322C89.1871 3.37251 90.0626 3.58842 90.7244 4.12497C91.6299 4.85857 91.8234 5.79909 91.9388 6.89248C90.9192 6.92858 89.8928 6.91547 88.8723 6.92212C84.2156 6.94822 79.5588 6.94954 74.902 6.92607C74.815 5.24908 74.9348 3.63603 75.9694 2.23817C76.92 0.95366 78.3029 0.290838 79.8484 0.0343311Z" fill="#A5B4FC"/>
<path d="M31.5105 47.59C32.7468 49.1375 34.3602 50.277 36.3699 50.4919C36.5028 50.5061 36.6337 50.512 36.7671 50.5167C36.764 51.4981 37.0095 54.7923 36.3339 55.417C35.1192 56.5403 34.0314 55.5277 33.1733 57.8954C32.2302 57.8718 31.287 57.8597 30.3436 57.8593L30.3411 60.9783L32.769 60.9864L32.7717 77.5226C31.3377 77.5198 29.8944 77.4842 28.4619 77.5413C28.4682 79.5952 28.4226 81.6684 28.5035 83.7198L31.6675 83.7298C31.5517 84.9568 31.6283 86.2396 31.6481 87.4723C30.2812 87.5275 28.8012 87.5532 27.7886 88.6227C27.0071 89.4477 26.7977 90.572 26.8496 91.6717C26.8955 92.6409 27.0979 93.6925 27.4135 94.6089L26.2888 94.698C25.7411 95.0524 25.2976 95.4659 25.1375 96.123C25.0257 96.5816 25.1117 97.0526 25.3609 97.4511C25.7545 98.0806 26.2921 98.3058 26.973 98.5111C26.1027 99.9927 25.7102 102.716 25.6734 104.427C21.398 106.081 18.2861 108.039 16.3895 112.382C15.7897 113.755 15.5105 115.198 15.1694 116.646C13.0504 116.761 10.8793 116.673 8.75451 116.674C7.85118 114.252 6.90431 111.849 6.14275 109.377C4.81193 105.058 3.89452 100.717 3.25632 96.2451C1.94397 87.0495 2.03454 78.8619 5.35874 70.0791C8.63726 61.4168 15.9337 54.215 24.2446 50.2968C25.7214 49.6158 27.2323 49.021 28.7771 48.5124C29.6102 48.234 30.5552 48.0398 31.3469 47.6687C31.4017 47.643 31.456 47.6162 31.5105 47.59Z" fill="#FCE7F3"/>
<path d="M91.1058 15.0053C94.731 15.9992 97.8727 19.0762 99.7013 22.2536C101.047 24.5909 101.603 26.93 101.821 29.5979C103.174 28.6036 106.765 27.8828 108.417 27.662C109.236 27.5526 110.075 27.5546 110.887 27.4312L111.066 27.4026L111.076 25.181C110.257 25.1864 109.161 25.2933 108.539 24.6387C108.246 24.3305 108.128 23.9136 108.146 23.4949C108.148 23.4296 108.153 23.3647 108.163 23.3001C108.172 23.2355 108.184 23.1715 108.2 23.1081C108.215 23.0449 108.234 22.9826 108.257 22.9211C108.279 22.8598 108.304 22.7998 108.333 22.7411C108.361 22.6825 108.393 22.6255 108.428 22.5701C108.462 22.5148 108.499 22.4614 108.54 22.4099C108.58 22.3584 108.623 22.3092 108.668 22.2623C108.713 22.2153 108.761 22.1708 108.811 22.1288C109.009 21.9616 109.194 21.9161 109.448 21.8809C110.956 21.6724 112.646 21.8085 114.17 21.8076C115.263 21.8071 116.48 21.7006 117.559 21.8288C117.99 21.8802 118.34 22.1543 118.583 22.5042C118.865 22.9104 118.964 23.3585 118.867 23.8469C118.765 24.3684 118.402 24.7584 117.963 25.0319C117.905 25.0679 117.847 25.1028 117.788 25.1366C117.212 25.1688 116.641 25.1977 116.063 25.1855L116.071 27.9974C120.102 28.7682 123.964 29.937 127.872 31.1689C128.437 31.3465 129.318 31.7424 129.885 31.6769C129.938 31.445 129.969 31.2253 129.993 30.9885C128.789 30.808 127.76 30.3255 127.008 29.3308C126.334 28.4393 125.911 27.2462 126.081 26.1271C126.507 23.3246 131.496 20.9954 129.842 18.6277C129.69 18.4114 129.46 18.2158 129.416 17.9482L129.506 17.8792C129.774 17.9462 129.886 18.0448 130.025 18.2866C130.458 19.0405 130.465 20.043 130.91 20.7609C131.175 21.1893 131.591 21.5915 131.917 21.9792C133.319 23.6452 134.997 25.6234 134.26 27.943C133.895 29.094 133.032 29.9751 131.963 30.5075C131.467 30.755 130.994 30.8897 130.445 30.9702C130.391 31.0212 130.31 31.083 130.271 31.145C130.295 31.1904 130.317 31.2366 130.342 31.2811C130.778 32.0521 133.202 32.2132 134.073 32.6016C137.832 34.2787 141.411 36.8526 144.527 39.5244C147.442 42.0237 150.088 45.0619 152.314 48.181C162.981 63.1241 163.409 80.9627 163.42 98.5914C163.424 104.622 163.531 110.662 163.484 116.691L155.75 116.683C154.915 116.682 152.955 116.527 152.222 116.751L152.117 117.047C152.085 116.747 152.043 116.448 151.991 116.15C151.433 113.064 149.898 109.987 147.577 107.848C146.72 107.058 145.753 106.411 144.799 105.747C144.833 102.085 143.143 101.443 142.277 98.4849C141.251 94.9775 142.506 91.7954 140.169 88.1314C138.713 85.8489 136.578 85.2755 134.097 84.7208C131.669 84.6913 129.244 85.1905 127.455 86.9552C127.098 87.3073 126.743 87.7303 126.499 88.1689C126.297 88.5348 125.981 89.7168 125.748 89.928C125.679 89.9905 125.39 89.9972 125.294 89.9999C125.095 90.1005 124.908 90.2018 124.691 90.256C124.989 90.2345 125.278 90.168 125.538 90.3474C125.814 91.0444 124.242 94.1406 123.927 94.9876C123.693 95.6252 123.524 96.2796 123.419 96.9507C122.953 99.9997 124.609 102.791 123.741 105.877C118.766 107.651 116.731 109.689 114.482 114.44C113.146 117.263 112.344 120.224 111.68 123.265L111.594 123.441C110.098 123.657 108.517 123.346 107.011 123.516C108.498 123.641 110.031 123.563 111.526 123.582C111.084 126.185 110.522 128.755 109.937 131.329C109.581 132.897 108.953 134.677 108.929 136.275C108.919 136.893 109.164 137.591 109.519 138.092C109.94 138.687 110.472 139.016 111.096 139.355C110.063 139.48 108.914 139.384 107.869 139.383L100.339 139.324C100.228 138.823 100.146 138.327 100.076 137.819L100.731 138.1C100.828 138.143 100.925 138.18 101.025 138.213C102.468 138.704 104.138 138.475 105.48 137.784C106.73 137.14 107.776 135.738 108.188 134.41C108.498 133.412 108.462 132.276 108.332 131.25C108.034 128.883 107.262 126.448 106.687 124.131C106.093 121.729 105.476 119.334 104.835 116.945C104.018 113.89 103.199 110.696 101.7 107.89C99.5857 103.933 96.8545 102 92.5905 100.682C92.4901 100.324 92.3974 99.9426 92.2251 99.6115C91.4872 98.1925 89.6424 96.8587 88.1373 96.3935C88.1092 95.8706 88.106 95.3445 88.0936 94.8209C89.0016 94.2802 90.102 93.5004 90.5666 92.5252C90.7464 92.1478 90.7563 91.6797 90.9668 91.3248C91.2561 90.8371 91.7119 90.4238 92.0316 89.9481C92.3535 89.4689 92.5944 88.8833 92.4716 88.2977C92.3127 87.5388 91.6551 87.1183 91.058 86.7159C91.4011 85.6944 91.4895 84.6245 91.5805 83.5577L91.5232 83.3962C92.2237 83.1187 101.432 83.2664 103 83.266L138.714 83.3479L138.733 77.4468C133.023 77.428 127.305 77.3827 121.596 77.438C114.929 77.5027 108.261 77.678 101.592 77.6218C99.3613 77.3707 97.0376 77.8302 94.7986 77.5557C94.8991 77.451 95.0631 77.4161 95.1967 77.3656C95.8839 77.4544 96.6546 77.399 97.349 77.3958L101.548 77.3651L101.559 46.2261L101.574 35.37C101.575 33.2666 101.668 31.1144 101.492 29.0195C101.349 27.3234 101.013 25.6509 100.33 24.0853C100.204 23.7948 100.07 23.508 99.9279 23.2249C99.7859 22.9418 99.636 22.6629 99.4782 22.3882C99.3205 22.1135 99.1552 21.8434 98.9823 21.5779C98.8095 21.3125 98.6293 21.0521 98.4418 20.7967C98.2544 20.5413 98.0599 20.2913 97.8585 20.0469C97.657 19.8024 97.4489 19.5637 97.2341 19.3308C97.0193 19.098 96.7981 18.8713 96.5704 18.6509C96.3429 18.4303 96.1094 18.2163 95.8699 18.0089C95.0808 17.3346 94.145 16.7466 93.2354 16.2491C92.684 15.9471 91.6213 15.6407 91.1997 15.2193C91.1445 15.1643 91.1371 15.0767 91.1058 15.0053Z" fill="#FCE7F3"/>
<path d="M108.35 97.5603L108.502 97.5911C108.714 98.0128 108.671 113.52 108.579 115.278C107.8 115.297 105.369 115.515 104.836 115.149L104.869 115.057C105.578 114.839 107.455 114.978 108.291 114.974L108.289 101.454L108.309 97.8501C107.342 98.0976 106.429 98.4542 105.649 99.0906C104.873 99.7239 104.225 100.588 103.93 101.551C103.379 103.352 103.909 108.307 103.671 110.62L103.669 110.621C103.646 110.771 103.641 110.823 103.552 110.95C103.512 110.874 103.499 110.86 103.475 110.764C103.314 110.122 103.35 103.016 103.469 102.153C103.559 101.508 103.781 100.93 104.125 100.378C105.104 98.808 106.588 97.9695 108.35 97.5603Z" fill="#010001"/>
<path d="M91.5805 83.5577C96.5508 83.7704 101.588 83.5627 106.566 83.5626L133.845 83.6231C133.7 83.7147 133.601 83.7767 133.423 83.777L91.6612 83.7163C91.669 84.4699 91.2838 85.9185 91.3759 86.4506C91.4196 86.7033 91.5463 86.8831 91.7238 87.0626C92.1683 87.5117 92.6922 87.8278 92.6998 88.5282C92.714 89.8721 91.7853 90.2305 91.2081 91.2227C90.8435 91.8498 90.7572 92.5854 90.3449 93.2121C90.324 93.2439 90.3044 93.2766 90.2829 93.308C89.8869 93.8857 88.4638 94.5412 88.2822 95.0323C88.1799 95.3085 88.232 95.8169 88.2444 96.1143C89.4815 96.854 90.9877 97.6216 91.9356 98.7398C92.3102 99.1815 92.4022 100.238 92.8255 100.545C93.424 100.98 94.5333 101.17 95.2401 101.463C96.0808 101.811 96.8867 102.315 97.6352 102.828C101.899 105.754 103.445 111.198 104.716 115.937C105.036 117.13 105.404 118.326 105.697 119.524C105.841 120.115 106.351 122.905 106.672 123.17C107.51 122.703 110.89 123.401 111.484 123.006C111.605 122.926 111.712 122.537 111.748 122.411C112.035 121.41 112.201 120.358 112.491 119.345C113.404 116.16 115.019 112.082 117.252 109.592C118.129 108.613 119.207 107.799 120.346 107.149C121.397 106.548 122.933 106.28 123.742 105.407C124.485 102.382 122.646 99.3832 123.385 96.3195C123.508 95.7996 123.662 95.2892 123.848 94.7883C124.148 93.9962 125.601 91.0595 125.434 90.4196C123.638 90.2353 121.782 90.4478 119.979 90.4514L112.985 90.45C111.106 90.4491 109.191 90.3428 107.337 90.7076C105.56 91.0569 103.638 91.9064 102.223 93.0452C100.357 94.5464 98.5191 96.7924 95.8352 96.5501C94.986 96.4734 93.6376 96.3116 93.0599 95.5816C92.986 95.4882 93.0137 95.5025 93.024 95.3639C93.1944 95.2661 93.2331 95.2155 93.4337 95.2602C93.859 95.3547 94.274 95.6209 94.6927 95.7596C96.0091 96.1954 97.4513 95.8548 98.625 95.1889C99.5847 94.6445 100.285 93.8686 101.097 93.1399C101.316 92.9412 101.543 92.751 101.776 92.5692C102.01 92.3874 102.25 92.2147 102.497 92.051C102.744 91.8872 102.996 91.7329 103.254 91.5881C103.512 91.4433 103.776 91.3084 104.044 91.1832C104.351 91.0377 104.663 90.9032 104.98 90.7798C105.297 90.6564 105.618 90.5445 105.943 90.4441C106.268 90.3435 106.596 90.2546 106.927 90.1773C107.258 90.1001 107.592 90.0347 107.927 89.9812C109.69 89.7144 111.532 89.8146 113.311 89.8155L121.951 89.8191C122.958 89.811 124.485 90.0228 125.424 89.7942C125.686 89.7302 125.728 89.5271 125.847 89.3034C126.109 88.8122 126.212 88.2447 126.519 87.782C127.588 86.1756 129.855 84.9051 131.758 84.7213C132.395 84.6599 133.529 84.4194 134.121 84.6576L134.097 84.7208C131.669 84.6913 129.244 85.1905 127.455 86.9552C127.098 87.3072 126.743 87.7303 126.499 88.1689C126.297 88.5348 125.981 89.7167 125.748 89.928C125.679 89.9905 125.39 89.9971 125.294 89.9998C125.095 90.1004 124.908 90.2017 124.691 90.256C124.989 90.2344 125.278 90.168 125.538 90.3474C125.814 91.0444 124.242 94.1406 123.927 94.9875C123.693 95.6252 123.524 96.2796 123.419 96.9507C122.953 99.9997 124.609 102.791 123.741 105.877C118.766 107.651 116.731 109.689 114.482 114.44C113.146 117.263 112.344 120.224 111.68 123.265L111.594 123.441C110.098 123.657 108.517 123.346 107.011 123.516C108.498 123.641 110.031 123.563 111.526 123.582C111.084 126.185 110.522 128.755 109.937 131.329C109.581 132.897 108.953 134.677 108.929 136.275C108.919 136.893 109.164 137.591 109.519 138.092C109.94 138.687 110.472 139.016 111.096 139.355C110.063 139.48 108.914 139.384 107.869 139.383L100.339 139.324C100.228 138.823 100.146 138.327 100.076 137.819L100.731 138.1C100.828 138.143 100.925 138.18 101.025 138.213C102.468 138.704 104.138 138.475 105.48 137.784C106.73 137.14 107.776 135.738 108.188 134.41C108.498 133.412 108.462 132.276 108.332 131.25C108.034 128.883 107.262 126.448 106.687 124.131C106.093 121.729 105.476 119.334 104.835 116.945C104.018 113.89 103.199 110.696 101.7 107.89C99.5857 103.933 96.8545 102 92.5905 100.682C92.4901 100.324 92.3974 99.9425 92.2251 99.6115C91.4872 98.1924 89.6424 96.8587 88.1373 96.3935C88.1092 95.8706 88.106 95.3445 88.0936 94.8208C89.0016 94.2802 90.102 93.5004 90.5666 92.5252C90.7464 92.1478 90.7563 91.6797 90.9668 91.3248C91.2561 90.8371 91.7119 90.4238 92.0316 89.9481C92.3535 89.4689 92.5944 88.8833 92.4716 88.2977C92.3127 87.5388 91.6551 87.1183 91.058 86.7159C91.4011 85.6944 91.4895 84.6245 91.5805 83.5577Z" fill="#FEFEFE"/>
<path d="M107.011 123.517L106.79 123.442L106.788 123.301C107.175 123.063 110.951 123.172 111.68 123.265L111.594 123.442C110.098 123.657 108.517 123.346 107.011 123.517Z" fill="#010001"/>
<path d="M92.7992 95.2464C93.7567 95.4605 94.5645 96.0356 95.5698 96.1095C98.6486 96.3362 100.259 93.8244 102.49 92.2656C103.954 91.2428 105.756 90.5215 107.509 90.1945C109.825 89.7627 112.374 89.9623 114.726 89.9657L125.294 89.9998C125.095 90.1004 124.908 90.2017 124.69 90.256L114.528 90.2711C112.281 90.2711 109.919 90.1306 107.698 90.4976C106.413 90.7099 105.129 91.1532 103.971 91.7465C101.37 93.0793 99.6441 95.884 96.7977 96.3486C95.249 96.6015 94.0273 96.1436 92.7992 95.2464Z" fill="#010001"/>
<path d="M91.1058 15.0053C94.731 15.9992 97.8728 19.0762 99.7014 22.2536C101.047 24.5909 101.603 26.93 101.821 29.5979C103.174 28.6036 106.765 27.8828 108.417 27.662C109.236 27.5526 110.075 27.5546 110.887 27.4312L111.066 27.4026L111.076 25.181C110.257 25.1864 109.161 25.2933 108.539 24.6387C108.246 24.3305 108.128 23.9136 108.146 23.4949C108.148 23.4296 108.153 23.3647 108.163 23.3001C108.172 23.2355 108.184 23.1715 108.2 23.1081C108.215 23.0449 108.234 22.9826 108.257 22.9211C108.279 22.8598 108.304 22.7998 108.333 22.7411C108.361 22.6825 108.393 22.6255 108.428 22.5701C108.462 22.5148 108.499 22.4614 108.54 22.4099C108.58 22.3584 108.623 22.3092 108.668 22.2623C108.713 22.2153 108.761 22.1708 108.811 22.1288C109.009 21.9616 109.194 21.9161 109.448 21.8809C110.956 21.6724 112.646 21.8085 114.17 21.8076C115.263 21.8071 116.48 21.7006 117.559 21.8288C117.99 21.8802 118.34 22.1543 118.583 22.5042C118.865 22.9104 118.964 23.3585 118.867 23.8469C118.765 24.3684 118.402 24.7584 117.963 25.0319C117.905 25.0679 117.847 25.1028 117.788 25.1366C117.212 25.1688 116.641 25.1977 116.063 25.1855L116.071 27.9974C120.102 28.7682 123.964 29.937 127.873 31.1689C128.437 31.3465 129.318 31.7424 129.885 31.6769C129.938 31.445 129.969 31.2253 129.993 30.9885C128.789 30.808 127.76 30.3255 127.008 29.3308C126.334 28.4393 125.911 27.2462 126.081 26.1271C126.507 23.3246 131.496 20.9954 129.842 18.6277C129.69 18.4114 129.46 18.2158 129.416 17.9482L129.506 17.8792C129.774 17.9462 129.886 18.0448 130.025 18.2866C130.458 19.0405 130.465 20.043 130.91 20.7609C131.175 21.1893 131.591 21.5915 131.917 21.9792C133.319 23.6452 134.997 25.6234 134.26 27.943C133.895 29.094 133.032 29.9751 131.963 30.5075C131.467 30.755 130.994 30.8897 130.445 30.9702C130.391 31.0212 130.31 31.083 130.271 31.145C130.324 31.7282 130.322 32.3014 130.314 32.8865L133.27 32.8839C133.139 36.911 133.293 40.96 133.268 44.9906L136.536 44.991C136.373 46.613 135.901 47.9426 134.589 49.0026C134.47 49.0993 134.347 49.1915 134.221 49.279C134.095 49.3666 133.965 49.4492 133.833 49.5271C133.7 49.6048 133.565 49.6774 133.427 49.745C133.289 49.8126 133.148 49.8749 133.006 49.9318C132.863 49.9888 132.718 50.0403 132.572 50.0864C132.425 50.1324 132.277 50.1728 132.127 50.2077C131.977 50.2427 131.827 50.2719 131.675 50.2953C131.523 50.3188 131.37 50.3365 131.217 50.3485L131.15 55.0211C132.369 55.2615 133.383 55.9284 134.072 56.9705C134.329 57.3579 134.473 57.7651 134.624 58.1993L137.052 58.2093L137.068 61.4002C136.317 61.4157 135.566 61.4178 134.815 61.4067L134.812 77.1596L139.022 77.1488C139.042 79.3088 139.045 81.4687 139.029 83.6287L133.845 83.6231L106.566 83.5626C101.588 83.5628 96.5508 83.7704 91.5805 83.5577L91.5232 83.3962C92.2237 83.1187 101.432 83.2664 103 83.266L138.714 83.3479L138.733 77.4468C133.023 77.428 127.305 77.3827 121.596 77.438C114.929 77.5027 108.261 77.678 101.592 77.6218C99.3614 77.3707 97.0376 77.8302 94.7987 77.5557C94.8992 77.451 95.0631 77.4161 95.1967 77.3656C95.8839 77.4544 96.6546 77.399 97.349 77.3958L101.548 77.3651L101.559 46.2261L101.574 35.37C101.575 33.2666 101.668 31.1144 101.492 29.0195C101.349 27.3234 101.013 25.6509 100.33 24.0853C100.204 23.7948 100.07 23.508 99.9279 23.2249C99.7859 22.9418 99.636 22.6629 99.4782 22.3882C99.3205 22.1135 99.1552 21.8434 98.9823 21.5779C98.8095 21.3125 98.6293 21.0521 98.4418 20.7967C98.2544 20.5413 98.0599 20.2913 97.8586 20.0469C97.6571 19.8024 97.4489 19.5637 97.2341 19.3308C97.0193 19.098 96.7981 18.8713 96.5704 18.6509C96.3429 18.4303 96.1094 18.2163 95.8699 18.0089C95.0808 17.3346 94.1451 16.7466 93.2354 16.2491C92.684 15.9471 91.6213 15.6407 91.1997 15.2193C91.1445 15.1643 91.1371 15.0767 91.1058 15.0053Z" fill="#010001"/>
<path d="M109.589 58.4349C112.456 58.4123 115.323 58.4221 118.19 58.4644L118.217 60.4574L117.077 60.4732L108.745 60.496L108.748 58.4428L109.589 58.4349Z" fill="#A5B4FC"/>
<path d="M130.165 50.33C130.45 50.3395 130.655 50.3059 130.903 50.4541C131.136 51.9109 130.951 53.654 130.941 55.1452C131.112 55.1957 131.28 55.2515 131.447 55.3126C132.556 55.7267 133.737 56.6329 134.207 57.7527C134.286 57.9417 134.308 57.9629 134.231 58.1594C133.223 58.3785 131.886 58.2036 130.835 58.194L126.901 58.1734C127.023 57.7841 127.173 57.4152 127.387 57.0665C127.992 56.0841 128.93 55.4208 130.051 55.1688C130.024 54.4318 129.848 50.7022 130.165 50.33Z" fill="#A5B4FC"/>
<path d="M109.446 22.108C110.824 22.0419 116.958 21.9125 117.886 22.3012C118.193 22.4302 118.409 22.7519 118.52 23.056C118.536 23.0977 118.549 23.14 118.56 23.183C118.572 23.226 118.581 23.2695 118.588 23.3134C118.595 23.3574 118.6 23.4016 118.602 23.446C118.605 23.4904 118.605 23.5349 118.603 23.5793C118.601 23.6237 118.597 23.668 118.59 23.712C118.584 23.756 118.575 23.7996 118.564 23.8428C118.553 23.8859 118.54 23.9284 118.525 23.9701C118.51 24.0119 118.493 24.0529 118.473 24.093C118.258 24.5453 117.943 24.7305 117.484 24.8859C115.952 24.8726 114.419 24.8742 112.887 24.8907C111.813 24.9013 110.57 25.0353 109.521 24.8178C109.115 24.7337 108.764 24.545 108.551 24.1771C108.391 23.9017 108.358 23.5874 108.439 23.2816C108.59 22.7146 108.966 22.406 109.446 22.108Z" fill="#FEFEFE"/>
<path d="M109.435 60.7665C110.654 60.8064 111.879 60.7809 113.098 60.7773C113.133 63.2136 113.118 65.6525 113.126 68.0892L109.446 68.075C109.454 66.5316 109.444 64.9883 109.416 63.4451C109.405 62.5745 109.317 61.6278 109.435 60.7665Z" fill="#A5B4FC"/>
<path d="M113.413 60.7979L117.128 60.7909C117.168 63.2213 117.141 65.6565 117.156 68.0874C115.916 68.136 114.656 68.0901 113.414 68.0899L113.413 60.7979Z" fill="#A5B4FC"/>
<path d="M123.563 58.4745L136.788 58.4755L136.774 61.0789C132.384 61.1999 127.958 61.0835 123.564 61.0828L123.563 58.4745Z" fill="#FCE7F3"/>
<path d="M124.341 45.2744C128.292 45.2575 132.243 45.2639 136.194 45.2934C136.044 46.6367 135.597 47.5321 134.711 48.5303C133.962 49.2039 132.971 49.7529 131.987 49.9851C130.362 50.369 128.398 50.0764 126.968 49.2077C125.46 48.2911 124.749 46.943 124.341 45.2744Z" fill="#A5B4FC"/>
<path d="M119.814 68.3117C119.969 68.3092 119.881 68.2989 120.076 68.3715C120.342 69.0704 120.159 71.3228 120.151 72.1582C115.951 72.1339 111.751 72.146 107.551 72.1945L107.343 72.158C107.057 71.649 107.244 69.1035 107.253 68.3663C111.44 68.3745 115.627 68.3562 119.814 68.3117Z" fill="#A5B4FC"/>
<path d="M130.38 20.2104C131.307 22.3806 133.855 23.8764 134.175 26.3486C134.302 27.3267 133.97 28.2268 133.36 28.9871C132.523 30.0315 131.601 30.5953 130.265 30.7304C129.835 30.676 129.421 30.6048 129.014 30.4522C127.906 30.0365 127.128 29.2255 126.669 28.1494C125.114 24.5072 129.294 23.1401 130.341 20.318C130.354 20.2822 130.367 20.2463 130.38 20.2104Z" fill="#FEFEFE"/>
<path d="M107.462 72.4365C111.694 72.4865 115.925 72.4759 120.157 72.4045C120.157 73.89 120.278 75.4853 120.129 76.9575C120.105 77.1939 120.154 77.1019 119.976 77.2474C115.737 77.3099 111.498 77.3443 107.259 77.3505C107.244 75.8039 107.078 74.0574 107.283 72.5333L107.462 72.4365Z" fill="#A5B4FC"/>
<path d="M129.474 33.1963C130.634 33.1811 131.794 33.1735 132.954 33.1735L132.965 44.9975L131.083 45.0019L127.489 45.0055C127.548 41.0789 127.501 37.1435 127.501 33.2159L129.474 33.1963Z" fill="#FEFEFE"/>
<path d="M111.349 25.1758L115.795 25.174L115.74 58.1738L111.305 58.1846C111.367 47.1826 111.224 36.1769 111.349 25.1758Z" fill="#FEFEFE"/>
<path d="M125.102 61.3697L134.528 61.3788L134.482 77.1582L125.084 77.161L125.102 61.3697Z" fill="#FCE7F3"/>
<path d="M101.821 29.5978C103.174 28.6036 106.765 27.8828 108.417 27.662C109.236 27.5526 110.075 27.5546 110.887 27.4312L111.066 27.4026C110.904 32.4548 111.016 37.5382 111.017 42.5946C111.018 47.773 110.91 52.9782 111.038 58.1538L108.481 58.154C108.429 58.9212 108.28 59.84 108.451 60.5921C108.625 60.7611 108.836 60.7527 109.065 60.7762C109.294 61.0756 109.198 67.2049 109.198 68.0967L106.966 68.0963C106.93 71.1789 106.978 74.2617 106.954 77.3441L101.808 77.3554L101.821 49.4453C101.826 42.8351 101.954 36.2061 101.821 29.5978Z" fill="#FCE7F3"/>
<path d="M116.07 27.9974C120.102 28.7682 123.964 29.937 127.872 31.1689C128.436 31.3465 129.318 31.7424 129.885 31.6769C129.937 31.445 129.969 31.2253 129.993 30.9886C130.137 31.554 130.064 32.3142 130.073 32.9057L127.205 32.8903C127.158 36.9245 127.201 40.963 127.204 44.9978L124.094 44.9971C124.165 46.0653 124.454 47.0452 125.089 47.916C126.248 49.5079 127.92 50.0886 129.791 50.3994L129.805 54.9694C129.442 55.0469 129.113 55.1347 128.786 55.3154C127.622 55.9586 126.948 56.9335 126.597 58.1905L123.276 58.1668C123.326 59.2347 123.299 60.3166 123.301 61.3861L124.827 61.3823L124.801 77.1663C123.332 77.156 121.862 77.161 120.393 77.1814C120.21 74.4074 120.334 70.886 120.415 68.0833C119.413 68.0563 118.408 68.0759 117.406 68.0816L117.396 60.7644C117.782 60.7507 118.164 60.7078 118.548 60.6679C118.523 59.845 118.525 59.02 118.517 58.1968C117.687 58.1612 116.851 58.1882 116.021 58.1928L116.07 27.9974Z" fill="#FCE7F3"/>
<path d="M75.5765 15.0307C75.7031 14.9497 75.8039 14.9053 75.9562 14.8963C77.8934 14.7826 79.8968 14.8997 81.8425 14.9053C84.9254 14.9141 88.0265 14.8571 91.1058 15.0053C91.1371 15.0767 91.1445 15.1643 91.1997 15.2193C91.6213 15.6407 92.6839 15.9471 93.2354 16.2491C94.145 16.7466 95.0807 17.3346 95.8699 18.0089C96.1094 18.2163 96.3429 18.4303 96.5704 18.6509C96.798 18.8713 97.0192 19.098 97.234 19.3308C97.4489 19.5637 97.657 19.8024 97.8585 20.0469C98.0599 20.2913 98.2543 20.5413 98.4418 20.7967C98.6293 21.0521 98.8094 21.3125 98.9823 21.5779C99.1551 21.8434 99.3204 22.1135 99.4782 22.3882C99.6359 22.6629 99.7858 22.9418 99.9279 23.2249C100.07 23.508 100.204 23.7948 100.33 24.0853C101.013 25.6509 101.349 27.3234 101.492 29.0195C101.668 31.1144 101.575 33.2666 101.574 35.37L101.559 46.2261L101.548 77.3651L97.349 77.3958C96.6545 77.399 95.8839 77.4544 95.1967 77.3656C95.0631 77.4161 94.8991 77.451 94.7986 77.5557C97.0375 77.8301 99.3613 77.3707 101.592 77.6218C108.261 77.678 114.929 77.5027 121.596 77.438C127.305 77.3827 133.023 77.428 138.733 77.4468L138.714 83.3479L103 83.266C101.432 83.2664 92.2236 83.1187 91.5231 83.3962L91.5805 83.5577C91.4895 84.6245 91.401 85.6944 91.058 86.7159C91.6551 87.1183 92.3126 87.5388 92.4716 88.2977C92.5944 88.8833 92.3535 89.4689 92.0316 89.9481C91.7119 90.4238 91.2561 90.8371 90.9668 91.3248C90.7563 91.6797 90.7464 92.1478 90.5666 92.5252C90.102 93.5004 89.0015 94.2802 88.0935 94.8209C88.1059 95.3445 88.1092 95.8706 88.1372 96.3935C87.5095 96.3125 86.87 96.079 86.2345 95.9741C84.1224 95.6249 81.6467 95.6114 79.5536 96.0254L79.4908 94.8941C79.0318 94.6376 78.5474 94.3828 78.1182 94.0785C77.2258 93.4455 76.7191 92.5718 76.5444 91.4983C76.1288 91.1611 75.7081 90.8069 75.3789 90.3821C74.901 89.7653 74.5924 89.0044 74.7301 88.2151C74.8648 87.4423 75.3066 87.0172 75.9107 86.5746C75.6516 85.673 75.533 84.6728 75.6802 83.7413C70.6459 83.6509 65.5972 83.7224 60.5612 83.7212L31.9605 83.7282C31.9641 84.9496 32.0229 86.2051 31.9177 87.4211L31.7694 87.3848C31.5411 86.2184 31.8255 84.9216 31.6675 83.7298L28.5035 83.7197C28.4225 81.6684 28.4682 79.5952 28.4619 77.5413C29.8944 77.4842 31.3377 77.5197 32.7716 77.5226L32.7689 60.9864L30.341 60.9783L30.3436 57.8592C31.2869 57.8597 32.2302 57.8718 33.1733 57.8954C34.0313 55.5277 35.1192 56.5402 36.3339 55.417C37.0094 54.7923 36.764 51.4981 36.7671 50.5166C36.6336 50.512 36.5027 50.5061 36.3699 50.4919C34.3602 50.277 32.7468 49.1375 31.5105 47.59C31.0144 46.759 30.7602 45.9245 30.5786 44.9806C31.899 44.8983 33.2386 44.9482 34.5616 44.9595C34.5385 41.1495 34.5345 37.3396 34.5497 33.5297L37.2986 33.5241L37.3147 31.3904C37.0727 31.335 36.8232 31.2824 36.5876 31.2035C35.4002 30.806 34.4404 29.8763 33.9118 28.7565C32.2342 25.2026 36.2021 23.2833 37.257 20.3253L37.3013 20.1994C37.1339 19.4746 36.807 18.9467 36.4265 18.3196L36.5015 18.1953L36.6265 18.2212C37.3955 18.9931 37.6321 20.4017 38.1722 21.3598C39.0916 22.991 40.8756 24.4223 41.2978 26.2704C41.55 27.3746 41.2089 28.4279 40.6321 29.3676C39.9106 30.5431 38.9013 31.08 37.5992 31.3904L37.5879 33.5349L40.5336 33.5198L40.5397 36.9473C40.7769 37.3028 40.6348 43.3222 40.6327 44.254C43.3817 41.966 46.2554 39.8467 49.2537 37.8961C50.0017 37.4161 50.7648 36.8594 51.5732 36.4921L51.5701 25.2144C50.7679 25.2405 50.1373 25.3132 49.4387 24.8236C49.0419 24.5453 48.721 24.1088 48.651 23.6217C48.596 23.238 48.7001 22.8857 48.952 22.5915C49.3717 22.1015 49.9665 21.9326 50.5866 21.8732C51.8783 21.7491 56.2869 21.7122 57.5123 21.9463C57.8011 22.0014 58.0339 22.09 58.2547 22.2865C58.5642 22.5621 58.7927 22.9809 58.8123 23.3989C58.8319 23.8198 58.7429 24.3229 58.448 24.6434C57.987 25.1445 57.3908 25.1661 56.7604 25.1929C56.821 28.0432 56.7722 30.9023 56.7677 33.7535C59.3102 32.2673 62.0871 30.4919 64.9846 29.8373C65.1006 28.4244 65.3028 27.0903 65.7338 25.7332C67.4321 20.387 70.752 17.542 75.5765 15.0307Z" fill="#010001"/>
<path d="M37.0021 50.5366C37.0918 50.5403 37.1817 50.542 37.2711 50.5508C37.3334 50.5569 37.523 50.5962 37.5539 50.6557C37.7481 51.0268 37.5693 54.0907 37.7657 54.9397C38.0523 56.1786 40.0749 56.1614 40.7641 57.0937C40.9479 57.3423 40.9186 57.5271 40.8707 57.8089C40.286 58.1066 38.2853 57.9192 37.562 57.9113L33.4418 57.8962C34.0274 56.0267 35.4273 56.6913 36.5148 55.6047C37.3174 54.8025 36.9918 51.7352 37.0021 50.5366Z" fill="#A5B4FC"/>
<path d="M48.6029 58.2149C52.1599 58.1554 55.729 58.219 59.2877 58.2111C59.2908 58.9032 59.3014 59.5928 59.237 60.2828C57.9219 60.3711 56.5676 60.3034 55.2484 60.3013C53.029 60.2997 50.8098 60.3126 48.5906 60.3399C48.5876 59.6316 48.5917 58.9232 48.6029 58.2149Z" fill="#A5B4FC"/>
<path d="M50.3098 22.1293C51.8093 22.0929 56.7861 21.8773 57.8545 22.4374C58.1638 22.5996 58.4518 22.8511 58.5462 23.1992C58.6503 23.5831 58.486 24.0118 58.2761 24.3317C58.0158 24.7287 57.6404 24.8006 57.2065 24.9049C55.7684 24.9049 54.3282 24.8778 52.8905 24.9022C52.2083 24.9139 51.502 25.0104 50.8238 24.978C50.4764 24.9615 50.1163 24.8753 49.8108 24.7066C49.4318 24.4975 49.1292 24.1611 49.0143 23.7388C48.9389 23.4614 48.961 23.1697 49.1079 22.9184C49.3735 22.4634 49.8225 22.2621 50.3098 22.1293Z" fill="#FEFEFE"/>
<path d="M30.6173 58.1493L44.0159 58.205L44.008 60.7018L30.6164 60.684L30.6173 58.1493Z" fill="#FCE7F3"/>
<path d="M47.1454 67.9077C51.5998 67.8591 56.0584 67.9496 60.5143 67.9169C60.5236 68.9678 60.5253 70.0188 60.5196 71.0699C56.0608 71.0444 51.602 71.0534 47.1432 71.0968L47.1454 67.9077Z" fill="#A5B4FC"/>
<path d="M30.9826 45.2088C33.0018 45.1797 35.023 45.237 37.0429 45.2234C39.1423 45.2092 41.2748 45.1194 43.3702 45.2333C43.1221 46.4975 42.4431 47.5136 41.5829 48.4427C40.5568 49.3501 39.4138 49.9776 38.0493 50.2028C36.4021 50.4746 34.6749 50.0011 33.3292 49.0306C31.9944 48.0678 31.2466 46.8363 30.9826 45.2088Z" fill="#A5B4FC"/>
<path d="M37.4329 20.6366C37.5426 20.7426 37.508 20.6932 37.5789 20.8209C37.9649 21.5168 38.3902 22.2182 38.8591 22.8622C39.6251 23.9145 40.6934 24.9024 41.0122 26.204C41.2681 27.2481 40.9693 28.3182 40.4065 29.2097C39.7292 30.2826 38.8339 30.8177 37.6274 31.1031C37.1862 31.0532 36.7863 30.9926 36.374 30.8137C35.2127 30.3099 34.4138 29.3455 33.9878 28.1705C32.9746 25.3757 36.3183 23.1065 37.4329 20.6366Z" fill="#FEFEFE"/>
<path d="M49.8875 60.6133L58.0442 60.6082L58.0375 67.657L49.8791 67.6588L49.8875 60.6133Z" fill="#A5B4FC"/>
<path d="M39.8457 33.8253C40.0221 33.8271 40.0532 33.8397 40.2066 33.9281C40.3885 34.7475 40.2413 36.0992 40.2431 36.9742L40.2627 44.9721C38.5983 44.9895 36.9339 44.9952 35.2695 44.9889C35.1228 44.9844 35.0277 44.9683 34.8883 44.9325C34.6429 44.2683 34.8276 35.2805 34.831 33.8305L39.8457 33.8253Z" fill="#FEFEFE"/>
<path d="M47.3629 71.3562C51.7167 71.5202 56.1248 71.3853 60.485 71.4007C60.4855 72.5496 60.6429 76.692 60.416 77.4592L60.2173 77.5244L47.1236 77.5544C47.1227 76.4619 46.9495 72.1208 47.1978 71.43L47.3629 71.3562Z" fill="#A5B4FC"/>
<path d="M33.0509 60.9806L41.9522 60.9812L41.9609 77.5084L33.0536 77.5226L33.0509 60.9806Z" fill="#FCE7F3"/>
<path d="M52.2223 25.2011C53.6264 25.1794 55.0321 25.1914 56.4362 25.1898C56.609 27.3778 56.5153 57.7339 56.5018 57.7707C56.4829 57.8223 56.4481 57.8666 56.4213 57.9144L56.1717 57.9471L51.8323 57.9523L51.8665 37.0604L51.8649 28.2684C51.8668 27.4817 51.8097 26.6854 51.8271 25.9015C51.8312 25.7104 51.8264 25.4787 51.9262 25.3093C51.9877 25.2051 52.1132 25.2214 52.2223 25.2011Z" fill="#FEFEFE"/>
<path d="M51.5732 36.4921L51.5556 57.9487C50.4782 57.9494 49.3839 57.914 48.3087 57.97C48.3051 58.8489 48.3064 59.7277 48.3126 60.6064L49.6196 60.6116L49.6085 67.6422L46.8739 67.6419C46.7863 70.9317 46.8516 74.2345 46.8589 77.5258C45.3164 77.5222 43.7724 77.505 42.2299 77.5202L42.2211 60.9879L44.3057 60.9856L44.3206 57.9244L41.1588 57.9291C41.0946 57.3173 41.0484 56.9598 40.5555 56.5474C39.9615 56.0504 39.0723 55.8799 38.3999 55.4889C37.5223 54.0556 37.7873 52.1496 37.8135 50.529C39.8151 50.1753 41.4485 49.2982 42.6199 47.5993C43.1733 46.7967 43.5356 45.9131 43.7276 44.9584L40.5212 44.9496C40.5725 42.2883 40.4354 39.6034 40.5397 36.9472C40.7769 37.3027 40.6348 43.3222 40.6327 44.2539C43.3818 41.966 46.2555 39.8467 49.2537 37.896C50.0017 37.4161 50.7648 36.8594 51.5732 36.4921Z" fill="#FCE7F3"/>
<path d="M64.9846 29.8373C64.904 33.9703 64.9639 38.1136 64.9659 42.2477L64.9842 64.4934L64.9963 73.1704C64.9981 74.5868 65.0578 76.0285 64.9997 77.442C63.5819 77.4513 62.144 77.4111 60.7293 77.4896L60.7324 67.701C59.9201 67.6618 59.1142 67.6546 58.3009 67.6633L58.3058 60.6003L59.5198 60.5227C59.5506 59.6676 59.5607 58.8122 59.5502 57.9566L56.7693 57.9519L56.7677 33.7535C59.3102 32.2673 62.0871 30.4918 64.9846 29.8373Z" fill="#FCE7F3"/>
<path d="M101.592 77.6218C108.261 77.678 114.929 77.5027 121.596 77.438C127.305 77.3827 133.023 77.428 138.733 77.4468L138.714 83.3479L103 83.266C101.432 83.2664 92.2236 83.1187 91.5231 83.3962L91.5805 83.5577C91.4895 84.6245 91.401 85.6944 91.058 86.7159C91.6551 87.1183 92.3126 87.5388 92.4716 88.2977C92.5944 88.8833 92.3535 89.4689 92.0316 89.9481C91.7119 90.4238 91.2561 90.8371 90.9668 91.3248C90.7563 91.6797 90.7464 92.1478 90.5666 92.5252C90.1019 93.5004 89.0015 94.2802 88.0935 94.8209C88.1059 95.3445 88.1092 95.8706 88.1372 96.3935C87.5095 96.3125 86.87 96.079 86.2345 95.9741C84.1224 95.6249 81.6467 95.6114 79.5536 96.0254L79.4908 94.8941C79.0318 94.6376 78.5474 94.3827 78.1182 94.0785C77.2258 93.4455 76.7191 92.5717 76.5444 91.4983C76.1288 91.1611 75.7081 90.8069 75.3789 90.3821C74.901 89.7653 74.5924 89.0044 74.7301 88.2151C74.8648 87.4423 75.3066 87.0171 75.9107 86.5745C75.6516 85.673 75.533 84.6728 75.6802 83.7413C75.944 83.4866 75.9749 82.9725 76.0878 82.6204C76.375 81.7255 76.8017 81.4794 77.6083 81.0649L77.7226 81.0068L77.7084 80.9054C77.4137 80.9619 77.1591 81.0277 76.9047 81.1933C76.1184 81.7045 75.8199 82.5687 75.6234 83.4381C60.0136 83.2705 44.3882 83.4569 28.7764 83.4408C28.8055 81.5635 28.7627 79.6812 28.7658 77.8034C32.2916 77.7297 35.8317 77.8 39.3593 77.8L63.453 77.7608C65.1628 77.8756 66.9599 77.7682 68.6788 77.7648C70.6155 77.7608 72.6191 77.8598 74.5478 77.7078L85.6325 77.7006C87.8546 77.6999 90.1093 77.7818 92.3279 77.6936C93.4754 77.8138 94.7502 77.7102 95.9118 77.7085C97.7817 77.7058 99.7369 77.821 101.592 77.6218Z" fill="#FCE7F3"/>
<path d="M77.7084 80.9053C78.5362 80.6686 79.4266 81.3912 79.9396 80.4453C80.5819 79.2612 80.7439 78.6472 82.2048 78.2115C83.2829 77.8899 84.5462 77.9957 85.529 78.5536C86.5319 79.1229 87.0439 79.9966 87.4901 81.0167C88.3174 80.7341 89.181 80.7437 89.9757 81.1356C90.6879 81.487 91.1989 82.102 91.4228 82.8643C91.4737 83.038 91.5136 83.2151 91.5231 83.3962L91.5805 83.5577C91.4895 84.6245 91.401 85.6943 91.058 86.7159C91.6551 87.1182 92.3126 87.5388 92.4716 88.2977C92.5944 88.8833 92.3535 89.4688 92.0316 89.9481C91.7119 90.4237 91.2561 90.8371 90.9668 91.3247C90.7563 91.6797 90.7464 92.1478 90.5666 92.5252C90.102 93.5004 89.0015 94.2801 88.0935 94.8208C88.1059 95.3444 88.1092 95.8706 88.1372 96.3935C87.5095 96.3124 86.87 96.0789 86.2345 95.974C84.1224 95.6248 81.6467 95.6114 79.5536 96.0254L79.4908 94.8941C79.0318 94.6376 78.5474 94.3827 78.1182 94.0784C77.2258 93.4454 76.7191 92.5717 76.5444 91.4983C76.1288 91.1611 75.7081 90.8069 75.3789 90.3821C74.901 89.7652 74.5924 89.0043 74.7302 88.215C74.8648 87.4423 75.3066 87.0171 75.9107 86.5745C75.6516 85.673 75.533 84.6728 75.6802 83.7413C75.944 83.4866 75.9749 82.9725 76.0879 82.6204C76.375 81.7255 76.8017 81.4794 77.6083 81.0648L77.7226 81.0068L77.7084 80.9053Z" fill="#831843"/>
<path d="M75.5765 15.0307C75.7031 14.9497 75.804 14.9053 75.9563 14.8963C77.8935 14.7826 79.8969 14.8997 81.8425 14.9053C84.9254 14.9141 88.0265 14.8571 91.1058 15.0053C91.1371 15.0767 91.1445 15.1643 91.1997 15.2193C91.6213 15.6407 92.684 15.9471 93.2354 16.2491C94.1451 16.7466 95.0808 17.3346 95.8699 18.0089C96.1094 18.2163 96.3429 18.4303 96.5704 18.6509C96.7981 18.8713 97.0193 19.098 97.2341 19.3308C97.4489 19.5637 97.6571 19.8024 97.8586 20.0469C98.0599 20.2913 98.2544 20.5413 98.4418 20.7967C98.6293 21.0521 98.8095 21.3125 98.9823 21.5779C99.1552 21.8434 99.3205 22.1135 99.4782 22.3882C99.636 22.6629 99.7859 22.9418 99.9279 23.2249C100.07 23.508 100.204 23.7948 100.33 24.0853C101.013 25.6509 101.349 27.3234 101.492 29.0195C101.668 31.1144 101.575 33.2666 101.574 35.37L101.559 46.2261L101.548 77.3651L97.349 77.3958C96.6546 77.399 95.8839 77.4544 95.1967 77.3656C95.0631 77.4161 94.8992 77.451 94.7986 77.5557C97.0376 77.8302 99.3614 77.3707 101.592 77.6218C99.737 77.821 97.7818 77.7059 95.9118 77.7085C94.7503 77.7102 93.4755 77.8138 92.328 77.6936C90.1094 77.7818 87.8546 77.6999 85.6326 77.7006L74.5479 77.7078C72.6191 77.8598 70.6156 77.7608 68.6789 77.7648C66.96 77.7682 65.1628 77.8756 63.4531 77.7608C64.0457 77.4195 70.6844 77.9471 71.3553 77.604C70.7858 77.3236 66.4254 77.6062 65.3768 77.4813C65.3489 77.4781 65.3212 77.4741 65.2934 77.4704L65.2673 45.0648L65.236 34.8392C65.2355 32.7679 65.1418 30.6433 65.3816 28.584C65.6094 26.6286 66.2857 24.6702 67.2167 22.9404C67.3063 22.7762 67.3985 22.6136 67.4934 22.4525C67.5884 22.2915 67.6861 22.1322 67.7865 21.9743C67.8868 21.8166 67.9899 21.6606 68.0956 21.5064C68.2012 21.3522 68.3095 21.1997 68.4203 21.0491C68.5311 20.8984 68.6444 20.7497 68.7602 20.6029C68.8761 20.4562 68.9944 20.3114 69.1151 20.1685C69.2358 20.0258 69.3589 19.8851 69.4844 19.7464C69.6099 19.6077 69.7378 19.4713 69.8679 19.337C69.998 19.2027 70.1303 19.0706 70.2649 18.9408C70.3996 18.8109 70.5363 18.6833 70.6752 18.558C70.8141 18.4329 70.955 18.3101 71.0982 18.1896C71.2412 18.069 71.3862 17.9509 71.5333 17.8354C71.6804 17.7198 71.8293 17.6068 71.9801 17.4962C72.131 17.3857 72.2837 17.2777 72.4382 17.1722C72.5927 17.0668 72.749 16.9641 72.907 16.8639C73.065 16.7638 73.2246 16.6664 73.386 16.5717C74.0414 16.1864 75.1696 15.7741 75.6582 15.2196L75.5765 15.0307Z" fill="#FCE7F3"/>
<path d="M80.8268 33.8437L80.9368 33.8029C81.0993 34.6795 81.4241 35.3989 82.0038 36.0777C81.8475 36.1531 81.6695 36.221 81.5244 36.3146C81.1831 35.7229 80.761 35.1179 80.6392 34.4354C80.5896 34.1564 80.6711 34.072 80.8268 33.8437Z" fill="#010001"/>
<path d="M80.8268 33.8437C80.7732 33.6024 80.7764 33.4781 80.6011 33.2985L80.1755 33.3626C80.1345 33.2398 80.0971 33.1245 80.0768 32.996C79.9186 31.9887 79.8264 30.5757 80.4472 29.7148C81.1206 28.7811 81.9196 28.911 82.9138 28.727C82.8217 28.5607 82.7473 28.5014 82.7662 28.3074L82.9194 28.3063C83.9451 29.2496 85.5947 28.4917 86.7664 30.1534C87.29 30.896 87.2589 31.9775 87.0946 32.8363C86.9651 33.5141 86.742 33.201 86.2963 33.4997C86.2504 33.3341 86.2094 33.1791 86.145 33.0196C86.1301 33.2815 86.1342 33.5504 86.0679 33.8045C86.0363 33.3219 86.0346 32.2292 85.6828 31.8692C85.3829 31.8148 85.0515 32.0214 84.7753 32.1353C82.9564 32.8857 82.6921 32.4733 81.0658 31.7916L80.9674 31.8717C80.8203 32.464 80.9316 33.1891 80.9368 33.8029L80.8268 33.8437Z" fill="#831843"/>
<path d="M80.9368 33.8029C80.9316 33.1891 80.8203 32.4639 80.9674 31.8717L81.0657 31.7916C82.6921 32.4733 82.9564 32.8857 84.7753 32.1352C85.0515 32.0213 85.3828 31.8148 85.6828 31.8692C86.0346 32.2292 86.0362 33.3218 86.0679 33.8045C86.1342 33.5503 86.1301 33.2814 86.145 33.0195C86.2094 33.179 86.2504 33.3341 86.2962 33.4997C86.6226 34.4168 86.1139 35.301 85.7739 36.151L85.1104 37.7983C84.6181 38.1107 82.6326 37.9196 81.9872 37.8677L81.9466 37.6753C81.9446 37.3076 81.6476 36.6792 81.5244 36.3146C81.6695 36.221 81.8475 36.1531 82.0038 36.0777C81.4241 35.3989 81.0994 34.6795 80.9368 33.8029Z" fill="#FEB997"/>
<path d="M86.0679 33.8046C86.1342 33.5504 86.1301 33.2815 86.145 33.0196C86.2094 33.1791 86.2504 33.3341 86.2962 33.4997C86.6226 34.4169 86.1139 35.301 85.7739 36.151C85.584 36.0661 85.4959 35.9827 85.2875 36.0601C85.0748 36.1392 84.8727 36.3409 84.6983 36.4846C84.5205 36.5128 84.4975 36.537 84.3227 36.4675L84.4836 36.382C84.5753 36.3341 84.667 36.2892 84.7544 36.2333C85.5651 35.7153 85.8562 34.6828 86.0679 33.8046Z" fill="#010001"/>
<path d="M84.3227 36.4675C84.4975 36.537 84.5205 36.5127 84.6983 36.4845C84.8727 36.3408 85.0748 36.1391 85.2875 36.0601C85.4959 35.9827 85.584 36.066 85.7739 36.151L85.1104 37.7983C84.6181 38.1107 82.6325 37.9196 81.9872 37.8677L81.9466 37.6753C81.9446 37.3076 81.6476 36.6792 81.5244 36.3146C81.6695 36.221 81.8475 36.1531 82.0038 36.0777C82.7892 36.6431 83.4089 36.5761 84.3227 36.4675Z" fill="#831843"/>
<path d="M81.9873 37.8677C82.6326 37.9196 84.6181 38.1107 85.1104 37.7983L85.5731 37.8477C87.1879 38.1457 88.8288 38.9673 90.2453 39.7753C91.366 40.3911 92.3103 41.1004 93.1666 42.0562C95.4339 44.5875 99.7368 52.4002 100.68 55.6572C101.173 57.3597 101.577 59.8773 100.619 61.4925C99.822 62.8365 97.427 63.4501 96.0049 63.7733C95.7453 63.8319 95.4841 63.8825 95.2214 63.925C95.2443 68.4053 95.236 72.8855 95.1967 77.3656C95.0631 77.4161 94.8992 77.4509 94.7986 77.5557C97.0376 77.8301 99.3614 77.3706 101.592 77.6218C99.737 77.821 97.7818 77.7058 95.9118 77.7085C94.7503 77.7101 93.4755 77.8138 92.328 77.6936C90.1094 77.7818 87.8546 77.6999 85.6326 77.7006L74.5479 77.7078C72.6191 77.8598 70.6156 77.7608 68.6789 77.7647C66.96 77.7682 65.1628 77.8756 63.4531 77.7608C64.0457 77.4195 70.6844 77.9471 71.3553 77.604C70.7858 77.3236 66.4254 77.6061 65.3768 77.4813C65.3489 77.4781 65.3212 77.4741 65.2934 77.4703C67.1511 77.2604 69.2767 77.4314 71.1605 77.4384C71.1544 72.8569 71.1789 68.2757 71.2341 63.6948C70.7263 63.5967 70.2246 63.4739 69.7289 63.3263C68.4926 62.9518 67.2437 62.3645 66.6262 61.1649C65.6706 59.3083 66.0751 56.8945 66.6753 54.9936C67.7959 51.4442 71.2321 44.5124 73.7463 41.9035C74.6009 41.0167 75.5433 40.4245 76.6318 39.8624C78.4095 39.06 80.0391 38.1606 81.9466 37.6753L81.9873 37.8677Z" fill="#010001"/>
<path d="M75.3124 60.1164C75.6132 60.0911 75.9532 60.0187 76.2254 60.1705C76.3101 60.3566 76.302 60.5206 76.3024 60.7199C76.3027 60.852 76.3632 60.9515 76.4637 61.0433C76.9509 61.4887 78.2862 61.3152 78.9196 61.2957C78.12 62.093 77.3808 62.6558 76.3614 63.1499C75.2459 63.6365 74.3652 63.8156 73.1463 63.793C73.1071 62.9064 73.1882 61.6788 73.7166 60.9405C74.1356 60.3551 74.6338 60.2323 75.3124 60.1164Z" fill="#FEB997"/>
<path d="M77.0869 40.0315C78.4485 39.3288 79.7972 38.646 81.2398 38.1226L81.2214 47.2624L78.571 47.267C78.0952 47.2478 77.6144 47.2584 77.1379 47.2568C77.1165 45.8207 77.1881 44.3637 77.0913 42.9325C77.1041 41.9655 77.1026 40.9985 77.0869 40.0315Z" fill="#F9A8D4"/>
<path d="M85.8705 38.1515C87.0917 38.4687 88.4798 39.0142 89.5487 39.6943C89.8887 39.9106 89.9303 40.006 90.0121 40.3828C89.7071 41.7027 89.9646 45.6286 89.9288 47.2541L88.5657 47.2645L85.8717 47.2559C85.8696 44.2272 85.7658 41.1773 85.8705 38.1515Z" fill="#F9A8D4"/>
<path d="M81.9872 37.8677C82.6325 37.9196 84.6181 38.1107 85.1104 37.7983L85.573 37.8477C85.7163 38.8057 85.614 39.9109 85.613 40.8852L85.602 47.2316C84.7751 47.4495 84.1652 47.8362 83.5932 48.4701C82.9628 47.858 82.3346 47.495 81.4938 47.2462L81.4861 41.5042C81.4843 40.3902 81.4388 39.2551 81.5276 38.145C81.661 37.9325 81.754 37.9438 81.9872 37.8677Z" fill="#F9A8D4"/>
<path d="M85.8077 47.4764C87.3251 47.6112 88.9074 47.523 90.4325 47.5258L90.4431 55.4984C90.4368 56.9377 90.2753 58.5941 90.4817 60.0077C90.4488 60.3559 90.4645 60.7227 90.4575 61.0731C89.8195 60.9995 87.0883 60.7219 86.6276 60.7938C86.1689 60.8653 85.7128 61.0686 85.2611 61.183C84.7972 61.3005 84.2458 61.2605 83.7679 61.2639L83.7481 48.7631C84.3911 48.0861 84.8575 47.6501 85.8077 47.4764Z" fill="#FEFEFE"/>
<path d="M78.4016 47.5079C80.1245 47.5178 81.9194 47.1966 83.2615 48.5334C83.3361 48.6083 83.4083 48.6855 83.4783 48.7647L83.4762 61.2578C82.7392 61.2673 81.8098 61.376 81.1006 61.2242C80.6621 61.1304 80.1865 60.6813 79.7411 60.7115C79.5201 60.7266 79.3745 60.8822 79.2271 61.0237C78.3393 60.9953 77.4514 60.9802 76.5633 60.9783C76.5595 60.2264 76.5714 59.4708 76.5482 58.7195C76.6278 56.8098 76.6194 54.8517 76.5536 52.9414C76.3725 52.6556 76.2934 52.3653 76.213 52.0406C76.1936 51.6495 76.1914 51.2569 76.1826 50.8655C76.2918 49.8046 75.9559 48.658 76.5487 47.7053C76.5595 47.6852 76.5654 47.6615 76.5812 47.6449C76.7997 47.4161 78.0569 47.5086 78.4016 47.5079Z" fill="#FEFEFE"/>
<path d="M76.5487 47.7053C76.5938 49.4452 76.589 51.2012 76.5536 52.9414C76.3725 52.6556 76.2934 52.3653 76.213 52.0406C76.1936 51.6495 76.1914 51.2569 76.1826 50.8655C76.2918 49.8046 75.9559 48.658 76.5487 47.7053Z" fill="#010001"/>
<path d="M76.2508 64.1485C76.2761 63.9139 76.2427 63.629 76.4365 63.4643C76.8474 63.1153 77.4873 62.9748 77.9238 62.6407C78.2701 62.3758 78.77 61.4956 79.172 61.3948C79.3698 61.3453 79.6363 61.3672 79.8495 61.3255C79.8459 61.2772 79.8397 61.2291 79.8391 61.1807C79.8388 61.1471 79.8441 61.1137 79.8468 61.0803L80.0053 61.1581C81.0918 61.6844 82.2983 61.5249 83.4783 61.5111L83.492 77.4432C80.9341 77.4447 78.3708 77.4104 75.8138 77.4546C75.8264 76.8656 75.8059 76.2532 75.8656 75.6683C76.1325 73.4449 76.0778 71.0863 76.1467 68.8449C76.1936 67.3195 76.3872 65.6642 76.2508 64.1485Z" fill="#F9A8D4"/>
<path d="M90.7518 60.0167C91.82 59.9253 92.7366 59.8908 93.6037 60.6379C94.2173 61.1663 94.71 62.0594 94.7413 62.8784C94.7517 63.1473 94.696 63.2811 94.5144 63.4738C93.9453 63.5329 93.3354 63.4629 92.7809 63.5821L91.3131 63.7246C91.3054 63.4442 91.3442 63.0736 91.1738 62.8473C90.8554 63.4295 91.0375 75.768 91.0388 77.4369C88.6427 77.4111 86.2439 77.4357 83.8477 77.4368L83.8167 61.524C85.1183 61.5231 86.4014 61.3896 87.6994 61.3341C88.7067 61.291 89.7262 61.3359 90.734 61.3557C90.7548 60.9073 90.7586 60.4653 90.7518 60.0167Z" fill="#F9A8D4"/>
<path d="M90.2453 39.7753C91.366 40.3911 92.3103 41.1004 93.1665 42.0562C95.4339 44.5875 99.7368 52.4002 100.68 55.6572C101.173 57.3597 101.577 59.8773 100.619 61.4925C99.822 62.8365 97.427 63.4501 96.0049 63.7733C95.7453 63.8319 95.4841 63.8825 95.2214 63.925C95.2442 68.4053 95.236 72.8855 95.1967 77.3656C95.0631 77.4161 94.8991 77.4509 94.7986 77.5556C97.0375 77.8301 99.3613 77.3706 101.592 77.6217C99.7369 77.821 97.7818 77.7058 95.9118 77.7085C94.7503 77.7101 93.4754 77.8138 92.3279 77.6936C92.0133 77.4718 91.6754 77.4662 91.3052 77.4279L91.2903 63.8713C91.9878 63.8891 92.7275 63.8539 93.406 63.6858L93.3904 63.6299L92.7809 63.5821C93.3354 63.4629 93.9453 63.5329 94.5144 63.4738C94.696 63.2811 94.7517 63.1473 94.7413 62.8784C94.71 62.0594 94.2173 61.1663 93.6037 60.6379C92.7366 59.8908 91.82 59.9253 90.7518 60.0167C90.7586 60.4652 90.7548 60.9073 90.734 61.3557C90.6389 60.9587 90.6752 60.4859 90.6392 60.0735L90.4817 60.0077C90.2753 58.5941 90.4368 56.9377 90.4431 55.4984L90.4324 47.5258C88.9074 47.523 87.3251 47.6112 85.8077 47.4764C86.6783 47.232 88.6378 47.4139 89.6001 47.4225L89.6845 47.3642L89.9205 47.4164L89.8281 47.3852C89.8238 47.3837 89.8197 47.382 89.8155 47.3805L89.6989 47.4229L89.601 47.3523C89.2551 47.3358 88.9104 47.2977 88.5657 47.2645L89.9288 47.2541C89.9646 45.6286 89.7071 41.7027 90.0121 40.3828C90.1099 40.1998 90.1717 39.9711 90.2453 39.7753Z" fill="#831843"/>
<path d="M91.3284 48.0052C91.7846 48.297 92.0791 48.6 92.2278 49.1353C92.4459 49.9208 92.2228 50.6944 91.8482 51.3892C91.7508 51.5407 91.6808 51.6355 91.5314 51.7377L91.3951 51.6536C91.0436 50.652 91.2962 49.0672 91.3284 48.0052Z" fill="#F9A8D4"/>
<path d="M71.2341 63.6948C70.7263 63.5967 70.2246 63.4739 69.7289 63.3263C68.4926 62.9518 67.2437 62.3645 66.6262 61.1649C65.6706 59.3083 66.0751 56.8945 66.6753 54.9936C67.7959 51.4442 71.2321 44.5124 73.7463 41.9035C74.6009 41.0167 75.5433 40.4245 76.6318 39.8624C77.3172 40.6526 76.5732 42.0946 77.0914 42.9324C77.1881 44.3637 77.1165 45.8206 77.1379 47.2568C77.6144 47.2584 78.0952 47.2478 78.571 47.267C78.4038 47.2794 77.3086 47.3225 77.2413 47.3969C77.6284 47.4314 78.0151 47.4684 78.4016 47.5079C78.0569 47.5086 76.7997 47.4161 76.5813 47.6449C76.5654 47.6615 76.5595 47.6852 76.5487 47.7053C75.9559 48.658 76.2918 49.8046 76.1826 50.8655C76.1915 51.2569 76.1936 51.6495 76.213 52.0406C76.2934 52.3653 76.3725 52.6556 76.5536 52.9414C76.6194 54.8517 76.6278 56.8099 76.5482 58.7195C76.331 59.0821 76.334 59.5382 76.2909 59.9515C75.4034 59.9059 74.5153 59.838 73.813 60.497C73.0017 61.2585 72.8958 62.6756 72.8597 63.7289C72.426 63.6554 71.9751 63.5507 71.5397 63.6545C72.0436 63.7386 73.6026 64.0939 74.034 64.0511C74.4761 64.0073 75.7304 63.5297 76.0525 63.7054L76.0882 64.0716L76.2508 64.1485C76.3873 65.6642 76.1936 67.3195 76.1467 68.8448C76.0778 71.0862 76.1325 73.4449 75.8656 75.6683L75.7849 75.2101C75.5105 75.7351 75.6513 76.898 75.6621 77.493C75.2716 77.521 74.8978 77.5145 74.5479 77.7078C72.6191 77.8598 70.6156 77.7608 68.6789 77.7647C66.96 77.7682 65.1628 77.8756 63.4531 77.7608C64.0457 77.4195 70.6844 77.9471 71.3553 77.604C70.7858 77.3236 66.4254 77.6061 65.3768 77.4813C65.3489 77.4781 65.3212 77.4741 65.2934 77.4703C67.1511 77.2604 69.2767 77.4314 71.1605 77.4384C71.1544 72.8569 71.1789 68.2757 71.2341 63.6948Z" fill="#831843"/>
<path d="M76.213 52.0406C75.9955 51.8065 75.8099 51.5675 75.6567 51.2858C75.3627 50.7455 75.1932 49.7514 75.4318 49.1698C75.5364 48.9149 75.6765 48.7885 75.9279 48.6907C76.2984 49.0742 76.1397 50.3074 76.1827 50.8655C76.1915 51.2569 76.1936 51.6495 76.213 52.0406Z" fill="#F9A8D4"/>
<path d="M31.9606 83.7282L60.5613 83.7212C65.5972 83.7224 70.6459 83.6509 75.6803 83.7413C75.533 84.6728 75.6517 85.673 75.9108 86.5745C75.3066 87.0171 74.8648 87.4423 74.7302 88.2151C74.5924 89.0043 74.901 89.7652 75.3789 90.3821C75.7081 90.8069 76.1289 91.1611 76.5444 91.4983C76.7192 92.5717 77.2259 93.4454 78.1182 94.0784C78.5474 94.3827 79.0318 94.6376 79.4908 94.8941L79.5536 96.0254C81.6467 95.6114 84.1224 95.6248 86.2346 95.974C86.87 96.0789 87.5096 96.3125 88.1373 96.3935C89.6424 96.8587 91.4872 98.1924 92.2251 99.6115C92.3974 99.9425 92.4901 100.324 92.5905 100.682C96.8545 102 99.5857 103.933 101.7 107.89C103.199 110.696 104.018 113.89 104.835 116.945C105.476 119.334 106.093 121.729 106.687 124.131C107.262 126.448 108.034 128.883 108.332 131.25C108.462 132.276 108.498 133.412 108.188 134.41C107.776 135.738 106.73 137.14 105.48 137.784C104.138 138.475 102.468 138.704 101.025 138.213C100.925 138.179 100.828 138.143 100.731 138.1L100.076 137.819C100.146 138.327 100.228 138.823 100.339 139.324L107.869 139.383C108.914 139.384 110.063 139.48 111.096 139.355C110.472 139.016 109.94 138.687 109.519 138.092C109.164 137.59 108.919 136.893 108.929 136.275C108.953 134.677 109.581 132.897 109.937 131.329C110.522 128.755 111.084 126.185 111.526 123.582C110.031 123.563 108.498 123.641 107.011 123.516C108.517 123.346 110.098 123.657 111.594 123.441L111.68 123.265C112.344 120.224 113.146 117.263 114.482 114.44C116.731 109.689 118.766 107.651 123.741 105.877C124.609 102.791 122.953 99.9997 123.419 96.9507C123.524 96.2796 123.693 95.6252 123.927 94.9875C124.242 94.1406 125.814 91.0444 125.538 90.3474C125.278 90.168 124.989 90.2344 124.691 90.256C124.908 90.2017 125.095 90.1004 125.294 89.9998C125.39 89.9971 125.679 89.9905 125.748 89.928C125.981 89.7167 126.297 88.5348 126.499 88.1689C126.743 87.7303 127.098 87.3072 127.455 86.9552C129.244 85.1905 131.669 84.6913 134.097 84.7208C136.578 85.2755 138.713 85.8488 140.169 88.1314C142.506 91.7954 141.251 94.9775 142.277 98.4849C143.143 101.443 144.833 102.085 144.799 105.747C145.753 106.411 146.72 107.058 147.577 107.848C149.898 109.987 151.433 113.064 151.991 116.15C152.043 116.448 152.085 116.747 152.117 117.047C152.558 120.65 152.963 124.257 153.332 127.868C153.486 129.403 153.819 131.094 153.67 132.628C153.596 133.385 153.367 133.999 152.897 134.6C152.074 135.651 150.95 136.124 149.691 136.427C150.457 139.335 151.028 142.292 151.644 145.235C148.986 145.237 121.571 145.107 121.103 145.347L121.054 145.514C121.201 145.669 121.28 145.737 121.501 145.751C122.397 145.81 123.343 145.739 124.243 145.73L129.727 145.697L147.075 145.705C148.274 145.707 149.485 145.728 150.682 145.674C151.498 145.637 152.407 145.434 153.215 145.536C153.987 145.632 154.762 145.981 155.315 146.531C156.167 147.379 156.444 149.442 156.612 149.53C156.673 149.561 156.915 149.55 156.996 149.555C158.361 149.55 166.337 149.347 166.945 149.643L167 149.821C165.732 150.104 163.083 149.914 161.708 149.912L150.696 149.914L122.301 149.923C117.499 149.93 112.68 150.038 107.879 149.969L107.448 149.976L59.2742 149.974C57.0369 150.047 54.7764 149.941 52.5359 149.949L34.1044 149.939L18.3865 149.961C15.6878 149.962 12.9731 150.023 10.2762 149.929L10.2967 149.659C10.2872 148.611 10.5341 147.609 11.2529 146.817C11.8689 146.139 12.3477 145.856 13.2521 145.713C14.2098 145.561 15.2196 145.67 16.1864 145.68L20.9859 145.703L37.7352 145.767C40.372 145.77 43.1027 145.922 45.7298 145.748C45.9089 145.6 45.9067 145.617 45.9319 145.386C45.7233 145.224 45.4015 145.25 45.138 145.242C42.0706 145.151 38.9611 145.262 35.8889 145.258L15.2879 145.236C15.5517 142.281 16.2892 139.299 16.9433 136.408C16.8057 136.396 16.6689 136.378 16.5329 136.354C15.4506 136.16 14.3218 135.408 13.7164 134.508C13.3079 133.9 13.109 133.244 13.0765 132.516C13.0074 130.974 13.3791 129.344 13.565 127.813C14.0179 124.084 14.4345 120.331 15.1694 116.646C15.5105 115.198 15.7897 113.755 16.3895 112.382C18.2861 108.039 21.398 106.081 25.6734 104.427C25.7102 102.716 26.1027 99.9927 26.973 98.5111C26.2921 98.3058 25.7545 98.0805 25.3609 97.4511C25.1117 97.0525 25.0257 96.5815 25.1375 96.1229C25.2976 95.4659 25.7412 95.0524 26.2888 94.698L27.4135 94.6089C27.098 93.6924 26.8955 92.6409 26.8496 91.6716C26.7977 90.5719 27.0072 89.4477 27.7886 88.6226C28.8012 87.5531 30.2812 87.5274 31.6481 87.4723C31.6283 86.2395 31.5517 84.9568 31.6675 83.7298C31.8255 84.9216 31.5411 86.2183 31.7694 87.3848L31.9178 87.4211C32.023 86.205 31.9642 84.9496 31.9606 83.7282Z" fill="#831843"/>
<path d="M116.83 113.131C117.424 113.308 119.978 115.769 120.402 116.416L120.346 116.653C120.17 116.623 120.059 116.571 119.92 116.461C119.477 116.114 116.957 113.738 116.869 113.438C116.84 113.339 116.843 113.234 116.83 113.131Z" fill="#FEFEFE"/>
<path d="M156.996 149.555C158.361 149.55 166.337 149.347 166.945 149.643L167 149.821C165.551 149.763 157.555 150.013 156.939 149.728L156.996 149.555Z" fill="#010001"/>
<path d="M16.6564 118.676C16.8052 118.723 16.8714 118.757 16.9964 118.842C17.2661 120.056 18.0247 130.496 17.8945 131.3L17.589 131.196C17.5295 131.089 17.5083 131.065 17.4793 130.928C17.4182 130.637 17.4711 130.228 17.4518 129.917L17.2393 126.791C17.1283 125.109 17.0027 123.428 16.8624 121.748C16.7786 120.754 16.5938 119.67 16.6564 118.676Z" fill="#FEFEFE"/>
<path d="M27.286 102.788C28.9287 102.674 30.6185 102.749 32.2648 102.752C34.334 102.756 36.4147 102.716 38.4826 102.77C38.734 102.776 38.8697 102.744 39.0535 102.933L39.0456 103.204L30.3679 103.206C29.7116 103.206 27.9438 103.339 27.3759 103.179C27.3168 103.163 27.2805 103.102 27.2326 103.063L27.286 102.788Z" fill="#FEFEFE"/>
<path d="M150.014 118.403C150.202 118.473 150.207 118.456 150.344 118.623C150.316 120.595 150.071 122.582 149.942 124.552C149.802 126.691 149.794 128.954 149.417 131.062L149.2 130.99C149.009 130.669 149.782 119.54 150.014 118.403Z" fill="#FEFEFE"/>
<path d="M44.601 120.217C44.6975 120.259 44.7898 120.324 44.8802 120.378C45.2984 121.384 45.6451 124.378 45.8515 125.577C46.4245 128.905 47.1175 132.248 47.5591 135.594C47.5979 135.888 47.6116 136.121 47.558 136.415L47.3453 136.3C47.0733 135.804 44.5285 120.72 44.601 120.217Z" fill="#FEFEFE"/>
<path d="M121.603 119.386C121.716 119.435 121.754 119.473 121.839 119.559C121.932 120.246 119.649 136.095 119.431 136.571L119.236 136.425C119.169 136.16 119.193 135.928 119.221 135.659C119.542 132.598 120.104 129.52 120.531 126.469C120.824 124.379 121.083 121.34 121.603 119.386Z" fill="#FEFEFE"/>
<path d="M27.4135 94.6089C28.0559 96.3396 28.7412 97.42 30.2637 98.5107C29.1765 98.445 28.0567 98.3796 26.973 98.5111C26.2921 98.3058 25.7544 98.0805 25.3609 97.4511C25.1116 97.0525 25.0257 96.5815 25.1375 96.123C25.2976 95.4659 25.7411 95.0524 26.2888 94.698L27.4135 94.6089Z" fill="#FEB997"/>
<path d="M40.0845 94.6087C40.2274 94.636 40.3691 94.6646 40.513 94.6865C41.1094 94.7768 41.7899 95.2608 42.1357 95.752C42.3412 96.0443 42.4252 96.3588 42.3522 96.7129C42.2209 97.3491 41.6666 97.983 41.1223 98.3146C40.7917 98.516 40.2357 98.5856 40.0056 98.8669C39.852 98.702 37.4074 98.5436 36.9323 98.4802C38.614 97.2823 39.2088 96.4493 40.0845 94.6087Z" fill="#FEB997"/>
<path d="M65.4958 145.276C67.0372 145.163 68.6398 145.248 70.1876 145.248L79.2464 145.249L93.4815 145.256C96.0036 145.258 98.5389 145.208 101.06 145.272C101.298 145.279 101.508 145.266 101.704 145.42L101.709 145.643C100.452 145.822 99.0349 145.704 97.7589 145.702L89.9344 145.688L73.8498 145.67C71.3727 145.664 68.8757 145.716 66.4016 145.657C66.1057 145.649 65.7917 145.662 65.5317 145.505L65.4958 145.276Z" fill="#FEFEFE"/>
<path d="M48.8378 139.061C51.3155 139.412 54.0514 140.014 56.4962 139.284C57.746 139.379 59.0298 139.329 60.2842 139.326L66.7215 139.304C66.5645 140.514 66.542 141.723 66.5268 142.941C66.5126 143.62 66.5062 144.299 66.5075 144.978C64.5306 144.968 61.9263 144.856 60.389 146.343C59.3677 147.331 59.5079 149.42 59.1098 149.602C58.9897 149.657 58.5997 149.629 58.4473 149.636L58.3077 149.608C58.2633 149.569 58.2065 149.54 58.1745 149.49C58.1562 149.461 57.8777 147.49 57.6966 147.03C57.5324 146.612 57.3113 146.173 57.0074 145.838C55.451 144.123 51.2501 142.192 49.0649 141.227C48.9745 140.507 48.8988 139.785 48.8378 139.061Z" fill="#F9A8D4"/>
<path d="M111.096 139.355C113.471 139.598 115.937 139.398 118.326 139.504C118.124 140.304 117.943 141.108 117.782 141.917C114.829 142.918 110.437 144.014 108.945 147.025C108.647 147.627 108.512 148.207 108.458 148.874C108.44 149.078 108.423 149.282 108.408 149.486C108.122 149.46 107.837 149.5 107.552 149.526L107.419 149.368C107.355 148.28 107.05 147.201 106.256 146.408C104.849 145.003 102.56 145.087 100.717 145.045C100.703 144.32 100.682 143.595 100.655 142.871C100.468 141.717 100.452 140.492 100.339 139.324L107.869 139.383C108.914 139.384 110.063 139.48 111.096 139.355Z" fill="#F9A8D4"/>
<path d="M31.9605 83.7282L60.5612 83.7212C65.5972 83.7224 70.6459 83.6509 75.6802 83.7413C75.533 84.6728 75.6516 85.673 75.9107 86.5745C75.3066 87.0171 74.8648 87.4423 74.7302 88.2151C74.5924 89.0043 74.901 89.7652 75.3789 90.3821C75.7081 90.8069 76.1288 91.1611 76.5444 91.4983C76.7191 92.5717 77.2258 93.4454 78.1182 94.0784C78.5474 94.3827 79.0318 94.6376 79.4908 94.8941L79.5536 96.0254C77.6885 96.6238 75.6923 97.7378 74.7363 99.524C74.612 99.7563 74.5115 99.9824 74.45 100.238L74.5049 100.457C70.3841 101.761 67.0236 104.169 65.0141 108.063C63.8792 110.262 63.2592 112.748 62.4454 115.079L62.1894 115.282L62.3129 115.409C62.1732 116.451 61.8639 117.496 61.6185 118.519C61.2335 120.124 60.8669 121.736 60.4539 123.334L60.325 123.591C58.7402 123.596 57.1527 123.62 55.5684 123.573C55.2775 123.544 54.9988 123.544 54.7478 123.378C54.26 120.626 53.692 117.963 52.5972 115.375C50.389 110.156 46.3812 106.633 41.173 104.521C40.6924 102.854 40.1851 100.591 40.0055 98.8669C40.2357 98.5856 40.7916 98.5159 41.1223 98.3146C41.6665 97.983 42.2209 97.3491 42.3521 96.7129C42.4251 96.3588 42.3412 96.0443 42.1357 95.752C41.7899 95.2607 41.1093 94.7768 40.5129 94.6865C40.3691 94.6646 40.2274 94.636 40.0844 94.6087C40.6073 93.2441 40.7503 91.7124 40.8001 90.2644C46.0779 90.2793 51.3736 90.353 56.6494 90.249C55.5569 89.9896 53.0393 90.1656 51.7568 90.1674C48.2323 90.186 44.7078 90.1835 41.1832 90.1599L41.1726 90.0013L41.0588 90.0325L41.03 90.108L40.9876 90.0755C41.3639 90.0532 41.7207 90.027 42.0907 89.9488L42.1767 89.93C41.7164 89.917 41.2516 89.9298 40.7909 89.9307C40.7826 89.5664 40.7754 89.1996 40.7247 88.8384C40.562 87.6767 40.1499 86.48 39.1581 85.7684C37.2241 84.3804 36.0838 86.0807 34.512 86.838C33.714 87.2226 32.7858 87.2997 31.9178 87.4211C32.0229 86.205 31.9641 84.9496 31.9605 83.7282Z" fill="#FEFEFE"/>
<path d="M54.7478 123.378C55.7979 123.078 59.2316 123.246 60.4539 123.334L60.325 123.591C58.7402 123.597 57.1527 123.621 55.5685 123.574C55.2775 123.544 54.9988 123.544 54.7478 123.378Z" fill="#010001"/>
<path d="M42.1767 89.93C45.0859 89.9053 47.9952 89.8979 50.9045 89.9079C53.9225 89.909 57.0644 89.697 60.008 90.4755C60.4111 90.579 60.8094 90.6984 61.203 90.8339C61.5965 90.9694 61.9839 91.1205 62.3652 91.2871C62.7466 91.4536 63.1207 91.6352 63.4874 91.8319C63.8542 92.0285 64.2125 92.2395 64.5622 92.4649C66.7532 93.876 68.7177 96.4617 71.6039 96.1108C72.5533 95.9953 73.3768 95.5291 74.1999 95.0772C73.5977 95.8512 72.7471 96.3008 71.7731 96.417C68.3653 96.8241 66.0231 93.5157 63.2869 92.0575C61.1834 90.9366 58.9993 90.4843 56.6494 90.249C55.5569 89.9896 53.0393 90.1656 51.7568 90.1674C48.2323 90.186 44.7078 90.1835 41.1832 90.1599L41.1726 90.0013L41.0588 90.0325L41.03 90.108L40.9876 90.0755C41.3639 90.0532 41.7207 90.027 42.0907 89.9488L42.1767 89.93Z" fill="#010001"/>
<path d="M58.5599 115.314C58.4748 111.391 58.5029 107.458 58.5074 103.535C58.5092 102.028 58.3114 99.0187 58.6715 97.662C58.9437 97.5451 59.1892 97.6139 59.4576 97.7042C61.0759 98.2492 62.9642 99.7053 63.4908 101.384C63.8128 102.411 63.6185 107.836 63.626 109.344C63.6284 109.813 63.4818 110.701 63.6751 111.092L63.5566 111.075C63.5356 111.182 63.5618 111.136 63.4701 111.209C63.2391 110.616 63.3061 109.827 63.2999 109.195C63.2886 107.662 63.2946 106.129 63.318 104.596C63.3266 103.764 63.4036 102.876 63.2952 102.052C63.2788 101.933 63.2565 101.816 63.2283 101.699C63.2002 101.583 63.1664 101.468 63.1267 101.355C63.0871 101.242 63.042 101.131 62.9913 101.022C62.9407 100.914 62.8848 100.808 62.8236 100.705C61.984 99.2602 60.4471 98.2884 58.8609 97.8673C58.7774 99.8186 58.838 101.8 58.8378 103.754L58.851 115.043C59.9586 115.042 61.3822 114.835 62.4454 115.08L62.1894 115.282C60.982 115.33 59.7683 115.312 58.5599 115.314Z" fill="#010001"/>
<path d="M79.5536 96.0254C81.6467 95.6114 84.1224 95.6249 86.2345 95.9741C86.87 96.079 87.5095 96.3125 88.1372 96.3935C89.6424 96.8587 91.4872 98.1924 92.2251 99.6115C92.3973 99.9425 92.4901 100.324 92.5904 100.682C96.8545 102 99.5857 103.933 101.7 107.89C103.199 110.696 104.018 113.89 104.835 116.945C105.476 119.334 106.093 121.729 106.687 124.131C107.262 126.448 108.034 128.883 108.332 131.25C108.462 132.276 108.498 133.412 108.188 134.41C107.776 135.738 106.73 137.14 105.48 137.784C104.138 138.475 102.468 138.704 101.025 138.213C100.925 138.18 100.828 138.143 100.731 138.1L100.076 137.819C100.146 138.327 100.228 138.823 100.339 139.324C100.452 140.492 100.468 141.717 100.654 142.871C96.0901 141.757 92.7799 142.04 88.298 143.11C86.681 143.496 85.0908 143.968 83.4123 143.969C81.5985 143.969 79.8472 143.529 78.0959 143.11C74.1593 142.168 70.4701 141.802 66.5268 142.941C66.5421 141.723 66.5645 140.514 66.7215 139.304L60.2842 139.326C59.0298 139.329 57.746 139.379 56.4962 139.284C56.9688 138.947 57.4035 138.603 57.6923 138.088C59.0868 135.603 56.1302 129.684 55.435 126.936C55.3138 126.457 54.6836 123.948 54.8841 123.614L55.5684 123.573C57.1527 123.62 58.7402 123.596 60.325 123.591L60.4539 123.334C60.8669 121.736 61.2335 120.124 61.6185 118.519C61.8639 117.496 62.1732 116.451 62.3129 115.409L62.1894 115.282L62.4454 115.08C63.2592 112.748 63.8792 110.262 65.0141 108.063C67.0236 104.169 70.3841 101.761 74.5049 100.457L74.45 100.238C74.5115 99.9824 74.612 99.7563 74.7363 99.524C75.6923 97.7378 77.6885 96.6238 79.5536 96.0254Z" fill="#A5B4FC"/>
<path d="M74.45 100.238C79.512 99.4947 84.4723 99.1434 89.5602 99.8188C90.481 99.9411 91.6227 100.038 92.4621 100.44L92.4617 100.441L92.3792 100.395L92.3054 100.485C91.3453 100.49 90.3979 100.273 89.4507 100.133C88.4641 99.9906 87.4728 99.8957 86.4771 99.8484C82.4436 99.6397 78.5087 100.041 74.5049 100.457L74.45 100.238Z" fill="#010001"/>
<path d="M68.1687 114.094L68.3419 114.198C68.444 114.385 68.4363 114.57 68.444 114.778C68.4953 116.155 68.4318 117.554 68.4217 118.933L68.3942 126.646L68.3944 131.992C68.3948 133.031 68.4744 134.146 68.3081 135.174C68.152 136.136 67.7766 136.908 67.1154 137.618L67.0081 137.563C67.0041 137.031 67.6658 136.344 67.8611 135.81C68.0262 135.359 68.0815 134.853 68.0975 134.374C68.1506 132.774 68.1013 131.155 68.1027 129.553L68.1096 120.088C68.1085 118.119 67.9648 116.046 68.1687 114.094Z" fill="#010001"/>
<path d="M100.076 137.819C99.1193 136.94 98.6556 136.296 98.6035 134.974C98.5224 132.912 98.5486 115.173 98.7856 114.809C98.9134 114.971 98.9463 115.108 98.9625 115.309C99.0974 116.979 98.974 118.765 98.972 120.445L98.9602 130.906C98.9595 132.323 98.7432 134.779 99.1626 136.1C99.3878 136.809 100.096 137.379 100.605 137.893C100.704 137.993 100.671 137.955 100.731 138.1L100.076 137.819Z" fill="#010001"/>
<path d="M55.5684 123.573C57.1527 123.62 58.7402 123.596 60.325 123.591L60.3113 123.685C59.7518 127.323 56.9635 132.725 59.5058 136.1C60.4541 137.359 62.0579 138.219 63.6184 138.391C64.8738 138.528 65.8949 138.162 66.9632 137.559C66.8666 138.139 66.7907 138.72 66.7215 139.304L60.2842 139.326C59.0298 139.329 57.746 139.379 56.4962 139.284C56.9688 138.947 57.4035 138.603 57.6923 138.088C59.0868 135.603 56.1302 129.684 55.435 126.936C55.3138 126.457 54.6836 123.948 54.8841 123.614L55.5684 123.573Z" fill="#FEFEFE"/>
</svg>
