<svg width="309" height="262" viewBox="0 0 309 262" fill="none" xmlns="http://www.w3.org/2000/svg">
<path d="M293.879 218.853C294.07 219.162 294.146 219.214 294.052 219.586C293.748 220.787 292.689 222.126 292.013 223.179C291.983 222.934 291.955 222.71 291.987 222.463C292.152 221.153 292.768 219.62 293.879 218.853Z" fill="#16001F"/>
<path d="M231.799 213.715L256.711 213.746C257.848 214.294 258.867 215.035 259.831 215.844L231.879 215.937C231.858 215.196 231.831 214.456 231.799 213.715Z" fill="#5B21B6"/>
<path d="M282.301 245.775L262.791 224.929C260.498 222.505 257.945 220.261 255.739 217.769C255.359 217.34 255.05 216.936 254.828 216.407L254.906 216.242C255.653 216.384 256.285 216.889 256.853 217.371C261.281 221.127 265.161 225.641 269.158 229.828L291.799 253.761C293.753 255.819 296.344 259.129 298.488 260.77C300.796 260.748 303.517 260.462 305.777 260.823C302.709 260.997 299.576 260.855 296.503 260.826C296.022 259.315 284.407 247.858 282.301 245.775Z" fill="#5B21B6"/>
<path d="M152.766 0C153.143 0.0788111 153.671 0.23209 153.918 0.550674C154.126 0.818498 154.172 1.17949 154.202 1.50476C154.42 3.8928 155.476 28.3239 155.181 29.267C155.013 29.8066 154.63 29.9469 154.187 30.2428C153.582 30.1446 153.142 30.0828 152.638 29.7228C151.988 28.747 152.25 22.5797 152.223 21.1174C152.136 16.5103 151.919 11.9245 151.748 7.32141C151.682 5.5652 151.307 2.88529 151.639 1.22491C151.76 0.617465 152.287 0.315578 152.766 0Z" fill="#4F46E5"/>
<path d="M136.429 33.7351C135.019 31.6777 121.43 13.8601 121.344 13.0105C121.339 12.9617 121.349 12.9123 121.362 12.8649C121.462 12.4899 121.889 12.0384 122.23 11.8627C122.628 11.658 123.039 11.7125 123.439 11.8707C124.013 12.0972 124.501 12.6619 124.88 13.1217C126.577 15.1791 127.939 17.5622 129.542 19.7001C133.786 25.3585 138.133 30.9948 142.195 36.7867C142.056 36.9838 142.052 37.0005 141.865 37.2065C141.475 37.637 140.873 38.1673 140.249 38.1359C138.895 38.0684 137.532 34.9073 136.616 33.9285C136.555 33.863 136.491 33.7996 136.429 33.7351Z" fill="#4F46E5"/>
<path d="M190.939 39.6644C191.998 37.9192 192.772 35.9362 193.731 34.1269C195.075 31.5919 202.117 19.0813 203.896 18.2254C204.33 18.0171 204.734 18.0231 205.178 18.2044C205.582 18.37 205.926 18.7521 206.057 19.1625C206.122 19.3645 206.127 19.5378 206.081 19.7452C205.827 20.877 203.424 23.7973 202.657 25.0259C199.814 29.5756 197.307 34.1596 194.922 38.9591C193.638 41.1605 192.595 43.5011 191.593 45.839C191.075 47.0479 190.64 48.6028 189.898 49.6681C189.622 50.0641 189.251 50.383 188.76 50.4779C188.358 50.5557 187.796 50.4862 187.461 50.2331C187.114 49.9696 186.961 49.4971 186.947 49.0783C186.885 47.2296 190.037 41.642 190.939 39.6644Z" fill="#EC5D99"/>
<path d="M282.787 214.221L283.087 214.193L284.464 214.56C285.783 215.086 287.078 215.754 288.432 216.174C290.217 217.002 292.058 218.188 293.879 218.853C292.768 219.62 292.152 221.153 291.987 222.463C291.955 222.71 291.983 222.934 292.013 223.179C291.63 224.351 290.759 225.67 290.175 226.766C288.988 228.968 287.83 231.185 286.701 233.416C283.275 231.348 283.501 226.668 282.368 223.276L282.273 222.999L279.082 221.447C279.267 220.385 282.077 215.317 282.787 214.221Z" fill="#21005B"/>
<path d="M115.69 260.811C123.527 260.848 131.365 260.842 139.202 260.793L193.955 260.834L232.506 260.819C239.167 260.823 245.851 260.949 252.51 260.843C264.198 260.961 275.886 260.963 287.574 260.851C290.528 260.89 293.556 261.005 296.503 260.826C299.576 260.855 302.709 260.997 305.777 260.823L306.031 260.912C306.251 261.208 306.239 261.222 306.23 261.593L305.906 261.831C303.318 262.008 300.661 261.922 298.066 261.923L283.848 261.881L244.994 261.86L113.633 261.815L35.3726 261.877L13.6795 261.886C10.4502 261.886 6.29606 262.237 3.15513 261.708L3.04758 261.258C4.4073 260.414 8.86452 260.832 10.6573 260.855C11.3004 260.837 11.9429 260.815 12.5864 260.824C21.0703 260.728 29.5619 260.835 38.0469 260.842L83.7076 260.836C91.8035 260.834 99.9388 261.014 108.029 260.833L115.69 260.811Z" fill="#21005B"/>
<path d="M153.593 240.892C157.958 241.001 162.365 240.848 166.734 240.842L193.412 240.832L202.335 240.796C204.045 240.79 206.031 240.615 207.708 240.956C209.768 241.375 211.556 242.963 213.558 243.643C213.631 243.667 213.705 243.691 213.779 243.715C213.754 244.265 213.652 244.8 213.974 245.279C216.433 245.77 220.565 244.996 223.264 245.029L223.183 245.287C224.323 246.461 228.166 247.828 229.789 248.606C233.047 250.168 236.234 251.887 239.447 253.536C242.971 255.345 246.451 257.127 249.857 259.156C250.724 259.673 251.758 260.171 252.51 260.843C245.851 260.949 239.167 260.823 232.506 260.819L193.955 260.834L139.202 260.793C131.365 260.842 123.527 260.848 115.69 260.811C117.044 260.601 118.555 260.707 119.931 260.704L127.345 260.695L153.485 260.699C153.655 254.098 153.691 247.495 153.593 240.892Z" fill="#EC5D99"/>
<path d="M231.901 216.425C235.613 216.553 239.352 216.475 243.068 216.464C247.222 218.837 251.044 222.191 254.835 225.108C261.87 230.524 268.851 236.01 276.097 241.152C278.119 242.587 280.099 244.671 282.301 245.775C284.407 247.859 296.022 259.315 296.503 260.826C293.556 261.005 290.528 260.89 287.574 260.851C275.886 260.963 264.198 260.961 252.51 260.843C251.758 260.171 250.724 259.673 249.856 259.156C246.451 257.127 242.971 255.345 239.447 253.536C236.234 251.887 233.046 250.168 229.789 248.606C228.166 247.828 224.323 246.461 223.183 245.287L223.264 245.029C220.564 244.996 216.433 245.77 213.973 245.279C213.652 244.8 213.754 244.265 213.779 243.715C213.852 242.931 214.054 242.239 214.435 241.543C215.206 240.133 216.714 238.763 218.282 238.283C218.467 237.263 218.647 236.28 218.998 235.3L219.123 233.665L220.208 233.635C221.325 233.588 227.995 233.176 228.57 233.63C228.796 233.411 229.073 233.367 229.365 233.259C230.964 232.67 231.314 231.987 232.047 230.537C232.331 227.782 232.269 219.005 231.901 216.425Z" fill="#EC5D99"/>
<path d="M232.047 230.537C233.836 231.818 237.25 233.668 237.565 235.979C237.683 236.848 237.462 237.796 236.908 238.488C235.736 239.951 233.013 239.799 231.344 240.394C234.338 240.979 237.433 240.645 240.393 241.288C242.898 241.832 245.295 243.288 247.728 244.136C247.996 242.733 248.183 241.544 249.486 240.704C250.302 240.177 251.319 240.074 252.251 240.313C253.124 240.537 253.889 241.095 254.323 241.883C254.778 242.71 254.789 243.72 254.502 244.604C254.302 245.223 254.012 245.798 253.683 246.358C260.838 249.167 267.916 252.081 275.012 255.033C278.515 256.491 284.674 258.578 287.574 260.851C275.886 260.963 264.198 260.961 252.51 260.843C251.758 260.171 250.724 259.673 249.856 259.156C246.451 257.127 242.971 255.345 239.447 253.536C236.234 251.887 233.046 250.168 229.789 248.606C228.166 247.828 224.323 246.461 223.183 245.287L223.264 245.029C220.564 244.996 216.433 245.77 213.973 245.279C213.652 244.8 213.754 244.265 213.779 243.715C213.852 242.931 214.054 242.239 214.435 241.543C215.206 240.133 216.714 238.763 218.282 238.283C218.467 237.263 218.647 236.28 218.998 235.3L219.123 233.665L220.208 233.635C221.325 233.588 227.995 233.176 228.57 233.63C228.796 233.411 229.073 233.367 229.365 233.259C230.964 232.67 231.314 231.987 232.047 230.537Z" fill="#FEFEFE"/>
<path d="M220.208 233.635C221.325 233.588 227.995 233.176 228.57 233.63C229.007 235.91 230.369 242.465 229.706 244.494C228.492 245.392 224.833 245.026 223.264 245.029C220.564 244.996 216.433 245.77 213.973 245.279C213.652 244.8 213.754 244.265 213.779 243.715C213.852 242.931 214.054 242.239 214.435 241.543C215.206 240.133 216.714 238.763 218.282 238.283C218.467 237.263 218.647 236.28 218.998 235.3L219.123 233.665L220.208 233.635Z" fill="#21005B"/>
<path d="M219.123 233.665L220.208 233.635C220.209 234.026 220.249 234.544 219.989 234.868C219.682 235.249 219.452 235.235 218.998 235.3L219.123 233.665Z" fill="#16001F"/>
<path d="M250.287 154.555C253.16 151.993 255.349 146.078 255.653 142.291C258.934 145.489 262.702 148.564 266.528 151.099C267.179 149.309 270.799 144.979 272.254 143.568C277.912 147.001 282.592 151.174 287.106 155.975C288.386 157.755 291.637 162.093 291.569 164.204C291.564 164.373 291.521 164.435 291.457 164.571L291.129 164.731L290.699 164.97C290.622 166.662 292.571 171.227 293.225 172.976C294.458 176.334 295.829 179.635 297.339 182.879C298.618 185.634 300.042 188.337 301.205 191.142C306.179 203.137 309.793 217.453 308.85 230.51C308.608 233.868 307.92 237.128 307.164 240.401C306.137 244.843 304.447 251.842 301.846 255.554C301.754 255.848 301.708 255.944 301.533 256.179C301.266 255.82 301.295 255.288 301.286 254.846C301.213 251.038 301.342 247.198 301.343 243.385C301.361 234.24 301.328 225.096 301.243 215.952C299.305 215.951 289.669 215.625 288.432 216.174C287.078 215.754 285.783 215.086 284.464 214.56L283.087 214.193L282.787 214.221C284.123 211.95 284.865 209.653 285.515 207.119C283.861 206.598 282.05 206.13 280.529 205.295L279.992 205.109C277.165 203.754 274.117 202.525 271.455 200.881C268.943 199.993 262.956 196.571 261.77 194.299C260.566 191.991 261.003 188.251 260.789 185.689C259.93 175.376 256.817 162.79 250.287 154.555Z" fill="#E8EBF3"/>
<path d="M284.464 214.56C288.348 214.154 292.426 214.379 296.339 214.369C298.224 214.364 300.264 214.164 302.126 214.322C302.634 214.365 303.023 214.507 303.472 214.736L303.667 215.076C303.489 215.427 303.343 215.656 302.946 215.793C302.693 215.88 302.391 215.884 302.127 215.915C302.035 215.925 301.944 215.938 301.852 215.949L301.68 215.969L301.781 241.785C301.788 246.344 301.621 251.008 301.846 255.554C301.754 255.848 301.708 255.944 301.533 256.179C301.266 255.82 301.295 255.288 301.286 254.846C301.213 251.038 301.342 247.198 301.343 243.385C301.361 234.24 301.328 225.096 301.243 215.952C299.305 215.951 289.669 215.625 288.432 216.174C287.078 215.754 285.783 215.086 284.464 214.56Z" fill="#5B21B6"/>
<path d="M272.254 143.568C277.912 147.001 282.592 151.174 287.106 155.975C288.386 157.755 291.637 162.093 291.569 164.204C291.564 164.373 291.521 164.435 291.457 164.571L291.129 164.731L290.685 164.641C290.53 164.382 290.423 164.26 290.168 164.096L289.987 164.255C290.014 164.479 290.055 164.722 290.06 164.949C290.07 165.448 290.088 165.481 289.755 165.825L289.436 165.774C289.152 165.48 289.004 165.271 288.853 164.888C288.697 164.494 288.525 164.141 288.324 163.767L288.124 163.744C288.043 164.256 288.061 164.571 287.728 164.977L287.327 164.998C286.269 164.428 286.114 160.984 285.58 159.821C285.557 159.77 285.533 159.721 285.509 159.672C283.725 158.838 281.823 158.201 279.982 157.5C275.232 155.692 270.787 153.919 266.529 151.099C267.179 149.309 270.799 144.979 272.254 143.568Z" fill="#FEB997"/>
<path d="M271.455 200.881C270.866 200.097 270.146 199.251 270.291 198.202C270.593 196.016 273.677 195.463 274.035 192.899C274.633 188.612 270.371 185.39 270.932 180.775C271.158 178.91 272.104 177.613 273.62 176.527C276.141 174.72 279.619 174.088 282.649 174.644C284.804 175.04 287.108 176.134 288.342 177.989C289.489 179.716 289.572 182.083 289.119 184.045C288.14 188.281 284.853 190.986 287.585 195.564C289.708 199.122 293.957 203.028 292.852 207.577C292.375 209.542 290.867 211.121 289.141 212.11C287.867 212.841 286.293 213.496 284.858 213.829C284.301 213.959 283.595 213.955 283.087 214.193L282.787 214.221C284.123 211.95 284.865 209.653 285.515 207.119C283.861 206.598 282.05 206.13 280.529 205.295L279.992 205.109C277.165 203.754 274.117 202.525 271.455 200.881Z" fill="#3730A3"/>
<path d="M279.992 205.109L279.994 187.389C279.992 184.613 279.61 180.48 280.18 177.85L280.35 177.895C280.971 180.48 280.558 183.872 280.562 186.545C280.584 192.795 280.573 199.045 280.529 205.295L279.992 205.109Z" fill="#21005B"/>
<path d="M232.4 153.877C238.508 155.015 244.088 155.648 250.287 154.555C256.817 162.79 259.93 175.376 260.789 185.689C261.003 188.251 260.566 191.991 261.77 194.299C262.956 196.571 268.943 199.993 271.455 200.881C274.117 202.525 277.165 203.754 279.992 205.109L280.529 205.295C282.05 206.13 283.861 206.598 285.515 207.119C284.865 209.653 284.123 211.95 282.787 214.221C282.076 215.317 279.267 220.385 279.082 221.447C278.432 223.117 277.545 224.714 276.736 226.313C274.472 225.3 272.356 223.765 270.256 222.452C266.753 220.292 263.278 218.09 259.831 215.844C258.867 215.035 257.848 214.294 256.711 213.746L231.799 213.715C231.831 214.456 231.858 215.196 231.879 215.937L231.901 216.425C232.269 219.005 232.331 227.782 232.047 230.537C231.314 231.987 230.964 232.67 229.365 233.259C229.073 233.367 228.796 233.411 228.57 233.63C227.995 233.176 221.325 233.588 220.208 233.635L219.123 233.666C218.079 233.702 216.832 233.829 215.829 233.521C215.261 232.63 215.169 225.25 215.036 223.72C214.7 221.247 214.741 218.606 214.724 216.108C214.722 215.329 214.678 214.545 214.654 213.767C214.237 209.958 214.118 202.404 214.726 198.757C215.711 192.854 218.128 187.166 220.36 181.639C224.141 172.277 228.412 163.149 232.4 153.877Z" fill="#EC4899"/>
<path d="M239.736 183.97C244.567 195.334 247.115 204.958 256.711 213.746L231.799 213.715C231.584 211.5 231.427 202.15 231.875 200.358C232.424 198.164 233.633 196.076 234.643 194.065C236.332 190.702 238.134 187.371 239.736 183.97Z" fill="#EFF3F8"/>
<path d="M178.535 216.158C182.234 216.003 185.959 216.083 189.662 216.087C198.012 216.095 206.375 216.225 214.724 216.108C214.741 218.606 214.7 221.247 215.036 223.72C215.169 225.25 215.261 232.63 215.829 233.521C216.832 233.829 218.079 233.702 219.123 233.666L218.998 235.3C218.647 236.28 218.467 237.263 218.282 238.283C216.714 238.763 215.206 240.133 214.435 241.543C214.054 242.239 213.852 242.931 213.779 243.715C213.705 243.691 213.631 243.667 213.558 243.643C211.556 242.963 209.768 241.375 207.708 240.956C206.031 240.615 204.045 240.79 202.335 240.796L193.412 240.832L166.734 240.842C162.365 240.848 157.958 241.001 153.593 240.892C153.691 247.495 153.655 254.098 153.485 260.699L127.345 260.695L119.931 260.704C118.555 260.707 117.044 260.601 115.69 260.811L108.029 260.833C108.369 259.52 109.289 258.087 109.857 256.833C111.301 253.622 112.771 250.422 114.266 247.234C115.212 245.197 116.322 243.131 116.997 240.991C109.941 240.85 102.884 240.854 95.8272 241.002C94.6881 240.364 93.7314 239.432 92.52 238.936C92.0199 239.061 91.9576 239.345 91.6777 239.76L91.4562 239.77L91.3391 239.559C91.5562 239.283 91.8382 238.991 91.9351 238.649C91.9974 238.429 91.639 238.025 91.5057 237.844C91.0346 237.205 90.8996 236.734 90.7324 235.964C90.9377 234.634 91.2328 233.403 91.646 232.122C93.2145 232.075 94.7898 232.088 96.3589 232.072C96.8078 229.022 97.2039 225.943 97.8645 222.931C98.1697 220.67 98.5325 218.338 99.0215 216.111L128.355 216.115C136.673 216.182 144.991 216.192 153.309 216.145C156.479 216.114 159.648 216.104 162.818 216.114C168.034 216.077 173.328 215.903 178.535 216.158Z" fill="#FEFEFE"/>
<path d="M178.535 216.158C182.234 216.003 185.959 216.083 189.662 216.087C198.012 216.095 206.375 216.225 214.724 216.108C214.741 218.606 214.7 221.247 215.036 223.72C212.272 223.533 209.507 223.007 206.773 222.567C199.256 221.357 192.018 219.737 184.635 217.886C182.814 217.429 180.134 217.108 178.535 216.158Z" fill="#EC5D99"/>
<path d="M99.0215 216.111L128.355 216.115C136.673 216.182 144.991 216.192 153.31 216.145C156.479 216.114 159.648 216.104 162.818 216.114C166.509 217.89 170.333 219.483 174.118 221.051C176.04 221.848 178.034 222.572 179.906 223.477C172.859 223.294 165.811 223.268 158.762 223.397C157.512 223.408 154.98 223.152 153.872 223.403C153.745 223.431 153.608 223.558 153.51 223.637C153.918 229.346 153.463 235.264 153.492 240.994C141.398 241.159 129.296 240.918 117.202 241.125C118.76 236.95 120.807 232.799 122.652 228.73C123.491 226.88 124.435 225.028 125.072 223.101C116.008 222.948 106.922 223.248 97.8645 222.931C98.1698 220.67 98.5325 218.338 99.0215 216.111Z" fill="#EC5D99"/>
<path d="M128.355 216.115C136.673 216.182 144.991 216.192 153.31 216.145C153.332 218.423 153.634 221.078 153.345 223.324C143.984 222.881 134.554 223.099 125.184 223.127C126.088 220.785 127.19 218.339 128.355 216.115Z" fill="#FEFEFE"/>
<path d="M82.1364 159.25C82.9632 158.596 84.1495 158.833 85.1597 158.867C86.0077 158.911 86.8719 158.993 87.7206 158.977C90.9403 167.136 93.476 175.663 96.3091 183.967C97.8429 188.462 100.616 193.641 101.084 198.312C101.444 201.902 100.063 210.161 99.3573 213.91L99.0214 216.111C98.5325 218.338 98.1697 220.67 97.8645 222.931C97.2039 225.943 96.8078 229.022 96.3589 232.072C94.7897 232.088 93.2145 232.075 91.646 232.122C91.2328 233.403 90.9377 234.634 90.7324 235.964C90.8996 236.734 91.0346 237.205 91.5057 237.844C91.6389 238.025 91.9973 238.429 91.9351 238.649C91.8382 238.991 91.5562 239.283 91.3391 239.559L91.4562 239.77L91.6776 239.76C91.9576 239.345 92.0199 239.061 92.52 238.936C93.7314 239.432 94.6881 240.364 95.8272 241.002C102.884 240.854 109.941 240.85 116.997 240.991C116.322 243.131 115.212 245.197 114.266 247.234C112.771 250.422 111.301 253.622 109.857 256.833C109.289 258.087 108.369 259.52 108.029 260.833C99.9388 261.014 91.8035 260.834 83.7076 260.836L38.0468 260.842C29.5619 260.835 21.0703 260.728 12.5864 260.824C11.9428 260.815 11.3004 260.837 10.6572 260.855L11.6447 260.706C11.9907 260.398 11.9358 260.357 11.9765 259.889C12.5221 256.587 12.2258 250.456 12.2062 246.979C12.1316 238.898 12.1141 230.817 12.1537 222.737C11.911 220.673 12.1309 218.395 12.1595 216.314C11.7567 216.252 11.3539 216.246 10.9484 216.213C10.3703 216.166 10.1888 216.114 9.8142 215.67C9.75464 215.218 9.78011 214.997 9.94834 214.573C10.2267 214.293 10.4474 214.146 10.8507 214.097C11.5963 214.007 12.4286 214.137 13.1876 214.126C16.0236 214.106 18.8597 214.11 21.6959 214.137C23.2768 214.143 24.9873 214.267 26.5461 213.999C27.4237 214.08 28.1856 214.143 29.0538 213.924L30.3315 213.09L30.9208 212.566C32.9641 210.361 34.7537 207.921 36.8475 205.744C38.4554 204.074 42.3643 200.946 43.4203 199.375C43.5011 199.358 43.5869 199.357 43.6626 199.324C45.2567 198.627 51.1891 193.596 51.8702 191.932C52.9797 189.222 52.9662 182.123 53.4279 178.823C54.2487 172.954 55.9377 167.169 58.0793 161.645C63.4023 162.234 70.2251 162.803 75.4704 161.64C77.822 161.118 79.9565 160.239 82.1364 159.25Z" fill="#3730A3"/>
<path d="M74.5709 181.108C76.2252 183.496 77.3455 186.55 78.6175 189.168C79.7711 191.544 81.4493 193.952 82.2223 196.459C83.0417 199.116 81.8474 209.987 81.9625 213.649C81.6569 213.897 81.4984 213.926 81.1171 213.945C76.551 214.174 71.8539 213.918 67.2736 213.923C63.9771 213.927 60.1381 214.231 56.9422 213.942C60.2936 210.294 63.7284 206.715 66.3751 202.502C70.0354 196.677 72.4071 187.697 74.5709 181.108Z" fill="#E8EBF3"/>
<path d="M55.093 216.139C57.6213 216.188 73.7528 215.889 74.8378 216.31C72.3142 217.713 68.3528 220.459 66.0524 222.229C64.6383 222.979 63.2923 224.016 61.9768 224.926C59.5743 226.61 57.1557 228.271 54.7209 229.908C46.4971 235.427 38.3193 241.013 30.1875 246.664C24.3773 250.743 18.6238 255.077 12.5903 258.818L12.6249 229.787L12.6507 221.462C12.6561 219.792 12.7779 217.998 12.5272 216.343C18.3386 216.379 24.1493 216.457 29.9594 216.578C30.415 216.89 30.7788 217.182 31.1493 217.592C32.9735 219.059 35.0007 220.555 36.5635 222.301C38.7313 224.244 41.125 225.963 43.3275 227.878C47.479 224.224 51.1673 220.027 55.093 216.139Z" fill="#FEFEFE"/>
<path d="M31.1493 217.592C32.9736 219.059 35.0007 220.555 36.5635 222.301C35.7841 223.099 35.0297 223.906 34.4714 224.878C33.8647 225.807 33.8354 226.455 33.514 227.461C33.2034 227.482 32.9759 227.503 32.6761 227.596C33.0937 227.733 33.4393 227.825 33.762 228.141L33.7179 228.518C33.1573 228.82 32.6831 228.519 32.1696 228.788L32.2891 229.006C32.7774 229.044 33.232 229.102 33.7122 229.197L33.8233 229.414C33.5167 229.674 33.3013 229.734 32.9153 229.801C32.6404 229.849 32.4819 229.871 32.2258 229.989C32.7632 230.161 33.1846 230.014 33.7115 229.885C33.95 231.143 34.1491 232.407 34.3089 233.677C34.4344 234.723 34.716 236.647 33.8589 237.45C33.6261 237.669 33.4194 237.765 33.1055 237.678C31.9267 237.352 21.6808 227.8 21.1262 226.627C21.214 226.249 21.4011 225.999 21.6404 225.702C22.5113 224.618 23.6945 223.696 24.6653 222.69C25.2249 222.111 25.6755 221.442 26.1978 220.831C26.4179 220.573 26.639 220.341 26.9227 220.151C27.4692 219.785 27.8605 219.835 28.4605 219.963C29.4745 219.372 30.3151 218.41 31.1493 217.592Z" fill="#21005B"/>
<path d="M31.1493 217.592C32.9735 219.059 35.0007 220.555 36.5635 222.301C35.7841 223.099 35.0296 223.906 34.4714 224.878C32.3362 223.482 30.4362 221.58 28.4605 219.963C29.4744 219.372 30.315 218.41 31.1493 217.592Z" fill="#FEB997"/>
<path d="M82.1364 159.25C82.9632 158.596 84.1494 158.833 85.1597 158.867C86.0077 158.911 86.8719 158.993 87.7206 158.977C90.9403 167.136 93.476 175.663 96.3091 183.967C97.8429 188.462 100.616 193.641 101.084 198.312C101.444 201.902 100.063 210.161 99.3573 213.91L99.0214 216.111C98.5325 218.338 98.1697 220.67 97.8645 222.931C97.2039 225.943 96.8078 229.022 96.3589 232.072C94.7897 232.088 93.2145 232.075 91.646 232.122C89.5478 232.134 87.2905 231.978 85.2125 232.19C83.8792 232.264 82.52 232.19 81.1847 232.17C81.3315 229.191 81.595 226.224 81.7037 223.242C81.8389 220.927 81.7831 218.58 81.7952 216.261C81.808 215.379 81.8692 214.525 81.9624 213.649C81.8473 209.987 83.0416 199.116 82.2222 196.459C81.4492 193.952 79.771 191.544 78.6175 189.168C77.3454 186.55 76.2252 183.496 74.5709 181.108L74.5544 180.939C75.0844 177.569 75.8325 174.05 76.9971 170.842C78.4199 166.922 80.4239 163.061 82.1364 159.25Z" fill="#312E81"/>
<path d="M82.1364 159.25C82.9632 158.596 84.1494 158.833 85.1597 158.867C82.7632 164.163 80.2812 169.418 77.7136 174.634C76.7256 176.685 75.8957 179.094 74.5544 180.939C75.0844 177.569 75.8325 174.05 76.9971 170.842C78.4199 166.922 80.4239 163.061 82.1364 159.25Z" fill="#21005B"/>
<path d="M75.6242 216.373C77.2375 216.599 80.0622 216.293 81.7952 216.261C81.7831 218.58 81.839 220.927 81.7037 223.242C81.595 226.224 81.3315 229.191 81.1848 232.17C82.5201 232.19 83.8793 232.264 85.2125 232.19C87.2905 231.978 89.5479 232.134 91.646 232.122C91.2328 233.403 90.9377 234.634 90.7324 235.964C90.8997 236.734 91.0346 237.205 91.5057 237.844C91.639 238.025 91.9974 238.429 91.9351 238.649C91.8382 238.991 91.5562 239.283 91.3391 239.559L91.4563 239.77L91.6777 239.76C91.9577 239.345 92.0199 239.061 92.52 238.936C93.7314 239.432 94.6882 240.364 95.8273 241.002C102.884 240.854 109.941 240.85 116.997 240.991C116.322 243.131 115.212 245.197 114.266 247.234C112.771 250.422 111.301 253.622 109.857 256.833C109.289 258.087 108.369 259.52 108.029 260.833C99.9388 261.014 91.8035 260.834 83.7076 260.836L38.0469 260.842C29.562 260.835 21.0703 260.728 12.5864 260.824L12.4401 260.763L12.3725 260.552C15.2552 258.367 18.32 256.361 21.3055 254.317C27.7222 249.924 34.2641 245.55 40.4365 240.826C42.0928 239.564 43.8827 238.433 45.5949 237.242C50.2061 234.048 54.8382 230.885 59.4913 227.751C61.5202 226.364 64.4256 224.702 66.1772 223.056C66.3603 222.619 66.654 222.415 66.9993 222.103L66.8957 222.057L66.3643 222.348L66.0524 222.229C68.3528 220.459 72.3142 217.713 74.8378 216.31L75.6242 216.373Z" fill="#EC5D99"/>
<path d="M85.2125 232.19C87.2905 231.978 89.5479 232.134 91.646 232.122C91.2328 233.403 90.9377 234.634 90.7324 235.964C90.8996 236.734 91.0346 237.205 91.5057 237.844C91.639 238.025 91.9974 238.429 91.9351 238.649C91.8382 238.991 91.5562 239.283 91.3391 239.559L91.4562 239.77L91.6777 239.76C91.9576 239.345 92.0199 239.061 92.52 238.936C93.7314 239.432 94.6881 240.364 95.8272 241.002C97.463 242.119 99.1557 243.5 99.9553 245.362C100.175 245.873 100.134 246.127 99.9216 246.629C99.8469 246.646 99.7722 246.665 99.6972 246.681C97.9227 247.062 84.8397 246.938 82.4743 246.755C82.1654 246.732 81.9729 246.655 81.7165 246.488C81.2228 245.256 82.3501 242.198 82.7152 240.88C83.1022 239.304 83.4424 236.932 84.276 235.574C84.7162 234.511 84.9356 233.308 85.2125 232.19Z" fill="#21005B"/>
<path d="M85.2126 232.19C87.2905 231.978 89.5479 232.134 91.6461 232.122C91.2328 233.403 90.9377 234.634 90.7324 235.964C88.612 235.628 86.4193 235.571 84.276 235.574C84.7162 234.511 84.9356 233.308 85.2126 232.19Z" fill="#FEB997"/>
<path d="M75.6242 216.373C77.2374 216.599 80.0621 216.293 81.7952 216.261C81.7831 218.58 81.8389 220.927 81.7037 223.242C81.595 226.224 81.3315 229.191 81.1847 232.17C82.52 232.19 83.8792 232.264 85.2125 232.19C84.9356 233.308 84.7161 234.511 84.276 235.574C83.4424 236.932 83.1022 239.304 82.7152 240.88C77.544 240.765 72.3482 240.891 67.1743 240.885L40.4364 240.826C42.0927 239.564 43.8827 238.433 45.5949 237.242C50.206 234.048 54.8382 230.885 59.4913 227.751C61.5201 226.364 64.4256 224.702 66.1772 223.056C66.3602 222.619 66.654 222.415 66.9993 222.103L66.8956 222.057L66.3643 222.348L66.0523 222.229C68.3527 220.459 72.3142 217.713 74.8377 216.31L75.6242 216.373Z" fill="#FEFEFE"/>
<path d="M75.6242 216.373C77.2375 216.599 80.0622 216.293 81.7953 216.261C81.7832 218.58 81.839 220.927 81.7037 223.242C81.6206 223.16 81.5651 223.035 81.4547 222.996C80.1874 222.554 69.5444 223.252 66.6622 222.837L66.1772 223.056C66.3603 222.619 66.6541 222.415 66.9994 222.103L66.8957 222.057L66.3643 222.348L66.0524 222.229C68.3528 220.459 72.3143 217.713 74.8378 216.31L75.6242 216.373Z" fill="#EC5D99"/>
<path d="M74.8378 216.31L75.6242 216.373C73.7411 217.773 71.8463 219.157 69.9398 220.526C68.8637 221.288 67.6791 222.004 66.6622 222.837L66.1772 223.056C66.3603 222.619 66.6541 222.415 66.9994 222.103L66.8957 222.057L66.3643 222.348L66.0524 222.229C68.3528 220.459 72.3143 217.713 74.8378 216.31Z" fill="#420A83"/>
<path d="M78.9092 27.9078C78.1793 27.3 77.2758 26.6843 76.8414 25.824C76.5489 25.2446 76.2757 24.3891 76.6095 23.7682C76.8208 23.3752 77.1139 23.2259 77.5373 23.1331C79.2222 22.7641 81.6064 25.9312 82.8061 26.901L82.9942 27.0516C86.3361 26.7557 89.6185 26.0698 92.9709 25.802C103.169 24.9868 113.72 26.2955 123.536 29.0803C126.094 29.8063 128.529 30.7153 130.991 31.7108C132.713 32.4067 134.612 33.3779 136.429 33.7352C136.491 33.7996 136.555 33.8631 136.616 33.9285C137.532 34.9073 138.895 38.0685 140.249 38.1359C140.873 38.1673 141.475 37.637 141.865 37.2065C142.052 37.0005 142.056 36.9838 142.195 36.7868C142.269 36.8048 142.343 36.8215 142.416 36.8409C143.444 37.115 144.572 37.9265 145.502 38.4542C148.944 40.4071 152.281 42.7363 155.799 44.5109C164.117 48.7069 168.674 47.8631 176.992 44.4916C181.44 42.6889 186.24 40.7163 190.939 39.6644C190.037 41.642 186.885 47.2296 186.947 49.0783C186.961 49.4971 187.114 49.9696 187.461 50.2331C187.796 50.4862 188.358 50.5557 188.76 50.4779C189.251 50.383 189.622 50.0641 189.898 49.668C190.64 48.6028 191.075 47.0479 191.593 45.839C192.595 43.5011 193.639 41.1604 194.922 38.9591C202.607 36.9037 210.173 36.6131 218.077 37.1451C218.889 36.2374 220.559 33.9229 221.801 33.7829C222.295 33.7272 222.376 33.8197 222.739 34.1072C223.007 34.7303 223.049 35.3278 222.772 35.9596C222.613 36.3246 222.34 36.6415 222.098 36.9551L221.753 37.4022C222.674 37.504 223.592 37.6215 224.508 37.7549C225.424 37.8885 226.338 38.0376 227.249 38.2024C228.16 38.3673 229.068 38.5479 229.972 38.744C230.877 38.9404 231.778 39.1521 232.675 39.3792C233.572 39.6065 234.465 39.8492 235.354 40.1072C236.243 40.3652 237.127 40.6385 238.006 40.927C238.885 41.2156 239.759 41.5191 240.627 41.8377C241.496 42.1563 242.359 42.4898 243.215 42.8382C244.072 43.1864 244.923 43.5494 245.767 43.9272C246.611 44.3048 247.448 44.6968 248.279 45.1033C249.109 45.5099 249.932 45.9305 250.748 46.3653C251.564 46.8003 252.372 47.2492 253.172 47.7118C253.972 48.1746 254.763 48.6511 255.547 49.1411C256.33 49.6311 257.105 50.1344 257.87 50.6512C258.636 51.1679 259.392 51.6976 260.14 52.2404C260.887 52.7832 261.624 53.3387 262.352 53.9068C266.827 57.3451 271.088 61.2229 274.598 65.6473C286.922 81.1808 292.928 99.1427 290.516 118.904C289.618 126.255 287.254 133.387 286.643 140.762C286.414 143.527 286.494 146.39 286.731 149.151C286.922 151.382 287.37 153.745 287.106 155.975C282.592 151.174 277.912 147.001 272.254 143.568C270.799 144.979 267.179 149.309 266.529 151.099C262.702 148.564 258.934 145.489 255.653 142.291C255.349 146.078 253.16 151.993 250.287 154.555C244.088 155.648 238.508 155.015 232.4 153.877C228.412 163.149 224.141 172.277 220.36 181.639C218.128 187.166 215.711 192.854 214.726 198.757C214.118 202.404 214.237 209.958 214.654 213.767C214.678 214.546 214.722 215.329 214.724 216.108C206.375 216.225 198.012 216.095 189.662 216.087C185.959 216.083 182.234 216.004 178.535 216.158C173.328 215.903 168.034 216.077 162.818 216.114C159.648 216.104 156.479 216.114 153.309 216.145C144.991 216.192 136.673 216.182 128.355 216.115L99.0214 216.111L99.3573 213.91C100.063 210.161 101.444 201.902 101.084 198.312C100.616 193.641 97.843 188.462 96.3091 183.967C93.476 175.663 90.9404 167.136 87.7206 158.977C86.8719 158.993 86.0077 158.911 85.1597 158.867C84.1495 158.833 82.9632 158.596 82.1364 159.251C79.9565 160.239 77.822 161.118 75.4704 161.64C70.2251 162.803 63.4023 162.234 58.0793 161.645C55.9377 167.169 54.2487 172.954 53.4279 178.823C52.9662 182.123 52.9797 189.222 51.8702 191.932C51.1891 193.596 45.2567 198.627 43.6626 199.324C43.5869 199.357 43.5011 199.358 43.4203 199.375C42.3643 200.946 38.4554 204.074 36.8475 205.744C34.7537 207.921 32.9641 210.361 30.9208 212.566L30.3315 213.09L29.0538 213.924C28.1856 214.143 27.4237 214.08 26.5461 213.999C24.9873 214.267 23.2768 214.143 21.6959 214.137C18.8597 214.11 16.0236 214.106 13.1876 214.126C12.4286 214.137 11.5963 214.007 10.8507 214.097C10.4474 214.146 10.2267 214.293 9.94834 214.573C9.78012 214.997 9.75464 215.218 9.81421 215.67C10.1888 216.114 10.3703 216.166 10.9484 216.213C11.3539 216.246 11.7567 216.252 12.1595 216.314C12.1309 218.395 11.911 220.673 12.1537 222.737C12.1141 230.818 12.1316 238.898 12.2062 246.979C12.2258 250.456 12.5221 256.587 11.9765 259.889C9.94656 258.727 6.47832 250.774 5.49459 248.416C-3.78806 226.165 -0.394233 205.677 8.86257 184.121C13.7626 172.711 18.9351 162.003 20.2229 149.477C20.3786 147.941 20.4804 146.402 20.5282 144.858C20.5759 143.315 20.5697 141.772 20.5093 140.23C20.449 138.687 20.3348 137.148 20.1667 135.614C19.9985 134.079 19.7768 132.552 19.5018 131.032C18.8483 127.577 17.9084 124.179 17.2868 120.715C14.593 105.703 16.1232 89.2068 22.0307 75.0976C30.1424 55.7245 44.4652 41.3612 63.8438 33.0476C66.9427 31.7178 70.0471 30.5597 73.2777 29.5829C75.0016 29.0616 76.9575 28.7457 78.6037 28.0424C78.706 27.9987 78.8073 27.9526 78.9092 27.9078Z" fill="#E8EBF3"/>
<path d="M260.804 68.5102C260.931 68.5057 261.058 68.5039 261.185 68.5048C261.845 68.5115 262.538 68.6908 262.98 69.2178C263.313 69.6159 263.475 70.054 263.407 70.5753C263.291 71.4496 262.754 71.9044 262.088 72.4183C261.774 72.4664 261.387 72.5406 261.068 72.4855C260.551 72.3956 260.09 72.1201 259.8 71.6827C259.483 71.2041 259.422 70.6063 259.555 70.0567C259.745 69.2772 260.141 68.9276 260.804 68.5102Z" fill="#FEFEFE"/>
<path d="M26.0349 137.673C26.4071 137.692 26.8002 137.714 27.1599 137.821C27.7162 137.987 28.1513 138.5 28.3956 139.004C28.6799 139.59 28.6571 140.263 28.3976 140.855C28.0735 141.594 27.5573 141.785 26.8476 142.058C26.5659 142.029 26.292 141.974 26.0188 141.9C25.3467 141.717 24.8632 141.362 24.5334 140.742C24.2672 140.241 24.2127 139.68 24.4102 139.147C24.7033 138.355 25.3006 138.01 26.0349 137.673Z" fill="#FEFEFE"/>
<path d="M88.3364 62.029C88.6174 62.0758 88.9183 62.1205 89.1845 62.223C89.699 62.4214 90.1556 62.8806 90.3653 63.3832C90.6611 64.0918 90.5692 64.8392 90.2378 65.5201C89.8127 66.393 89.1858 66.6946 88.29 66.9657C87.9027 66.8799 87.4679 66.7517 87.1206 66.559C86.4819 66.2053 85.9795 65.4757 85.8479 64.7667C85.834 64.691 85.8242 64.6148 85.8186 64.538C85.8128 64.4611 85.811 64.3842 85.8133 64.3072C85.8157 64.2304 85.8222 64.1538 85.8328 64.0774C85.8433 64.0013 85.8578 63.9258 85.8762 63.851C85.8948 63.7762 85.9172 63.7026 85.9435 63.6303C85.9697 63.5579 85.9998 63.487 86.0337 63.4176C86.0675 63.3483 86.1049 63.2811 86.1457 63.2159C86.1868 63.1504 86.2311 63.0873 86.2787 63.0265C86.8312 62.3145 87.478 62.1653 88.3364 62.029Z" fill="#FEFEFE"/>
<path d="M115.119 34.7988C115.489 34.7721 115.92 34.752 116.284 34.8265C116.904 34.9531 117.427 35.5021 117.709 36.037C117.753 36.1174 117.791 36.1997 117.826 36.2838C117.86 36.3682 117.89 36.4541 117.915 36.5416C117.94 36.6291 117.961 36.7176 117.977 36.8071C117.993 36.8968 118.004 36.9871 118.01 37.0779C118.016 37.1686 118.018 37.2594 118.014 37.3504C118.011 37.4413 118.003 37.5317 117.99 37.6216C117.977 37.7118 117.959 37.8009 117.937 37.8891C117.915 37.9773 117.888 38.0641 117.856 38.1496C117.564 38.9504 117.07 39.2827 116.31 39.6093C115.878 39.6256 115.391 39.6714 114.969 39.5708C114.446 39.4466 113.941 39.0506 113.665 38.5984C113.332 38.0521 113.292 37.4075 113.453 36.7994C113.708 35.8387 114.283 35.2933 115.119 34.7988Z" fill="#FEFEFE"/>
<path d="M273.796 99.4923C274.803 101.009 275.847 102.192 277.245 103.37C275.594 104.216 274.904 105.299 274.257 106.991L274.076 106.996C273.329 105.601 272.168 104.3 270.926 103.323C272.148 102.152 273.125 101.069 273.796 99.4923Z" fill="#FEFEFE"/>
<path d="M56.0541 50.6531C56.5693 50.6161 57.1337 50.5559 57.6405 50.6752C58.4306 50.8615 59.1608 51.4285 59.5354 52.1432C59.5738 52.2155 59.6083 52.2897 59.639 52.3656C59.6698 52.4415 59.6967 52.5188 59.7198 52.5973C59.7429 52.6757 59.762 52.7551 59.777 52.8355C59.7923 52.916 59.8034 52.9971 59.8103 53.0786C59.8173 53.16 59.8202 53.2416 59.8191 53.3233C59.8177 53.4051 59.8123 53.4865 59.8029 53.5678C59.7935 53.6491 59.78 53.7296 59.7625 53.8096C59.745 53.8897 59.7236 53.9686 59.6983 54.0463C59.4038 54.9573 58.749 55.4389 57.9285 55.866C57.4779 55.9268 57.0132 55.9986 56.5579 55.9482C55.8132 55.8653 55.0641 55.4566 54.632 54.8428C54.2403 54.2868 54.1303 53.6286 54.245 52.9664C54.4399 51.84 55.1496 51.2699 56.0541 50.6531Z" fill="#FEFEFE"/>
<path d="M219.678 65.7869C220.25 66.3539 220.517 67.9916 220.895 68.7947C221.743 70.602 222.954 71.8563 224.448 73.1597C222.04 75.3738 220.858 76.9296 219.838 80.07C219.432 79.6399 219.2 78.7439 218.959 78.1919C217.995 75.9799 216.74 74.7346 214.903 73.2061C217.701 70.9841 218.672 69.1637 219.678 65.7869Z" fill="#FEFEFE"/>
<path d="M247.35 78.9073L247.91 79.0883C248.189 79.4112 248.365 79.675 248.466 80.0965C248.529 80.3593 248.502 80.6929 248.324 80.91C247.988 81.319 247.325 81.5708 246.841 81.7862C244.812 82.6879 242.687 83.4042 240.631 84.2467C238.004 85.3234 230.126 88.9537 227.98 89.2235C227.413 88.9036 226.822 88.403 226.685 87.7298C226.597 87.2967 226.761 87.0859 226.966 86.7346C228.499 85.6687 245.065 79.312 247.35 78.9073Z" fill="#EC5D99"/>
<path d="M58.4363 75.3624C58.5073 74.958 58.4959 74.5934 58.7654 74.2741L59.286 75.3895C59.6007 76.2274 59.8911 77.1243 60.3477 77.8977C61.8203 80.3916 64.224 81.0485 66.862 81.6757C65.9268 81.9432 64.9765 82.3098 64.1116 82.7533C60.944 84.3773 59.8019 86.9567 58.7691 90.1175C58.4605 88.969 58.1281 87.8296 57.6004 86.758C56.1143 83.7388 53.6854 82.7406 50.681 81.7004C52.3501 81.3184 53.9825 80.8618 55.4339 79.9251C57.1845 78.7954 58.0059 77.3551 58.4363 75.3624Z" fill="#FEFEFE"/>
<path d="M66.7039 115.737C66.3326 115.25 66.0028 114.736 65.7145 114.196C65.4262 113.656 65.1829 113.097 64.9846 112.519C64.3883 110.808 64.3233 109.007 65.1821 107.372C66.0736 105.675 67.7366 104.433 69.5757 103.906C71.5473 103.342 73.9733 103.535 75.7642 104.563C77.0315 105.29 77.8418 106.449 78.1625 107.858C78.5186 109.42 78.2766 110.578 77.433 111.923C77.2792 111.163 77.225 110.229 76.5288 109.756C76.0761 109.449 72.8705 109.546 71.9969 109.462C70.6101 109.329 69.2567 109.064 67.8988 108.761C67.8207 109.292 67.7807 110.025 67.5455 110.509C67.1726 111.275 66.3542 111.725 66.2199 112.621C66.0608 113.685 66.7563 114.689 66.7039 115.737Z" fill="#16001F"/>
<path d="M58.4363 75.3624C57.1485 75.1717 55.0708 75.0565 54.2241 73.9007C54.0179 73.6189 53.9623 73.4215 53.9021 73.0872C54.0074 72.6093 54.2464 72.3071 54.669 72.0647C55.3794 71.6569 56.3243 71.688 57.1088 71.7985C60.4147 72.2637 63.7866 73.522 67.0494 74.2958C71.6573 75.3881 76.5933 76.0934 81.0899 77.5457C81.5506 77.6947 81.9318 77.8219 82.2966 78.1502C82.5248 78.7125 82.7065 79.2412 82.4164 79.8209C82.2737 80.1057 81.9271 80.3168 81.6209 80.4003C79.654 80.9353 62.6505 76.2236 59.286 75.3894L58.7654 74.2741C58.4959 74.5933 58.5073 74.958 58.4363 75.3624Z" fill="#312E81"/>
<path d="M66.7038 115.737C66.7563 114.69 66.0607 113.685 66.2199 112.621C66.3542 111.725 67.1726 111.275 67.5454 110.509C67.7807 110.025 67.8207 109.292 67.8988 108.761C69.2566 109.064 70.6101 109.329 71.9969 109.462C72.8705 109.546 76.0761 109.449 76.5287 109.756C77.225 110.229 77.2791 111.163 77.4329 111.923C77.334 113.297 77.3518 114.879 76.7596 116.144C76.1609 117.423 74.6826 118.045 74.4716 119.405L74.3259 118.95C73.4446 118.497 71.8276 119.014 70.8275 118.81C69.8216 118.605 68.8955 117.837 67.8769 117.746L67.7049 118.115C67.5892 117.285 67.0814 116.477 66.7038 115.737Z" fill="#FEB997"/>
<path d="M218.077 37.1451C218.889 36.2374 220.559 33.9228 221.801 33.7829C222.295 33.7271 222.376 33.8196 222.739 34.1072C223.007 34.7303 223.049 35.3277 222.772 35.9595C222.613 36.3245 222.34 36.6415 222.098 36.955L221.753 37.4022C220.158 38.7894 218.705 40.9357 217.343 42.569C213.465 47.2832 209.559 51.9741 205.624 56.6418C204.576 57.8633 203.683 59.308 202.557 60.4414C202.151 60.8505 201.655 61.2172 201.084 61.3554C200.532 61.489 200.158 61.3517 199.696 61.0636C199.547 60.8328 199.403 60.6935 199.384 60.41C199.349 59.8784 199.646 59.4823 199.938 59.0646C200.953 57.6149 202.282 56.3616 203.394 54.9821C208.224 48.9908 213.172 43.0809 218.077 37.1451Z" fill="#312E81"/>
<path d="M78.9092 27.9078C78.1793 27.3 77.2758 26.6843 76.8414 25.824C76.5489 25.2446 76.2757 24.389 76.6095 23.7682C76.8208 23.3752 77.1139 23.2259 77.5373 23.1331C79.2222 22.7641 81.6064 25.9312 82.8061 26.901L82.9942 27.0516C89.4706 32.9101 95.8715 38.8487 102.197 44.8672C104.848 47.3792 107.812 49.7612 110.248 52.4728C110.586 52.8489 111.007 53.3712 111.022 53.9045C111.036 54.3807 110.705 54.7627 110.338 55.0272C109.999 55.2723 109.729 55.3852 109.306 55.4333C107.505 54.8622 83.1662 31.1114 78.9092 27.9078Z" fill="#EC5D99"/>
<path d="M29.2526 100.564C27.9665 100.533 25.8596 100.914 24.6841 100.45C24.3176 100.305 24.2786 100.288 24.1073 99.9248C24.2938 99.6763 24.4371 99.475 24.5414 99.1818C24.3065 99.0849 24.1235 99.0091 23.9273 98.8425C23.7274 98.6732 23.7886 98.568 23.7732 98.3229C23.9751 97.8967 24.3812 97.7745 24.7854 97.5752C25.1152 97.4129 24.994 97.0004 25.2198 96.6438C25.692 96.3653 26.0955 96.1866 26.6389 96.0854C27.703 95.8877 29.0575 95.8777 30.0798 96.2761C34.364 97.9462 42.6655 107.214 47.4561 110.571C45.8264 113.322 42.2741 117.053 40.0575 119.501C35.8783 113.647 32.5542 106.933 29.2526 100.564Z" fill="#FEB997"/>
<path d="M47.4562 110.571C49.1515 111.458 50.7193 112.632 52.2784 113.732C56.8365 116.949 60.4844 119.517 65.98 120.998L65.947 121.106C65.5728 122.527 65.7279 124.228 65.593 125.703C65.0825 131.277 64.0531 137.467 60.9535 142.236L59.4785 138.881L59.252 138.795L59.2123 138.825C59.1154 138.618 59.1427 138.72 59.1191 138.473C59.0821 138.092 59.075 137.643 58.8704 137.307C58.1012 136.042 56.6592 134.888 55.5648 133.897C52.1317 130.789 41.3652 122.793 40.0575 119.501C42.2742 117.052 45.8264 113.322 47.4562 110.571Z" fill="#E2E5EF"/>
<path d="M234.582 123.211C235.293 119.868 235.801 114.74 238.883 112.661C241.178 111.113 247.876 109.649 250.655 110.262C251.967 110.551 253.09 111.218 253.815 112.361C254.23 113.015 254.383 113.769 254.536 114.516C254.73 115.463 255.126 116.294 255.514 117.176C256.56 119.549 256.862 121.324 256.638 123.915C257.891 124.38 258.921 124.672 259.477 126.001C259.755 126.664 259.74 127.399 259.419 128.045C259.023 128.843 258.45 129.489 257.663 129.915C253.838 128.65 250.072 128.114 246.15 127.335C246.187 129.746 246.954 131.394 245.532 133.706C245.217 134.218 244.767 134.7 244.134 134.772C243.483 134.846 242.853 134.439 242.409 134.006C240.535 132.18 240.525 129.561 240.571 127.151C239.02 127.038 237.472 126.888 235.918 126.835C234.209 126.777 232.41 126.857 230.722 126.593C231.028 125.475 231.252 124.236 232.363 123.626C233.039 123.255 233.829 123.258 234.582 123.211Z" fill="#21005B"/>
<path d="M241.97 125.065C241.344 124.926 240.594 124.817 240.053 124.46C239.243 123.926 238.764 122.925 238.627 121.995C238.348 120.104 238.984 116.581 240.246 115.082C240.397 114.902 240.469 114.783 240.724 114.797C241.527 114.844 242.295 115.78 242.841 116.31C242.289 116.278 241.812 116.276 241.267 116.368L241.348 116.55C242.963 117.093 244.678 117.2 246.369 117.277C246.341 118.224 246.219 119.104 246.052 120.034C246.46 119.67 246.892 119.236 247.472 119.19C247.925 119.154 248.079 119.318 248.408 119.575C248.599 119.976 248.688 120.286 248.554 120.73C248.418 121.179 248.1 121.45 247.691 121.65C247.25 121.866 246.814 121.8 246.353 121.71C246.443 122.067 246.395 122.239 246.3 122.579C245.895 124.021 245.793 125.877 246.15 127.335C246.187 129.746 246.954 131.394 245.532 133.706C245.217 134.218 244.767 134.7 244.134 134.772C243.483 134.846 242.853 134.439 242.409 134.006C240.535 132.18 240.525 129.561 240.571 127.151C240.587 126.729 240.575 126.074 240.757 125.688C240.987 125.197 241.491 125.199 241.97 125.065Z" fill="#FEB997"/>
<path d="M242.415 121.464C242.777 121.472 242.908 121.405 243.205 121.63L243.079 121.903C242.384 122.418 241.618 122.664 240.813 122.951C240.781 122.945 240.748 122.943 240.717 122.934C240.365 122.83 240.03 122.759 239.847 122.442C240.313 121.768 241.638 121.632 242.415 121.464Z" fill="#E8EBF3"/>
<path d="M26.5461 213.999C23.1325 212.568 18.3402 210.983 16.8349 207.328C14.5156 201.696 20.5857 195.565 22.5439 190.642C24.4802 185.773 22.4393 182.848 20.5561 178.461C19.5274 176.065 19.059 173.615 20.1328 171.123C21.0908 168.899 23.0181 167.167 25.2589 166.265C28.7197 164.872 33.3955 164.936 36.8159 166.421C39.256 167.481 41.3888 169.497 42.3098 172.012C43.7545 175.956 41.271 179.443 39.6682 182.869C38.9854 184.328 38.448 185.873 38.5069 187.506C38.629 190.891 42.1513 195.966 43.4203 199.375C42.3643 200.946 38.4554 204.074 36.8475 205.744C34.7537 207.921 32.9641 210.361 30.9208 212.566L30.3316 213.09L29.0538 213.924C28.1856 214.143 27.4237 214.08 26.5461 213.999Z" fill="#312E81"/>
<path d="M30.3316 213.09C30.1512 212.606 29.9025 173.489 30.2754 172.13L30.6687 171.951C31.2004 173.322 30.8552 181.315 30.8619 183.359L30.9208 212.566L30.3316 213.09Z" fill="#21005B"/>
<path d="M89.5539 114.15C91.4993 113.112 93.1892 111.112 95.2888 110.441C97.7181 113.398 100.06 116.556 102.798 119.238C101.014 122.869 94.5353 127.732 91.4935 130.948L91.1705 131.409C89.3378 132.97 87.5166 134.526 85.8347 136.249C85.9282 136.976 86.04 137.705 86.0787 138.437C87.4409 145.528 90.0142 152.549 93.2357 159.016L87.7205 158.977C86.8718 158.993 86.0077 158.911 85.1596 158.867C84.1494 158.833 82.9632 158.596 82.1364 159.25C79.9564 160.239 77.8219 161.118 75.4703 161.639C70.2251 162.803 63.4022 162.234 58.0792 161.645C56.8052 161.515 55.5439 161.274 54.283 161.055C57.6243 154.116 59.5155 146.558 59.2123 138.825L59.252 138.795L59.4785 138.881L60.9534 142.236C64.053 137.467 65.0824 131.277 65.5929 125.703C65.7279 124.228 65.5727 122.527 65.947 121.106L65.9799 120.998C66.4386 121.002 66.8384 120.862 67.184 120.55C67.8176 119.977 67.6962 118.894 67.7049 118.115L67.8769 117.746C68.8955 117.837 69.8216 118.605 70.8274 118.81C71.8276 119.014 73.4445 118.497 74.3259 118.95L74.4716 119.405C74.4272 120.235 74.3922 121.066 74.3188 121.895L75.6103 121.961C77.9808 122.079 85.8071 116.943 88.0315 115.319L88.4252 114.917C88.8048 114.666 89.1783 114.406 89.5539 114.15Z" fill="#EB2F90"/>
<path d="M89.5539 114.15C91.4993 113.112 93.1893 111.112 95.2888 110.441C97.7181 113.398 100.06 116.556 102.798 119.238C101.014 122.869 94.5353 127.732 91.4936 130.948L91.1705 131.409C89.3379 132.97 87.5166 134.526 85.8347 136.249C85.9283 136.976 86.04 137.705 86.0787 138.437C85.4373 139.839 85.7846 142.686 85.793 144.298C82.6072 139.569 80.7904 133.534 78.9126 128.203C78.2796 126.406 77.7183 124.172 76.7491 122.53C76.4621 122.044 76.1239 122.083 75.6104 121.961C77.9808 122.079 85.8071 116.943 88.0315 115.319L88.4252 114.917C88.8048 114.666 89.1784 114.406 89.5539 114.15Z" fill="#E2E5EF"/>
<path d="M88.0315 115.319C88.0244 115.166 88.0147 115.014 88.014 114.861C88.0149 114.365 88.0217 113.869 88.0345 113.373C88.0475 112.877 88.0665 112.382 88.0914 111.886C88.1165 111.391 88.1476 110.896 88.1846 110.401C88.2218 109.906 88.265 109.412 88.3142 108.918C88.3633 108.425 88.4184 107.932 88.4794 107.439C88.5406 106.947 88.6078 106.455 88.681 105.965C88.7541 105.474 88.8332 104.984 88.9182 104.495C89.0032 104.006 89.0943 103.518 89.1915 103.032C89.2884 102.545 89.3912 102.06 89.5 101.575C89.6089 101.091 89.7236 100.608 89.8443 100.127C89.9648 99.6456 90.0912 99.1656 90.2236 98.6872C90.3559 98.2087 90.494 97.732 90.6378 97.2569C90.7818 96.7818 90.9316 96.3085 91.0871 95.837C91.2425 95.3654 91.4037 94.8959 91.5706 94.4284C91.7375 93.9609 91.9101 93.4953 92.0882 93.0318C92.2665 92.5683 92.4504 92.107 92.6397 91.648C92.8293 91.1889 93.0245 90.7322 93.2253 90.2778C93.4258 89.8234 93.6319 89.3715 93.8434 88.922C94.0552 88.4725 94.2724 88.0257 94.4949 87.5815C94.7175 87.1374 94.9454 86.6959 95.1787 86.2571C95.4121 85.8183 95.6508 85.3824 95.8948 84.9493C96.1387 84.5163 96.3878 84.0863 96.6423 83.6593C96.8967 83.2323 97.1563 82.8084 97.4213 82.3876C97.686 81.9667 97.9558 81.549 98.2306 81.1347C98.5057 80.7204 98.7856 80.3095 99.0705 79.9021C99.3557 79.4945 99.6457 79.0903 99.9404 78.6895C100.235 78.289 100.535 77.892 100.839 77.4984C101.144 77.105 101.453 76.7153 101.767 76.3292C102.081 75.9432 102.4 75.561 102.723 75.1828C103.047 74.8043 103.375 74.4298 103.707 74.0594C104.04 73.6889 104.376 73.3225 104.718 72.96C105.059 72.5976 105.405 72.2394 105.755 71.8854C113.854 63.6717 125.097 57.1431 136.298 54.204C142.053 52.6942 148.144 52.0273 154.087 51.9699C154.638 51.9784 155.189 51.9935 155.74 52.0153C156.291 52.0371 156.841 52.0655 157.391 52.1005C157.941 52.1357 158.49 52.1773 159.039 52.2254C159.588 52.2737 160.136 52.3286 160.684 52.39C161.231 52.4515 161.778 52.5195 162.324 52.5941C162.87 52.6686 163.415 52.7497 163.959 52.8372C164.503 52.9249 165.045 53.0192 165.587 53.12C166.129 53.2206 166.669 53.3278 167.208 53.4416C167.747 53.5554 168.285 53.6756 168.82 53.8023C169.357 53.9289 169.891 54.062 170.424 54.2013C170.957 54.3409 171.488 54.4869 172.017 54.6391C172.546 54.7914 173.074 54.95 173.599 55.115C174.124 55.28 174.648 55.4513 175.169 55.6289C175.69 55.8064 176.209 55.9902 176.726 56.1803C177.243 56.3704 177.757 56.5667 178.269 56.769C178.781 56.9714 179.29 57.1799 179.797 57.3945C180.304 57.6094 180.808 57.8301 181.309 58.0567C181.811 58.2836 182.309 58.5165 182.805 58.7553C183.301 58.994 183.794 59.2387 184.283 59.4894C184.773 59.74 185.26 59.9965 185.743 60.2588C186.227 60.5213 186.707 60.7894 187.184 61.0632C187.661 61.3371 188.135 61.6167 188.605 61.9021C189.075 62.1873 189.541 62.4782 190.004 62.7747C190.468 63.0713 190.927 63.3732 191.383 63.6807C191.838 63.9884 192.29 64.3014 192.738 64.6198C193.186 64.9381 193.63 65.2618 194.07 65.5909C194.51 65.9201 194.946 66.2545 195.378 66.594C195.81 66.9338 196.238 67.2785 196.661 67.6283C197.085 67.9782 197.504 68.3332 197.919 68.6932C198.333 69.053 198.744 69.4179 199.15 69.7879C199.556 70.1577 199.957 70.5323 200.354 70.9116C200.751 71.2912 201.143 71.6755 201.53 72.0644C211.746 82.402 219.018 98.5152 218.867 113.069C218.847 115.194 218.702 117.312 218.431 119.421C218.16 121.53 217.766 123.616 217.248 125.679C217.164 126.105 217.019 126.327 217.252 126.715C218.871 126.812 230.047 127.031 230.722 126.593C232.41 126.857 234.208 126.777 235.918 126.835C237.472 126.888 239.02 127.038 240.571 127.151C240.525 129.561 240.535 132.18 242.409 134.006C242.853 134.439 243.483 134.846 244.134 134.772C244.767 134.7 245.217 134.218 245.532 133.706C246.954 131.394 246.187 129.746 246.15 127.335C250.072 128.114 253.838 128.65 257.663 129.915L257.763 130.008L272.254 143.568C270.799 144.979 267.179 149.309 266.528 151.099C262.702 148.564 258.934 145.489 255.653 142.291C255.349 146.078 253.16 151.993 250.287 154.555C244.088 155.648 238.508 155.015 232.4 153.877C228.412 163.149 224.141 172.277 220.36 181.639C218.128 187.166 215.711 192.854 214.726 198.757C214.118 202.404 214.237 209.958 214.654 213.767C214.678 214.546 214.722 215.329 214.724 216.108C206.375 216.225 198.012 216.095 189.662 216.087C185.959 216.083 182.234 216.003 178.535 216.158C173.328 215.903 168.034 216.077 162.818 216.114C159.648 216.104 156.479 216.114 153.309 216.145C144.991 216.192 136.673 216.182 128.355 216.115L99.0214 216.111L99.3573 213.91C100.063 210.161 101.444 201.902 101.084 198.312C100.616 193.641 97.8429 188.462 96.3091 183.967C93.476 175.663 90.9403 167.136 87.7206 158.977L93.2357 159.016C90.0142 152.549 87.4409 145.528 86.0787 138.437C86.04 137.705 85.9283 136.976 85.8347 136.249C87.5166 134.527 89.3378 132.97 91.1705 131.409L91.4936 130.948C94.5353 127.732 101.014 122.869 102.798 119.239C100.06 116.556 97.7181 113.398 95.2888 110.441C93.1893 111.112 91.4993 113.112 89.5539 114.15C89.1783 114.406 88.8048 114.666 88.4252 114.917L88.0315 115.319Z" fill="#3730A3"/>
<path d="M89.0138 108.572C89.2813 110.402 88.9896 112.377 89.5539 114.15C89.1784 114.406 88.8048 114.666 88.4252 114.917C88.5363 112.8 88.7015 110.669 89.0138 108.572Z" fill="#EFF3F8"/>
<path d="M145.83 156.333C146.032 156.318 146.233 156.309 146.435 156.306C147.061 156.303 147.614 156.517 148.037 156.979C148.355 157.327 148.518 157.763 148.491 158.237C148.445 159.038 148.007 159.515 147.426 160.018C146.664 160.045 146.022 160.003 145.442 159.458C144.99 159.034 144.803 158.563 144.832 157.941C144.868 157.201 145.311 156.791 145.83 156.333Z" fill="#FEFEFE"/>
<path d="M181.961 92.0714C182.388 92.0387 182.819 92.0063 183.244 92.0691C184.008 92.1816 184.753 92.6331 185.177 93.278C185.555 93.8517 185.647 94.5052 185.504 95.1701C185.272 96.2491 184.535 96.8128 183.647 97.3798C183.305 97.4239 182.958 97.467 182.613 97.4182C181.783 97.3003 180.933 96.8669 180.462 96.1623C180.029 95.5144 179.933 94.7503 180.123 94.0013C180.383 92.9774 181.09 92.5687 181.961 92.0714Z" fill="#FEFEFE"/>
<path d="M131.59 171.977C134.238 174.684 136.952 177.202 139.987 179.48L139.979 179.651C139.527 179.53 139.077 179.417 138.638 179.253C134.423 178.543 127.191 175.252 123.535 173.166C125.982 172.344 129.019 172.272 131.59 171.977Z" fill="#EFF3F8"/>
<path d="M197.476 132.142C200.017 132.216 202.564 132.254 205.103 132.381C207.09 133.647 209.034 134.768 211.313 135.447C211.388 135.498 211.463 135.551 211.54 135.6C212.166 136.002 213.336 136.008 213.783 136.513C213.384 136.689 213.093 136.744 212.666 136.788C207.313 136.793 201.91 136.923 196.566 136.661C196.981 135.193 197.197 133.643 197.476 132.142Z" fill="#752FC3"/>
<path d="M174.953 172.279C178.042 172.682 181.143 172.992 184.227 173.442C178.382 176.874 171.451 179.195 164.773 180.364L164.715 180.089C168.321 177.735 171.733 175.132 174.953 172.279Z" fill="#EFF3F8"/>
<path d="M168.289 54.2791C175.767 55.303 185.063 60.2684 191.357 64.3082L184.414 64.2841C183.245 64.2738 182.006 64.1663 180.844 64.2561C178.451 60.6872 172.017 56.7443 168.289 54.2791Z" fill="#EFF3F8"/>
<path d="M141.814 171.439C142.53 172.063 142.86 174.029 143.293 174.986C144.261 177.122 145.678 179.005 147.039 180.905C144.414 180.671 142.109 180.397 139.878 178.902C137.002 176.821 134.524 174.398 132.013 171.907C135.277 171.691 138.544 171.535 141.814 171.439Z" fill="#EFF3F8"/>
<path d="M164.393 171.662L170.534 171.873C171.853 171.965 173.171 172.068 174.487 172.182C171.473 174.999 167.882 177.569 164.498 179.946C163.054 180.982 159.935 180.922 158.208 181.111C160.459 178.095 162.463 174.887 164.393 171.662Z" fill="#EFF3F8"/>
<path d="M116.308 64.1265C121.036 60.0146 135.011 54.2083 141.342 53.8083C137.289 55.6379 133.359 58.3456 130.244 61.5291C129.355 62.4381 128.632 63.7368 127.642 64.4972C126.306 64.0333 118.217 64.3105 116.324 64.3843L116.308 64.1265Z" fill="#EFF3F8"/>
<path d="M152.33 171.105C152.691 171.096 153.039 171.125 153.399 171.155C154.012 171.978 153.534 179.841 153.464 181.254C151.521 181.264 149.542 181.264 147.617 180.989C147.072 180.402 146.6 179.77 146.12 179.131C144.456 176.656 143.163 174.263 142.363 171.377L152.33 171.105Z" fill="#EFF3F8"/>
<path d="M141.342 53.8083L147.363 52.9323C144.909 56.7747 142.627 60.2374 140.944 64.5065L140.642 64.8248C136.333 64.8291 132.017 64.9303 127.71 64.8291L127.642 64.4972C128.632 63.7368 129.355 62.4381 130.244 61.5291C133.359 58.3456 137.289 55.6379 141.342 53.8083Z" fill="#EC5D99"/>
<path d="M147.363 52.9323C148.531 52.8108 153.152 52.2528 153.957 52.7704C153.973 54.545 154.347 63.6717 153.826 64.6305L153.348 64.7397C150.269 64.2314 144.266 64.4879 140.944 64.5066C142.627 60.2374 144.909 56.7747 147.363 52.9323Z" fill="#EFF3F8"/>
<path d="M160.112 53.0114C162.922 53.1464 165.558 53.6426 168.289 54.2791C172.017 56.7443 178.451 60.6872 180.844 64.256L181.014 64.6571L181.053 64.8805L167.106 64.9724C166.457 63.9682 165.975 62.6317 165.398 61.5538C163.824 58.613 162.105 55.6937 160.112 53.0114Z" fill="#EC5D99"/>
<path d="M190.835 115.85C192.965 115.417 196.127 116.468 198.277 116.922C203.496 119.348 209.263 126.379 214.903 127.111C214.858 129.549 213.887 133.053 212.108 134.827C211.866 135.069 211.595 135.255 211.313 135.447C209.034 134.768 207.09 133.647 205.103 132.381C202.564 132.254 200.017 132.216 197.476 132.142C197.679 129.451 198.13 126.771 198.351 124.074L198.032 123.602C196.245 121.356 192.205 119.53 189.591 118.346C190.119 117.559 190.632 116.786 190.835 115.85Z" fill="#FEB997"/>
<path d="M198.351 124.074C200.556 126.826 202.548 129.941 205.103 132.381C202.564 132.254 200.017 132.216 197.476 132.142C197.679 129.451 198.13 126.771 198.351 124.074Z" fill="#EC5D99"/>
<path d="M153.904 153.165C159.604 153.195 165.305 153.19 171.006 153.149L171.101 153.303C169.385 159.526 167.308 165.314 164.676 171.214C164.048 171.235 163.434 171.217 162.807 171.187C162.199 171.1 161.579 171.069 160.967 171.022C158.564 170.979 156.169 170.95 153.767 171.011C153.862 166.977 153.786 162.929 153.782 158.893C153.781 157.027 153.64 155.01 153.904 153.165Z" fill="#EC5D99"/>
<path d="M160.967 171.022C160.27 170.255 159.574 169.415 159.679 168.308C159.724 167.836 159.963 167.449 160.33 167.157C160.948 166.665 161.795 166.482 162.573 166.58C163.199 166.659 163.95 166.976 164.307 167.521C164.595 167.959 164.676 168.378 164.545 168.89C164.274 169.944 163.677 170.584 162.807 171.187C162.199 171.1 161.579 171.069 160.967 171.022Z" fill="#FEFEFE"/>
<path d="M102.048 153.613C102.354 153.299 103.376 153.387 103.827 153.381L118.294 153.335C121.01 160.221 126.682 166.558 131.59 171.977C129.019 172.272 125.982 172.344 123.535 173.166C119.862 171.483 116.326 168.389 113.216 165.835C109.139 162.299 104.902 158.189 102.048 153.613Z" fill="#EC5D99"/>
<path d="M206.319 153.971C206.347 154.815 202.61 158.807 201.757 159.709C197.902 163.782 189.634 170.814 184.74 173.152C181.579 172.684 178.434 172.191 175.24 171.991C179.109 168.242 182.594 164.367 185.783 160.027C187.181 158.013 188.573 156.002 189.877 153.925L199.949 154.291C201.693 154.354 203.633 154.575 205.364 154.395C205.836 154.346 205.955 154.25 206.319 153.971Z" fill="#E2E5EF"/>
<path d="M171.101 153.303C177.205 153.437 183.344 153.468 189.438 153.836C188.273 155.919 186.884 157.845 185.469 159.766C182.64 163.417 178.347 169 174.78 171.834C173.078 171.7 171.344 171.489 169.637 171.51C167.983 171.436 166.323 171.388 164.676 171.214C167.308 165.314 169.385 159.526 171.101 153.303Z" fill="#EFF3F8"/>
<path d="M118.641 153.35L137.025 153.332C138.524 159.215 140.343 165.002 141.846 170.874L141.635 171.165C138.385 171.175 135.075 171.413 131.836 171.671C126.42 166.485 122.071 159.941 118.641 153.35Z" fill="#EFF3F8"/>
<path d="M198.391 108.582C204.954 108.487 211.696 108.199 218.249 108.581C218.565 114.277 218.319 120.051 216.63 125.552C216.515 126.097 216.517 126.471 216.136 126.889C215.723 126.956 215.312 127.03 214.903 127.111C209.263 126.379 203.496 119.348 198.277 116.922C198.972 114.47 198.484 111.15 198.391 108.582Z" fill="#EC5D99"/>
<path d="M181.014 64.6571L191.75 64.6374C199.344 69.8974 206.973 77.6562 211.014 86.068C208.04 86.5853 194.751 85.5661 193.404 86.3685C193.039 86.0593 186.807 86.1384 185.9 86.0737C188.317 85.885 190.83 86.0376 193.257 86.0717C191.328 80.2083 188.353 74.3572 184.699 69.3797C183.554 67.8202 182.269 66.3829 181.053 64.8805L181.014 64.6571Z" fill="#312E81"/>
<path d="M154.456 64.9821L166.815 64.9901L168.312 69.1C170.124 74.6171 171.88 80.2618 172.949 85.9726C166.959 85.9916 160.948 85.8834 154.961 86.019L154.561 85.9566C154.084 84.9544 154.493 74.8085 154.465 72.6836L154.456 64.9821Z" fill="#EFF3F8"/>
<path d="M140.944 64.5065C144.266 64.4878 150.269 64.2314 153.348 64.7396L154.116 64.9086C154.117 67.841 153.947 70.8756 154.145 73.7952C153.889 77.8727 154.001 82.0156 153.993 86.1035C147.815 85.8066 141.549 86.2875 135.351 86.1348C136.032 84.3452 136.3 82.0781 136.714 80.1839C137.683 75.7465 138.627 71.3447 140.172 67.0596L140.104 66.1439C140.174 65.7198 140.463 65.2242 140.642 64.8248L140.944 64.5065Z" fill="#EFF3F8"/>
<path d="M140.944 64.5065C144.266 64.4878 150.269 64.2314 153.348 64.7396L154.116 64.9086C152.65 65.1504 151.056 65.0512 149.57 65.0636C146.669 65.0923 143.768 65.0895 140.868 65.0552L140.172 67.0596L140.104 66.1439C140.174 65.7198 140.463 65.2242 140.642 64.8248L140.944 64.5065Z" fill="#752FC3"/>
<path d="M95.656 86.24C100.536 77.5294 107.879 69.5634 116.308 64.1265L116.324 64.3843C118.217 64.3105 126.306 64.0333 127.642 64.4971L127.71 64.8291L127.567 64.8491C122.464 71.4402 118.652 78.3492 115.626 86.0864L115.493 86.2113L95.656 86.24Z" fill="#312E81"/>
<path d="M116.324 64.3845C118.217 64.3106 126.306 64.0331 127.642 64.4974L127.71 64.8297L127.567 64.8498C125.765 64.8845 117.332 65.1984 116.324 64.3845Z" fill="#5B21B6"/>
<path d="M111.091 73.5224C111.534 73.5061 112.024 73.4623 112.46 73.5511C113.241 73.7108 114.061 74.3456 114.433 75.0382C114.797 75.7168 114.823 76.4555 114.553 77.1721C114.21 78.0831 113.452 78.5273 112.601 78.9019C112.107 78.951 111.616 79.0068 111.13 78.8762C110.371 78.6725 109.63 78.2107 109.24 77.5187C108.909 76.9307 108.846 76.2604 109.037 75.6159C109.35 74.5637 110.16 74.007 111.091 73.5224Z" fill="#FEFEFE"/>
<path d="M167.106 64.9724L181.053 64.8806C182.269 66.383 183.554 67.8203 184.699 69.3798C188.353 74.3572 191.328 80.2083 193.257 86.0717C190.83 86.0377 188.317 85.885 185.9 86.0737C181.721 86.2013 177.487 86.039 173.303 86.0186C172.211 80.2053 170.58 74.2865 168.566 68.7189C168.127 67.4466 167.707 66.1813 167.106 64.9724Z" fill="#EFF3F8"/>
<path d="M112.096 131.887C114.539 131.686 117.061 131.766 119.514 131.756C124.044 131.737 128.575 131.745 133.105 131.779C133.451 135.349 133.934 138.901 134.556 142.434C135.177 145.967 135.935 149.471 136.828 152.947C130.719 153.011 124.609 153.03 118.499 153.004C115.648 146.256 113.31 139.118 112.096 131.887Z" fill="#EFF3F8"/>
<path d="M95.656 86.24L115.493 86.2113C114.989 87.4616 114.536 88.7116 114.166 90.0083C113.574 92.0817 113.097 96.3285 111.845 97.8543C107.035 99.6159 104.121 104.502 99.8055 107.044C98.3675 108.265 96.8619 109.397 95.2888 110.441C93.1893 111.112 91.4993 113.112 89.5539 114.15C88.9896 112.377 89.2814 110.402 89.0138 108.572L89.1363 106.971C89.2566 106.069 89.3962 105.17 89.5553 104.275C89.7141 103.379 89.8922 102.487 90.0897 101.599C90.2871 100.711 90.5035 99.8277 90.7388 98.949C90.9744 98.07 91.2287 97.1964 91.5017 96.3282C91.7747 95.4601 92.0662 94.5982 92.3763 93.7424C92.6863 92.8866 93.0148 92.0379 93.3616 91.1961C93.7082 90.3541 94.0728 89.52 94.4553 88.6938C94.838 87.8674 95.2382 87.0495 95.656 86.24Z" fill="#FEFEFE"/>
<path d="M89.1363 106.971C92.6687 107.218 96.2634 107.016 99.8055 107.044C98.3675 108.265 96.8619 109.397 95.2888 110.441C93.1893 111.112 91.4993 113.112 89.5539 114.15C88.9896 112.377 89.2814 110.402 89.0138 108.572L89.1363 106.971Z" fill="#EC5D99"/>
<path d="M211.014 86.068C214.747 93.0672 217.686 100.598 218.249 108.581C211.696 108.199 204.954 108.487 198.391 108.582C197.805 104.438 197.407 100.32 196.461 96.2313C195.686 92.8799 194.523 89.6182 193.404 86.3686C194.751 85.5661 208.04 86.5853 211.014 86.068Z" fill="#EFF3F8"/>
<path d="M175.208 131.813C182.52 131.834 189.831 131.943 197.141 132.142C196.003 138.948 193.833 145.104 190.813 151.29L189.66 153.491C183.591 153.179 177.518 153.005 171.441 152.97C173.16 146.02 174.606 138.955 175.208 131.813Z" fill="#EFF3F8"/>
<path d="M155.902 86.3566L173.131 86.3609C174.519 93.6252 175.486 101.159 175.518 108.562L154.361 108.432C154.43 103.794 154.43 99.1561 154.361 94.5179C154.338 91.9358 154.118 89.1834 154.392 86.6197C154.883 86.3055 155.326 86.3803 155.902 86.3566Z" fill="#EFF3F8"/>
<path d="M135.351 86.1348C141.549 86.2874 147.814 85.8065 153.993 86.1034C154.031 93.4853 154.43 101.019 153.979 108.384C146.972 108.295 139.947 108.408 132.938 108.423C133.012 100.893 134.466 93.5758 135.351 86.1348Z" fill="#EC5D99"/>
<path d="M146.746 95.2459C147.153 95.2475 147.579 95.2412 147.974 95.3451C148.791 95.5598 149.543 96.1185 149.93 96.8699C149.97 96.9484 150.006 97.0289 150.038 97.1113C150.07 97.1934 150.097 97.2773 150.12 97.3628C150.143 97.448 150.161 97.5343 150.174 97.6216C150.188 97.7088 150.196 97.7964 150.2 97.8844C150.204 97.9725 150.203 98.0607 150.197 98.1489C150.191 98.2368 150.18 98.3243 150.165 98.4113C150.15 98.4982 150.13 98.584 150.105 98.6688C150.08 98.7534 150.051 98.8366 150.017 98.9183C149.634 99.8456 148.926 100.226 148.042 100.602C147.575 100.62 147.059 100.67 146.601 100.574C145.842 100.416 145.06 99.838 144.693 99.1634C144.362 98.5553 144.318 97.8764 144.54 97.2235C144.904 96.1522 145.772 95.691 146.746 95.2459Z" fill="#FEFEFE"/>
<path d="M175.692 108.606C183.256 108.521 190.831 108.894 198.392 108.582C198.484 111.15 198.972 114.47 198.277 116.922C196.127 116.468 192.965 115.417 190.835 115.85C190.632 116.786 190.119 117.559 189.591 118.346C192.205 119.53 196.245 121.356 198.032 123.601C197.404 126.216 197.683 129.127 197.156 131.801C189.871 131.813 182.596 131.478 175.31 131.469C175.587 126.548 175.877 121.509 175.785 116.583C175.853 113.923 175.822 111.264 175.692 108.606Z" fill="#E2E5EF"/>
<path d="M190.349 110.304L189.984 111.005C189.836 111.285 189.638 111.587 189.545 111.889C189.321 112.611 189.632 113.395 190.012 114.004C190.241 114.37 190.417 114.684 190.56 115.091L190.835 115.85C190.632 116.786 190.119 117.559 189.591 118.346C188.97 119.448 187.017 120.832 185.942 122.513C186.397 121.245 186.968 120.061 187.57 118.856C187.489 118.834 187.408 118.81 187.326 118.789C186.725 118.631 186.191 118.503 185.679 118.132C185.225 117.803 184.858 117.351 184.778 116.786C184.317 113.552 186.525 113.78 188.563 112.36C189.278 111.862 189.829 110.995 190.349 110.304Z" fill="#FEFEFE"/>
<path d="M154.361 108.432L175.517 108.562L175.692 108.606C175.822 111.264 175.853 113.923 175.785 116.583C175.491 118.804 175.561 121.054 175.511 123.289C175.468 126.041 175.27 128.782 174.918 131.512C171.621 131.504 168.304 131.422 165.019 131.737L163.828 131.759C161.676 131.715 159.475 131.492 157.329 131.597C157.245 131.571 157.158 131.55 157.075 131.519C155.492 130.911 154.808 128.25 154.273 126.793C154.54 120.713 154.371 114.519 154.361 108.432Z" fill="#EC5D99"/>
<path d="M110.599 108.434C118.035 108.298 125.501 108.355 132.938 108.423C132.902 115.627 132.921 122.799 133.161 130C133.148 130.593 133.129 131.186 133.105 131.779C128.575 131.745 124.044 131.737 119.514 131.756C117.061 131.766 114.539 131.686 112.096 131.887L111.984 131.782C109.547 131.786 92.6011 132.08 91.9334 131.795C91.7093 131.699 91.5855 131.174 91.4936 130.948C94.5354 127.732 101.014 122.869 102.798 119.238C104.949 115.699 106.863 112.028 109.02 108.499C109.538 108.487 110.087 108.507 110.599 108.434Z" fill="#EC5D99"/>
<path d="M110.599 108.434C111.074 111.392 110.542 115.014 110.573 118.055C110.62 122.683 111.206 127.226 111.984 131.782C109.547 131.786 92.6011 132.08 91.9334 131.795C91.7093 131.699 91.5855 131.174 91.4936 130.948C94.5354 127.732 101.014 122.869 102.798 119.238C104.949 115.699 106.863 112.028 109.02 108.499C109.538 108.487 110.087 108.507 110.599 108.434Z" fill="#EFF3F8"/>
<path d="M127.71 64.8291C132.017 64.9303 136.333 64.8291 140.642 64.8248C140.463 65.2242 140.174 65.7198 140.104 66.1439L140.172 67.0596C138.627 71.3447 137.683 75.7465 136.714 80.1839C136.3 82.0781 136.032 84.3452 135.351 86.1348C134.466 93.5758 133.012 100.893 132.938 108.423C125.501 108.355 118.035 108.298 110.599 108.434C110.087 108.508 109.538 108.487 109.02 108.499C106.863 112.028 104.949 115.699 102.798 119.239C100.06 116.556 97.7181 113.398 95.2888 110.441C96.8619 109.397 98.3675 108.265 99.8055 107.044C104.121 104.502 107.035 99.6159 111.845 97.8543C113.097 96.3285 113.574 92.0817 114.166 90.0083C114.535 88.7116 114.989 87.4616 115.493 86.2113L115.626 86.0864C118.652 78.3492 122.464 71.4403 127.567 64.8492L127.71 64.8291Z" fill="#3730A3"/>
<path d="M123.37 93.2506C123.94 93.1988 124.529 93.1297 125.094 93.2499C125.831 93.4065 126.516 93.9328 126.894 94.5753C127.24 95.1644 127.312 95.8193 127.109 96.4708C126.816 97.4112 126.106 97.8971 125.283 98.3603C124.736 98.4481 124.156 98.5736 123.608 98.4307C122.897 98.2454 122.248 97.7618 121.877 97.1317C121.829 97.0486 121.785 96.9634 121.747 96.8759C121.708 96.7882 121.674 96.6987 121.645 96.6074C121.615 96.5163 121.591 96.4239 121.571 96.3302C121.552 96.2365 121.538 96.142 121.528 96.0467C121.519 95.9514 121.515 95.8559 121.516 95.7602C121.517 95.6644 121.523 95.569 121.534 95.474C121.545 95.3789 121.561 95.2847 121.582 95.1914C121.603 95.0979 121.629 95.0059 121.66 94.9153C121.964 93.9973 122.561 93.6907 123.37 93.2506Z" fill="#FEFEFE"/>
<path d="M112.594 97.9251C114.314 97.1263 117.995 95.4362 119.917 96.1141C120.191 96.4531 120.217 96.4417 120.2 96.8702C119.627 97.5521 118.235 97.6693 117.9 98.3676C118.867 98.992 119.467 97.7414 120.55 99.0431C120.508 99.6489 120.463 100.25 120.384 100.852L119.855 101.22C117.073 103.073 113.963 103.746 111.058 105.244C110.889 106.14 110.417 107.57 110.599 108.434C110.087 108.507 109.538 108.487 109.02 108.499C106.863 112.028 104.949 115.699 102.798 119.238C100.06 116.556 97.7181 113.398 95.2888 110.441C96.8619 109.397 98.3675 108.265 99.8055 107.044C104.121 104.502 107.035 99.6159 111.845 97.8543L112.594 97.9251Z" fill="#FEB997"/>
<path d="M120.55 99.0432C120.508 99.649 120.463 100.25 120.384 100.852C119.801 100.537 119.09 100.305 118.653 99.8006C118.992 99.3361 120.011 99.1918 120.55 99.0432Z" fill="#EC4899"/>
<path d="M110.885 105.272L111.058 105.244C110.889 106.14 110.417 107.57 110.599 108.434C110.087 108.507 109.538 108.487 109.02 108.499C109.593 107.382 110.149 106.294 110.885 105.272Z" fill="#E2E5EF"/>
<path d="M112.099 100.878C114.997 100.322 117.02 100.32 119.855 101.22C117.073 103.073 113.963 103.746 111.058 105.244L110.885 105.272C110.928 103.779 111.346 102.164 112.099 100.878Z" fill="#EC4899"/>
<path d="M127.71 64.8291C132.017 64.9303 136.333 64.8291 140.642 64.8248C140.463 65.2242 140.174 65.7198 140.104 66.1439C137.801 72.5944 136.459 79.3324 135.203 86.0494L122.527 86.0644C120.237 86.0624 117.909 85.9619 115.626 86.0864C118.652 78.3492 122.464 71.4403 127.567 64.8492L127.71 64.8291Z" fill="#EFF3F8"/>
<path d="M132.938 108.423C139.947 108.408 146.972 108.295 153.979 108.384C153.982 110.385 153.752 126.392 154.139 126.933L154.273 126.793C154.808 128.25 155.492 130.911 157.075 131.519C157.158 131.55 157.245 131.571 157.329 131.597C159.475 131.492 161.676 131.715 163.828 131.759L165.019 131.737L174.883 131.784C174.018 138.894 173.135 146.287 171.005 153.149C165.305 153.19 159.604 153.195 153.904 153.165C154.428 151.533 154.217 141.121 153.881 139.068L153.786 139.136C153.419 143.468 153.716 148.59 153.763 153.013C148.252 153.085 142.738 152.863 137.226 152.871C135.331 145.941 134.33 138.922 133.394 131.815C137.895 131.83 147.906 132.398 151.738 131.175C145.606 131.593 139.43 131.468 133.285 131.479C133.271 130.975 133.242 130.497 133.161 130C132.921 122.799 132.901 115.627 132.938 108.423Z" fill="#EFF3F8"/>
<path d="M157.33 131.597C159.475 131.492 161.676 131.715 163.828 131.759C163.278 131.911 162.752 132.134 162.199 132.273C160.53 132.691 158.804 132.483 157.33 131.597Z" fill="#752FC3"/>
<path d="M85.8347 136.249C87.5166 134.527 89.3378 132.97 91.1705 131.409C92.7589 139.679 97.0464 147.217 101.634 154.177C104.585 158.54 108.515 163.115 112.702 166.356C119.469 172.412 129.161 177.779 138.106 179.816C146.51 182.011 156.108 182.482 164.651 180.819C170.016 179.806 175.042 178.363 180.041 176.163C180.542 175.937 181.041 175.706 181.538 175.468C182.034 175.23 182.527 174.986 183.017 174.737C183.507 174.487 183.994 174.231 184.478 173.97C184.962 173.708 185.442 173.441 185.919 173.167C186.397 172.894 186.87 172.615 187.341 172.33C187.811 172.045 188.277 171.755 188.741 171.459C189.204 171.162 189.663 170.86 190.119 170.553C190.574 170.245 191.026 169.932 191.474 169.614C191.922 169.296 192.366 168.972 192.805 168.643C193.245 168.313 193.681 167.979 194.113 167.639C194.544 167.299 194.971 166.954 195.394 166.604C195.817 166.253 196.236 165.898 196.65 165.537C197.064 165.177 197.474 164.811 197.879 164.441C198.284 164.071 198.685 163.695 199.081 163.315C199.477 162.935 199.868 162.55 200.254 162.16C200.641 161.77 201.022 161.375 201.399 160.976C201.775 160.577 202.147 160.174 202.513 159.766C202.88 159.357 203.242 158.945 203.598 158.528C203.954 158.111 204.306 157.69 204.652 157.264C204.998 156.839 205.338 156.409 205.674 155.975C206.009 155.541 206.339 155.104 206.663 154.662C206.988 154.22 207.307 153.774 207.62 153.325C207.934 152.875 208.242 152.422 208.544 151.964C208.846 151.507 209.142 151.046 209.433 150.582C209.724 150.118 210.009 149.65 210.288 149.179C210.568 148.707 210.841 148.232 211.109 147.754C211.376 147.277 211.638 146.796 211.893 146.311C212.149 145.827 212.398 145.339 212.642 144.849C212.886 144.358 213.123 143.865 213.354 143.369C213.586 142.873 213.811 142.374 214.03 141.872C214.249 141.37 214.461 140.866 214.668 140.359C214.874 139.852 215.075 139.343 215.268 138.831L215.979 137.124C218.773 138.418 227.442 137.971 230.778 137.943C230.004 144.298 231.975 147.931 232.4 153.877C228.412 163.149 224.141 172.277 220.36 181.639C218.128 187.166 215.711 192.854 214.726 198.757C214.118 202.404 214.237 209.958 214.654 213.767C214.678 214.545 214.722 215.329 214.724 216.108C206.375 216.225 198.012 216.095 189.662 216.087C185.959 216.083 182.234 216.003 178.535 216.158C173.328 215.903 168.034 216.077 162.818 216.114C159.648 216.104 156.479 216.114 153.309 216.145C144.991 216.192 136.673 216.182 128.355 216.115L99.0214 216.111L99.3573 213.91C100.063 210.161 101.444 201.902 101.084 198.312C100.616 193.64 97.8429 188.462 96.3091 183.967C93.476 175.663 90.9403 167.136 87.7206 158.977L93.2357 159.016C90.0142 152.549 87.4409 145.528 86.0787 138.437C86.04 137.705 85.9283 136.976 85.8347 136.249Z" fill="#E8EBF3"/>
<path d="M134.215 197.758C134.506 197.729 134.792 197.704 135.085 197.708C135.907 197.72 136.544 198 137.102 198.609C137.48 199.022 137.664 199.544 137.595 200.1C137.489 200.958 137.031 201.396 136.364 201.893C136.1 201.917 135.835 201.934 135.571 201.945C134.744 201.971 134.066 201.68 133.483 201.094C133.063 200.671 132.783 200.142 132.86 199.529C132.968 198.669 133.537 198.204 134.215 197.758Z" fill="#FEFEFE"/>
<path d="M220.362 153.79C220.559 153.984 220.674 154.311 220.807 154.559C221.951 156.691 223.428 157.937 225.748 158.637C225.295 158.79 224.843 158.949 224.394 159.115C222.384 159.862 221.676 161.138 220.828 162.972L220.685 163.238L220.463 163.128C219.538 160.742 218.23 159.725 215.956 158.657C218.195 157.423 219.287 156.026 220.362 153.79Z" fill="#FEFEFE"/>
<path d="M200.839 180.109C201.123 180.051 200.959 180.05 201.322 180.199C201.782 181.604 203.803 193.423 203.762 194.606C203.28 194.904 202.62 194.938 202.063 195.024L201.718 194.884C200.77 193.309 199.371 182.859 198.914 180.474C199.539 180.29 200.196 180.212 200.839 180.109Z" fill="#EC5D99"/>
<path d="M114.309 184.796C115.234 185.011 116.062 185.356 116.907 185.778C114.908 190.534 112.866 195.272 110.783 199.992C110.67 200.207 110.546 200.482 110.384 200.663C110.115 200.963 109.893 201.067 109.5 201.095L109.309 200.863C109.023 198.165 113.097 187.694 114.309 184.796Z" fill="#EC4899"/>
<path d="M176.535 185.823C177.152 186.64 177.408 188.15 177.798 189.136C179.504 193.457 181.66 193.84 185.54 195.544C182.113 196.982 179.564 197.942 177.905 201.471C177.404 202.538 177.028 203.664 176.435 204.686C176.41 204.73 176.384 204.773 176.358 204.817L176.075 204.118C173.718 198.313 172.607 198.122 166.993 195.752C167.653 195.47 168.346 195.248 169.014 194.981C173.37 193.239 174.807 189.815 176.535 185.823Z" fill="#FEFEFE"/>
<path d="M99.3573 213.91L214.654 213.767C214.678 214.545 214.722 215.329 214.724 216.108C206.375 216.225 198.012 216.095 189.662 216.087C185.959 216.083 182.234 216.003 178.535 216.158C173.328 215.903 168.034 216.077 162.818 216.114C159.648 216.104 156.479 216.114 153.309 216.145C144.991 216.192 136.673 216.182 128.355 216.115L99.0215 216.111L99.3573 213.91Z" fill="#5B21B6"/>
</svg>
