<svg width="185" height="146" viewBox="0 0 185 146" fill="none" xmlns="http://www.w3.org/2000/svg">
<path d="M26.6482 143.77C27.408 143.98 29.064 144.243 29.4988 144.895C29.6444 145.114 29.551 145.256 29.4844 145.484C30.7251 145.499 32.4441 145.668 33.6335 145.408C33.5668 144.887 33.5475 144.365 33.5235 143.841C34.1552 143.833 34.7904 143.838 35.421 143.802C36.2478 143.98 37.7167 144.153 38.2561 144.834C38.276 145.055 38.2507 145.239 38.2188 145.458C38.4021 145.546 38.5114 145.527 38.7111 145.523C49.6877 145.525 60.6761 145.402 71.651 145.542L100.454 145.515L108.571 145.524C109.961 145.524 111.383 145.46 112.769 145.532C116.655 145.499 120.563 145.447 124.448 145.532C130.611 145.492 136.83 145.312 142.986 145.515C143.531 145.533 144.129 145.503 144.666 145.58L153.01 145.574C154.645 145.574 156.299 145.626 157.929 145.508L158.325 145.53C160.952 145.516 164.292 145.337 166.832 145.525C169.741 145.503 172.65 145.496 175.559 145.504C177.012 145.504 178.495 145.56 179.946 145.49C180.721 145.497 183.76 145.333 184.262 145.758C184.159 145.905 184.061 145.892 183.891 145.918C183.079 146.042 182.189 145.947 181.368 145.941L177.016 145.947L168.121 145.921C166.1 145.922 164.06 145.987 162.041 145.901C160.945 146.006 159.76 145.921 158.653 145.921C156.819 145.921 154.968 145.968 153.135 145.894C151.561 146.03 149.908 145.93 148.323 145.93L139.015 145.933L130.686 145.932C129.305 145.931 127.846 146.035 126.48 145.891C120.985 146.042 115.455 145.934 109.957 145.928L100.941 145.934C98.4704 146.001 95.9803 145.935 93.5077 145.935L80.236 145.934C71.926 146.074 63.5929 145.948 55.2804 145.943L45.0856 145.935C43.2527 145.933 41.3884 146 39.5588 145.896C38.5511 145.928 37.523 145.915 36.5151 145.88C33.0861 146.044 29.6345 145.925 26.2025 145.931L0.777838 145.925C0.561227 145.945 0.445132 145.958 0.249473 145.856L0.171387 145.595C1.19003 145.333 2.79896 145.51 3.89267 145.51L11.1991 145.506L20.0127 145.499C21.508 145.496 23.1217 145.379 24.6048 145.538C24.6807 144.977 24.706 144.398 24.7547 143.833C25.3918 143.84 26.0135 143.828 26.6482 143.77Z" fill="#6366F1"/>
<path d="M171.084 134.371C172.01 133.949 172.81 133.525 173.534 132.797C175.2 131.123 175.691 128.712 178.368 128.324C179.074 128.221 179.835 128.246 180.51 128.495C181.266 128.774 181.851 129.32 182.158 130.068C182.564 131.053 182.423 132.219 182.009 133.178C181.124 135.225 178.965 135.66 178.087 137.345C177.176 139.093 177.896 141.178 176.436 142.741C175.589 143.646 174.345 143.99 173.275 144.546C172.79 144.798 172.342 145.124 171.896 145.438C173.745 145.433 178.424 145.165 179.946 145.49C178.495 145.56 177.012 145.504 175.559 145.504C172.65 145.496 169.741 145.503 166.832 145.525C164.292 145.337 160.952 145.516 158.325 145.53C159.599 143.215 160.37 140.695 161.638 138.391C164.495 133.197 166.748 135.624 171.084 134.371Z" fill="#C7D2FE"/>
<path d="M35.5145 143.204C37.8938 143.379 40.3291 143.248 42.7158 143.23L54.0459 143.199L89.6575 143.218L124.726 143.185C129.007 143.223 133.287 143.24 137.567 143.236C139.163 143.233 140.786 143.303 142.377 143.245C142.7 143.233 142.82 143.26 143.043 143.029L143.067 143.142C143.035 143.557 142.997 143.968 143.009 144.384L142.986 145.515C136.83 145.312 130.611 145.492 124.448 145.532C120.563 145.447 116.655 145.499 112.769 145.532C111.383 145.46 109.96 145.524 108.571 145.524L100.454 145.515L71.6509 145.542C60.676 145.402 49.6876 145.525 38.7111 145.524C38.5113 145.527 38.4021 145.546 38.2187 145.458C38.2507 145.239 38.276 145.056 38.256 144.834C37.7166 144.153 36.2478 143.98 35.4209 143.802L35.5145 143.204Z" fill="#C7D2FE"/>
<path d="M156.863 123.667C158.272 122.212 159.646 122.051 161.493 121.527C166.859 120.004 164.352 112.848 166.531 109.016C166.989 108.209 167.63 107.563 168.547 107.32C169.511 107.065 170.771 107.241 171.622 107.776C175.506 110.218 172.528 115.198 172.124 118.526C172.005 119.506 172.13 120.373 172.352 121.328C173.095 123.325 173.724 125.436 172.786 127.501C171.739 129.804 169.828 130.95 170.861 133.776C170.934 133.975 171.008 134.173 171.084 134.371C166.748 135.624 164.495 133.197 161.638 138.391C160.37 140.695 159.599 143.215 158.325 145.53L157.929 145.508C156.298 145.627 154.645 145.574 153.01 145.574L144.665 145.58C144.129 145.503 143.531 145.533 142.986 145.515L143.009 144.384C144.532 144.356 156.948 144.434 157.343 144.213L157.379 143.759C157.121 140.893 156.963 138.019 156.702 135.153C156.598 132.879 156.414 130.582 156.176 128.319C156.18 127.164 155.991 126.007 155.99 124.847C156.336 124.595 156.62 124.026 156.863 123.667Z" fill="#F472B6"/>
<path d="M157.379 143.759L157.479 143.63C158.992 141.661 159.976 138.428 160.987 136.104C163.498 130.331 166.405 124.726 168.024 118.603C168.574 116.523 169.021 114.411 169.184 112.262C169.254 111.346 169.095 109.714 169.586 108.938C169.779 109.964 169.496 111.487 169.376 112.54C168.236 122.574 163.22 131.253 159.389 140.408C159.188 140.89 157.649 144.14 157.635 144.275C157.61 144.52 157.987 144.641 157.874 144.933C157.82 145.072 157.809 145.159 157.807 145.306L157.929 145.508C156.298 145.626 154.645 145.574 153.01 145.574L144.665 145.58C144.129 145.503 143.531 145.533 142.986 145.515L143.009 144.384C144.532 144.355 156.948 144.434 157.343 144.213L157.379 143.759Z" fill="#C7D2FE"/>
<path d="M119.762 8.43071C120.695 7.32492 121.763 6.31494 123.056 5.64058C125.608 4.30902 128.462 4.25123 131.164 5.0899C134.114 6.14308 136.428 8.20881 137.779 11.0303C138.594 12.7307 138.945 14.4321 139.045 16.3056C139.196 16.5543 139.145 16.9165 139.141 17.1997C140.237 17.5371 141.241 17.9514 142.229 18.5357C142.999 18.9905 143.807 19.6226 144.651 19.9091C144.774 19.7639 144.9 19.6219 145.03 19.4831C145.16 19.3441 145.293 19.2086 145.43 19.0764C145.567 18.9443 145.707 18.8157 145.85 18.6905C145.993 18.5654 146.139 18.4439 146.288 18.3261C146.438 18.2084 146.59 18.0945 146.745 17.9844C146.9 17.8743 147.058 17.7681 147.218 17.6658C147.378 17.5637 147.541 17.4656 147.707 17.3715C147.872 17.2775 148.039 17.1877 148.209 17.1022C148.379 17.0167 148.551 16.9354 148.725 16.8583C148.899 16.7814 149.074 16.7089 149.252 16.6409C149.429 16.5727 149.609 16.5091 149.789 16.45C149.97 16.3909 150.152 16.3364 150.336 16.2864C150.519 16.2365 150.704 16.1912 150.889 16.1506C151.075 16.1099 151.262 16.0739 151.449 16.0426C151.637 16.0113 151.825 15.9848 152.014 15.963C152.203 15.9412 152.392 15.9242 152.582 15.9119C155.519 15.7099 158.377 16.6399 160.586 18.6058C160.718 18.7219 160.847 18.8412 160.974 18.9638C161.1 19.0862 161.223 19.2117 161.343 19.3402C161.463 19.4688 161.58 19.6002 161.693 19.7345C161.807 19.8689 161.917 20.0059 162.024 20.1456C162.13 20.2854 162.233 20.4278 162.333 20.5726C162.433 20.7175 162.529 20.8647 162.622 21.0142C162.714 21.1638 162.803 21.3156 162.888 21.4696C162.973 21.6236 163.054 21.7796 163.131 21.9376C163.208 22.0955 163.282 22.2552 163.351 22.4168C163.421 22.5784 163.486 22.7417 163.547 22.9066C163.609 23.0714 163.666 23.2376 163.719 23.4052C163.772 23.5728 163.821 23.7417 163.866 23.9118C163.911 24.0818 163.951 24.2529 163.988 24.425C164.024 24.597 164.056 24.7699 164.084 24.9435C164.112 25.1172 164.136 25.2914 164.155 25.4661C164.174 25.641 164.189 25.8162 164.2 25.9917C164.35 28.9821 163.421 31.416 161.822 33.8906C163.728 35.2432 165.324 37.0367 166.934 38.7171C171.984 43.9867 175.882 49.9956 178.991 56.5767C179.925 58.5536 180.816 60.5211 181.524 62.5928C182.791 66.291 183.655 70.1323 184.306 73.9817C185.892 83.3292 184.635 92.7422 181.796 101.716C181.338 103.164 180.903 104.637 180.354 106.053C179.79 107.508 179.124 108.934 178.485 110.358C176.798 114.113 174.876 117.796 172.479 121.154C172.437 121.212 172.395 121.27 172.353 121.328C172.13 120.373 172.005 119.506 172.124 118.526C172.528 115.198 175.506 110.218 171.622 107.776C170.771 107.241 169.511 107.065 168.548 107.32C167.63 107.563 166.989 108.209 166.531 109.016C164.352 112.848 166.859 120.004 161.493 121.527C159.646 122.052 158.272 122.212 156.863 123.667C156.62 124.026 156.336 124.595 155.99 124.847C155.991 126.007 156.18 127.164 156.176 128.319C156.414 130.582 156.598 132.879 156.702 135.153C156.963 138.019 157.121 140.893 157.379 143.759L157.343 144.213C156.948 144.434 144.532 144.356 143.009 144.384C142.997 143.968 143.035 143.556 143.067 143.142L143.043 143.029C143.266 138.698 143.745 134.344 144.102 130.019C144.101 128.849 144.265 127.637 144.355 126.469C144.551 123.264 144.887 120.057 145.151 116.857C145.209 116.086 145.259 115.314 145.361 114.547C145.366 113.511 145.41 112.213 145.636 111.202C145.692 109.063 145.96 106.882 146.13 104.746C146.095 104.137 146.191 103.479 146.234 102.868C146.291 100.61 146.576 98.3288 146.754 96.0771L147.716 83.2827L147.792 82.1885C147.757 80.7632 147.992 79.2313 148.112 77.8048C148.242 75.7849 148.447 73.7614 148.514 71.7387C148.584 69.5906 148.795 67.3128 149.054 65.1765C149.059 64.4582 149.132 63.734 149.18 63.017C149.222 61.6169 149.398 60.2171 149.506 58.8204C149.554 58.0456 149.584 57.2647 149.696 56.496C149.798 55.304 149.906 54.1127 150.02 52.9218C150.031 52.3368 150.111 51.7559 150.178 51.1749L137.445 51.1625C137.219 53.625 137.119 56.4334 137.111 58.9082C137.106 60.2289 137.356 61.5034 137.455 62.813C137.623 65.0478 137.204 67.4701 136.58 69.6102C136.464 70.0065 136.299 70.9047 136.014 71.1766C135.995 71.1947 135.971 71.207 135.95 71.2224L135.871 71.1474C135.945 70.418 136.271 69.7021 136.451 68.9883C136.989 66.8546 137.371 64.5586 137.121 62.358C137.041 61.846 136.878 61.3216 136.751 60.8183C136.522 60.3238 135.98 59.8333 135.493 59.6035C135.362 59.479 135.322 59.3756 135.246 59.2143C134.063 58.7125 133.046 58.5139 131.8 59.0107C130.622 59.4805 129.998 60.2968 129.513 61.4211C129.538 61.4449 129.564 61.4689 129.59 61.4925C130.333 62.166 131.963 62.5686 132.201 62.8346L132.147 62.976C131.606 63.1484 130.99 62.8881 130.508 62.6434C130.036 62.403 129.612 62.1205 129.189 61.8041C127.997 60.3563 127.733 58.6935 127.63 56.8632C127.247 55.4747 127.642 52.3536 127.838 50.8149C128.043 49.385 128.548 47.2987 129.721 46.3401C130.243 45.9142 130.892 45.6367 131.39 45.2147C131.526 45.0995 131.488 44.9557 131.504 44.787C131.346 43.7892 131.454 42.6288 131.469 41.6171C131.506 39.0391 131.646 34.4636 130.998 32.0604C130.885 31.6432 130.881 31.593 130.517 31.3783C129.9 31.0148 129.629 30.8055 129.447 30.0852L129.423 29.9836C127.171 29.696 124.964 28.4032 123.202 27.0384C120.143 24.6694 117.805 21.3413 117.337 17.4336C116.953 14.224 117.747 10.9796 119.762 8.43071Z" fill="#FCE7F3"/>
<path d="M146.979 40.9205C146.912 41.3311 146.809 41.8105 146.465 42.0828C146.257 42.2473 145.997 42.3209 145.734 42.284C145.429 42.2412 145.143 42.0601 144.97 41.8062C144.807 41.5686 144.75 41.2768 144.823 40.9953C144.926 40.6011 145.197 40.3949 145.517 40.174C146.013 40.4086 146.506 40.6397 146.979 40.9205Z" fill="#F472B6"/>
<path d="M165.188 52.2914C165.435 52.2657 165.694 52.2358 165.94 52.2796C166.413 52.3634 166.887 52.6643 167.138 53.0754C167.384 53.4771 167.433 53.9737 167.297 54.4219C167.1 55.0732 166.69 55.3773 166.112 55.6841C165.872 55.6985 165.635 55.7085 165.397 55.6667C164.925 55.5842 164.493 55.2822 164.242 54.8763C164.001 54.4845 163.944 53.9964 164.067 53.5547C164.243 52.9216 164.649 52.6161 165.188 52.2914Z" fill="#C7D2FE"/>
<path d="M142.025 25.3088C144.55 27.2902 147.354 32.1705 147.724 35.3687C147.93 37.1528 147.641 39.2041 147.007 40.8811L146.979 40.9204C146.506 40.6396 146.013 40.4085 145.516 40.1739L145.521 40.0852C145.36 39.8763 145.203 39.6645 145.049 39.4498C142.113 35.354 141.229 30.2142 142.025 25.3088Z" fill="#BE185D"/>
<path d="M144.651 19.9091C144.774 19.7639 144.9 19.6219 145.03 19.4831C145.16 19.3441 145.293 19.2086 145.43 19.0764C145.567 18.9443 145.707 18.8157 145.85 18.6905C145.993 18.5654 146.139 18.4439 146.289 18.3261C146.438 18.2084 146.59 18.0945 146.745 17.9844C146.9 17.8743 147.058 17.7681 147.218 17.6658C147.379 17.5637 147.541 17.4656 147.707 17.3715C147.872 17.2775 148.039 17.1877 148.209 17.1022C148.379 17.0167 148.551 16.9354 148.725 16.8583C148.899 16.7814 149.074 16.7089 149.252 16.6409C149.429 16.5727 149.609 16.5091 149.789 16.45C149.97 16.3909 150.152 16.3364 150.336 16.2864C150.519 16.2365 150.704 16.1912 150.89 16.1506C151.075 16.1099 151.262 16.0739 151.449 16.0426C151.637 16.0113 151.825 15.9848 152.014 15.963C152.203 15.9412 152.392 15.9242 152.582 15.9119C155.519 15.7099 158.377 16.6399 160.586 18.6058C160.718 18.7219 160.847 18.8412 160.974 18.9638C161.1 19.0862 161.223 19.2117 161.343 19.3402C161.463 19.4688 161.58 19.6002 161.693 19.7345C161.807 19.8689 161.917 20.0059 162.024 20.1456C162.13 20.2854 162.233 20.4277 162.333 20.5726C162.433 20.7175 162.529 20.8646 162.622 21.0142C162.714 21.1638 162.803 21.3156 162.888 21.4696C162.973 21.6236 163.054 21.7796 163.131 21.9376C163.208 22.0955 163.282 22.2552 163.351 22.4168C163.421 22.5784 163.486 22.7417 163.547 22.9066C163.609 23.0714 163.666 23.2376 163.719 23.4052C163.772 23.5728 163.821 23.7417 163.866 23.9118C163.911 24.0818 163.951 24.2529 163.988 24.425C164.024 24.597 164.056 24.7699 164.084 24.9435C164.112 25.1172 164.136 25.2914 164.155 25.4661C164.174 25.641 164.189 25.8162 164.2 25.9917C164.35 28.9821 163.421 31.416 161.822 33.8906C158.886 37.7035 154.866 40.0936 150.076 40.7065C149.057 40.8368 148.027 40.7796 147.007 40.8813C147.641 39.2043 147.931 37.153 147.724 35.3689C147.354 32.1706 144.55 27.2904 142.025 25.309C142.541 23.3 143.409 21.5682 144.651 19.9091Z" fill="#F472B6"/>
<path d="M119.762 8.43071C120.695 7.32492 121.763 6.31494 123.056 5.64058C125.608 4.30902 128.462 4.25123 131.164 5.0899C134.114 6.14308 136.428 8.20881 137.779 11.0303C138.594 12.7307 138.945 14.4321 139.045 16.3056C139.004 20.4292 137.58 24.8097 134.559 27.7412C134.339 27.9563 134.107 28.1578 133.863 28.3456C133.619 28.5334 133.365 28.7063 133.101 28.8642C132.802 29.0556 132.47 29.2358 132.19 29.4527C132.277 29.9749 132.335 30.4577 132.003 30.9107C131.819 31.1609 131.571 31.3493 131.322 31.5295C131.483 33.761 131.734 35.9595 131.786 38.1999C131.838 40.3684 131.701 42.5416 131.758 44.7076L131.79 45.0441C132.163 45.2361 132.873 45.062 133.302 45.08C135.149 45.1573 136.647 46.6116 137.178 48.3148C137.425 49.1071 137.522 50.001 137.503 50.8286C138.669 50.6434 140.014 50.7547 141.197 50.7529C144.311 50.7483 147.464 50.8659 150.571 50.7093L150.893 50.7427C151.312 51.3425 151.312 52.735 151.383 53.474C151.573 55.4506 151.561 57.4404 151.736 59.4176L154.894 98.6616L156.307 116.127C156.5 118.63 156.797 121.16 156.863 123.667C156.62 124.026 156.336 124.595 155.99 124.847C155.991 126.007 156.18 127.164 156.176 128.319C156.414 130.582 156.598 132.879 156.702 135.153C156.963 138.019 157.121 140.893 157.379 143.759L157.343 144.213C156.948 144.434 144.532 144.356 143.009 144.384C142.997 143.968 143.035 143.556 143.067 143.142L143.043 143.029C143.266 138.698 143.745 134.344 144.102 130.019C144.101 128.849 144.265 127.637 144.355 126.469C144.551 123.264 144.887 120.057 145.151 116.857C145.209 116.086 145.259 115.314 145.361 114.547C145.366 113.511 145.41 112.213 145.636 111.202C145.692 109.063 145.96 106.882 146.13 104.746C146.095 104.137 146.191 103.479 146.234 102.868C146.291 100.61 146.576 98.3288 146.754 96.0771L147.716 83.2827L147.792 82.1885C147.757 80.7632 147.992 79.2313 148.112 77.8048C148.242 75.7849 148.447 73.7614 148.514 71.7387C148.584 69.5906 148.795 67.3128 149.054 65.1765C149.059 64.4582 149.132 63.734 149.18 63.017C149.222 61.6169 149.398 60.2171 149.506 58.8204C149.554 58.0456 149.584 57.2647 149.696 56.496C149.798 55.304 149.906 54.1127 150.02 52.9218C150.031 52.3368 150.111 51.7559 150.178 51.1749L137.445 51.1625C137.219 53.625 137.119 56.4334 137.111 58.9082C137.106 60.2289 137.356 61.5034 137.455 62.813C137.623 65.0478 137.204 67.4701 136.58 69.6102C136.464 70.0065 136.299 70.9047 136.014 71.1766C135.995 71.1947 135.971 71.207 135.95 71.2224L135.871 71.1474C135.945 70.418 136.271 69.7021 136.451 68.9883C136.989 66.8546 137.371 64.5586 137.121 62.358C137.041 61.846 136.878 61.3216 136.751 60.8183C136.522 60.3238 135.98 59.8333 135.493 59.6035C135.362 59.479 135.322 59.3756 135.246 59.2143C134.063 58.7125 133.046 58.5139 131.8 59.0107C130.622 59.4805 129.998 60.2968 129.513 61.4211C129.538 61.4449 129.564 61.4689 129.59 61.4925C130.333 62.166 131.963 62.5686 132.201 62.8346L132.147 62.976C131.606 63.1484 130.99 62.8881 130.508 62.6434C130.036 62.403 129.612 62.1205 129.189 61.8041C127.997 60.3563 127.733 58.6935 127.63 56.8632C127.247 55.4747 127.642 52.3536 127.838 50.8149C128.043 49.385 128.548 47.2987 129.721 46.3401C130.243 45.9142 130.892 45.6367 131.39 45.2147C131.526 45.0995 131.488 44.9557 131.504 44.787C131.346 43.7892 131.454 42.6288 131.469 41.6171C131.506 39.0391 131.646 34.4636 130.998 32.0604C130.885 31.6432 130.881 31.593 130.517 31.3783C129.9 31.0148 129.629 30.8055 129.447 30.0852L129.423 29.9836C127.171 29.696 124.964 28.4032 123.202 27.0384C120.143 24.6694 117.805 21.3413 117.337 17.4336C116.953 14.224 117.747 10.9796 119.762 8.43071Z" fill="#6366F1"/>
<path d="M131.298 45.8823L131.453 45.9224C131.875 46.6564 131.93 47.8829 132.155 48.7254C132.353 49.4631 132.618 50.1796 132.883 50.8951L130.008 50.8861L128.316 50.8789C128.39 50.3817 128.49 49.8777 128.629 49.3944C129.075 47.8452 129.869 46.6852 131.298 45.8823Z" fill="#A5B4FC"/>
<path d="M134.347 51.1534C135.259 51.1423 136.179 51.1047 137.091 51.1274L136.877 57.727C136.843 58.7237 136.91 59.8445 136.751 60.8183C136.522 60.3237 135.98 59.8332 135.493 59.6034C135.696 56.9619 134.25 53.6653 133.341 51.1734L134.347 51.1534Z" fill="#F472B6"/>
<path d="M133.177 50.8937C132.825 49.9114 131.592 46.7172 131.94 45.7997C132.148 45.7153 132.341 45.6723 132.565 45.6424C133.574 45.5065 134.557 45.7926 135.351 46.4281C136.735 47.5355 136.948 49.1209 137.1 50.7628C136.197 50.8763 135.253 50.8815 134.343 50.89L133.177 50.8937Z" fill="#A5B4FC"/>
<path d="M128.238 51.1588C129.832 51.1828 131.427 51.1946 133.022 51.1943C134.034 53.8698 134.915 56.3407 135.246 59.2141C134.063 58.7123 133.046 58.5137 131.8 59.0105C130.622 59.4803 129.998 60.2966 129.513 61.4209C128.104 59.8093 128.177 57.5659 128.011 55.5493C128.043 54.076 128.133 52.6279 128.238 51.1588Z" fill="#F472B6"/>
<path d="M150.571 50.7092L150.893 50.7426C151.312 51.3424 151.312 52.7349 151.383 53.4739C151.573 55.4505 151.561 57.4403 151.736 59.4175L154.894 98.6615L156.307 116.127C156.5 118.63 156.797 121.159 156.863 123.667C156.62 124.026 156.336 124.595 155.99 124.847L155.925 124.835C155.849 122.979 155.64 121.094 155.459 119.244C155.359 116.912 155.159 114.5 154.898 112.18C154.847 111.441 154.811 110.698 154.705 109.965C154.688 109.264 154.629 108.526 154.524 107.835C154.506 106.972 154.423 106.086 154.311 105.23C154.385 103.885 154.085 102.08 153.934 100.713C153.967 100.125 153.862 99.4681 153.795 98.8816C153.544 94.9068 153.14 90.9334 152.827 86.9614C152.579 84.4937 152.354 82.024 152.15 79.5522L151.363 69.1953C151.126 66.0398 150.968 62.8273 150.573 59.691C150.442 57.794 150.273 55.8608 150.283 53.9596C150.444 52.8968 150.55 51.7838 150.571 50.7092Z" fill="#C7D2FE"/>
<path d="M150.064 57.6173C150.098 58.2312 150.145 58.844 150.207 59.4556C150.409 61.7519 150.523 64.0556 150.715 66.3534C150.789 67.2384 150.794 68.2163 150.98 69.0821C151.212 72.738 151.379 76.5008 151.832 80.1331C151.93 82.4431 152.215 84.79 152.467 87.088L153.516 99.778C153.544 100.379 153.574 100.992 153.666 101.586C153.727 103.05 153.843 104.556 154.02 106.011C154.093 106.921 154.174 107.831 154.263 108.739C154.27 109.242 154.319 109.739 154.366 110.239C154.43 111.015 154.45 111.827 154.588 112.592C154.707 114.797 154.902 117.025 155.138 119.221C155.273 121.252 155.427 123.282 155.599 125.31C155.643 126.051 155.574 127.056 155.775 127.754C155.895 129.565 156.033 131.375 156.188 133.183C156.246 133.895 156.217 134.835 156.409 135.509L156.702 135.153C156.963 138.019 157.121 140.893 157.379 143.759L157.343 144.213C156.948 144.434 144.532 144.355 143.009 144.384C142.997 143.968 143.035 143.556 143.067 143.142L143.354 142.991C143.871 138.902 144.076 134.731 144.408 130.623C144.562 129.343 144.597 128.026 144.67 126.738C144.898 126.005 144.83 124.931 144.897 124.142C145.092 121.852 145.363 119.554 145.478 117.26C145.563 116.646 145.595 116.033 145.627 115.415C145.763 113.924 145.882 112.431 145.986 110.936C146.14 109.204 146.279 107.471 146.4 105.736C146.471 105.184 146.485 104.641 146.492 104.085C146.695 103.105 146.668 101.982 146.748 100.975C146.946 98.638 147.123 96.2993 147.279 93.959C147.489 90.7736 147.923 87.5223 147.972 84.3362C148.053 83.9421 148.048 83.5197 148.069 83.118C148.239 81.617 148.289 80.0888 148.385 78.5806L148.919 71.1474C149.054 69.3896 149.255 67.6292 149.321 65.8673C149.39 65.2489 149.429 64.6405 149.445 64.0187C149.698 62.6478 149.717 61.1307 149.793 59.7357C149.822 59.0441 149.838 58.2728 150.064 57.6173Z" fill="#C7D2FE"/>
<path d="M156.409 135.509L156.702 135.152C156.963 138.019 157.121 140.893 157.379 143.759L157.343 144.213C156.948 144.434 144.532 144.355 143.009 144.384C142.997 143.967 143.035 143.556 143.067 143.141L143.354 142.991L143.324 144.041L157.054 144.004C156.881 141.172 156.611 138.34 156.409 135.509Z" fill="#4338CA"/>
<path d="M11.199 145.506C10.4097 144.305 9.47084 143.18 8.65686 141.987C7.71418 140.598 6.83866 139.168 6.03032 137.697C5.22197 136.226 4.48436 134.72 3.81747 133.179C0.40266 125.268 -0.74216 115.76 0.46764 107.241C0.576493 106.514 0.700311 105.79 0.839095 105.068C0.977878 104.346 1.13151 103.627 1.29999 102.911C1.46848 102.195 1.65167 101.483 1.84956 100.775C2.04746 100.067 2.25989 99.3635 2.48686 98.6641C2.71384 97.9648 2.95515 97.2704 3.21079 96.581C3.46645 95.8917 3.73624 95.2079 4.02014 94.5297C4.30405 93.8514 4.60183 93.1793 4.9135 92.5134C5.22518 91.8475 5.55047 91.1882 5.88937 90.5357C7.4828 87.4646 9.30224 84.5325 11.5661 81.9076C12.7182 80.5718 13.8852 79.2018 15.1579 77.9783C16.9582 76.2474 18.9104 74.6725 20.6957 72.9265C23.2234 70.4541 25.3245 67.3256 26.7617 64.0918C28.1842 60.891 29.2761 57.4135 29.7345 53.9348C30.0778 51.3282 30.0191 48.7387 30.1164 46.1197C30.2984 41.2177 31.2277 36.5355 33.0608 31.9736C36.3137 23.8773 42.5187 16.5215 49.566 11.4424C53.1179 8.88233 57.1038 6.78299 61.1329 5.08923C61.6004 4.89749 62.0701 4.71098 62.5418 4.52969C63.0136 4.34841 63.4874 4.17236 63.963 4.00153C64.4387 3.83083 64.9162 3.66543 65.3955 3.50532C65.8748 3.3452 66.3558 3.19044 66.8386 3.04103C67.3214 2.89162 67.8057 2.74763 68.2917 2.60905C68.7777 2.47047 69.2652 2.33731 69.7542 2.20956C70.2432 2.08182 70.7336 1.95955 71.2252 1.84275C71.7169 1.72596 72.2098 1.61464 72.7039 1.5088C73.1981 1.40296 73.6934 1.30266 74.1897 1.20789C74.6862 1.11313 75.1836 1.0239 75.6821 0.940216C76.1804 0.856405 76.6796 0.778255 77.1797 0.705766C77.6799 0.633154 78.1808 0.566143 78.6824 0.504731C79.184 0.443319 79.6862 0.387444 80.1891 0.337108C80.6919 0.286895 81.1954 0.242282 81.6993 0.203269C82.2032 0.164256 82.7074 0.130842 83.2119 0.103028C83.7165 0.0752142 84.2213 0.0530614 84.7264 0.0365699C85.2316 0.0199554 85.7369 0.00900185 86.2422 0.00370982C86.7475 -0.00158222 87.2528 -0.00121221 87.7581 0.00481825C88.2634 0.0107256 88.7687 0.0222935 89.2739 0.0395234C89.7789 0.0567533 90.2837 0.0796447 90.7882 0.108197C91.2927 0.136626 91.7969 0.170717 92.3008 0.210469C92.8046 0.250098 93.3079 0.295388 93.8106 0.346339C94.3135 0.39729 94.8157 0.453841 95.3172 0.515991C95.8188 0.578019 96.3196 0.645646 96.8196 0.718873C97.3196 0.792223 97.8188 0.871049 98.3171 0.955353C98.8153 1.03978 99.3125 1.12974 99.8089 1.22525C100.305 1.32063 100.8 1.42161 101.294 1.52819C101.788 1.63464 102.281 1.74664 102.773 1.86417C103.264 1.98158 103.754 2.10446 104.243 2.23283C104.732 2.36131 105.219 2.49515 105.705 2.63434C106.191 2.77366 106.675 2.91833 107.158 3.06835C107.64 3.21838 108.121 3.37375 108.6 3.53448C110.743 4.26127 112.887 5.10972 114.929 6.08758C116.506 6.84243 118.044 7.73869 119.665 8.39238L119.762 8.4306C117.747 10.9795 116.953 14.2239 117.337 17.4335C117.805 21.3412 120.143 24.6693 123.202 27.0383C124.964 28.4031 127.171 29.6959 129.423 29.9835L129.447 30.0851C129.629 30.8054 129.9 31.0147 130.517 31.3782C130.881 31.5929 130.885 31.6431 130.998 32.0603C131.646 34.4635 131.506 39.039 131.469 41.617C131.454 42.6286 131.346 43.7891 131.504 44.7869C131.488 44.9556 131.526 45.0994 131.39 45.2146C130.892 45.6366 130.243 45.9141 129.721 46.34C128.548 47.2986 128.043 49.3848 127.838 50.8148C127.642 52.3535 127.247 55.4746 127.63 56.863C127.733 58.6934 127.997 60.3562 129.189 61.804C129.612 62.1204 130.036 62.4029 130.508 62.6432C130.99 62.888 131.606 63.1483 132.147 62.9759L132.201 62.8345C131.963 62.5685 130.333 62.1659 129.59 61.4924C129.564 61.4688 129.538 61.4448 129.513 61.421C129.998 60.2967 130.622 59.4804 131.8 59.0106C133.046 58.5138 134.063 58.7124 135.246 59.2142C135.322 59.3755 135.362 59.4789 135.493 59.6033C135.98 59.8332 136.522 60.3237 136.751 60.8182C136.878 61.3215 137.041 61.8459 137.121 62.3578C137.371 64.5585 136.989 66.8545 136.451 68.9881C136.271 69.702 135.945 70.4179 135.871 71.1473L135.95 71.2222C135.971 71.2069 135.995 71.1946 136.014 71.1765C136.299 70.9045 136.464 70.0064 136.58 69.6101C137.204 67.4699 137.623 65.0477 137.455 62.8129C137.356 61.5033 137.106 60.2288 137.111 58.9081C137.119 56.4333 137.219 53.6249 137.445 51.1624L150.178 51.1748C150.111 51.7557 150.031 52.3367 150.02 52.9217C149.906 54.1125 149.798 55.3039 149.696 56.4959C149.584 57.2646 149.554 58.0454 149.506 58.8202C149.398 60.217 149.222 61.6168 149.18 63.0169C149.132 63.7339 149.059 64.4581 149.054 65.1764C148.795 67.3127 148.584 69.5905 148.514 71.7386C148.447 73.7613 148.242 75.7848 148.112 77.8047C147.992 79.2312 147.757 80.763 147.792 82.1884L147.716 83.2825L146.754 96.077C146.576 98.3287 146.29 100.61 146.234 102.868C146.191 103.479 146.095 104.137 146.13 104.746C145.96 106.882 145.692 109.063 145.636 111.202C145.41 112.213 145.366 113.51 145.361 114.547C145.259 115.314 145.209 116.086 145.151 116.857C144.887 120.057 144.551 123.264 144.355 126.468C144.265 127.637 144.101 128.849 144.102 130.019C143.745 134.343 143.266 138.698 143.043 143.029C142.82 143.26 142.7 143.233 142.377 143.245C140.786 143.303 139.163 143.233 137.567 143.236C133.287 143.24 129.007 143.223 124.726 143.185L89.6575 143.218L54.0459 143.199L42.7158 143.23C40.3291 143.248 37.8938 143.379 35.5145 143.204L35.4209 143.802C34.7903 143.838 34.1551 143.833 33.5234 143.841C33.5474 144.365 33.5668 144.887 33.6334 145.408C32.444 145.668 30.725 145.499 29.4843 145.484C29.551 145.256 29.6444 145.114 29.4987 144.895C29.064 144.243 27.4079 143.98 26.6481 143.77C26.0135 143.828 25.3917 143.84 24.7547 143.833C24.7059 144.398 24.6806 144.977 24.6048 145.538C23.1217 145.379 21.5079 145.496 20.0126 145.499L11.199 145.506Z" fill="#FCE7F3"/>
<path d="M118.96 39.0325C119.102 39.1056 119.131 39.1102 119.251 39.2112C119.509 39.4259 119.542 39.6123 119.557 39.93C119.566 40.1473 119.573 40.2784 119.68 40.4761L119.866 40.4392L119.778 40.5084C120.081 40.5468 120.447 40.5616 120.724 40.6895C120.889 40.7659 120.833 40.715 120.895 40.897C120.88 40.9221 120.869 40.9505 120.85 40.9723C120.561 41.2991 119.94 41.2644 119.532 41.3116C119.554 41.928 119.631 42.3773 119.228 42.8946C119.114 42.8259 119.025 42.7344 118.927 42.6456C118.737 42.2263 118.779 41.7803 118.78 41.3288C118.537 41.3074 118.293 41.2884 118.051 41.254C117.798 41.2178 117.651 41.1543 117.496 40.9474L117.595 40.7873C117.972 40.5704 118.352 40.5769 118.776 40.5499C118.797 40.0271 118.853 39.5449 118.96 39.0325Z" fill="#F472B6"/>
<path d="M84.6275 21.4633C84.7992 21.485 84.8905 21.5216 85.0367 21.6133C85.2835 22.0586 85.1872 22.6486 85.17 23.1459C85.6396 23.1277 86.175 23.0289 86.5686 23.339C86.7096 23.4504 86.6649 23.4062 86.6793 23.6058C86.6527 23.635 86.6282 23.6663 86.5994 23.6933C86.2311 24.0376 85.6559 23.9492 85.1881 23.9434C85.189 24.5141 85.2191 25.0885 85.0735 25.6448C84.9223 25.6379 84.7582 25.6161 84.652 25.5019C84.3292 25.1546 84.4351 24.467 84.4432 24.0236C84.1577 24.0206 83.8413 24.0359 83.5592 23.9916C83.3135 23.953 83.1617 23.834 83.0074 23.6442C83.0146 23.4928 82.9808 23.4552 83.1023 23.3438C83.4614 23.0152 84.0008 23.1009 84.4528 23.107C84.4626 22.5362 84.4754 22.018 84.6275 21.4633Z" fill="#F472B6"/>
<path d="M26.669 76.1995C26.7792 76.2345 26.9105 76.2491 26.9893 76.3407C27.3273 76.7339 27.2339 77.7871 27.244 78.2783C27.5992 78.2656 27.9952 78.2261 28.3455 78.2894C28.5955 78.3346 28.834 78.4072 28.9769 78.6171L28.8347 78.7729C28.3598 78.9674 27.8165 78.9375 27.309 78.9569C27.2708 79.5689 27.2773 80.2067 27.0557 80.7853C26.9433 80.8009 26.8713 80.7768 26.7624 80.7506C26.3823 80.2538 26.4993 79.5499 26.5152 78.958C26.1279 78.9584 25.6958 78.9876 25.3151 78.917C25.0626 78.8703 24.8274 78.7897 24.6893 78.5739L24.835 78.4245C25.3458 78.2381 25.8599 78.2886 26.3949 78.3032C26.4499 77.5984 26.4796 76.8834 26.669 76.1995Z" fill="#C7D2FE"/>
<path d="M30.7764 86.86C31.1598 86.5153 31.5207 86.1869 32.0614 86.1625C32.6017 86.138 33.2273 86.2752 33.6122 86.6826C33.8086 86.8906 33.9144 87.1629 33.8856 87.4516C33.8441 87.8689 33.5639 88.095 33.2781 88.3647C32.7106 88.2694 32.2096 88.1495 31.6735 87.9388L31.4849 87.987C31.22 88.5709 31.0817 89.1886 30.7919 89.7646C30.5381 89.5106 30.4699 89.4192 30.1168 89.3162C29.8855 89.4077 29.8323 89.4358 29.7445 89.6918C29.6651 89.9231 29.6871 90.1234 29.8139 90.3293C29.9791 90.5973 30.3308 90.7661 30.5962 90.9124L30.2826 91.7373C29.9016 91.4993 29.5074 91.2355 29.1905 90.916C28.6472 90.3688 28.2459 89.634 28.2902 88.8452C28.321 88.2992 28.542 87.7627 28.9654 87.4044C29.5019 86.9506 30.0969 86.8227 30.7764 86.86Z" fill="#6366F1"/>
<path d="M40.4244 50.8896C40.5132 51.039 40.5499 51.1315 40.5542 51.3094C40.5723 52.0785 40.4499 52.8887 40.383 53.656L39.9902 58.0538C39.6024 62.5709 39.1821 67.0849 38.7294 71.596C38.37 74.4627 38.1771 77.3529 37.864 80.2255C37.4084 84.408 36.8549 88.5686 36.5544 92.7684C36.5011 93.3841 36.4774 94.0221 36.3778 94.6309L36.0008 94.4623C36.12 93.6813 36.1396 92.8753 36.228 92.0878C36.4617 88.1322 37.0407 84.165 37.4776 80.2259C38.1038 74.3398 38.6947 68.4502 39.2503 62.5571L40.0262 53.7485C40.0855 53.0962 40.0954 51.6257 40.2835 51.0844C40.3099 51.0087 40.3773 50.9546 40.4244 50.8896Z" fill="#6366F1"/>
<path d="M25.3364 113.177L25.3755 113.026C25.6971 112.846 26.552 112.991 26.9544 113.015C30.75 113.103 34.5461 113.134 38.3426 113.108C38.2224 117.452 37.8006 121.815 37.4523 126.145L36.7663 135.828C36.66 137.187 36.5575 141.211 36.2612 142.191C36.0368 142.383 35.862 142.353 35.5731 142.383L35.5145 143.204L35.4209 143.802C34.7903 143.838 34.1551 143.833 33.5234 143.841C33.5474 144.365 33.5668 144.887 33.6335 145.409C32.4441 145.668 30.7251 145.499 29.4844 145.484C29.551 145.256 29.6444 145.114 29.4988 144.895C29.064 144.243 27.408 143.98 26.6481 143.77C26.0135 143.828 25.3917 143.84 24.7547 143.833C24.7774 143.268 24.8394 142.693 24.7056 142.139C24.6052 142.088 24.5145 142.021 24.4209 141.959C24.2478 141.297 24.5354 137.021 24.5716 136.03L25.0543 121.459C25.1579 118.72 25.4298 115.915 25.3364 113.177Z" fill="#6366F1"/>
<path d="M33.4499 142.457L35.573 142.383L35.5145 143.204L35.4209 143.802C34.7903 143.838 34.1551 143.833 33.5234 143.841L33.4686 143.291L33.5059 143.06C33.4754 142.862 33.4671 142.657 33.4499 142.457Z" fill="#FEB997"/>
<path d="M24.7056 142.139C25.4989 142.047 26.3787 142.051 27.1743 142.114C26.8431 142.689 26.6805 143.095 26.6482 143.77C26.0135 143.828 25.3918 143.84 24.7547 143.833C24.7774 143.267 24.8395 142.693 24.7056 142.139Z" fill="#FEB997"/>
<path d="M27.1742 142.114C27.2948 142.096 27.5536 142.098 27.6273 142.001C28.086 141.397 31.0972 124.934 31.6817 122.55L32.7252 134.841C32.9308 137.36 33.0123 139.97 33.4499 142.457C33.4671 142.657 33.4754 142.861 33.5059 143.06L33.4686 143.291L33.5234 143.84C33.5474 144.365 33.5668 144.887 33.6334 145.408C32.4441 145.668 30.725 145.499 29.4843 145.484C29.551 145.255 29.6444 145.114 29.4987 144.895C29.064 144.243 27.408 143.98 26.6481 143.77C26.6804 143.095 26.8431 142.689 27.1742 142.114Z" fill="#A5B4FC"/>
<path d="M33.4686 143.291C32.85 143.344 32.2037 143.397 31.7095 142.947C31.2407 142.521 31.1605 141.826 31.1622 141.228C31.1637 140.714 31.1083 138.91 31.4275 138.598C31.9586 139.406 30.9854 141.644 31.8209 142.567C32.2766 143.071 32.8799 143.03 33.5059 143.06L33.4686 143.291Z" fill="#6366F1"/>
<path d="M30.7919 89.7646C31.0817 89.1886 31.22 88.5709 31.4849 87.987L31.6735 87.9388C32.2096 88.1495 32.7106 88.2695 33.2781 88.3647C33.9144 88.9027 34.1715 89.3847 34.3759 90.1846C34.1463 91.0803 33.8479 91.7024 33.0165 92.1946C32.8452 92.2961 32.6645 92.3827 32.485 92.4685L33.1149 93.7519C34.0676 94.0257 35.0571 94.1743 36.0008 94.4624L36.3777 94.631C36.9363 95.3029 38.5375 96.0705 39.3378 96.6487C40.1179 97.26 41.9161 99.0028 42.7808 99.2175L42.9488 99.078C44.5205 97.8186 46.1392 96.6255 47.739 95.403C48.6727 94.6897 49.5885 93.8625 50.6162 93.2882C50.868 93.1473 51.0709 93.0624 51.3625 93.0766C51.6367 93.0899 51.8521 93.1698 52.076 93.3269C52.2529 93.5869 52.2804 93.7894 52.2213 94.0912C51.8704 95.8821 46.1125 101.654 44.6615 103.199C44.1356 103.704 43.6187 104.243 43.0416 104.688L42.1284 105.005C40.678 105.076 39.5887 104.428 38.4495 103.632C38.3895 104.412 38.4102 105.287 38.2049 106.039C38.0923 106.115 38.0554 106.121 37.9922 106.247C38.1669 108.535 38.3265 110.812 38.3426 113.108C34.5461 113.134 30.75 113.103 26.9544 113.015C26.5519 112.991 25.6971 112.846 25.3755 113.026L25.3363 113.177L25.2708 112.99C24.9179 112.866 24.6386 112.748 24.3434 112.515C24.0851 112.332 23.8355 112.133 23.586 111.938C21.2919 110.145 18.4142 107.502 18.0981 104.423C17.9165 102.652 18.7154 101.079 19.8057 99.749C22.1088 96.9398 25.9784 94.0312 29.6778 93.6627C29.8766 93.5462 30.0282 93.4028 30.1471 93.2045C30.4264 92.7384 30.3966 92.247 30.2826 91.7373L30.5962 90.9125C30.3307 90.7661 29.9791 90.5973 29.8138 90.3293C29.687 90.1235 29.6651 89.9232 29.7444 89.6919C29.8323 89.4358 29.8855 89.4078 30.1168 89.3162C30.4699 89.4192 30.538 89.5106 30.7919 89.7646Z" fill="#FEB997"/>
<path d="M37.6469 102.945C37.9166 103.171 38.1842 103.4 38.4495 103.632C38.3895 104.412 38.4102 105.287 38.2049 106.039C38.0923 106.115 38.0554 106.121 37.9922 106.247C37.6954 105.461 37.7194 103.827 37.6469 102.945Z" fill="#A5B4FC"/>
<path d="M25.1912 108.953C25.0605 108.921 24.9987 108.891 24.9077 108.783C24.3661 108.14 23.1974 105.414 23.3696 104.572C23.648 103.212 24.8987 102.058 26.0417 101.359C25.7798 103.873 25.1792 106.422 25.1912 108.953Z" fill="#A5B4FC"/>
<path d="M102.542 50.8472C102.731 49.5996 102.961 48.3526 103.672 47.2828C104.377 46.2225 105.508 45.4309 106.766 45.2014C106.843 45.1875 106.919 45.1755 106.996 45.1654C107.072 45.1554 107.149 45.1473 107.227 45.141C107.304 45.1349 107.381 45.1306 107.458 45.1283C107.536 45.126 107.613 45.1256 107.691 45.1272C107.768 45.1288 107.845 45.1323 107.922 45.1377C108 45.1433 108.077 45.1507 108.154 45.1601C108.23 45.1694 108.307 45.1807 108.383 45.1938C108.46 45.207 108.535 45.2221 108.611 45.2391C108.687 45.256 108.762 45.2749 108.836 45.2957C108.911 45.3165 108.985 45.3392 109.058 45.3637C109.132 45.3882 109.204 45.4145 109.277 45.4427C109.349 45.4707 109.42 45.5007 109.491 45.5324C109.561 45.5642 109.631 45.5977 109.7 45.633C109.769 45.6682 109.837 45.7051 109.904 45.7438C109.971 45.7824 110.037 45.8228 110.102 45.8649C110.167 45.9068 110.231 45.9504 110.294 45.9956C111.934 47.1693 112.412 48.9299 112.752 50.8012C117.769 50.9369 122.818 50.8203 127.838 50.8147C127.642 52.3534 127.247 55.4745 127.63 56.863C127.734 58.6933 127.997 60.3561 129.189 61.8039C129.612 62.1203 130.036 62.4028 130.508 62.6432C130.99 62.8879 131.606 63.1482 132.147 62.9758L132.201 62.8344C131.963 62.5684 130.333 62.1658 129.59 61.4923C129.564 61.4687 129.538 61.4447 129.513 61.4209C129.998 60.2966 130.622 59.4803 131.8 59.0105C133.046 58.5137 134.063 58.7123 135.246 59.2141C135.322 59.3754 135.362 59.4788 135.493 59.6032C135.98 59.8331 136.522 60.3236 136.751 60.8181C136.878 61.3214 137.041 61.8458 137.121 62.3577C137.371 64.5584 136.989 66.8544 136.451 68.9881C136.271 69.7019 135.945 70.4178 135.871 71.1472L135.95 71.2222C135.971 71.2068 135.995 71.1945 136.014 71.1764C136.299 70.9044 136.464 70.0063 136.58 69.61C137.204 67.4699 137.623 65.0476 137.455 62.8128C137.356 61.5032 137.106 60.2287 137.111 58.908C137.119 56.4332 137.219 53.6248 137.445 51.1623L150.178 51.1747C150.111 51.7557 150.031 52.3366 150.02 52.9216C149.906 54.1125 149.798 55.3038 149.696 56.4958C149.584 57.2645 149.554 58.0454 149.506 58.8201C149.398 60.2169 149.222 61.6167 149.18 63.0168C149.132 63.7338 149.059 64.458 149.054 65.1763C148.795 67.3126 148.584 69.5904 148.514 71.7385C141.585 71.6659 134.651 71.7786 127.721 71.781L86.6131 71.7511C71.9171 71.7599 57.2078 71.4885 42.5135 71.6995C41.2728 71.6909 39.9583 71.7575 38.7294 71.596C39.1821 67.0849 39.6024 62.5709 39.9902 58.0538L40.383 53.656C40.4499 52.8888 40.5722 52.0785 40.5542 51.3095C40.5499 51.1315 40.5132 51.039 40.4244 50.8897C44.8795 50.886 49.3578 50.7896 53.8104 50.9015L53.9444 50.2936C54.1936 48.7154 54.9045 47.0491 56.2233 46.0766C56.282 46.0335 56.3418 45.9919 56.4027 45.9518C56.4635 45.9118 56.5253 45.8733 56.5881 45.8363C56.6508 45.7993 56.7144 45.764 56.7789 45.7301C56.8435 45.6964 56.9089 45.6643 56.975 45.6338C57.0412 45.6032 57.1081 45.5744 57.1756 45.5474C57.2432 45.5202 57.3114 45.4947 57.3804 45.4711C57.4493 45.4474 57.5187 45.4254 57.5886 45.4052C57.6586 45.3849 57.7291 45.3664 57.8 45.3498C57.8708 45.3331 57.9422 45.3182 58.0139 45.3052C58.0855 45.2921 58.1575 45.2808 58.2297 45.2712C58.302 45.2617 58.3744 45.2541 58.447 45.2483C58.5196 45.2424 58.5923 45.2384 58.665 45.2363C58.7379 45.2341 58.8107 45.2337 58.8836 45.2352C58.9564 45.2367 59.0292 45.2399 59.1018 45.245C59.1744 45.2501 59.2469 45.2571 59.3192 45.2658C59.3916 45.2746 59.4636 45.2852 59.5354 45.2976C60.8481 45.5165 61.9223 46.3229 62.6587 47.4058C63.3513 48.4243 63.6821 49.6844 63.8359 50.8935L78.417 50.8254C78.7559 49.0163 79.1343 47.0862 80.7621 45.9611C80.8207 45.9206 80.8803 45.8816 80.9408 45.8442C81.0015 45.8068 81.063 45.771 81.1254 45.7368C81.1878 45.7024 81.2511 45.6698 81.3152 45.6389C81.3793 45.6079 81.4442 45.5786 81.5098 45.5509C81.5754 45.5232 81.6416 45.4972 81.7086 45.473C81.7755 45.4487 81.8431 45.4263 81.9113 45.4056C81.9793 45.3848 82.0479 45.3658 82.1169 45.3485C82.1861 45.3313 82.2556 45.3159 82.3255 45.3022C82.3953 45.2885 82.4654 45.2767 82.536 45.2666C82.6065 45.2566 82.6772 45.2484 82.7481 45.2418C82.8191 45.2354 82.8901 45.2309 82.9613 45.2282C83.0324 45.2255 83.1035 45.2245 83.1747 45.2254C83.2459 45.2263 83.3171 45.229 83.3881 45.2335C83.4592 45.2382 83.5301 45.2446 83.6007 45.2527C83.6715 45.261 83.742 45.271 83.8123 45.2828C83.8824 45.2948 83.9523 45.3084 84.0218 45.3238C85.2664 45.6007 86.3408 46.4684 86.9915 47.5507C87.6084 48.5771 87.81 49.7353 88.0252 50.8945L97.1933 50.8574C98.9703 50.8441 100.767 50.7665 102.542 50.8472Z" fill="#F472B6"/>
<path d="M53.9444 50.2936C54.1936 48.7155 54.9045 47.0492 56.2233 46.0767C56.282 46.0336 56.3418 45.992 56.4027 45.9519C56.4635 45.9119 56.5253 45.8734 56.588 45.8363C56.6508 45.7994 56.7144 45.764 56.7789 45.7302C56.8435 45.6965 56.9089 45.6643 56.975 45.6338C57.0412 45.6033 57.1081 45.5745 57.1756 45.5474C57.2432 45.5202 57.3114 45.4948 57.3803 45.4712C57.4493 45.4474 57.5187 45.4255 57.5886 45.4053C57.6586 45.385 57.7291 45.3665 57.7999 45.3499C57.8708 45.3332 57.9421 45.3183 58.0139 45.3052C58.0855 45.2922 58.1575 45.2809 58.2297 45.2713C58.3019 45.2618 58.3744 45.2542 58.447 45.2484C58.5196 45.2425 58.5922 45.2385 58.665 45.2364C58.7378 45.2342 58.8107 45.2338 58.8835 45.2353C58.9564 45.2367 59.0291 45.24 59.1017 45.245C59.1744 45.2502 59.2468 45.2572 59.3192 45.2659C59.3916 45.2746 59.4636 45.2852 59.5354 45.2977C60.8481 45.5166 61.9223 46.323 62.6586 47.4059C63.3513 48.4243 63.6821 49.6844 63.8358 50.8936L63.2721 50.8742C63.1624 49.8294 62.9008 48.7557 62.3496 47.8508C61.7319 46.8365 60.8062 46.0664 59.6279 45.8162C58.5743 45.5927 57.5188 45.8439 56.6427 46.4581C55.1832 47.4812 54.6331 49.1808 54.3278 50.8506L54.2624 50.9265L54.2634 51.004C54.2739 53.8181 53.3468 59.1617 55.5216 61.3089C55.632 61.4176 55.6215 61.4036 55.756 61.5151C56.1324 61.7689 56.4863 61.9958 56.9122 62.1625C57.1668 62.2622 57.8742 62.425 58.0453 62.5849C58.0853 62.6222 58.1091 62.6739 58.1411 62.7184L58.0887 62.9587C57.8376 63.0815 57.651 63.0423 57.389 62.9535C56.7215 62.727 56.0933 62.341 55.5054 61.9582C55.2471 61.7614 54.9936 61.528 54.7976 61.2683C53.1308 59.0593 53.4858 53.6125 53.8103 50.9016L53.9444 50.2936Z" fill="#6366F1"/>
<path d="M102.542 50.8472C102.731 49.5996 102.961 48.3526 103.672 47.2828C104.377 46.2225 105.508 45.4309 106.766 45.2014C106.842 45.1875 106.919 45.1755 106.996 45.1654C107.072 45.1554 107.149 45.1473 107.227 45.141C107.304 45.1349 107.381 45.1306 107.458 45.1283C107.536 45.126 107.613 45.1256 107.691 45.1272C107.768 45.1288 107.845 45.1323 107.922 45.1377C108 45.1433 108.077 45.1507 108.154 45.1601C108.23 45.1694 108.307 45.1807 108.383 45.1938C108.46 45.207 108.535 45.2221 108.611 45.2391C108.687 45.256 108.762 45.2749 108.836 45.2957C108.911 45.3165 108.985 45.3392 109.058 45.3637C109.132 45.3882 109.204 45.4145 109.277 45.4427C109.349 45.4707 109.42 45.5007 109.491 45.5324C109.561 45.5642 109.631 45.5977 109.7 45.633C109.769 45.6682 109.837 45.7051 109.904 45.7438C109.971 45.7824 110.037 45.8228 110.102 45.8649C110.167 45.9068 110.231 45.9504 110.294 45.9956C111.934 47.1693 112.412 48.9299 112.752 50.8012L112.198 50.8151C112.071 49.8354 111.864 48.9074 111.379 48.0382C110.756 46.9241 109.747 46.0657 108.498 45.7429C108.435 45.7265 108.372 45.7118 108.308 45.6987C108.245 45.6856 108.181 45.6741 108.117 45.6642C108.053 45.6545 107.988 45.6464 107.924 45.6398C107.859 45.6333 107.794 45.6285 107.729 45.6254C107.664 45.6222 107.599 45.6208 107.534 45.621C107.469 45.6213 107.405 45.6231 107.34 45.6266C107.275 45.6301 107.21 45.6354 107.146 45.6422C107.081 45.6491 107.017 45.6577 106.953 45.6679C106.888 45.6781 106.824 45.69 106.761 45.7035C106.697 45.7171 106.634 45.7322 106.572 45.7489C106.509 45.7657 106.447 45.784 106.385 45.804C106.323 45.824 106.262 45.8456 106.201 45.8688C106.14 45.8919 106.08 45.9166 106.021 45.9428C105.961 45.969 105.903 45.9967 105.845 46.026C105.787 46.0553 105.729 46.086 105.673 46.1182C105.617 46.1504 105.561 46.1841 105.506 46.2191C103.815 47.2934 103.457 49.0069 103.05 50.8066L103.03 50.8638C102.879 52.5369 102.733 54.1766 102.751 55.8604L102.977 58.4646C103.238 59.7391 103.419 60.7015 104.451 61.5885L104.57 61.6681C105.191 62.0771 106.053 62.2778 106.595 62.7303L106.583 62.8547C105.679 63.0461 104.868 62.4205 104.136 61.9872C103.13 61.107 102.76 60.0533 102.611 58.7642C102.433 58.2829 102.403 57.6077 102.388 57.0974C102.261 55.6147 102.279 54.179 102.377 52.6973C102.371 52.0815 102.47 51.4586 102.542 50.8472Z" fill="#6366F1"/>
<path d="M78.4169 50.8254C78.7558 49.0163 79.1343 47.0862 80.7621 45.9611C80.8206 45.9206 80.8802 45.8816 80.9408 45.8442C81.0014 45.8068 81.063 45.771 81.1254 45.7368C81.1878 45.7024 81.251 45.6698 81.3151 45.6389C81.3793 45.6079 81.4441 45.5786 81.5097 45.5509C81.5753 45.5232 81.6416 45.4972 81.7085 45.473C81.7755 45.4487 81.843 45.4263 81.9112 45.4056C81.9793 45.3848 82.0478 45.3658 82.1169 45.3485C82.186 45.3313 82.2556 45.3159 82.3255 45.3022C82.3952 45.2885 82.4654 45.2767 82.5359 45.2666C82.6064 45.2566 82.6771 45.2484 82.748 45.2418C82.819 45.2354 82.8901 45.2309 82.9612 45.2282C83.0324 45.2255 83.1035 45.2245 83.1746 45.2254C83.2459 45.2263 83.317 45.229 83.388 45.2335C83.4592 45.2382 83.53 45.2446 83.6007 45.2527C83.6714 45.261 83.742 45.271 83.8122 45.2828C83.8824 45.2948 83.9522 45.3084 84.0218 45.3238C85.2663 45.6007 86.3407 46.4684 86.9914 47.5507C87.6084 48.5771 87.81 49.7353 88.0252 50.8945C87.7944 50.8753 87.6499 50.9139 87.4786 50.7466C87.2096 49.1282 86.7391 47.4817 85.3417 46.4591C84.5362 45.8699 83.5257 45.6552 82.5448 45.8141C81.5474 45.9758 80.6892 46.5188 80.1027 47.3395C79.3744 48.3587 79.161 49.6142 78.9437 50.818C78.5963 53.2436 78.3087 59.0753 79.7289 61.0507C79.8725 61.2507 80.0495 61.4268 80.223 61.6003C80.2509 61.623 80.2784 61.6457 80.3063 61.6681C80.7383 62.0129 82.3175 62.5125 82.3814 62.6048C82.4231 62.6655 82.4083 62.7497 82.422 62.8222C82.3563 62.9215 82.3522 62.9915 82.2219 63.0076C81.5549 63.0897 80.4237 62.3317 79.8577 61.9889C79.7495 61.8815 79.643 61.7759 79.5454 61.6588C77.5943 59.3241 78.1276 53.702 78.4169 50.8254Z" fill="#6366F1"/>
<path d="M78.9438 50.8182C79.1611 49.6144 79.3745 48.3589 80.1027 47.3396C80.6892 46.5189 81.5474 45.976 82.5448 45.8143C83.5258 45.6553 84.5363 45.87 85.3417 46.4593C86.7391 47.4818 87.2097 49.1283 87.4786 50.7467C87.112 50.9952 79.9351 50.8241 78.9438 50.8182Z" fill="#A5B4FC"/>
<path d="M54.3278 50.8507C54.6331 49.1809 55.1832 47.4813 56.6427 46.4582C57.5188 45.844 58.5743 45.5928 59.6278 45.8163C60.8062 46.0664 61.7319 46.8366 62.3496 47.8508C62.9008 48.7558 63.1624 49.8295 63.2721 50.8743C61.8833 50.9507 60.4537 50.8741 59.0607 50.8776C57.4975 50.8815 55.8851 50.9727 54.3278 50.8507Z" fill="#A5B4FC"/>
<path d="M103.05 50.8067C103.457 49.007 103.815 47.2935 105.506 46.2192C105.561 46.1842 105.617 46.1505 105.673 46.1183C105.729 46.086 105.787 46.0553 105.845 46.0261C105.903 45.9969 105.961 45.9691 106.021 45.9429C106.08 45.9167 106.14 45.892 106.201 45.8689C106.262 45.8457 106.323 45.8241 106.385 45.8041C106.447 45.7841 106.509 45.7658 106.572 45.7491C106.634 45.7323 106.697 45.7172 106.761 45.7036C106.824 45.6901 106.888 45.6782 106.953 45.668C107.017 45.6578 107.081 45.6492 107.146 45.6423C107.21 45.6355 107.275 45.6302 107.34 45.6267C107.405 45.6232 107.469 45.6214 107.534 45.6211C107.599 45.6209 107.664 45.6223 107.729 45.6255C107.794 45.6286 107.859 45.6334 107.924 45.6399C107.988 45.6465 108.053 45.6546 108.117 45.6643C108.181 45.6742 108.245 45.6857 108.308 45.6988C108.372 45.7119 108.435 45.7266 108.498 45.743C109.747 46.0658 110.756 46.9243 111.379 48.0383C111.864 48.9075 112.071 49.8355 112.198 50.8152C109.154 50.7441 106.095 50.8058 103.05 50.8067Z" fill="#A5B4FC"/>
<path d="M55.7561 61.5151C56.2464 60.4413 56.8805 59.66 58.0231 59.2229C58.8417 58.9098 59.7649 58.9024 60.5603 59.2897C61.4597 59.7278 62.1257 60.5602 62.4427 61.5002C62.7665 62.4607 62.6563 63.4561 62.201 64.3558C61.748 65.2512 60.9829 65.9318 60.0176 66.2239C59.0911 66.5045 58.0867 66.3594 57.2497 65.8823C57.1938 65.8499 57.1388 65.8159 57.0846 65.7804C57.0305 65.7451 56.9773 65.7084 56.9251 65.6702C56.8728 65.6322 56.8216 65.5928 56.7714 65.5521C56.7212 65.5113 56.672 65.4693 56.6239 65.426C56.5759 65.3828 56.529 65.3384 56.4832 65.2927C56.4374 65.2471 56.3928 65.2002 56.3494 65.1522C56.306 65.1044 56.2639 65.0553 56.2229 65.0051C56.1821 64.955 56.1426 64.9039 56.1044 64.8519C56.0661 64.7997 56.0292 64.7466 55.9936 64.6926C55.9581 64.6385 55.924 64.5836 55.8914 64.5277C55.8586 64.472 55.8274 64.4154 55.7976 64.3581C55.7678 64.3007 55.7395 64.2426 55.7127 64.1836C55.6858 64.1248 55.6606 64.0653 55.6368 64.0053C55.6131 63.9451 55.5908 63.8844 55.5702 63.8231C55.5495 63.7618 55.5304 63.7 55.5129 63.6377C55.4955 63.5754 55.4796 63.5128 55.4653 63.4498C55.3523 62.9534 55.4424 62.4555 55.5054 61.9582C56.0933 62.3411 56.7215 62.7271 57.389 62.9536C57.651 63.0424 57.8376 63.0815 58.0887 62.9587L58.1411 62.7184C58.1092 62.6739 58.0854 62.6222 58.0453 62.5849C57.8742 62.425 57.1668 62.2622 56.9122 62.1625C56.4863 61.9958 56.1325 61.769 55.7561 61.5151Z" fill="#A5B4FC"/>
<path d="M80.2231 61.6006C80.493 60.6279 80.9364 59.9153 81.857 59.4159C82.7277 58.9437 83.7303 58.8817 84.6657 59.1951C85.6075 59.5108 86.4146 60.1839 86.8429 61.0861C87.2586 61.9618 87.2741 63.0019 86.9366 63.9063C86.5783 64.8668 85.9156 65.5923 84.9727 65.9894C83.9821 66.4064 82.9267 66.4459 81.9341 66.0095C81.049 65.6202 80.327 64.8793 79.9997 63.9646C79.7963 63.3964 79.6962 62.5829 79.8577 61.9892C80.4237 62.332 81.555 63.09 82.2219 63.0078C82.3523 62.9918 82.3563 62.9218 82.422 62.8225C82.4084 62.7499 82.4231 62.6657 82.3814 62.605C82.3175 62.5127 80.7383 62.0132 80.3063 61.6683C80.2784 61.646 80.2509 61.6233 80.2231 61.6006Z" fill="#A5B4FC"/>
<path d="M129.513 61.4211C129.998 60.2969 130.622 59.4805 131.8 59.0107C133.046 58.5139 134.063 58.7126 135.246 59.2143C135.322 59.3757 135.362 59.4791 135.493 59.6035C135.98 59.8333 136.522 60.3238 136.751 60.8184C136.878 61.3216 137.041 61.8461 137.121 62.358C137.161 63.0314 136.511 64.2053 136.081 64.7167C135.381 65.5487 134.333 66.0187 133.255 66.0772C132.191 66.135 131.123 65.7909 130.343 65.0527C129.365 64.1271 129.223 63.0711 129.189 61.8042C129.612 62.1206 130.036 62.403 130.508 62.6434C130.99 62.8882 131.606 63.1485 132.147 62.9761L132.201 62.8346C131.963 62.5686 130.333 62.166 129.59 61.4926C129.564 61.4689 129.538 61.4449 129.513 61.4211Z" fill="#A5B4FC"/>
<path d="M104.451 61.5884C104.911 60.4339 105.561 59.5689 106.751 59.08C107.681 58.6983 108.674 58.7036 109.591 59.1175C110.555 59.553 111.358 60.3889 111.706 61.3937C112.024 62.311 111.916 63.3217 111.468 64.1766C110.966 65.1314 110.087 65.896 109.051 66.2106C108.081 66.5054 107.057 66.3738 106.17 65.8905C105.238 65.3826 104.488 64.4794 104.202 63.4531C104.067 62.9676 104.106 62.4829 104.136 61.9872C104.867 62.4205 105.679 63.0461 106.583 62.8547L106.595 62.7302C106.053 62.2778 105.191 62.0771 104.57 61.668L104.451 61.5884Z" fill="#A5B4FC"/>
<path d="M38.7294 71.5959C39.9582 71.7575 41.2728 71.6908 42.5135 71.6995C57.2077 71.4885 71.9171 71.7599 86.613 71.751L127.721 71.7809C134.65 71.7785 141.585 71.6659 148.514 71.7385C148.447 73.7612 148.242 75.7847 148.112 77.8046C147.992 79.2311 147.757 80.7629 147.792 82.1883L147.716 83.2824L146.754 96.0769C146.576 98.3285 146.291 100.61 146.234 102.868C146.191 103.479 146.095 104.137 146.13 104.746C145.96 106.882 145.692 109.063 145.636 111.202C145.41 112.213 145.366 113.51 145.361 114.547C145.259 115.314 145.209 116.086 145.151 116.857C144.887 120.057 144.551 123.264 144.355 126.468C144.265 127.637 144.101 128.849 144.102 130.019C143.745 134.343 143.266 138.698 143.043 143.029C142.82 143.26 142.7 143.233 142.377 143.245C140.786 143.303 139.163 143.233 137.567 143.235C133.287 143.24 129.007 143.223 124.726 143.184L89.6575 143.218L54.0459 143.199L42.7158 143.23C40.3291 143.248 37.8939 143.379 35.5145 143.203L35.573 142.383C35.8619 142.353 36.0368 142.383 36.2612 142.191C36.5575 141.211 36.66 137.187 36.7663 135.828L37.4523 126.145C37.8006 121.814 38.2224 117.452 38.3426 113.108C38.3266 110.812 38.1669 108.535 37.9922 106.247C38.0554 106.121 38.0923 106.115 38.2049 106.039C38.4102 105.287 38.3895 104.411 38.4495 103.632C39.5887 104.428 40.678 105.076 42.1284 105.005L43.0416 104.688C43.6187 104.243 44.1356 103.704 44.6615 103.199C46.1125 101.654 51.8704 95.882 52.2213 94.0911C52.2804 93.7893 52.2529 93.5868 52.076 93.3268C51.8521 93.1697 51.6367 93.0898 51.3625 93.0765C51.0709 93.0623 50.868 93.1472 50.6162 93.2881C49.5885 93.8624 48.6727 94.6896 47.739 95.4029C46.1392 96.6254 44.5205 97.8185 42.9488 99.0779L42.7808 99.2174C41.9161 99.0027 40.1179 97.2598 39.3378 96.6486C38.5376 96.0704 36.9363 95.3028 36.3777 94.6309C36.4774 94.022 36.501 93.3841 36.5544 92.7684C36.8549 88.5686 37.4084 84.408 37.8639 80.2255C38.177 77.3529 38.3699 74.4627 38.7294 71.5959Z" fill="#FEFEFE"/>
<path d="M70.1625 88.9856L72.6456 88.995C72.58 90.2703 72.538 91.5764 72.2847 92.8304C71.8843 92.2817 71.5939 91.6315 71.2081 91.062C70.924 90.353 70.5358 89.6524 70.1625 88.9856Z" fill="#C7D2FE"/>
<path d="M76.397 89.0066C77.8611 89.0801 79.3571 89.0191 80.8243 89.0238C83.6717 89.0442 86.5191 89.0425 89.3666 89.0188L89.2373 90.3407C89.196 90.3267 89.1497 90.3228 89.1133 90.2985C88.9054 90.1589 88.9632 89.8707 88.9503 89.644L88.8886 89.4711C87.5601 89.3073 86.1292 89.4083 84.7879 89.412C82.0744 89.4341 79.3609 89.4353 76.6474 89.4155C76.5068 90.949 76.3383 92.4794 76.1419 94.0068C75.9237 95.6074 75.6453 97.2053 75.5761 98.8212C75.4271 98.5895 75.2837 98.3544 75.146 98.1158C75.2191 98.036 75.2665 97.9827 75.3059 97.8743C75.486 97.3783 75.4596 96.4381 75.5246 95.8891C75.796 93.5942 76.0419 91.29 76.397 89.0066Z" fill="#F472B6"/>
<path d="M63.9767 75.2615C64.5792 75.3785 65.1177 75.5077 65.4847 76.0435C65.7644 76.4518 65.7705 76.9814 65.6538 77.4472C65.548 77.8688 65.2761 78.2235 65.0145 78.5617C65.2739 79.0642 65.5449 79.5628 65.7719 80.0808C65.1535 80.2041 64.4827 80.1463 63.8532 80.1341L63.8023 80.1146L62.8879 80.0226C63.0354 79.5746 63.1405 79.1068 63.2608 78.6503C62.9819 78.5816 62.8344 78.5148 62.6448 78.2947C62.3568 77.9805 62.1272 77.6545 62.0672 77.2214C61.9998 76.7348 62.1371 76.2823 62.456 75.9105C62.8852 75.4103 63.3461 75.3135 63.9767 75.2615Z" fill="#BE185D"/>
<path d="M63.2608 78.6504L63.8519 78.7443C63.8718 79.216 63.8541 79.6465 63.8022 80.1147L62.8879 80.0228C63.0354 79.5747 63.1404 79.1069 63.2608 78.6504Z" fill="#F472B6"/>
<path d="M61.5097 83.7381C61.8373 82.4882 62.4439 81.2421 62.8879 80.0226L63.8022 80.1145L63.8532 80.1341C64.4827 80.1463 65.1535 80.2041 65.7719 80.0807L65.8539 80.0761C66.1483 81.2388 66.8389 82.3946 67.3765 83.464C65.9455 83.7976 64.4107 83.9957 62.9363 83.9139L62.8868 83.9257C62.4404 83.8245 61.9645 83.7943 61.5097 83.7381Z" fill="#C7D2FE"/>
<path d="M65.8539 80.0762C67.3853 80.0605 71.8796 79.8145 73.1246 80.2632C73.3762 80.5198 73.3976 80.7541 73.3983 81.1065C73.3996 81.736 73.3705 83.7458 72.9839 84.1817C72.0635 84.6338 69.0569 84.4054 67.8629 84.4025L67.3765 83.4641C66.8389 82.3947 66.1483 81.2389 65.8539 80.0762Z" fill="#C7D2FE"/>
<path d="M67.3765 83.4642L67.8629 84.4026C68.3919 85.5505 68.9324 86.6929 69.4844 87.8298C67.8553 88.5062 63.56 89.0565 61.8698 88.8772C61.1458 88.8505 60.4342 88.7663 59.739 88.5579C60.4148 86.9998 60.8704 85.3199 61.5097 83.7384C61.9645 83.7945 62.4404 83.8248 62.8868 83.9259L62.9363 83.9141C64.4107 83.9959 65.9455 83.7978 67.3765 83.4642Z" fill="#BE185D"/>
<path d="M61.5097 83.7384C61.9645 83.7945 62.4404 83.8248 62.8868 83.926C63.0173 84.8724 62.4059 87.6964 62.1539 88.7211C62.0513 88.7966 61.993 88.8357 61.8698 88.8773C61.1458 88.8505 60.4342 88.7663 59.739 88.5579C60.4148 86.9998 60.8704 85.3199 61.5097 83.7384Z" fill="#F472B6"/>
<path d="M69.4845 87.8297C69.6898 88.212 69.8803 88.6558 70.1625 88.9855C70.5358 89.6523 70.924 90.3529 71.2081 91.062C68.2102 92.2868 64.3865 92.9662 61.1671 92.3598C60.3523 92.2531 59.5441 92.1362 58.7357 91.9876C58.9198 90.839 59.3861 89.6654 59.739 88.5578C60.4342 88.7662 61.1459 88.8504 61.8699 88.8772C63.5601 89.0564 67.8554 88.5061 69.4845 87.8297Z" fill="#C7D2FE"/>
<path d="M94.8889 80.105C96.0677 80.0501 106.19 79.9444 106.742 80.1635C106.901 80.2264 106.922 80.3056 106.98 80.4692C107.186 81.0531 107.055 83.6902 106.748 84.1811C106.652 84.3341 106.552 84.316 106.386 84.3629L98.9137 84.3961C97.6075 84.4037 96.2795 84.4589 94.9756 84.393C94.6555 84.3767 94.3995 84.3734 94.1774 84.1283C93.9946 83.4231 94.2217 81.2237 94.4787 80.522C94.5693 80.2743 94.6592 80.2157 94.8889 80.105Z" fill="#C7D2FE"/>
<path d="M77.7308 80.0902C78.9706 80.0245 89.6798 79.9388 89.9946 80.2089C90.2189 80.4014 90.2663 80.7273 90.2637 81.0077C90.2576 81.6763 90.0431 83.9064 89.611 84.3107C87.9612 84.4251 78.1651 84.5586 77.2056 84.2019C77.0498 83.9726 77.0426 83.7616 77.0535 83.4921C77.0889 82.6145 77.1057 80.6898 77.7308 80.0902Z" fill="#C7D2FE"/>
<path d="M111.642 80.0857C113.087 80.0131 123.405 79.8582 123.969 80.2651C124.059 80.4617 124.109 80.6219 124.12 80.84C124.154 81.5073 123.997 83.9724 123.627 84.3994C121.197 84.509 118.717 84.4084 116.282 84.4018C114.826 84.3977 112.641 84.5849 111.275 84.286C111.196 84.1989 111.146 84.1221 111.12 84.0056C110.933 83.1654 111.16 80.7936 111.642 80.0857Z" fill="#C7D2FE"/>
<path d="M46.2462 80.0979C48.6318 79.9981 51.0402 80.0684 53.4286 80.0619C54.6601 80.0584 56.7736 79.8635 57.9022 80.1411C58.0588 80.1797 58.1815 80.219 58.2552 80.3721C58.4935 80.8679 58.2629 83.2706 58.0885 83.8525C57.9801 84.2139 57.816 84.352 57.4948 84.5156C55.2691 84.6788 53.0122 84.5176 50.7824 84.494C49.3436 84.4788 47.8202 84.6016 46.3966 84.4707C46.1073 84.4441 45.8897 84.398 45.6599 84.2111C45.2366 83.3828 45.493 81.397 45.7815 80.5299C45.8755 80.2475 45.9842 80.2111 46.2462 80.0979Z" fill="#C7D2FE"/>
<path d="M128.691 80.0813C131.748 79.9316 134.878 80.0542 137.942 80.0549C138.635 80.0553 140.938 79.8795 141.386 80.3281C141.487 80.6274 141.497 80.91 141.484 81.2249C141.463 81.7031 141.376 83.7385 141.155 84.0564C141.086 84.1568 140.976 84.2233 140.887 84.3066C139.067 84.3571 129.119 84.5384 128.099 84.1578C127.884 83.7605 128.087 81.2774 128.208 80.7289C128.283 80.3922 128.407 80.2628 128.691 80.0813Z" fill="#C7D2FE"/>
<path d="M38.7293 71.5959C39.9582 71.7575 41.2728 71.6908 42.5135 71.6995C42.2464 71.7514 41.9466 71.7387 41.7707 71.9515L39.8179 91.1799C39.6935 92.2725 39.5913 93.3672 39.5111 94.464C39.4598 95.1808 39.4803 95.9462 39.3378 96.6486C38.5375 96.0704 36.9363 95.3028 36.3777 94.6309C36.4774 94.022 36.501 93.3841 36.5544 92.7684C36.8549 88.5686 37.4083 84.408 37.8639 80.2255C38.177 77.3529 38.3699 74.4627 38.7293 71.5959Z" fill="#A5B4FC"/>
<path d="M70.2958 111.322C70.1402 114.11 69.7773 116.91 69.5328 119.694C67.9916 119.777 66.4275 119.711 64.8827 119.701L56.7224 119.645C56.8963 116.863 57.2425 114.078 57.4775 111.3C61.8664 111.857 65.9093 111.907 70.2958 111.322Z" fill="#C7D2FE"/>
<path d="M61.1671 92.3596C64.3865 92.966 68.2102 92.2866 71.2081 91.0618C71.5939 91.6313 71.8843 92.2815 72.2847 92.8301C72.5361 93.5532 72.9635 94.234 73.3294 94.9051C73.9319 95.6468 74.6313 97.0221 75.0011 97.9158C74.0781 98.374 73.1529 98.8665 72.1902 99.2359C68.7749 100.547 64.7875 100.833 61.1706 100.44L60.7368 100.449C59.19 100.274 57.7068 99.9341 56.1971 99.5708L56.1995 99.4658C56.63 98.4912 56.9176 97.4312 57.2473 96.4179C57.8026 95.0389 58.4147 93.4347 58.7357 91.9874C59.5441 92.136 60.3523 92.2528 61.1671 92.3596Z" fill="#BE185D"/>
<path d="M58.7357 91.9875C59.5441 92.1362 60.3522 92.253 61.1671 92.3597C61.0866 93.1694 60.9138 96.3956 60.6349 96.8599L60.4903 96.9012C59.4555 96.8061 58.2133 96.7939 57.2473 96.4181C57.8025 95.0391 58.4147 93.4349 58.7357 91.9875Z" fill="#F472B6"/>
<path d="M73.3294 94.9054C73.9319 95.6471 74.6313 97.0225 75.0011 97.9161C74.0781 98.3743 73.1529 98.8669 72.1902 99.2363C68.7749 100.547 64.7875 100.833 61.1706 100.44L60.7368 100.449C59.19 100.275 57.7068 99.9344 56.1971 99.5711L56.1995 99.4661C56.63 98.4916 56.9176 97.4315 57.2473 96.4182C58.2133 96.7941 59.4555 96.8063 60.4903 96.9014C60.9439 96.997 61.4076 96.9477 61.8566 97.0385C65.7319 97.073 69.776 96.5113 73.3294 94.9054Z" fill="#C7D2FE"/>
<path d="M44.1557 88.8791C46.7944 88.8398 49.4332 88.8255 52.0723 88.8361C53.8574 88.8346 55.6574 88.7888 57.4403 88.8761C57.1254 90.7911 56.8856 92.7154 56.7209 94.6489C56.5875 96.2583 56.5515 97.8851 56.1994 99.466L56.197 99.5711C55.8347 100.849 55.308 102.066 54.9069 103.33C53.9272 103.194 52.8925 103.226 51.9041 103.227C49.5219 103.228 47.0323 103.393 44.6615 103.2C46.1125 101.654 51.8703 95.8821 52.2213 94.0912C52.2803 93.7894 52.2528 93.5869 52.076 93.327C51.8521 93.1699 51.6366 93.0899 51.3625 93.0766C51.0708 93.0624 50.868 93.1473 50.6162 93.2882C49.5885 93.8625 48.6727 94.6897 47.739 95.403C46.1392 96.6255 44.5205 97.8186 42.9488 99.078C43.3695 95.6888 43.8775 92.2825 44.1557 88.8791Z" fill="#C7D2FE"/>
<path d="M76.6473 89.4156C79.3608 89.4354 82.0744 89.4342 84.7879 89.4121C86.1292 89.4084 87.56 89.3074 88.8886 89.4712L88.9503 89.6441C88.9632 89.8708 88.9054 90.159 89.1133 90.2986C89.1496 90.3229 89.196 90.3268 89.2373 90.3408C89.1771 91.8723 88.9462 93.4321 88.7876 94.9586C88.6634 96.1557 88.6128 97.4281 88.3767 98.6051C88.2683 99.6332 88.2591 102.067 87.867 102.898C87.7321 102.944 87.7031 102.955 87.5567 102.931C84.3646 103.032 81.1632 102.881 77.9724 103.047C77.7895 102.879 77.7747 102.835 77.6999 102.596C77.4742 102.414 77.2776 101.981 77.1114 101.731C76.6433 100.748 76.0669 99.798 75.5761 98.8213C75.6453 97.2054 75.9237 95.6075 76.1419 94.0069C76.3383 92.4795 76.5068 90.9491 76.6473 89.4156Z" fill="#FEFEFE"/>
<path d="M88.9503 89.6439C88.9632 89.8706 88.9054 90.1588 89.1133 90.2983C89.1496 90.3227 89.196 90.3266 89.2373 90.3406C89.1771 91.8721 88.9462 93.4319 88.7876 94.9584C88.6634 96.1555 88.6128 97.4278 88.3767 98.6049C88.2683 99.6329 88.2591 102.067 87.867 102.898C87.7321 102.943 87.7031 102.955 87.5567 102.93C84.3646 103.032 81.1632 102.881 77.9724 103.047C77.7895 102.879 77.7747 102.835 77.6999 102.596L83.8684 102.607C85.1224 102.528 86.4137 102.578 87.6725 102.565C87.7902 101.147 87.8508 99.7081 88.0561 98.2995C88.0588 97.3171 88.2224 96.2866 88.3206 95.3071C88.4956 93.4155 88.7055 91.5278 88.9503 89.6439Z" fill="#BE185D"/>
<path d="M79.0462 104.994L87.8059 104.981C87.3494 109.936 86.5743 114.905 86.27 119.869L73.4415 119.834C73.6232 116.644 74.1955 113.477 74.4042 110.285C74.6992 110.204 74.9889 110.108 75.2733 109.996C76.3306 109.575 79.4618 108.213 79.8446 107.039C80.0322 106.464 79.3067 105.64 79.0865 105.096L79.0462 104.994Z" fill="#C7D2FE"/>
<path d="M97.8892 88.8789C100.677 88.8593 103.514 88.7716 106.296 88.8992C106.33 91.4874 105.938 94.1677 105.69 96.7453C105.485 98.8661 105.392 101.079 105.013 103.174C103.677 103.199 102.338 103.183 101.002 103.184L92.0948 103.143C92.5153 98.3894 93.0154 93.6445 93.595 88.9081C95.0233 88.863 96.46 88.8864 97.8892 88.8789Z" fill="#C7D2FE"/>
<path d="M56.5059 121.784L69.3067 121.786C68.8887 124.219 68.727 126.689 68.4651 129.142C68.2074 131.555 67.8439 133.98 67.713 136.403C63.4438 136.42 59.1747 136.415 54.9056 136.386C55.1288 134.632 55.2484 132.859 55.435 131.1L56.5059 121.784Z" fill="#C7D2FE"/>
<path d="M129.089 88.8749C132.886 88.7798 136.788 88.7516 140.584 88.8971C140.631 90.6104 140.448 92.3571 140.293 94.0629C140.018 97.0969 139.645 100.12 139.355 103.152L137.876 103.14L126.375 103.135L127.605 88.9209L129.089 88.8749Z" fill="#C7D2FE"/>
<path d="M127.032 122.105C128.895 122.058 130.767 122.095 132.631 122.087C134.314 122.079 136.019 122.012 137.7 122.108C137.476 126.929 136.854 131.743 136.5 136.554L134.277 136.568L123.601 136.545C123.617 134.919 123.802 133.277 123.949 131.659C124.236 128.503 124.581 125.329 124.722 122.163L127.032 122.105Z" fill="#C7D2FE"/>
<path d="M110.537 88.8352C114.851 88.8546 119.19 88.7311 123.499 88.8814C123.515 90.0695 122.463 102.794 122.298 103.188C117.995 103.405 113.597 103.227 109.283 103.212C109.34 101.299 109.565 99.3727 109.743 97.4672L110.537 88.8352Z" fill="#C7D2FE"/>
<path d="M73.1962 121.753C77.4943 121.812 81.796 121.789 86.0948 121.797C85.3655 126.629 85.0926 131.538 84.5148 136.39C80.2616 136.546 75.9543 136.42 71.6969 136.403C71.9891 131.516 72.6998 126.624 73.1962 121.753Z" fill="#C7D2FE"/>
<path d="M40.1938 121.787C44.5003 121.97 48.8697 121.802 53.1818 121.782C53.0461 123.974 52.7302 126.187 52.4856 128.37C52.1851 131.053 51.9339 133.748 51.5868 136.426L38.6588 136.449C38.9265 133.718 39.1519 130.974 39.4544 128.247C39.6933 126.094 40.0254 123.946 40.1938 121.787Z" fill="#C7D2FE"/>
<path d="M90.0523 121.858C94.4748 121.906 98.8973 121.92 103.32 121.899L102.395 131.346C102.231 133.03 102.133 134.759 101.869 136.429C97.4511 136.383 93.0183 136.323 88.6021 136.452C88.6567 134.992 88.8714 133.519 89.0337 132.067C89.4131 128.673 89.8734 125.27 90.0523 121.858Z" fill="#C7D2FE"/>
<path d="M107.369 122.146L120.634 122.162C120.677 123.456 120.442 124.814 120.333 126.107C120.164 128.136 120.05 130.168 119.886 132.197C119.872 132.772 119.83 133.363 119.724 133.929C119.718 134.795 119.576 135.694 119.517 136.56C115.034 136.493 110.52 136.682 106.044 136.48C106.046 135.495 106.147 134.498 106.288 133.523C106.368 132.254 106.546 130.984 106.666 129.717L107.369 122.146Z" fill="#BE185D"/>
<path d="M107.645 122.502C111.835 122.442 116.096 122.284 120.281 122.525C120.303 123.696 120.127 124.904 120.023 126.072C119.861 127.864 119.716 129.658 119.587 131.453C119.541 132.04 119.445 132.663 119.462 133.249C119.328 134.223 119.227 135.204 119.111 136.18L106.36 136.179C106.382 135.206 106.52 134.215 106.604 133.245L107.645 122.502Z" fill="#FEFEFE"/>
<path d="M91.9474 104.907C96.239 105.045 100.567 104.929 104.865 104.983C104.116 109.926 104.117 114.997 103.391 119.948L90.3346 119.931C90.4752 117.612 90.857 115.275 91.1319 112.969C91.4361 110.285 91.7079 107.598 91.9474 104.907Z" fill="#C7D2FE"/>
<path d="M126.198 105.018C130.504 104.981 134.81 104.972 139.116 104.992C139.102 106.917 138.867 108.88 138.705 110.799C138.445 113.876 138.169 116.951 137.877 120.025C134.978 120.04 132.081 120.028 129.183 119.988C127.778 119.966 126.336 120.008 124.939 119.857C125.117 116.504 125.507 113.158 125.806 109.813C125.947 108.235 125.91 106.572 126.198 105.018Z" fill="#C7D2FE"/>
<path d="M110.963 104.941C114.671 104.823 118.42 104.855 122.13 104.911C122.101 106.123 121.964 107.346 121.872 108.556C121.583 112.369 121.139 116.189 120.972 120.008L118.746 120.022L107.593 119.964C107.668 117.403 108.068 114.83 108.327 112.282C108.575 109.846 108.697 107.376 109.044 104.954L110.963 104.941Z" fill="#C7D2FE"/>
<path d="M43.0416 104.688C43.6187 104.243 44.1355 103.704 44.6615 103.2C47.0323 103.393 49.5218 103.228 51.9041 103.227C52.8925 103.227 53.9272 103.194 54.9068 103.33L54.7008 103.9C54.6126 104.194 54.5393 104.508 54.4263 104.793C54.2943 105.322 54.1262 105.834 53.955 106.351C53.6434 107.235 52.8613 108.792 53.253 109.71C53.4596 110.195 54.0165 110.374 54.4679 110.555C53.8718 113.511 53.8282 116.629 53.4387 119.621C49.1303 119.819 44.751 119.664 40.4348 119.658C41.1699 114.807 41.4797 109.871 42.1284 105.005L43.0416 104.688Z" fill="#C7D2FE"/>
<path d="M43.0416 104.688C43.6187 104.243 44.1356 103.704 44.6615 103.2C47.0323 103.393 49.5219 103.228 51.9041 103.227C52.8925 103.227 53.9272 103.194 54.9069 103.33L54.7008 103.9C54.6126 104.194 54.5393 104.508 54.4263 104.793C50.669 104.839 46.7842 104.988 43.0416 104.688Z" fill="#FEFEFE"/>
<path d="M75.0011 97.916L75.146 98.1158C75.2837 98.3544 75.4271 98.5895 75.5761 98.8211C76.067 99.7979 76.6433 100.748 77.1114 101.731C77.2776 101.981 77.4742 102.414 77.6999 102.596C77.7747 102.835 77.7895 102.879 77.9724 103.047C78.2816 103.612 78.6434 104.186 78.8982 104.777L79.0462 104.994L79.0865 105.096C79.3067 105.64 80.0322 106.464 79.8446 107.039C79.4618 108.213 76.3306 109.576 75.2733 109.996C74.9889 110.108 74.6992 110.204 74.4042 110.285C73.0491 110.72 71.6912 111.049 70.2958 111.322C65.9093 111.907 61.8663 111.857 57.4774 111.3C56.4872 111.008 55.4594 110.863 54.4679 110.555C54.0165 110.374 53.4596 110.195 53.253 109.71C52.8613 108.792 53.6434 107.235 53.9551 106.351C54.1262 105.834 54.2944 105.321 54.4263 104.793C54.5393 104.508 54.6126 104.194 54.7008 103.9L54.9069 103.33C55.308 102.066 55.8347 100.849 56.197 99.571C57.7067 99.9343 59.19 100.275 60.7367 100.449L61.1706 100.44C64.7875 100.833 68.7748 100.547 72.1901 99.2361C73.1528 98.8667 74.0781 98.3742 75.0011 97.916Z" fill="#C7D2FE"/>
<path d="M56.197 99.5709C57.7067 99.9342 59.19 100.274 60.7367 100.449C60.7306 101.638 60.8944 103.621 60.6278 104.737L60.3923 104.841C58.5359 104.737 56.4346 104.583 54.7008 103.9L54.9069 103.33C55.308 102.066 55.8347 100.849 56.197 99.5709Z" fill="#F472B6"/>
<path d="M75.0011 97.916L75.146 98.1158C75.2837 98.3544 75.4271 98.5895 75.5761 98.8211C76.0669 99.7979 76.6433 100.748 77.1114 101.731C72.6304 103.978 67.759 104.917 62.771 104.899C62.0781 104.896 61.0358 105.022 60.3923 104.841L60.6278 104.737C60.8944 103.621 60.7306 101.638 60.7367 100.449L61.1706 100.44C64.7874 100.833 68.7748 100.547 72.1901 99.2361C73.1528 98.8667 74.078 98.3742 75.0011 97.916Z" fill="#BE185D"/>
<path d="M78.8982 104.777L79.0462 104.994L79.0865 105.096C79.3067 105.641 80.0322 106.464 79.8446 107.039C79.4618 108.213 76.3306 109.576 75.2733 109.996C74.9889 110.108 74.6992 110.205 74.4042 110.285C73.0491 110.721 71.6912 111.049 70.2958 111.322C65.9093 111.907 61.8663 111.858 57.4774 111.3C56.4872 111.008 55.4594 110.863 54.4679 110.555C54.0165 110.374 53.4596 110.195 53.253 109.71C52.8613 108.792 53.6434 107.235 53.9551 106.351C54.4374 106.617 54.9768 106.82 55.4965 106.998C60.9845 108.881 68.8282 108.354 74.3406 106.654C75.9268 106.164 77.4094 105.5 78.8982 104.777Z" fill="#F472B6"/>
<path d="M31.3956 94.5544C30.3618 94.5544 29.7957 93.8775 29.6419 93.5391C27.8697 93.5391 24.5346 95.3236 23.0886 96.2158C18.6581 98.2096 17.7967 102.708 17.9197 104.708C18.5104 107.514 21.981 110.677 23.6424 111.907C23.1255 111.095 23.9808 109.107 24.4731 108.215C24.2515 107.92 23.6424 105.815 23.3655 104.8C22.9963 103.692 24.9346 102.062 25.9499 101.385C25.3591 104.117 25.273 110.215 25.3038 112.923C26.4114 113.292 34.5031 113.077 38.4104 112.923C38.632 112.775 38.0105 106.154 37.672 102.862C38.0412 103.6 39.5488 104.4 40.2565 104.708C41.5856 105.225 42.4717 104.985 42.7486 104.8C43.4131 104.726 47.0252 100.769 48.7481 98.8003C46.6806 98.6526 46.4714 97.0158 46.6252 96.2158L42.8409 99.1695C41.9548 98.948 40.6257 97.785 40.0719 97.2312C39.7765 96.9358 37.4874 95.3236 36.3798 94.5544C36.0845 94.3329 34.1031 93.9083 33.1493 93.7237C32.7063 94.3144 31.7956 94.5236 31.3956 94.5544Z" fill="#F472B6"/>
</svg>
